<svg xmlns="http://www.w3.org/2000/svg" xmlns:xlink="http://www.w3.org/1999/xlink" xmlns:lucid="lucid" width="2312.44" height="1349.22"><g transform="translate(0 0)" lucid:page-tab-id="0_0"><path d="M0 0h2312.44v1349.22H0z" fill="#fff"/><path d="M453.15 78.58c0-4.42 3.58-8 8-8h836.75c4.4 0 8 3.58 8 8v25.15c0 4.42-3.6 8-8 8H461.15c-4.42 0-8-3.58-8-8z" stroke="#000" stroke-opacity="0" stroke-width="2" fill="#fff" fill-opacity="0"/><use xlink:href="#a" transform="matrix(1,0,0,1,457.14655278534315,74.57761197839864) translate(270.151975308642 23.657777777777778)"/><path d="M709.44 110.4h347.9M709.47 110.4h-1.03M1057.3 110.4h1.03" stroke="#a9afb8" stroke-width="2" fill="none"/><path d="M453.15 119.73c0-4.42 3.58-8 8-8h837.7c4.42 0 8 3.58 8 8v2.85c0 4.42-3.58 8-8 8h-837.7c-4.42 0-8-3.58-8-8z" stroke="#000" stroke-opacity="0" stroke-width="2" fill="#fff" fill-opacity="0"/><use xlink:href="#b" transform="matrix(1,0,0,1,457.1465527853436,115.73283593529744) translate(327.54266460905353 14.917037037037037)"/><use xlink:href="#c" transform="matrix(1,0,0,1,457.1465527853436,115.73283593529744) translate(358.09276748971195 14.917037037037037)"/><use xlink:href="#d" transform="matrix(1,0,0,1,457.1465527853436,115.73283593529744) translate(430.2402983539095 14.917037037037037)"/><use xlink:href="#e" transform="matrix(1,0,0,1,457.1465527853436,115.73283593529744) translate(442.6897839506173 14.917037037037037)"/><use xlink:href="#f" transform="matrix(1,0,0,1,457.1465527853436,115.73283593529744) translate(474.0896810699589 14.917037037037037)"/><use xlink:href="#g" transform="matrix(1,0,0,1,457.1465527853436,115.73283593529744) translate(491.08556584362145 14.917037037037037)"/><path d="M709.52 188c0-4.42 3.58-8 8-8h324c4.42 0 8 3.58 8 8v154c0 4.42-3.58 8-8 8h-324c-4.42 0-8-3.58-8-8z" stroke="#333" fill="#666"/><use xlink:href="#h" transform="matrix(1,0,0,1,714.5213070194006,185) translate(81.36018518518519 69.24444444444444)"/><use xlink:href="#i" transform="matrix(1,0,0,1,714.5213070194006,185) translate(133.56944444444443 69.24444444444444)"/><use xlink:href="#j" transform="matrix(1,0,0,1,714.5213070194006,185) translate(106.64320987654322 101.5111111111111)"/><path d="M959.58 276.73c-5.94 0-10.8-3.9-12.06-9h-10.98c-1.62 0-2.88-1.2-2.88-2.73s1.26-2.72 2.88-2.72h10.98c1.26-5.1 6.12-9 12.06-9 6.84 0 12.42 5.26 12.42 11.72 0 6.46-5.58 11.73-12.42 11.73zm0-18.02c-3.78 0-6.66 2.73-6.66 6.3s2.88 6.3 6.66 6.3c3.6 0 6.66-2.73 6.66-6.3s-3.06-6.3-6.66-6.3zM936.9 224.9c-2.34 0-4.68-.5-6.66-1.7l-7.56 7.3c-.54.52-1.44.86-2.16.86-.72 0-1.44-.34-1.98-.85-1.08-1.03-1.08-2.73 0-3.92l7.74-7.14c-3.06-4.6-2.34-10.54 1.8-14.62 2.34-2.2 5.4-3.4 8.82-3.4 3.24 0 6.3 1.2 8.82 3.4 2.34 2.38 3.6 5.27 3.6 8.33 0 3.23-1.26 6.12-3.6 8.33-2.52 2.2-5.58 3.4-8.82 3.4zm4.68-16.15c-1.26-1.2-2.88-1.87-4.68-1.87-1.8 0-3.6.68-4.86 1.87-2.52 2.55-2.52 6.46 0 9 1.26 1.2 3.06 1.88 4.86 1.88 1.8 0 3.42-.67 4.68-1.86 1.26-1.2 1.98-2.9 1.98-4.6 0-1.7-.72-3.22-1.98-4.4zM912.6 297.3l-.54.5c-7.92 6.64-18.54 10.55-30.06 10.55s-22.14-3.9-30.06-10.54l-.54-.5c-9.36-8-15.3-19.55-15.3-32.3 0-12.75 5.94-24.3 15.3-32.3l.54-.5c7.92-6.64 18.54-10.55 30.06-10.55s22.14 3.9 30.06 10.54l.54.5c9.36 8 15.3 19.55 15.3 32.3 0 12.75-5.94 24.3-15.3 32.3zm-44.82 3.23c-1.8-2.2-3.42-4.93-4.86-8-1.62.86-3.24 1.88-4.86 2.9 3.06 2.2 6.3 3.9 9.72 5.1zm-14.22-8.67c2.34-1.7 4.86-3.23 7.38-4.42-1.8-5.78-3.06-12.58-3.24-19.72h-15.84c.72 9.35 5.04 17.85 11.7 24.14zm-11.7-29.58h15.84c.18-7.14 1.44-13.94 3.24-19.72-2.52-1.2-5.04-2.72-7.38-4.42-6.66 6.3-10.98 14.8-11.7 24.14zm16.2-27.7c1.62 1 3.24 2.03 4.86 2.88 1.44-3.06 3.06-5.78 4.86-8-3.42 1.2-6.66 2.9-9.72 5.1zm21.06-6.98c-3.6 1.2-7.02 4.6-9.72 9.86-.36.68-.72 1.36-1.08 2.2 3.42 1.2 7.02 1.88 10.8 2.22V227.6zm0 19.72c-4.32-.34-8.64-1.2-12.78-2.55-1.8 5.27-2.7 11.22-2.88 17.5h15.66v-14.95zm0 20.4h-15.66c.18 6.3 1.08 12.24 2.88 17.5 4.14-1.35 8.46-2.2 12.78-2.54v-14.96zm0 20.4c-3.78.34-7.38 1.02-10.8 2.2.36.86.72 1.54 1.08 2.22 2.7 5.27 6.12 8.67 9.72 9.86v-14.28zm43.02-20.4H906.3c-.18 7.14-1.44 13.94-3.24 19.72 2.52 1.2 5.04 2.72 7.38 4.42 6.66-6.3 10.98-14.8 11.7-24.14zm-16.2 27.7c-1.62-1-3.24-2.03-4.86-2.88-1.44 3.06-3.06 5.78-4.86 8 3.42-1.2 6.66-2.9 9.72-5.1zm-21.06 6.98c3.6-1.2 7.02-4.6 9.72-9.86.36-.68.72-1.36 1.08-2.2-3.42-1.2-7.02-1.88-10.8-2.22v14.28zm0-19.72c4.32.34 8.64 1.2 12.78 2.55 1.8-5.27 2.7-11.22 2.88-17.5h-15.66v14.95zm0-20.4h15.66c-.18-6.3-1.08-12.24-2.88-17.5-4.14 1.35-8.46 2.2-12.78 2.54v14.96zm9.72-24.82c-2.7-5.27-6.12-8.67-9.72-9.86v14.28c3.78-.34 7.38-1.02 10.8-2.2-.36-.86-.72-1.54-1.08-2.22zm1.62-8c1.8 2.22 3.42 4.94 4.86 8 1.62-.85 3.24-1.87 4.86-2.9-3.06-2.2-6.3-3.9-9.72-5.1zm14.22 8.68c-2.34 1.7-4.86 3.23-7.38 4.42 1.8 5.78 3.06 12.58 3.24 19.72h15.84c-.72-9.35-5.04-17.85-11.7-24.14zm-25.56-35.02v10.37c0 1.52-1.26 2.7-2.88 2.7-1.62 0-2.88-1.18-2.88-2.7V203.1c-5.4-1.2-9.54-5.78-9.54-11.4 0-6.45 5.58-11.72 12.42-11.72s12.42 5.27 12.42 11.73c0 5.6-4.14 10.2-9.54 11.4zM882 185.44c-3.78 0-6.66 2.9-6.66 6.3 0 3.56 2.88 6.28 6.66 6.28 3.78 0 6.66-2.72 6.66-6.3 0-3.4-2.88-6.28-6.66-6.28zm-38.52 45.9c-.72 0-1.62-.34-2.16-.85l-7.56-7.32c-1.98 1.2-4.32 1.7-6.66 1.7-3.24 0-6.3-1.2-8.82-3.4-2.34-2.2-3.6-5.1-3.6-8.33 0-3.06 1.26-5.95 3.6-8.33 2.52-2.2 5.58-3.4 8.82-3.4 3.42 0 6.48 1.2 8.82 3.4 4.14 4.08 4.86 10.03 1.8 14.62l7.74 7.14c1.08 1.2 1.08 2.9 0 3.9-.54.52-1.26.86-1.98.86zm-11.52-22.6c-1.26-1.2-3.06-1.88-4.86-1.88-1.8 0-3.42.68-4.68 1.87-1.26 1.2-1.98 2.72-1.98 4.42 0 1.7.72 3.4 1.98 4.6 1.26 1.18 2.88 1.86 4.68 1.86 1.8 0 3.6-.67 4.86-1.86 2.52-2.55 2.52-6.46 0-9zm-4.5 53.54c1.62 0 2.88 1.2 2.88 2.72 0 1.53-1.26 2.72-2.88 2.72h-10.98c-1.26 5.1-6.12 9-12.06 9-6.84 0-12.42-5.26-12.42-11.72 0-6.46 5.58-11.73 12.42-11.73 5.94 0 10.8 3.9 12.06 9h10.98zm-23.04-3.57c-3.6 0-6.66 2.73-6.66 6.3s3.06 6.3 6.66 6.3c3.78 0 6.66-2.73 6.66-6.3s-2.88-6.3-6.66-6.3zm22.68 46.42c2.34 0 4.68.5 6.66 1.7l7.56-7.3c1.26-1.03 3.06-1.03 4.14 0 1.08 1 1.08 2.7 0 3.9l-7.74 7.14c3.06 4.6 2.34 10.54-1.8 14.62-2.34 2.2-5.4 3.4-8.82 3.4-3.24 0-6.3-1.2-8.82-3.4-2.34-2.38-3.6-5.27-3.6-8.33 0-3.23 1.26-6.12 3.6-8.33 2.52-2.2 5.58-3.4 8.82-3.4zm-4.68 16.15c1.26 1.2 2.88 1.87 4.68 1.87 1.8 0 3.6-.68 4.86-1.87 2.52-2.55 2.52-6.46 0-9-1.26-1.2-3.06-1.88-4.86-1.88-1.8 0-3.42.67-4.68 1.86-1.26 1.2-1.98 2.9-1.98 4.6 0 1.7.72 3.22 1.98 4.4zm56.7 5.6v-10.36c0-1.52 1.26-2.7 2.88-2.7 1.62 0 2.88 1.18 2.88 2.7v10.38c5.4 1.2 9.54 5.78 9.54 11.4 0 6.45-5.58 11.72-12.42 11.72s-12.42-5.27-12.42-11.73c0-5.6 4.14-10.2 9.54-11.4zm2.88 17.7c3.78 0 6.66-2.9 6.66-6.3 0-3.57-2.88-6.3-6.66-6.3-3.78 0-6.66 2.73-6.66 6.3 0 3.4 2.88 6.3 6.66 6.3zm40.68-45.06l7.56 7.32c1.98-1.2 4.32-1.7 6.66-1.7 3.24 0 6.3 1.2 8.82 3.4 2.34 2.2 3.6 5.1 3.6 8.33 0 3.06-1.26 5.95-3.6 8.33-2.52 2.2-5.58 3.4-8.82 3.4-3.42 0-6.48-1.2-8.82-3.4-4.14-4.08-4.86-10.03-1.8-14.62l-7.74-7.14c-1.08-1.2-1.08-2.9 0-3.9 1.08-1.03 2.88-1.03 4.14 0zm9.36 21.77c1.26 1.2 3.06 1.87 4.86 1.87 1.8 0 3.42-.68 4.68-1.87 1.26-1.2 1.98-2.72 1.98-4.42 0-1.7-.72-3.4-1.98-4.6-1.26-1.18-2.88-1.86-4.68-1.86-1.8 0-3.6.67-4.86 1.86-2.52 2.55-2.52 6.46 0 9z" stroke="#000" stroke-opacity="0" fill="#fff" opacity=".19"/><path d="M874.4 404.5c3.64-2.48 9.56-2.48 13.2 0l96.8 66c3.64 2.48 3.64 6.52 0 9l-96.8 66c-3.64 2.48-9.56 2.48-13.2 0l-96.8-66c-3.64-2.48-3.64-6.52 0-9z" stroke="#000" stroke-opacity="0" fill="#3aa6dd"/><use xlink:href="#k" transform="matrix(1,0,0,1,776,405) translate(37.697839506172855 74.48888888888888)"/><use xlink:href="#l" transform="matrix(1,0,0,1,776,405) translate(127.41327160493827 74.48888888888888)"/><path d="M882 350.5v35.9" stroke="#333" fill="none"/><path d="M882 350l.5-.07v.58h-1v-.57z" fill="#333"/><path d="M882 401.17l-4.64-14.26h9.28z" stroke="#333" fill="#333"/><path d="M416.54 534.5c3.65-2.48 9.57-2.48 13.22 0l96.78 66c3.65 2.48 3.65 6.52 0 9l-96.78 66c-3.65 2.48-9.57 2.48-13.22 0l-96.78-66c-3.65-2.48-3.65-6.52 0-9z" stroke="#000" stroke-opacity="0" fill="#7ab648"/><use xlink:href="#m" transform="matrix(1,0,0,1,318.1465527853436,535) translate(60.14228395061728 74.48888888888888)"/><path d="M555.52 475.5H435.18l-3.02.4-2.75 1.14-2.38 1.83-1.84 2.4-1.14 2.75-.4 3v29.33h-1v-29.38l.43-3.2 1.24-3 2-2.6 2.6-2 3-1.25 3.2-.42h120.42zm218.95 0h-189.6v-1h189.6z" fill="#333"/><path d="M774.9 475.5h-.44v-1h.58zM423.15 531.12l-4.64-14.27h9.28z" fill="#333"/><path d="M423.15 532.73l-5.33-16.38h10.65zm-3.95-15.38l3.95 12.15 3.94-12.15z" fill="#333"/><use xlink:href="#n" transform="matrix(1,0,0,1,555.5180641475945,464.2) translate(0.005000000000000782 14.4)"/><path d="M143.4 739.5c3.64-2.48 9.56-2.48 13.2 0l96.8 66c3.64 2.48 3.64 6.52 0 9l-96.8 66c-3.64 2.48-9.56 2.48-13.2 0l-96.8-66c-3.64-2.48-3.64-6.52 0-9z" stroke="#000" stroke-opacity="0" fill="#7ab648"/><use xlink:href="#o" transform="matrix(1,0,0,1,45,740) translate(56.46388888888889 74.48888888888888)"/><path d="M152.52 610.63l-.48.63-1.14 2.76-.4 3v104.33h-1V616.97l.42-3.2 1.24-3 1.36-1.78zm164.1-5.13H181.87v-1h134.75z" fill="#333"/><path d="M317.06 605.5h-.45v-1h.58zM150 736.12l-4.64-14.27h9.28z" fill="#333"/><path d="M150 737.73l-5.32-16.38h10.64zm-3.95-15.38L150 734.5l3.95-12.15z" fill="#333"/><use xlink:href="#n" transform="matrix(1,0,0,1,152.51806414759446,594.2) translate(0.005000000000000782 14.4)"/><path d="M659.56 688c0-4.42 3.58-8 8-8h194.47c4.42 0 8 3.58 8 8v104c0 4.42-3.58 8-8 8H667.56c-4.42 0-8-3.58-8-8z" stroke="#000" stroke-opacity="0" fill="#7ab648"/><use xlink:href="#p" transform="matrix(1,0,0,1,664.5557631987956,685) translate(28.86481481481485 59.48888888888889)"/><use xlink:href="#q" transform="matrix(1,0,0,1,664.5557631987956,685) translate(88.65432098765433 59.48888888888889)"/><use xlink:href="#r" transform="matrix(1,0,0,1,664.5557631987956,685) translate(112.28333333333333 59.48888888888889)"/><path d="M756.04 604.92l3 1.24 2.6 2 2 2.6 1.23 3 .43 3.2v46.66h-1v-46.6l-.4-3-1.14-2.76-1.84-2.4-2.4-1.82-2.74-1.14-3.02-.4h-56.8v-1h56.87zm-226.37.58v-1H673v1z" fill="#333"/><path d="M529.7 605.5h-.6l.13-1h.46zM764.8 678.38l-4.64-14.26h9.27z" fill="#333"/><path d="M764.8 680l-5.33-16.38h10.65zm-3.95-15.38l3.95 12.14 3.94-12.14z" fill="#333"/><use xlink:href="#s" transform="matrix(1,0,0,1,673.0086667347597,594.2) translate(0.005000000000000782 14.4)"/><path d="M659.56 888c0-4.42 3.58-8 8-8h194.47c4.42 0 8 3.58 8 8v104c0 4.42-3.58 8-8 8H667.56c-4.42 0-8-3.58-8-8z" stroke="#000" stroke-opacity="0" fill="#7ab648"/><use xlink:href="#t" transform="matrix(1,0,0,1,664.5557631987956,885) translate(10.192283950617323 59.48888888888889)"/><use xlink:href="#u" transform="matrix(1,0,0,1,664.5557631987956,885) translate(83.6354938271605 59.48888888888889)"/><use xlink:href="#v" transform="matrix(1,0,0,1,664.5557631987956,885) translate(127.27746913580246 59.48888888888889)"/><use xlink:href="#w" transform="matrix(1,0,0,1,664.5557631987956,885) translate(153.4003086419753 59.48888888888889)"/><path d="M764.8 800.5v63.12" stroke="#333" fill="none"/><path d="M765.3 800.5h-1v-.5h1z" fill="#333"/><path d="M764.8 878.38l-4.64-14.26h9.27z" stroke="#333" fill="#333"/><path d="M588 1130c17.67 0 32 17.9 32 40s-14.33 40-32 40h-96c-17.67 0-32-17.9-32-40s14.33-40 32-40z" stroke="#000" stroke-opacity="0" fill="#7ab648"/><use xlink:href="#x" transform="matrix(1,0,0,1,465,1135) translate(27.08734567901236 26.022222222222222)"/><use xlink:href="#y" transform="matrix(1,0,0,1,465,1135) translate(33.259567901234576 52.95555555555555)"/><path d="M764.8 1000.5v57.5c0 6.63-5.38 12-12 12H552c-6.63 0-12 5.37-12 12v31.62" stroke="#333" fill="none"/><path d="M765.3 1000.5h-1v-.5h1z" fill="#333"/><path d="M540 1128.38l-4.64-14.26h9.28z" stroke="#333" fill="#333"/><path d="M44.76 1018c0-4.42 3.58-8 8-8h194.48c4.42 0 8 3.58 8 8v104c0 4.42-3.58 8-8 8H52.76c-4.42 0-8-3.58-8-8z" stroke="#000" stroke-opacity="0" fill="#7ab648"/><use xlink:href="#t" transform="matrix(1,0,0,1,49.760653509700205,1015) translate(45.074691358024715 59.48888888888889)"/><use xlink:href="#z" transform="matrix(1,0,0,1,49.760653509700205,1015) translate(118.51790123456789 59.48888888888889)"/><path d="M150.5 993.62h-1v-36.7h1zm0-58.3h-1v-52.55h1z" fill="#333"/><path d="M150.5 882.3v.48h-1v-.54zM150 1008.38l-4.64-14.26h9.28z" fill="#333"/><path d="M150 1010l-5.32-16.38h10.64zm-3.95-15.38l3.95 12.14 3.95-12.14z" fill="#333"/><use xlink:href="#s" transform="matrix(1,0,0,1,138.525,935.332623252463) translate(0.005000000000000782 14.4)"/><path d="M1000 605.55c0-4.4 3.58-8 8-8h194.48c4.42 0 8 3.6 8 8v104c0 4.42-3.58 8-8 8H1008c-4.42 0-8-3.58-8-8z" stroke="#000" stroke-opacity="0" fill="#ef8d22"/><use xlink:href="#A" transform="matrix(1,0,0,1,1005,602.5533113513936) translate(2.773148148148181 59.48888888888889)"/><use xlink:href="#B" transform="matrix(1,0,0,1,1005,602.5533113513936) translate(92.48858024691359 59.48888888888889)"/><path d="M1000 808c0-4.42 3.58-8 8-8h194.48c4.42 0 8 3.58 8 8v104c0 4.42-3.58 8-8 8H1008c-4.42 0-8-3.58-8-8z" stroke="#000" stroke-opacity="0" fill="#ef8d22"/><use xlink:href="#t" transform="matrix(1,0,0,1,1005,805) translate(45.074691358024715 59.48888888888889)"/><use xlink:href="#C" transform="matrix(1,0,0,1,1005,805) translate(118.51790123456789 59.48888888888889)"/><path d="M1110.08 486.97v94.2h-1v-94.14l-.16-1.23h1zm-11.98-12.4v1l-.55-.07H987.53v-1h110.08z" fill="#333"/><path d="M987.54 475.5h-.58l.13-1h.44zM1109.58 595.94l-4.64-14.27h9.27z" fill="#333"/><path d="M1109.58 597.55l-5.32-16.38h10.64zm-3.95-15.38l3.95 12.15 3.95-12.15z" fill="#333"/><use xlink:href="#s" transform="matrix(1,0,0,1,1098.1039823464744,464.2) translate(0.005000000000000782 14.4)"/><path d="M1105.24 718.05v65.57" stroke="#333" fill="none"/><path d="M1105.74 718.07h-1v-.52h1z" fill="#333"/><path d="M1105.24 798.38l-4.64-14.26h9.27z" stroke="#333" fill="#333"/><path d="M1288 1002.45c17.67 0 32 17.9 32 40s-14.33 40-32 40h-96c-17.67 0-32-17.9-32-40s14.33-40 32-40z" stroke="#000" stroke-opacity="0" fill="#ef8d22"/><use xlink:href="#D" transform="matrix(1,0,0,1,1165,1007.4466886486064) translate(6.575617283950635 26.022222222222222)"/><use xlink:href="#E" transform="matrix(1,0,0,1,1165,1007.4466886486064) translate(96.2287037037037 26.022222222222222)"/><use xlink:href="#F" transform="matrix(1,0,0,1,1165,1007.4466886486064) translate(10.22283950617286 52.95555555555555)"/><use xlink:href="#G" transform="matrix(1,0,0,1,1165,1007.4466886486064) translate(53.86481481481482 52.95555555555555)"/><use xlink:href="#H" transform="matrix(1,0,0,1,1165,1007.4466886486064) translate(84.9753086419753 52.95555555555555)"/><path d="M1252.97 605.55c0-4.4 3.6-8 8-8h194.48c4.42 0 8 3.6 8 8v104c0 4.42-3.58 8-8 8h-194.48c-4.4 0-8-3.58-8-8z" stroke="#000" stroke-opacity="0" fill="#ef8d22"/><use xlink:href="#I" transform="matrix(1,0,0,1,1257.9743290049194,602.5533113513936) translate(14.026543209876564 32.555555555555564)"/><use xlink:href="#v" transform="matrix(1,0,0,1,1257.9743290049194,602.5533113513936) translate(84.97592592592592 32.555555555555564)"/><use xlink:href="#J" transform="matrix(1,0,0,1,1257.9743290049194,602.5533113513936) translate(111.09876543209876 32.555555555555564)"/><use xlink:href="#K" transform="matrix(1,0,0,1,1257.9743290049194,602.5533113513936) translate(21.414506172839538 59.48888888888889)"/><use xlink:href="#v" transform="matrix(1,0,0,1,1257.9743290049194,602.5533113513936) translate(83.69783950617284 59.48888888888889)"/><use xlink:href="#L" transform="matrix(1,0,0,1,1257.9743290049194,602.5533113513936) translate(109.82067901234568 59.48888888888889)"/><use xlink:href="#M" transform="matrix(1,0,0,1,1257.9743290049194,602.5533113513936) translate(159.6972222222222 59.48888888888889)"/><use xlink:href="#N" transform="matrix(1,0,0,1,1257.9743290049194,602.5533113513936) translate(22.037962962963007 86.42222222222222)"/><use xlink:href="#O" transform="matrix(1,0,0,1,1257.9743290049194,602.5533113513936) translate(76.90216049382718 86.42222222222222)"/><path d="M1252.97 808c0-4.42 3.6-8 8-8h194.48c4.42 0 8 3.58 8 8v104c0 4.42-3.58 8-8 8h-194.48c-4.4 0-8-3.58-8-8z" stroke="#000" stroke-opacity="0" fill="#ef8d22"/><use xlink:href="#t" transform="matrix(1,0,0,1,1257.9743290049194,805) translate(45.074691358024715 59.48888888888889)"/><use xlink:href="#P" transform="matrix(1,0,0,1,1257.9743290049194,805) translate(118.51790123456789 59.48888888888889)"/><path d="M1358.2 718.05v65.57" stroke="#333" fill="none"/><path d="M1358.7 718.07h-1v-.52h1z" fill="#333"/><path d="M1358.2 798.38l-4.62-14.26h9.27z" stroke="#333" fill="#333"/><path d="M1349.46 474.92l3 1.24 2.6 2 2 2.6 1.23 3 .4 3.2v94.2h-1v-94.13l-.38-3-1.14-2.77-1.84-2.4-2.4-1.82-2.74-1.14-3.02-.4h-225.13v-1h225.2zm-361.93.58v-1h110.57v1z" fill="#333"/><path d="M987.54 475.5h-.58l.13-1h.44zM1358.2 595.94l-4.62-14.27h9.27z" fill="#333"/><path d="M1358.2 597.55l-5.3-16.38h10.64zm-3.93-15.38l3.94 12.15 3.96-12.15z" fill="#333"/><path d="M1105.24 920.5v28.72c0 6.63 5.37 12 12 12H1228c6.63 0 12 5.38 12 12v12.84" stroke="#333" fill="none"/><path d="M1105.74 920.5h-1v-.5h1z" fill="#333"/><path d="M1240 1000.83l-4.64-14.27h9.28z" stroke="#333" fill="#333"/><path d="M1358.2 920.5v28.72c0 6.63-5.36 12-12 12H1252c-6.63 0-12 5.38-12 12v12.84" stroke="#333" fill="none"/><path d="M1358.7 920.5h-1v-.5h1z" fill="#333"/><path d="M1240 1000.83l-4.64-14.27h9.28z" stroke="#333" fill="#333"/><path d="M1505.95 605.55c0-4.4 3.58-8 8-8h194.48c4.42 0 8 3.6 8 8v104c0 4.42-3.58 8-8 8h-194.48c-4.42 0-8-3.58-8-8z" stroke="#000" stroke-opacity="0" fill="#c92d39"/><g><use xlink:href="#Q" transform="matrix(1,0,0,1,1510.9486580098387,602.5533113513936) translate(5.609876543209921 46.022222222222226)"/><use xlink:href="#R" transform="matrix(1,0,0,1,1510.9486580098387,602.5533113513936) translate(134.41604938271604 46.022222222222226)"/><use xlink:href="#S" transform="matrix(1,0,0,1,1510.9486580098387,602.5533113513936) translate(10.94043209876547 72.95555555555555)"/><use xlink:href="#T" transform="matrix(1,0,0,1,1510.9486580098387,602.5533113513936) translate(130.3324074074074 72.95555555555555)"/></g><path d="M1505.95 808c0-4.42 3.58-8 8-8h194.48c4.42 0 8 3.58 8 8v104c0 4.42-3.58 8-8 8h-194.48c-4.42 0-8-3.58-8-8z" stroke="#000" stroke-opacity="0" fill="#c92d39"/><g><use xlink:href="#t" transform="matrix(1,0,0,1,1510.9486580098387,805) translate(46.321604938271626 59.48888888888889)"/><use xlink:href="#U" transform="matrix(1,0,0,1,1510.9486580098387,805) translate(119.7648148148148 59.48888888888889)"/></g><path d="M1602.43 474.92l3 1.24 2.6 2 2 2.6 1.24 3 .42 3.2v94.2h-1v-94.13l-.4-3-1.15-2.77-1.83-2.4-2.4-1.82-2.75-1.14-3-.4h-478.12v-1h478.17zm-614.9.58v-1h110.57v1z" fill="#333"/><path d="M987.54 475.5h-.58l.13-1h.44zM1611.2 595.94l-4.65-14.27h9.27z" fill="#333"/><path d="M1611.2 597.55l-5.34-16.38h10.65zm-3.96-15.38l3.95 12.15 3.94-12.15z" fill="#333"/><path d="M1611.2 718.05v65.57" stroke="#333" fill="none"/><path d="M1611.7 718.07h-1v-.52h1z" fill="#333"/><path d="M1611.2 798.38l-4.65-14.26h9.27z" stroke="#333" fill="#333"/><path d="M1659.2 997.05c17.66 0 32 20.32 32 45.4 0 25.07-14.34 45.4-32 45.4h-96c-17.7 0-32-20.33-32-45.4 0-25.08 14.3-45.4 32-45.4z" stroke="#000" stroke-opacity="0" fill="#c92d39"/><g><use xlink:href="#V" transform="matrix(1,0,0,1,1536.1880045001385,1002.0466886486064) translate(15.6780864197531 18.05555555555556)"/><use xlink:href="#W" transform="matrix(1,0,0,1,1536.1880045001385,1002.0466886486064) translate(53.397222222222226 18.05555555555556)"/><use xlink:href="#X" transform="matrix(1,0,0,1,1536.1880045001385,1002.0466886486064) translate(114.43364197530863 18.05555555555556)"/><use xlink:href="#Y" transform="matrix(1,0,0,1,1536.1880045001385,1002.0466886486064) translate(38.83950617283951 44.988888888888894)"/><use xlink:href="#Z" transform="matrix(1,0,0,1,1536.1880045001385,1002.0466886486064) translate(37.62376543209877 71.92222222222222)"/></g><path d="M1611.2 920.5v60.16" stroke="#333" fill="none"/><path d="M1611.7 920.5h-1v-.5h1z" fill="#333"/><path d="M1611.2 995.43l-4.65-14.27h9.27z" stroke="#333" fill="#333"/><path d="M458.3 927.97l.4 3 1.13 2.77 1.83 2.4 2.4 1.82 2.75 1.14 3.02.4h173.35v1h-173.4l-3.22-.42-3-1.24-2.6-2-2-2.6-1.24-3-.4-3.2V885.8h1zm-9.26-118.05l3 1.24 2.6 2 2 2.6 1.23 3 .42 3.2v42.24h-1v-42.17l-.4-3-1.15-2.77-1.83-2.4-2.4-1.82-2.75-1.14-3-.4H256.52v-1h189.3z" fill="#333"/><path d="M256.54 810.5h-.58l.13-1h.44zM657.94 940l-14.27 4.64v-9.28z" fill="#333"/><path d="M659.56 940l-16.4 5.32v-10.64zm-15.4 3.95l12.16-3.95-12.15-3.95z" fill="#333"/><g><use xlink:href="#n" transform="matrix(1,0,0,1,443.11571709693806,864.2) translate(0.005000000000000782 14.4)"/></g><path d="M255.74 1070H528c6.63 0 12 5.37 12 12v31.62" stroke="#333" fill="none"/><path d="M255.75 1070.5h-.5v-1h.5z" fill="#333"/><path d="M540 1128.38l-4.64-14.26h9.28z" stroke="#333" fill="#333"/><defs><path fill="#a9afb8" d="M24 0v-248h195v40H76v63h132v40H76v65h150V0H24" id="aa"/><path fill="#a9afb8" d="M230 0l2-204L168 0h-37L68-204 70 0H24v-248h70l56 185 57-185h69V0h-46" id="ab"/><path fill="#a9afb8" d="M169-182c-1-43-94-46-97-3 18 66 151 10 154 114 3 95-165 93-204 36-6-8-10-19-12-30l50-8c3 46 112 56 116 5-17-69-150-10-154-114-4-87 153-88 188-35 5 8 8 18 10 28" id="ac"/><path fill="#a9afb8" d="M-4 44V30h207v14H-4" id="ad"/><path fill="#a9afb8" d="M199 0l-22-63H83L61 0H9l90-248h61L250 0h-51zm-33-102l-36-108c-10 38-24 72-36 108h72" id="ae"/><path fill="#a9afb8" d="M24-248c93 1 206-16 204 79-1 75-69 88-152 82V0H24v-248zm52 121c47 0 100 7 100-41 0-47-54-39-100-39v80" id="af"/><path fill="#a9afb8" d="M24 0v-248h52V0H24" id="ag"/><path fill="#a9afb8" d="M76-208v77h127v40H76V0H24v-248h183v40H76" id="ah"/><path fill="#a9afb8" d="M25 0v-261h50V0H25" id="ai"/><path fill="#a9afb8" d="M110-194c64 0 96 36 96 99 0 64-35 99-97 99-61 0-95-36-95-99 0-62 34-99 96-99zm-1 164c35 0 45-28 45-65 0-40-10-65-43-65-34 0-45 26-45 65 0 36 10 65 43 65" id="aj"/><path fill="#a9afb8" d="M231 0h-52l-39-155L100 0H48L-1-190h46L77-45c9-52 24-97 36-145h53l37 145 32-145h46" id="ak"/><path fill="#a9afb8" d="M190-63c-7 42-38 67-86 67-59 0-84-38-90-98-12-110 154-137 174-36l-49 2c-2-19-15-32-35-32-30 0-35 28-38 64-6 74 65 87 74 30" id="al"/><path fill="#a9afb8" d="M114-157C55-157 80-60 75 0H25v-261h50l-1 109c12-26 28-41 61-42 86-1 58 113 63 194h-50c-7-57 23-157-34-157" id="am"/><path fill="#a9afb8" d="M133-34C117-15 103 5 69 4 32 3 11-16 11-54c-1-60 55-63 116-61 1-26-3-47-28-47-18 1-26 9-28 27l-52-2c7-38 36-58 82-57s74 22 75 68l1 82c-1 14 12 18 25 15v27c-30 8-71 5-69-32zm-48 3c29 0 43-24 42-57-32 0-66-3-65 30 0 17 8 27 23 27" id="an"/><path fill="#a9afb8" d="M135-150c-39-12-60 13-60 57V0H25l-1-190h47c2 13-1 29 3 40 6-28 27-53 61-41v41" id="ao"/><path fill="#a9afb8" d="M115-3C79 11 28 4 28-45v-112H4v-33h27l15-45h31v45h36v33H77v99c-1 23 16 31 38 25v30" id="ap"/><path fill="#a9afb8" d="M23 0v-37h61v-169l-59 37v-38l62-41h46v211h57V0H23" id="aq"/><path fill="#a9afb8" d="M24 0v-54h51V0H24" id="ar"/><path fill="#a9afb8" d="M101-251c68 0 84 54 84 127C185-50 166 4 99 4S15-52 14-124c-1-75 17-127 87-127zm-1 216c37-5 36-46 36-89s4-89-36-89c-39 0-36 45-36 89 0 43-3 85 36 89" id="as"/><g id="a"><use transform="matrix(0.0728395061728395,0,0,0.0728395061728395,0,0)" xlink:href="#aa"/><use transform="matrix(0.0728395061728395,0,0,0.0728395061728395,17.48148148148148,0)" xlink:href="#ab"/><use transform="matrix(0.0728395061728395,0,0,0.0728395061728395,39.26049382716049,0)" xlink:href="#ac"/><use transform="matrix(0.0728395061728395,0,0,0.0728395061728395,56.74197530864197,0)" xlink:href="#ad"/><use transform="matrix(0.0728395061728395,0,0,0.0728395061728395,71.30987654320987,0)" xlink:href="#ae"/><use transform="matrix(0.0728395061728395,0,0,0.0728395061728395,90.1753086419753,0)" xlink:href="#af"/><use transform="matrix(0.0728395061728395,0,0,0.0728395061728395,107.65679012345679,0)" xlink:href="#ag"/><use transform="matrix(0.0728395061728395,0,0,0.0728395061728395,114.94074074074074,0)" xlink:href="#ah"/><use transform="matrix(0.0728395061728395,0,0,0.0728395061728395,130.8925925925926,0)" xlink:href="#ai"/><use transform="matrix(0.0728395061728395,0,0,0.0728395061728395,138.17654320987654,0)" xlink:href="#aj"/><use transform="matrix(0.0728395061728395,0,0,0.0728395061728395,154.12839506172838,0)" xlink:href="#ak"/><use transform="matrix(0.0728395061728395,0,0,0.0728395061728395,174.52345679012345,0)" xlink:href="#al"/><use transform="matrix(0.0728395061728395,0,0,0.0728395061728395,189.09135802469135,0)" xlink:href="#am"/><use transform="matrix(0.0728395061728395,0,0,0.0728395061728395,205.04320987654316,0)" xlink:href="#an"/><use transform="matrix(0.0728395061728395,0,0,0.0728395061728395,219.6111111111111,0)" xlink:href="#ao"/><use transform="matrix(0.0728395061728395,0,0,0.0728395061728395,229.8086419753086,0)" xlink:href="#ap"/><use transform="matrix(0.0728395061728395,0,0,0.0728395061728395,238.4765432098765,0)" xlink:href="#ad"/><use transform="matrix(0.0728395061728395,0,0,0.0728395061728395,253.0444444444444,0)" xlink:href="#aq"/><use transform="matrix(0.0728395061728395,0,0,0.0728395061728395,267.6123456790123,0)" xlink:href="#ar"/><use transform="matrix(0.0728395061728395,0,0,0.0728395061728395,274.89629629629627,0)" xlink:href="#as"/><use transform="matrix(0.0728395061728395,0,0,0.0728395061728395,289.46419753086417,0)" xlink:href="#ar"/><use transform="matrix(0.0728395061728395,0,0,0.0728395061728395,296.7481481481481,0)" xlink:href="#as"/></g><path fill="#a9afb8" d="M33 0v-248h34V0H33" id="at"/><path fill="#a9afb8" d="M106-169C34-169 62-67 57 0H25v-261h32l-1 103c12-21 28-36 61-36 89 0 53 116 60 194h-32v-121c2-32-8-49-39-48" id="au"/><path fill="#a9afb8" d="M100-194c62-1 85 37 85 99 1 63-27 99-86 99S16-35 15-95c0-66 28-99 85-99zM99-20c44 1 53-31 53-75 0-43-8-75-51-75s-53 32-53 75 10 74 51 75" id="av"/><path fill="#a9afb8" d="M114-163C36-179 61-72 57 0H25l-1-190h30c1 12-1 29 2 39 6-27 23-49 58-41v29" id="aw"/><g id="b"><use transform="matrix(0.04248971193415638,0,0,0.04248971193415638,0,0)" xlink:href="#at"/><use transform="matrix(0.04248971193415638,0,0,0.04248971193415638,4.248971193415637,0)" xlink:href="#au"/><use transform="matrix(0.04248971193415638,0,0,0.04248971193415638,12.746913580246911,0)" xlink:href="#av"/><use transform="matrix(0.04248971193415638,0,0,0.04248971193415638,21.244855967078188,0)" xlink:href="#aw"/></g><path fill="#a9afb8" d="M197 0v-115H63V0H30v-248h33v105h134v-105h34V0h-34" id="ax"/><path fill="#a9afb8" d="M179-190L93 31C79 59 56 82 12 73V49c39 6 53-20 64-50L1-190h34L92-34l54-156h33" id="ay"/><path fill="#a9afb8" d="M135-143c-3-34-86-38-87 0 15 53 115 12 119 90S17 21 10-45l28-5c4 36 97 45 98 0-10-56-113-15-118-90-4-57 82-63 122-42 12 7 21 19 24 35" id="az"/><path fill="#a9afb8" d="M143 0L79-87 56-68V0H24v-261h32v163l83-92h37l-77 82L181 0h-38" id="aA"/><path fill="#a9afb8" d="M108 0H70L1-190h34L89-25l56-165h34" id="aB"/><g id="c"><use transform="matrix(0.04248971193415638,0,0,0.04248971193415638,0,0)" xlink:href="#ax"/><use transform="matrix(0.04248971193415638,0,0,0.04248971193415638,11.004835390946502,0)" xlink:href="#aw"/><use transform="matrix(0.04248971193415638,0,0,0.04248971193415638,16.06111111111111,0)" xlink:href="#ay"/><use transform="matrix(0.04248971193415638,0,0,0.04248971193415638,23.70925925925926,0)" xlink:href="#az"/><use transform="matrix(0.04248971193415638,0,0,0.04248971193415638,31.357407407407408,0)" xlink:href="#au"/><use transform="matrix(0.04248971193415638,0,0,0.04248971193415638,39.855349794238684,0)" xlink:href="#aA"/><use transform="matrix(0.04248971193415638,0,0,0.04248971193415638,47.50349794238683,0)" xlink:href="#av"/><use transform="matrix(0.04248971193415638,0,0,0.04248971193415638,56.001440329218106,0)" xlink:href="#aB"/></g><path fill="#a9afb8" d="M32 76v-337h29V76H32" id="aC"/><use transform="matrix(0.04248971193415638,0,0,0.04248971193415638,0,0)" xlink:href="#aC" id="d"/><path fill="#a9afb8" d="M153-248C145-148 188 4 80 4 36 3 13-21 6-62l32-5c4 25 16 42 43 43 27 0 39-20 39-49v-147H72v-28h81" id="aD"/><path fill="#a9afb8" d="M84 4C-5 8 30-112 23-190h32v120c0 31 7 50 39 49 72-2 45-101 50-169h31l1 190h-30c-1-10 1-25-2-33-11 22-28 36-60 37" id="aE"/><path fill="#a9afb8" d="M24 0v-261h32V0H24" id="aF"/><g id="e"><use transform="matrix(0.04248971193415638,0,0,0.04248971193415638,0,0)" xlink:href="#aD"/><use transform="matrix(0.04248971193415638,0,0,0.04248971193415638,7.648148148148148,0)" xlink:href="#aE"/><use transform="matrix(0.04248971193415638,0,0,0.04248971193415638,16.14609053497942,0)" xlink:href="#aF"/><use transform="matrix(0.04248971193415638,0,0,0.04248971193415638,19.502777777777776,0)" xlink:href="#ay"/></g><path fill="#a9afb8" d="M54-142c48-35 137-8 131 61C196 18 31 33 14-55l32-4c7 23 22 37 52 37 35-1 51-22 54-58 4-55-73-65-99-34H22l8-134h141v27H59" id="aG"/><path fill="#a9afb8" d="M68-38c1 34 0 65-14 84H32c9-13 17-26 17-46H33v-38h35" id="aH"/><g id="f"><use transform="matrix(0.04248971193415638,0,0,0.04248971193415638,0,0)" xlink:href="#aG"/><use transform="matrix(0.04248971193415638,0,0,0.04248971193415638,8.497942386831275,0)" xlink:href="#aH"/></g><path fill="#a9afb8" d="M101-251c82-7 93 87 43 132L82-64C71-53 59-42 53-27h129V0H18c2-99 128-94 128-182 0-28-16-43-45-43s-46 15-49 41l-32-3c6-41 34-60 81-64" id="aI"/><path fill="#a9afb8" d="M101-251c68 0 85 55 85 127S166 4 100 4C33 4 14-52 14-124c0-73 17-127 87-127zm-1 229c47 0 54-49 54-102s-4-102-53-102c-51 0-55 48-55 102 0 53 5 102 54 102" id="aJ"/><g id="g"><use transform="matrix(0.04248971193415638,0,0,0.04248971193415638,0,0)" xlink:href="#aI"/><use transform="matrix(0.04248971193415638,0,0,0.04248971193415638,8.497942386831275,0)" xlink:href="#aJ"/><use transform="matrix(0.04248971193415638,0,0,0.04248971193415638,16.99588477366255,0)" xlink:href="#aI"/><use transform="matrix(0.04248971193415638,0,0,0.04248971193415638,25.493827160493822,0)" xlink:href="#aJ"/></g><path fill="#fff" d="M199 0l-22-63H83L61 0H9l90-248h61L250 0h-51zm-33-102l-36-108c-10 38-24 72-36 108h72" id="aK"/><path fill="#fff" d="M24-248c93 1 206-16 204 79-1 75-69 88-152 82V0H24v-248zm52 121c47 0 100 7 100-41 0-47-54-39-100-39v80" id="aL"/><path fill="#fff" d="M24 0v-248h52V0H24" id="aM"/><g id="h"><use transform="matrix(0.07469135802469135,0,0,0.07469135802469135,0,0)" xlink:href="#aK"/><use transform="matrix(0.07469135802469135,0,0,0.07469135802469135,19.34506172839506,0)" xlink:href="#aL"/><use transform="matrix(0.07469135802469135,0,0,0.07469135802469135,37.27098765432098,0)" xlink:href="#aM"/></g><path fill="#fff" d="M24 0v-248h195v40H76v63h132v40H76v65h150V0H24" id="aN"/><path fill="#fff" d="M135-194c87-1 58 113 63 194h-50c-7-57 23-157-34-157-59 0-34 97-39 157H25l-1-190h47c2 12-1 28 3 38 12-26 28-41 61-42" id="aO"/><path fill="#fff" d="M88-194c31-1 46 15 58 34l-1-101h50l1 261h-48c-2-10 0-23-3-31C134-8 116 4 84 4 32 4 16-41 15-95c0-56 19-97 73-99zm17 164c33 0 40-30 41-66 1-37-9-64-41-64s-38 30-39 65c0 43 13 65 39 65" id="aP"/><path fill="#fff" d="M135-194c53 0 70 44 70 98 0 56-19 98-73 100-31 1-45-17-59-34 3 33 2 69 2 105H25l-1-265h48c2 10 0 23 3 31 11-24 29-35 60-35zM114-30c33 0 39-31 40-66 0-38-9-64-40-64-56 0-55 130 0 130" id="aQ"/><path fill="#fff" d="M110-194c64 0 96 36 96 99 0 64-35 99-97 99-61 0-95-36-95-99 0-62 34-99 96-99zm-1 164c35 0 45-28 45-65 0-40-10-65-43-65-34 0-45 26-45 65 0 36 10 65 43 65" id="aR"/><path fill="#fff" d="M25-224v-37h50v37H25zM25 0v-190h50V0H25" id="aS"/><path fill="#fff" d="M115-3C79 11 28 4 28-45v-112H4v-33h27l15-45h31v45h36v33H77v99c-1 23 16 31 38 25v30" id="aT"/><g id="i"><use transform="matrix(0.07469135802469135,0,0,0.07469135802469135,0,0)" xlink:href="#aN"/><use transform="matrix(0.07469135802469135,0,0,0.07469135802469135,17.925925925925924,0)" xlink:href="#aO"/><use transform="matrix(0.07469135802469135,0,0,0.07469135802469135,34.28333333333333,0)" xlink:href="#aP"/><use transform="matrix(0.07469135802469135,0,0,0.07469135802469135,50.64074074074074,0)" xlink:href="#aQ"/><use transform="matrix(0.07469135802469135,0,0,0.07469135802469135,66.99814814814815,0)" xlink:href="#aR"/><use transform="matrix(0.07469135802469135,0,0,0.07469135802469135,83.35555555555555,0)" xlink:href="#aS"/><use transform="matrix(0.07469135802469135,0,0,0.07469135802469135,90.8246913580247,0)" xlink:href="#aO"/><use transform="matrix(0.07469135802469135,0,0,0.07469135802469135,107.1820987654321,0)" xlink:href="#aT"/></g><path fill="#fff" d="M25 0v-261h50V0H25" id="aU"/><path fill="#fff" d="M190-63c-7 42-38 67-86 67-59 0-84-38-90-98-12-110 154-137 174-36l-49 2c-2-19-15-32-35-32-30 0-35 28-38 64-6 74 65 87 74 30" id="aV"/><path fill="#fff" d="M133-34C117-15 103 5 69 4 32 3 11-16 11-54c-1-60 55-63 116-61 1-26-3-47-28-47-18 1-26 9-28 27l-52-2c7-38 36-58 82-57s74 22 75 68l1 82c-1 14 12 18 25 15v27c-30 8-71 5-69-32zm-48 3c29 0 43-24 42-57-32 0-66-3-65 30 0 17 8 27 23 27" id="aW"/><path fill="#fff" d="M114-157C55-157 80-60 75 0H25v-261h50l-1 109c12-26 28-41 61-42 86-1 58 113 63 194h-50c-7-57 23-157-34-157" id="aX"/><path fill="#fff" d="M137-138c1-29-70-34-71-4 15 46 118 7 119 86 1 83-164 76-172 9l43-7c4 19 20 25 44 25 33 8 57-30 24-41C81-84 22-81 20-136c-2-80 154-74 161-7" id="aY"/><g id="j"><use transform="matrix(0.07469135802469135,0,0,0.07469135802469135,0,0)" xlink:href="#aU"/><use transform="matrix(0.07469135802469135,0,0,0.07469135802469135,7.469135802469134,0)" xlink:href="#aR"/><use transform="matrix(0.07469135802469135,0,0,0.07469135802469135,23.82654320987654,0)" xlink:href="#aV"/><use transform="matrix(0.07469135802469135,0,0,0.07469135802469135,38.764814814814805,0)" xlink:href="#aW"/><use transform="matrix(0.07469135802469135,0,0,0.07469135802469135,53.70308641975308,0)" xlink:href="#aU"/><use transform="matrix(0.07469135802469135,0,0,0.07469135802469135,61.17222222222221,0)" xlink:href="#aX"/><use transform="matrix(0.07469135802469135,0,0,0.07469135802469135,77.52962962962961,0)" xlink:href="#aR"/><use transform="matrix(0.07469135802469135,0,0,0.07469135802469135,93.88703703703702,0)" xlink:href="#aY"/><use transform="matrix(0.07469135802469135,0,0,0.07469135802469135,108.8253086419753,0)" xlink:href="#aT"/></g><path fill="#fff" d="M233-177c-1 41-23 64-60 70L243 0h-38l-65-103H63V0H30v-248c88 3 205-21 203 71zM63-129c60-2 137 13 137-47 0-61-80-42-137-45v92" id="aZ"/><path fill="#fff" d="M100-194c63 0 86 42 84 106H49c0 40 14 67 53 68 26 1 43-12 49-29l28 8c-11 28-37 45-77 45C44 4 14-33 15-96c1-61 26-98 85-98zm52 81c6-60-76-77-97-28-3 7-6 17-6 28h103" id="ba"/><path fill="#fff" d="M145-31C134-9 116 4 85 4 32 4 16-35 15-94c0-59 17-99 70-100 32-1 48 14 60 33 0-11-1-24 2-32h30l-1 268h-32zM93-21c41 0 51-33 51-76s-8-73-50-73c-40 0-46 35-46 75s5 74 45 74" id="bb"/><path fill="#fff" d="M84 4C-5 8 30-112 23-190h32v120c0 31 7 50 39 49 72-2 45-101 50-169h31l1 190h-30c-1-10 1-25-2-33-11 22-28 36-60 37" id="bc"/><path fill="#fff" d="M135-143c-3-34-86-38-87 0 15 53 115 12 119 90S17 21 10-45l28-5c4 36 97 45 98 0-10-56-113-15-118-90-4-57 82-63 122-42 12 7 21 19 24 35" id="bd"/><path fill="#fff" d="M59-47c-2 24 18 29 38 22v24C64 9 27 4 27-40v-127H5v-23h24l9-43h21v43h35v23H59v120" id="be"/><g id="k"><use transform="matrix(0.06234567901234567,0,0,0.06234567901234567,0,0)" xlink:href="#aZ"/><use transform="matrix(0.06234567901234567,0,0,0.06234567901234567,16.147530864197527,0)" xlink:href="#ba"/><use transform="matrix(0.06234567901234567,0,0,0.06234567901234567,28.61666666666666,0)" xlink:href="#bb"/><use transform="matrix(0.06234567901234567,0,0,0.06234567901234567,41.08580246913579,0)" xlink:href="#bc"/><use transform="matrix(0.06234567901234567,0,0,0.06234567901234567,53.554938271604925,0)" xlink:href="#ba"/><use transform="matrix(0.06234567901234567,0,0,0.06234567901234567,66.02407407407406,0)" xlink:href="#bd"/><use transform="matrix(0.06234567901234567,0,0,0.06234567901234567,77.24629629629628,0)" xlink:href="#be"/></g><path fill="#fff" d="M140-251c81 0 123 46 123 126C263-46 219 4 140 4 59 4 17-45 17-125s42-126 123-126zm0 227c63 0 89-41 89-101s-29-99-89-99c-61 0-89 39-89 99S79-25 140-24" id="bf"/><path fill="#fff" d="M194 0L95-120 63-95V0H30v-248h33v124l119-124h40L117-140 236 0h-42" id="bg"/><path fill="#fff" d="M103-251c84 0 111 97 45 133-19 10-37 24-39 52H78c0-63 77-55 77-114 0-30-21-42-52-43-32 0-53 17-56 46l-32-2c7-45 34-72 88-72zM77 0v-35h34V0H77" id="bh"/><g id="l"><use transform="matrix(0.06234567901234567,0,0,0.06234567901234567,0,0)" xlink:href="#bf"/><use transform="matrix(0.06234567901234567,0,0,0.06234567901234567,17.456790123456788,0)" xlink:href="#bg"/><use transform="matrix(0.06234567901234567,0,0,0.06234567901234567,32.419753086419746,0)" xlink:href="#bh"/></g><path fill="#fff" d="M212-179c-10-28-35-45-73-45-59 0-87 40-87 99 0 60 29 101 89 101 43 0 62-24 78-52l27 14C228-24 195 4 139 4 59 4 22-46 18-125c-6-104 99-153 187-111 19 9 31 26 39 46" id="bi"/><path fill="#fff" d="M141-36C126-15 110 5 73 4 37 3 15-17 15-53c-1-64 63-63 125-63 3-35-9-54-41-54-24 1-41 7-42 31l-33-3c5-37 33-52 76-52 45 0 72 20 72 64v82c-1 20 7 32 28 27v20c-31 9-61-2-59-35zM48-53c0 20 12 33 32 33 41-3 63-29 60-74-43 2-92-5-92 41" id="bj"/><path fill="#fff" d="M96-169c-40 0-48 33-48 73s9 75 48 75c24 0 41-14 43-38l32 2c-6 37-31 61-74 61-59 0-76-41-82-99-10-93 101-131 147-64 4 7 5 14 7 22l-32 3c-4-21-16-35-41-35" id="bk"/><path fill="#fff" d="M106-169C34-169 62-67 57 0H25v-261h32l-1 103c12-21 28-36 61-36 89 0 53 116 60 194h-32v-121c2-32-8-49-39-48" id="bl"/><path fill="#fff" d="M85-194c31 0 48 13 60 33l-1-100h32l1 261h-30c-2-10 0-23-3-31C134-8 116 4 85 4 32 4 16-35 15-94c0-66 23-100 70-100zm9 24c-40 0-46 34-46 75 0 40 6 74 45 74 42 0 51-32 51-76 0-42-9-74-50-73" id="bm"/><g id="m"><use transform="matrix(0.06234567901234567,0,0,0.06234567901234567,0,0)" xlink:href="#bi"/><use transform="matrix(0.06234567901234567,0,0,0.06234567901234567,16.147530864197527,0)" xlink:href="#bj"/><use transform="matrix(0.06234567901234567,0,0,0.06234567901234567,28.61666666666666,0)" xlink:href="#bk"/><use transform="matrix(0.06234567901234567,0,0,0.06234567901234567,39.83888888888888,0)" xlink:href="#bl"/><use transform="matrix(0.06234567901234567,0,0,0.06234567901234567,52.308024691358014,0)" xlink:href="#ba"/><use transform="matrix(0.06234567901234567,0,0,0.06234567901234567,64.77716049382715,0)" xlink:href="#bm"/><use transform="matrix(0.06234567901234567,0,0,0.06234567901234567,77.2462962962963,0)" xlink:href="#bh"/></g><path fill="#333" d="M137-103V0h-34v-103L8-248h37l75 118 75-118h37" id="bn"/><path fill="#333" d="M100-194c63 0 86 42 84 106H49c0 40 14 67 53 68 26 1 43-12 49-29l28 8c-11 28-37 45-77 45C44 4 14-33 15-96c1-61 26-98 85-98zm52 81c6-60-76-77-97-28-3 7-6 17-6 28h103" id="bo"/><path fill="#333" d="M135-143c-3-34-86-38-87 0 15 53 115 12 119 90S17 21 10-45l28-5c4 36 97 45 98 0-10-56-113-15-118-90-4-57 82-63 122-42 12 7 21 19 24 35" id="bp"/><g id="n"><use transform="matrix(0.05,0,0,0.05,0,0)" xlink:href="#bn"/><use transform="matrix(0.05,0,0,0.05,10.35,0)" xlink:href="#bo"/><use transform="matrix(0.05,0,0,0.05,20.35,0)" xlink:href="#bp"/></g><path fill="#fff" d="M240 0l2-218c-23 76-54 145-80 218h-23L58-218 59 0H30v-248h44l77 211c21-75 51-140 76-211h43V0h-30" id="bq"/><path fill="#fff" d="M100-194c62-1 85 37 85 99 1 63-27 99-86 99S16-35 15-95c0-66 28-99 85-99zM99-20c44 1 53-31 53-75 0-43-8-75-51-75s-53 32-53 75 10 74 51 75" id="br"/><path fill="#fff" d="M24-231v-30h32v30H24zM24 0v-190h32V0H24" id="bs"/><path fill="#fff" d="M101-234c-31-9-42 10-38 44h38v23H63V0H32v-167H5v-23h27c-7-52 17-82 69-68v24" id="bt"/><g id="o"><use transform="matrix(0.06234567901234567,0,0,0.06234567901234567,0,0)" xlink:href="#bq"/><use transform="matrix(0.06234567901234567,0,0,0.06234567901234567,18.641358024691353,0)" xlink:href="#br"/><use transform="matrix(0.06234567901234567,0,0,0.06234567901234567,31.110493827160486,0)" xlink:href="#bm"/><use transform="matrix(0.06234567901234567,0,0,0.06234567901234567,43.57962962962962,0)" xlink:href="#bs"/><use transform="matrix(0.06234567901234567,0,0,0.06234567901234567,48.50493827160493,0)" xlink:href="#bt"/><use transform="matrix(0.06234567901234567,0,0,0.06234567901234567,54.7395061728395,0)" xlink:href="#bs"/><use transform="matrix(0.06234567901234567,0,0,0.06234567901234567,59.664814814814804,0)" xlink:href="#ba"/><use transform="matrix(0.06234567901234567,0,0,0.06234567901234567,72.13395061728394,0)" xlink:href="#bm"/><use transform="matrix(0.06234567901234567,0,0,0.06234567901234567,84.60308641975308,0)" xlink:href="#bh"/></g><path fill="#fff" d="M185-189c-5-48-123-54-124 2 14 75 158 14 163 119 3 78-121 87-175 55-17-10-28-26-33-46l33-7c5 56 141 63 141-1 0-78-155-14-162-118-5-82 145-84 179-34 5 7 8 16 11 25" id="bu"/><path fill="#fff" d="M114-163C36-179 61-72 57 0H25l-1-190h30c1 12-1 29 2 39 6-27 23-49 58-41v29" id="bv"/><g id="p"><use transform="matrix(0.06234567901234565,0,0,0.06234567901234565,0,0)" xlink:href="#bu"/><use transform="matrix(0.06234567901234565,0,0,0.06234567901234565,14.962962962962957,0)" xlink:href="#be"/><use transform="matrix(0.06234567901234565,0,0,0.06234567901234565,21.19753086419752,0)" xlink:href="#br"/><use transform="matrix(0.06234567901234565,0,0,0.06234567901234565,33.66666666666665,0)" xlink:href="#bv"/><use transform="matrix(0.06234567901234565,0,0,0.06234567901234565,41.085802469135785,0)" xlink:href="#ba"/></g><path fill="#fff" d="M117-194c89-4 53 116 60 194h-32v-121c0-31-8-49-39-48C34-167 62-67 57 0H25l-1-190h30c1 10-1 24 2 32 11-22 29-35 61-36" id="bw"/><g id="q"><use transform="matrix(0.06234567901234565,0,0,0.06234567901234565,0,0)" xlink:href="#bs"/><use transform="matrix(0.06234567901234565,0,0,0.06234567901234565,4.925308641975307,0)" xlink:href="#bw"/></g><g id="r"><use transform="matrix(0.06234567901234565,0,0,0.06234567901234565,0,0)" xlink:href="#bk"/><use transform="matrix(0.06234567901234565,0,0,0.06234567901234565,11.222222222222218,0)" xlink:href="#bj"/><use transform="matrix(0.06234567901234565,0,0,0.06234567901234565,23.691358024691347,0)" xlink:href="#bk"/><use transform="matrix(0.06234567901234565,0,0,0.06234567901234565,34.91358024691357,0)" xlink:href="#bl"/><use transform="matrix(0.06234567901234565,0,0,0.06234567901234565,47.3827160493827,0)" xlink:href="#ba"/></g><path fill="#333" d="M190 0L58-211 59 0H30v-248h39L202-35l-2-213h31V0h-41" id="bx"/><path fill="#333" d="M100-194c62-1 85 37 85 99 1 63-27 99-86 99S16-35 15-95c0-66 28-99 85-99zM99-20c44 1 53-31 53-75 0-43-8-75-51-75s-53 32-53 75 10 74 51 75" id="by"/><g id="s"><use transform="matrix(0.05,0,0,0.05,0,0)" xlink:href="#bx"/><use transform="matrix(0.05,0,0,0.05,12.950000000000001,0)" xlink:href="#by"/></g><g id="t"><use transform="matrix(0.06234567901234565,0,0,0.06234567901234565,0,0)" xlink:href="#aZ"/><use transform="matrix(0.06234567901234565,0,0,0.06234567901234565,16.147530864197524,0)" xlink:href="#ba"/><use transform="matrix(0.06234567901234565,0,0,0.06234567901234565,28.616666666666653,0)" xlink:href="#be"/><use transform="matrix(0.06234567901234565,0,0,0.06234567901234565,34.851234567901216,0)" xlink:href="#bc"/><use transform="matrix(0.06234567901234565,0,0,0.06234567901234565,47.32037037037035,0)" xlink:href="#bv"/><use transform="matrix(0.06234567901234565,0,0,0.06234567901234565,54.739506172839484,0)" xlink:href="#bw"/></g><path fill="#fff" d="M101-251c82-7 93 87 43 132L82-64C71-53 59-42 53-27h129V0H18c2-99 128-94 128-182 0-28-16-43-45-43s-46 15-49 41l-32-3c6-41 34-60 81-64" id="bz"/><path fill="#fff" d="M101-251c68 0 85 55 85 127S166 4 100 4C33 4 14-52 14-124c0-73 17-127 87-127zm-1 229c47 0 54-49 54-102s-4-102-53-102c-51 0-55 48-55 102 0 53 5 102 54 102" id="bA"/><g id="u"><use transform="matrix(0.06234567901234565,0,0,0.06234567901234565,0,0)" xlink:href="#bz"/><use transform="matrix(0.06234567901234565,0,0,0.06234567901234565,12.46913580246913,0)" xlink:href="#bA"/><use transform="matrix(0.06234567901234565,0,0,0.06234567901234565,24.93827160493826,0)" xlink:href="#bA"/></g><g id="v"><use transform="matrix(0.06234567901234565,0,0,0.06234567901234565,0,0)" xlink:href="#br"/><use transform="matrix(0.06234567901234565,0,0,0.06234567901234565,12.46913580246913,0)" xlink:href="#bv"/></g><path fill="#fff" d="M27 0v-27h64v-190l-56 39v-29l58-41h29v221h61V0H27" id="bB"/><g id="w"><use transform="matrix(0.06234567901234565,0,0,0.06234567901234565,0,0)" xlink:href="#bz"/><use transform="matrix(0.06234567901234565,0,0,0.06234567901234565,12.46913580246913,0)" xlink:href="#bA"/><use transform="matrix(0.06234567901234565,0,0,0.06234567901234565,24.93827160493826,0)" xlink:href="#bB"/></g><path fill="#fff" d="M210-169c-67 3-38 105-44 169h-31v-121c0-29-5-50-35-48C34-165 62-65 56 0H25l-1-190h30c1 10-1 24 2 32 10-44 99-50 107 0 11-21 27-35 58-36 85-2 47 119 55 194h-31v-121c0-29-5-49-35-48" id="bC"/><path fill="#fff" d="M115-194c55 1 70 41 70 98S169 2 115 4C84 4 66-9 55-30l1 105H24l-1-265h31l2 30c10-21 28-34 59-34zm-8 174c40 0 45-34 45-75s-6-73-45-74c-42 0-51 32-51 76 0 43 10 73 51 73" id="bD"/><path fill="#fff" d="M24 0v-261h32V0H24" id="bE"/><g id="x"><use transform="matrix(0.06234567901234567,0,0,0.06234567901234567,0,0)" xlink:href="#bi"/><use transform="matrix(0.06234567901234567,0,0,0.06234567901234567,16.147530864197527,0)" xlink:href="#br"/><use transform="matrix(0.06234567901234567,0,0,0.06234567901234567,28.61666666666666,0)" xlink:href="#bC"/><use transform="matrix(0.06234567901234567,0,0,0.06234567901234567,47.25802469135802,0)" xlink:href="#bD"/><use transform="matrix(0.06234567901234567,0,0,0.06234567901234567,59.72716049382715,0)" xlink:href="#bE"/><use transform="matrix(0.06234567901234567,0,0,0.06234567901234567,64.65246913580246,0)" xlink:href="#ba"/><use transform="matrix(0.06234567901234567,0,0,0.06234567901234567,77.12160493827159,0)" xlink:href="#be"/><use transform="matrix(0.06234567901234567,0,0,0.06234567901234567,83.35617283950616,0)" xlink:href="#ba"/></g><g id="y"><use transform="matrix(0.06234567901234567,0,0,0.06234567901234567,0,0)" xlink:href="#aZ"/><use transform="matrix(0.06234567901234567,0,0,0.06234567901234567,16.147530864197527,0)" xlink:href="#ba"/><use transform="matrix(0.06234567901234567,0,0,0.06234567901234567,28.61666666666666,0)" xlink:href="#bb"/><use transform="matrix(0.06234567901234567,0,0,0.06234567901234567,41.08580246913579,0)" xlink:href="#bc"/><use transform="matrix(0.06234567901234567,0,0,0.06234567901234567,53.554938271604925,0)" xlink:href="#ba"/><use transform="matrix(0.06234567901234567,0,0,0.06234567901234567,66.02407407407406,0)" xlink:href="#bd"/><use transform="matrix(0.06234567901234567,0,0,0.06234567901234567,77.24629629629628,0)" xlink:href="#be"/></g><path fill="#fff" d="M126-127c33 6 58 20 58 59 0 88-139 92-164 29-3-8-5-16-6-25l32-3c6 27 21 44 54 44 32 0 52-15 52-46 0-38-36-46-79-43v-28c39 1 72-4 72-42 0-27-17-43-46-43-28 0-47 15-49 41l-32-3c6-42 35-63 81-64 48-1 79 21 79 65 0 36-21 52-52 59" id="bF"/><path fill="#fff" d="M155-56V0h-30v-56H8v-25l114-167h33v167h35v25h-35zm-30-156c-27 46-58 90-88 131h88v-131" id="bG"/><g id="z"><use transform="matrix(0.06234567901234565,0,0,0.06234567901234565,0,0)" xlink:href="#bF"/><use transform="matrix(0.06234567901234565,0,0,0.06234567901234565,12.46913580246913,0)" xlink:href="#bA"/><use transform="matrix(0.06234567901234565,0,0,0.06234567901234565,24.93827160493826,0)" xlink:href="#bG"/></g><g id="A"><use transform="matrix(0.06234567901234565,0,0,0.06234567901234565,0,0)" xlink:href="#aZ"/><use transform="matrix(0.06234567901234565,0,0,0.06234567901234565,16.147530864197524,0)" xlink:href="#ba"/><use transform="matrix(0.06234567901234565,0,0,0.06234567901234565,28.616666666666653,0)" xlink:href="#bb"/><use transform="matrix(0.06234567901234565,0,0,0.06234567901234565,41.085802469135785,0)" xlink:href="#bc"/><use transform="matrix(0.06234567901234565,0,0,0.06234567901234565,53.55493827160492,0)" xlink:href="#ba"/><use transform="matrix(0.06234567901234565,0,0,0.06234567901234565,66.02407407407405,0)" xlink:href="#bd"/><use transform="matrix(0.06234567901234565,0,0,0.06234567901234565,77.24629629629626,0)" xlink:href="#be"/></g><g id="B"><use transform="matrix(0.06234567901234565,0,0,0.06234567901234565,0,0)" xlink:href="#bC"/><use transform="matrix(0.06234567901234565,0,0,0.06234567901234565,18.64135802469135,0)" xlink:href="#bj"/><use transform="matrix(0.06234567901234565,0,0,0.06234567901234565,31.110493827160482,0)" xlink:href="#bE"/><use transform="matrix(0.06234567901234565,0,0,0.06234567901234565,36.03580246913579,0)" xlink:href="#bt"/><use transform="matrix(0.06234567901234565,0,0,0.06234567901234565,42.27037037037035,0)" xlink:href="#br"/><use transform="matrix(0.06234567901234565,0,0,0.06234567901234565,54.739506172839484,0)" xlink:href="#bv"/><use transform="matrix(0.06234567901234565,0,0,0.06234567901234565,62.15864197530862,0)" xlink:href="#bC"/><use transform="matrix(0.06234567901234565,0,0,0.06234567901234565,80.79999999999997,0)" xlink:href="#ba"/><use transform="matrix(0.06234567901234565,0,0,0.06234567901234565,93.2691358024691,0)" xlink:href="#bm"/></g><g id="C"><use transform="matrix(0.06234567901234565,0,0,0.06234567901234565,0,0)" xlink:href="#bG"/><use transform="matrix(0.06234567901234565,0,0,0.06234567901234565,12.46913580246913,0)" xlink:href="#bA"/><use transform="matrix(0.06234567901234565,0,0,0.06234567901234565,24.93827160493826,0)" xlink:href="#bA"/></g><path fill="#fff" d="M179-190L93 31C79 59 56 82 12 73V49c39 6 53-20 64-50L1-190h34L92-34l54-156h33" id="bH"/><g id="D"><use transform="matrix(0.06234567901234567,0,0,0.06234567901234567,0,0)" xlink:href="#aZ"/><use transform="matrix(0.06234567901234567,0,0,0.06234567901234567,16.147530864197527,0)" xlink:href="#ba"/><use transform="matrix(0.06234567901234567,0,0,0.06234567901234567,28.61666666666666,0)" xlink:href="#bC"/><use transform="matrix(0.06234567901234567,0,0,0.06234567901234567,47.25802469135802,0)" xlink:href="#ba"/><use transform="matrix(0.06234567901234567,0,0,0.06234567901234567,59.72716049382715,0)" xlink:href="#bm"/><use transform="matrix(0.06234567901234567,0,0,0.06234567901234567,72.19629629629628,0)" xlink:href="#bH"/></g><g id="E"><use transform="matrix(0.06234567901234567,0,0,0.06234567901234567,0,0)" xlink:href="#ba"/><use transform="matrix(0.06234567901234567,0,0,0.06234567901234567,12.469135802469133,0)" xlink:href="#bv"/><use transform="matrix(0.06234567901234567,0,0,0.06234567901234567,19.888271604938268,0)" xlink:href="#bv"/><use transform="matrix(0.06234567901234567,0,0,0.06234567901234567,27.307407407407403,0)" xlink:href="#br"/><use transform="matrix(0.06234567901234567,0,0,0.06234567901234567,39.776543209876536,0)" xlink:href="#bv"/></g><g id="F"><use transform="matrix(0.06234567901234567,0,0,0.06234567901234567,0,0)" xlink:href="#bj"/><use transform="matrix(0.06234567901234567,0,0,0.06234567901234567,12.469135802469133,0)" xlink:href="#bw"/><use transform="matrix(0.06234567901234567,0,0,0.06234567901234567,24.938271604938265,0)" xlink:href="#bm"/></g><g id="G"><use transform="matrix(0.06234567901234567,0,0,0.06234567901234567,0,0)" xlink:href="#be"/><use transform="matrix(0.06234567901234567,0,0,0.06234567901234567,6.234567901234566,0)" xlink:href="#bv"/><use transform="matrix(0.06234567901234567,0,0,0.06234567901234567,13.653703703703702,0)" xlink:href="#bH"/></g><path fill="#fff" d="M177-190C167-65 218 103 67 71c-23-6-38-20-44-43l32-5c15 47 100 32 89-28v-30C133-14 115 1 83 1 29 1 15-40 15-95c0-56 16-97 71-98 29-1 48 16 59 35 1-10 0-23 2-32h30zM94-22c36 0 50-32 50-73 0-42-14-75-50-75-39 0-46 34-46 75s6 73 46 73" id="bI"/><g id="H"><use transform="matrix(0.06234567901234567,0,0,0.06234567901234567,0,0)" xlink:href="#bj"/><use transform="matrix(0.06234567901234567,0,0,0.06234567901234567,12.469135802469133,0)" xlink:href="#bI"/><use transform="matrix(0.06234567901234567,0,0,0.06234567901234567,24.938271604938265,0)" xlink:href="#bj"/><use transform="matrix(0.06234567901234567,0,0,0.06234567901234567,37.4074074074074,0)" xlink:href="#bs"/><use transform="matrix(0.06234567901234567,0,0,0.06234567901234567,42.332716049382704,0)" xlink:href="#bw"/></g><path fill="#fff" d="M33 0v-248h34V0H33" id="bJ"/><path fill="#fff" d="M108 0H70L1-190h34L89-25l56-165h34" id="bK"/><g id="I"><use transform="matrix(0.06234567901234565,0,0,0.06234567901234565,0,0)" xlink:href="#bJ"/><use transform="matrix(0.06234567901234565,0,0,0.06234567901234565,6.234567901234565,0)" xlink:href="#bw"/><use transform="matrix(0.06234567901234565,0,0,0.06234567901234565,18.703703703703695,0)" xlink:href="#bK"/><use transform="matrix(0.06234567901234565,0,0,0.06234567901234565,29.925925925925913,0)" xlink:href="#bj"/><use transform="matrix(0.06234567901234565,0,0,0.06234567901234565,42.39506172839504,0)" xlink:href="#bE"/><use transform="matrix(0.06234567901234565,0,0,0.06234567901234565,47.32037037037035,0)" xlink:href="#bs"/><use transform="matrix(0.06234567901234565,0,0,0.06234567901234565,52.245679012345654,0)" xlink:href="#bm"/></g><g id="J"><use transform="matrix(0.06234567901234565,0,0,0.06234567901234565,0,0)" xlink:href="#bC"/><use transform="matrix(0.06234567901234565,0,0,0.06234567901234565,18.64135802469135,0)" xlink:href="#bs"/><use transform="matrix(0.06234567901234565,0,0,0.06234567901234565,23.566666666666656,0)" xlink:href="#bd"/><use transform="matrix(0.06234567901234565,0,0,0.06234567901234565,34.78888888888888,0)" xlink:href="#bd"/><use transform="matrix(0.06234567901234565,0,0,0.06234567901234565,46.01111111111109,0)" xlink:href="#bs"/><use transform="matrix(0.06234567901234565,0,0,0.06234567901234565,50.9364197530864,0)" xlink:href="#bw"/><use transform="matrix(0.06234567901234565,0,0,0.06234567901234565,63.40555555555553,0)" xlink:href="#bI"/></g><g id="K"><use transform="matrix(0.06234567901234565,0,0,0.06234567901234565,0,0)" xlink:href="#bb"/><use transform="matrix(0.06234567901234565,0,0,0.06234567901234565,12.46913580246913,0)" xlink:href="#bc"/><use transform="matrix(0.06234567901234565,0,0,0.06234567901234565,24.93827160493826,0)" xlink:href="#ba"/><use transform="matrix(0.06234567901234565,0,0,0.06234567901234565,37.40740740740739,0)" xlink:href="#bv"/><use transform="matrix(0.06234567901234565,0,0,0.06234567901234565,44.826543209876526,0)" xlink:href="#bH"/></g><g id="L"><use transform="matrix(0.06234567901234565,0,0,0.06234567901234565,0,0)" xlink:href="#bD"/><use transform="matrix(0.06234567901234565,0,0,0.06234567901234565,12.46913580246913,0)" xlink:href="#bj"/><use transform="matrix(0.06234567901234565,0,0,0.06234567901234565,24.93827160493826,0)" xlink:href="#be"/><use transform="matrix(0.06234567901234565,0,0,0.06234567901234565,31.172839506172828,0)" xlink:href="#bl"/></g><g id="M"><use transform="matrix(0.06234567901234565,0,0,0.06234567901234565,0,0)" xlink:href="#br"/><use transform="matrix(0.06234567901234565,0,0,0.06234567901234565,12.46913580246913,0)" xlink:href="#bv"/></g><path fill="#fff" d="M115-194c53 0 69 39 70 98 0 66-23 100-70 100C84 3 66-7 56-30L54 0H23l1-261h32v101c10-23 28-34 59-34zm-8 174c40 0 45-34 45-75 0-40-5-75-45-74-42 0-51 32-51 76 0 43 10 73 51 73" id="bL"/><g id="N"><use transform="matrix(0.06234567901234565,0,0,0.06234567901234565,0,0)" xlink:href="#bL"/><use transform="matrix(0.06234567901234565,0,0,0.06234567901234565,12.46913580246913,0)" xlink:href="#br"/><use transform="matrix(0.06234567901234565,0,0,0.06234567901234565,24.93827160493826,0)" xlink:href="#bm"/><use transform="matrix(0.06234567901234565,0,0,0.06234567901234565,37.40740740740739,0)" xlink:href="#bH"/></g><g id="O"><use transform="matrix(0.06234567901234565,0,0,0.06234567901234565,0,0)" xlink:href="#bD"/><use transform="matrix(0.06234567901234565,0,0,0.06234567901234565,12.46913580246913,0)" xlink:href="#bj"/><use transform="matrix(0.06234567901234565,0,0,0.06234567901234565,24.93827160493826,0)" xlink:href="#bv"/><use transform="matrix(0.06234567901234565,0,0,0.06234567901234565,32.35740740740739,0)" xlink:href="#bj"/><use transform="matrix(0.06234567901234565,0,0,0.06234567901234565,44.826543209876526,0)" xlink:href="#bC"/><use transform="matrix(0.06234567901234565,0,0,0.06234567901234565,63.467901234567876,0)" xlink:href="#ba"/><use transform="matrix(0.06234567901234565,0,0,0.06234567901234565,75.937037037037,0)" xlink:href="#be"/><use transform="matrix(0.06234567901234565,0,0,0.06234567901234565,82.17160493827157,0)" xlink:href="#ba"/><use transform="matrix(0.06234567901234565,0,0,0.06234567901234565,94.6407407407407,0)" xlink:href="#bv"/></g><g id="P"><use transform="matrix(0.06234567901234565,0,0,0.06234567901234565,0,0)" xlink:href="#bG"/><use transform="matrix(0.06234567901234565,0,0,0.06234567901234565,12.46913580246913,0)" xlink:href="#bz"/><use transform="matrix(0.06234567901234565,0,0,0.06234567901234565,24.93827160493826,0)" xlink:href="#bz"/></g><path fill="#fff" d="M47-170H22l-4-78h33" id="bM"/><g id="Q"><use transform="matrix(0.06234567901234565,0,0,0.06234567901234565,0,0)" xlink:href="#bu"/><use transform="matrix(0.06234567901234565,0,0,0.06234567901234565,14.962962962962957,0)" xlink:href="#br"/><use transform="matrix(0.06234567901234565,0,0,0.06234567901234565,27.432098765432087,0)" xlink:href="#bC"/><use transform="matrix(0.06234567901234565,0,0,0.06234567901234565,46.07345679012344,0)" xlink:href="#ba"/><use transform="matrix(0.06234567901234565,0,0,0.06234567901234565,58.54259259259257,0)" xlink:href="#be"/><use transform="matrix(0.06234567901234565,0,0,0.06234567901234565,64.77716049382714,0)" xlink:href="#bl"/><use transform="matrix(0.06234567901234565,0,0,0.06234567901234565,77.24629629629626,0)" xlink:href="#bs"/><use transform="matrix(0.06234567901234565,0,0,0.06234567901234565,82.17160493827157,0)" xlink:href="#bw"/><use transform="matrix(0.06234567901234565,0,0,0.06234567901234565,94.6407407407407,0)" xlink:href="#bI"/><use transform="matrix(0.06234567901234565,0,0,0.06234567901234565,107.10987654320982,0)" xlink:href="#bM"/><use transform="matrix(0.06234567901234565,0,0,0.06234567901234565,111.34938271604932,0)" xlink:href="#bd"/></g><path fill="#fff" d="M206 0h-36l-40-164L89 0H53L-1-190h32L70-26l43-164h34l41 164 42-164h31" id="bN"/><g id="R"><use transform="matrix(0.06234567901234565,0,0,0.06234567901234565,0,0)" xlink:href="#bN"/><use transform="matrix(0.06234567901234565,0,0,0.06234567901234565,16.147530864197524,0)" xlink:href="#bv"/><use transform="matrix(0.06234567901234565,0,0,0.06234567901234565,23.566666666666656,0)" xlink:href="#br"/><use transform="matrix(0.06234567901234565,0,0,0.06234567901234565,36.03580246913579,0)" xlink:href="#bw"/><use transform="matrix(0.06234567901234565,0,0,0.06234567901234565,48.50493827160492,0)" xlink:href="#bI"/></g><path fill="#fff" d="M87 75C49 33 22-17 22-94c0-76 28-126 65-167h31c-38 41-64 92-64 168S80 34 118 75H87" id="bO"/><path fill="#fff" d="M127-220V0H93v-220H8v-28h204v28h-85" id="bP"/><g id="S"><use transform="matrix(0.06234567901234565,0,0,0.06234567901234565,0,0)" xlink:href="#bO"/><use transform="matrix(0.06234567901234565,0,0,0.06234567901234565,7.419135802469133,0)" xlink:href="#bP"/><use transform="matrix(0.06234567901234565,0,0,0.06234567901234565,18.579012345679004,0)" xlink:href="#ba"/><use transform="matrix(0.06234567901234565,0,0,0.06234567901234565,31.048148148148137,0)" xlink:href="#bC"/><use transform="matrix(0.06234567901234565,0,0,0.06234567901234565,49.68950617283949,0)" xlink:href="#bD"/><use transform="matrix(0.06234567901234565,0,0,0.06234567901234565,62.15864197530862,0)" xlink:href="#br"/><use transform="matrix(0.06234567901234565,0,0,0.06234567901234565,74.62777777777775,0)" xlink:href="#bv"/><use transform="matrix(0.06234567901234565,0,0,0.06234567901234565,82.04691358024688,0)" xlink:href="#bj"/><use transform="matrix(0.06234567901234565,0,0,0.06234567901234565,94.516049382716,0)" xlink:href="#bv"/><use transform="matrix(0.06234567901234565,0,0,0.06234567901234565,101.93518518518513,0)" xlink:href="#bH"/></g><path fill="#fff" d="M33-261c38 41 65 92 65 168S71 34 33 75H2C39 34 66-17 66-93S39-220 2-261h31" id="bQ"/><g id="T"><use transform="matrix(0.06234567901234565,0,0,0.06234567901234565,0,0)" xlink:href="#bs"/><use transform="matrix(0.06234567901234565,0,0,0.06234567901234565,4.925308641975307,0)" xlink:href="#bd"/><use transform="matrix(0.06234567901234565,0,0,0.06234567901234565,16.147530864197524,0)" xlink:href="#bd"/><use transform="matrix(0.06234567901234565,0,0,0.06234567901234565,27.369753086419742,0)" xlink:href="#bc"/><use transform="matrix(0.06234567901234565,0,0,0.06234567901234565,39.838888888888874,0)" xlink:href="#ba"/><use transform="matrix(0.06234567901234565,0,0,0.06234567901234565,52.30802469135801,0)" xlink:href="#bQ"/></g><path fill="#fff" d="M54-142c48-35 137-8 131 61C196 18 31 33 14-55l32-4c7 23 22 37 52 37 35-1 51-22 54-58 4-55-73-65-99-34H22l8-134h141v27H59" id="bR"/><path fill="#fff" d="M141 0L90-78 38 0H4l68-98-65-92h35l48 74 47-74h35l-64 92 68 98h-35" id="bS"/><g id="U"><use transform="matrix(0.06234567901234565,0,0,0.06234567901234565,0,0)" xlink:href="#bR"/><use transform="matrix(0.06234567901234565,0,0,0.06234567901234565,12.46913580246913,0)" xlink:href="#bS"/><use transform="matrix(0.06234567901234565,0,0,0.06234567901234565,23.691358024691347,0)" xlink:href="#bS"/></g><g id="V"><use transform="matrix(0.06234567901234567,0,0,0.06234567901234567,0,0)" xlink:href="#bP"/><use transform="matrix(0.06234567901234567,0,0,0.06234567901234567,12.843209876543208,0)" xlink:href="#bv"/><use transform="matrix(0.06234567901234567,0,0,0.06234567901234567,20.26234567901234,0)" xlink:href="#bH"/></g><g id="W"><use transform="matrix(0.06234567901234567,0,0,0.06234567901234567,0,0)" xlink:href="#bj"/><use transform="matrix(0.06234567901234567,0,0,0.06234567901234567,12.469135802469133,0)" xlink:href="#bI"/><use transform="matrix(0.06234567901234567,0,0,0.06234567901234567,24.938271604938265,0)" xlink:href="#bj"/><use transform="matrix(0.06234567901234567,0,0,0.06234567901234567,37.4074074074074,0)" xlink:href="#bs"/><use transform="matrix(0.06234567901234567,0,0,0.06234567901234567,42.332716049382704,0)" xlink:href="#bw"/></g><g id="X"><use transform="matrix(0.06234567901234567,0,0,0.06234567901234567,0,0)" xlink:href="#br"/><use transform="matrix(0.06234567901234567,0,0,0.06234567901234567,12.469135802469133,0)" xlink:href="#bv"/></g><g id="Y"><use transform="matrix(0.06234567901234567,0,0,0.06234567901234567,0,0)" xlink:href="#bk"/><use transform="matrix(0.06234567901234567,0,0,0.06234567901234567,11.22222222222222,0)" xlink:href="#br"/><use transform="matrix(0.06234567901234567,0,0,0.06234567901234567,23.691358024691354,0)" xlink:href="#bw"/><use transform="matrix(0.06234567901234567,0,0,0.06234567901234567,36.16049382716049,0)" xlink:href="#be"/><use transform="matrix(0.06234567901234567,0,0,0.06234567901234567,42.39506172839505,0)" xlink:href="#bj"/><use transform="matrix(0.06234567901234567,0,0,0.06234567901234567,54.86419753086418,0)" xlink:href="#bk"/><use transform="matrix(0.06234567901234567,0,0,0.06234567901234567,66.0864197530864,0)" xlink:href="#be"/></g><g id="Z"><use transform="matrix(0.06234567901234567,0,0,0.06234567901234567,0,0)" xlink:href="#bd"/><use transform="matrix(0.06234567901234567,0,0,0.06234567901234567,11.22222222222222,0)" xlink:href="#bc"/><use transform="matrix(0.06234567901234567,0,0,0.06234567901234567,23.691358024691354,0)" xlink:href="#bD"/><use transform="matrix(0.06234567901234567,0,0,0.06234567901234567,36.16049382716049,0)" xlink:href="#bD"/><use transform="matrix(0.06234567901234567,0,0,0.06234567901234567,48.62962962962962,0)" xlink:href="#br"/><use transform="matrix(0.06234567901234567,0,0,0.06234567901234567,61.09876543209875,0)" xlink:href="#bv"/><use transform="matrix(0.06234567901234567,0,0,0.06234567901234567,68.51790123456789,0)" xlink:href="#be"/></g></defs></g></svg>