<svg xmlns="http://www.w3.org/2000/svg" xmlns:xlink="http://www.w3.org/1999/xlink" xmlns:lucid="lucid" width="2432.79" height="1745.18"><g transform="translate(0 0)" lucid:page-tab-id="0_0"><path d="M0 0h2432.8v1745.18H0z" fill="#fff"/><path d="M1017.25 1533.63h143.82v35.82h-143.82z" fill="none"/><use xlink:href="#a" transform="matrix(1,0,0,1,1017.2465784708997,1533.6257269748883) translate(0 21.11111111111111)"/><path d="M1161.07 1546.38c0 7.04-5.7 12.75-12.75 12.75-7.04 0-12.75-5.7-12.75-12.75s5.7-12.75 12.75-12.75c7.04 0 12.75 5.7 12.75 12.75z" stroke="#666"/><path d="M1017.25 1581.04h143.82v35.83h-143.82z" fill="none"/><use xlink:href="#b" transform="matrix(1,0,0,1,1017.2465784708997,1581.0437324233906) translate(0 21.11111111111111)"/><path d="M1161.07 1599.13c0 7.04-5.7 12.75-12.75 12.75-7.04 0-12.75-5.7-12.75-12.75s5.7-12.75 12.75-12.75c7.04 0 12.75 5.7 12.75 12.75z" stroke="#666" fill="#fff"/><path d="M1155.97 1599.13c0 4.22-3.43 7.65-7.65 7.65-4.23 0-7.65-3.43-7.65-7.65 0-4.23 3.42-7.65 7.65-7.65 4.22 0 7.65 3.42 7.65 7.65z" stroke="#666"/><path d="M1017.25 1628.46h143.82v35.83h-143.82z" fill="none"/><use xlink:href="#c" transform="matrix(1,0,0,1,1017.2465784708997,1628.461737871892) translate(0 21.11111111111111)"/><path d="M1148.32 1633.63l12.75 12.75-12.75 12.75-12.75-12.75z" stroke="#666" fill="#fff"/><path d="M1200 1528.8h143.83v35.83H1200z" fill="none"/><use xlink:href="#d" transform="matrix(1,0,0,1,1200.0124485956337,1528.7977487688956) translate(0 21.11111111111111)"/><use xlink:href="#e" transform="matrix(1,0,0,1,1200.0124485956337,1528.7977487688956) translate(74.14814814814815 21.11111111111111)"/><path d="M1352.76 1536.7h40v20h-40z" stroke="#666"/><path d="M1352.76 1579.46h40l-40 18h40" stroke="#666" fill="none"/><path d="M1388.76 1595.46l4 2-4 2" stroke="#666" fill="none"/><path d="M1352.76 1579.46h40v20h-40zM1200 1576.05h143.83v35.83H1200z" fill="none"/><use xlink:href="#f" transform="matrix(1,0,0,1,1200.0124485956337,1576.0477487688956) translate(0 21.11111111111111)"/><use xlink:href="#g" transform="matrix(1,0,0,1,1200.0124485956337,1576.0477487688956) translate(82.83333333333334 21.11111111111111)"/><path d="M1363 1614.15h20l-9.6 17.25 9.6 17.25h-20l9.6-17.25z" stroke="#666" fill="#fff"/><path d="M1200 1623.3h143.83v35.83H1200z" fill="none"/><use xlink:href="#h" transform="matrix(1,0,0,1,1200.0124485956337,1623.2977487688956) translate(0 21.11111111111111)"/><use xlink:href="#i" transform="matrix(1,0,0,1,1200.0124485956337,1623.2977487688956) translate(38.19753086419753 21.11111111111111)"/><path d="M1161.07 1695.88c0 7.04-5.7 12.75-12.75 12.75-7.04 0-12.75-5.7-12.75-12.75s5.7-12.75 12.75-12.75c7.04 0 12.75 5.7 12.75 12.75z" stroke="#666" fill="#fff"/><path d="M1139.3 1686.86l18.03 18.03m0-18.04l-18.03 18.03" stroke="#666" fill="none"/><path d="M1017.25 1677.96h143.82v35.83h-143.82z" fill="none"/><use xlink:href="#j" transform="matrix(1,0,0,1,1017.2465784708997,1677.961737871892) translate(0 21.11111111111111)"/><use xlink:href="#k" transform="matrix(1,0,0,1,1017.2465784708997,1677.961737871892) translate(37.89506172839506 21.11111111111111)"/><path d="M1017.25 1502.1h143.82v35.83h-143.82z" fill="none"/><use xlink:href="#l" transform="matrix(1,0,0,1,1017.2465784708997,1502.1045279383436) translate(0 21.11111111111111)"/><path d="M998.6 1496.43c0-4.42 3.58-8 8-8h407.63c4.42 0 8 3.58 8 8v229.36c0 4.4-3.58 8-8 8H1006.6c-4.42 0-8-3.6-8-8z" stroke="#666" fill-opacity="0"/><path d="M971.6 106.67h540.48v40H971.6z" fill="none"/><use xlink:href="#m" transform="matrix(1,0,0,1,976.6075611508259,111.66666666666666) translate(153.89849108367628 18.45679012345679)"/><use xlink:href="#n" transform="matrix(1,0,0,1,976.6075611508259,111.66666666666666) translate(188.41838134430728 18.45679012345679)"/><use xlink:href="#o" transform="matrix(1,0,0,1,976.6075611508259,111.66666666666666) translate(269.9410150891632 18.45679012345679)"/><use xlink:href="#p" transform="matrix(1,0,0,1,976.6075611508259,111.66666666666666) translate(284.00823045267487 18.45679012345679)"/><use xlink:href="#q" transform="matrix(1,0,0,1,976.6075611508259,111.66666666666666) translate(319.4883401920439 18.45679012345679)"/><use xlink:href="#r" transform="matrix(1,0,0,1,976.6075611508259,111.66666666666666) translate(338.69272976680384 18.45679012345679)"/><path d="M971.6 66.67h540.48v40H971.6z" fill="none"/><use xlink:href="#s" transform="matrix(1,0,0,1,976.6075611508261,71.66666666666666) translate(74.10082304526756 23.703703703703702)"/><path d="M969.73 103.67h542.7M969.76 103.67h-1.03M1512.4 103.67h1.03" stroke="#b2b2b2" stroke-width="2" fill="none"/><path d="M66.67 240v-40H2376.4v40zM66.67 280v-40h555.55v40M622.22 280v-40h598.6v40M1220.83 280v-40h577.78v40" stroke="#666" fill="#fff"/><path d="M1798.6 280v-40h577.8v40" stroke="#666" fill="#fff"/><path d="M622.22 1400H66.67V280h555.55zM622.22 280h598.6v1120h-598.6zM1220.83 280h577.78v1120h-577.77z" stroke="#666" fill="none"/><path d="M2376.4 280v1120h-577.8V280z" stroke="#666" fill="none"/><use xlink:href="#t" transform="matrix(1,0,0,1,66.66666666666674,200) translate(1108.8086419753085 23.11111111111111)"/><use xlink:href="#u" transform="matrix(1,0,0,1,66.66666666666674,200) translate(1138.1913580246912 23.11111111111111)"/><use xlink:href="#v" transform="matrix(1,0,0,1,66.66666666666674,240) translate(244.40432098765433 23.11111111111111)"/><use xlink:href="#w" transform="matrix(1,0,0,1,622.2222222222223,240) translate(273.61728395061726 23.11111111111111)"/><use xlink:href="#x" transform="matrix(1,0,0,1,1220.8318930400785,240) translate(278.2191358024691 23.11111111111111)"/><use xlink:href="#y" transform="matrix(1,0,0,1,1798.6096708178563,240) translate(261.36728395061726 23.11111111111111)"/><path d="M388.9 375.56c0 11.04-8.97 20-20 20-11.06 0-20-8.96-20-20 0-11.05 8.94-20 20-20 11.03 0 20 8.95 20 20z" stroke="#666"/><path d="M368.9 396.56v54.33" stroke="#666" fill="none"/><path d="M368.87 396.06l.52-.02v.53h-1V396z" fill="#666"/><path d="M368.9 465.66l-4.65-14.27h9.27z" stroke="#666" fill="#666"/><path d="M304.9 600c-8.85 0-16 7.16-16 16v48c0 8.84 7.15 16 16 16h128c8.83 0 16-7.16 16-16v-48c0-8.84-7.17-16-16-16z" stroke="#666" fill="#fff"/><use xlink:href="#z" transform="matrix(1,0,0,1,296.8888888888888,608) translate(27.256172839506164 35.111111111111114)"/><use xlink:href="#A" transform="matrix(1,0,0,1,296.8888888888888,608) translate(86.49691358024691 35.111111111111114)"/><path d="M368.9 528.78v54.34" stroke="#666" fill="none"/><path d="M369.4 528.8h-1v-.52h1z" fill="#666"/><path d="M368.9 597.88l-4.65-14.26h9.27z" stroke="#666" fill="#666"/><path d="M368.9 733.33l20 20-20 20-20-20z" stroke="#666" fill="#fff"/><path d="M368.9 681v35.24" stroke="#666" fill="none"/><path d="M369.4 681h-1v-.5h1z" fill="#666"/><path d="M368.9 731l-4.65-14.26h9.27z" stroke="#666" fill="#666"/><path d="M278.9 467.78h180v60h-180l36-30z" stroke="#666" fill="#fff"/><use xlink:href="#B" transform="matrix(1,0,0,1,314.8888888888888,475.77777777776487) translate(25.608024691358025 15.777777777777775)"/><use xlink:href="#C" transform="matrix(1,0,0,1,314.8888888888888,475.77777777776487) translate(87.78703703703704 15.777777777777775)"/><use xlink:href="#D" transform="matrix(1,0,0,1,314.8888888888888,475.77777777776487) translate(37.70679012345679 34.44444444444444)"/><path d="M104.9 633.33c-8.85 0-16 7.17-16 16v48c0 8.84 7.15 16 16 16h128c8.83 0 16-7.16 16-16v-48c0-8.83-7.17-16-16-16z" stroke="#666" fill="#fff"/><use xlink:href="#E" transform="matrix(1,0,0,1,96.88888888888889,641.3333333333981) translate(30.194444444444443 35.111111111111114)"/><use xlink:href="#F" transform="matrix(1,0,0,1,96.88888888888889,641.3333333333981) translate(81.09567901234567 35.111111111111114)"/><path d="M390.1 753.33h1037.46" stroke="#666" fill="none"/><path d="M390.1 753.83h-1l.5-.5-.5-.5h1z" fill="#666"/><path d="M1442.33 753.33l-14.27 4.64v-9.27z" stroke="#666" fill="#666"/><use xlink:href="#G" transform="matrix(1,0,0,1,817.0822485588708,730.6666666667313) translate(0 12.444444444444446)"/><path d="M929.13 844.44l20 20-20 20-20-20zM2022.22 1222.22h144l36 30-36 30h-144z" stroke="#666" fill="#fff"/><use xlink:href="#H" transform="matrix(1,0,0,1,2030.222222222248,1230.222222222274) translate(22.172839506172835 25.11111111111111)"/><use xlink:href="#I" transform="matrix(1,0,0,1,2030.222222222248,1230.222222222274) translate(62.79012345679012 25.11111111111111)"/><path d="M2328.9 1252.22c0 11.05-8.97 20-20 20-11.06 0-20-8.95-20-20 0-11.04 8.94-20 20-20 11.03 0 20 8.96 20 20z" stroke="#666" fill="#fff"/><path d="M2294.74 1238.08l28.3 28.3m0-28.3l-28.3 28.3M2203.5 1252.22h68.5" stroke="#666" fill="none"/><path d="M2203.52 1252.72h-1.12l.6-.5-.6-.5h1.12z" fill="#666"/><path d="M2286.77 1252.22l-14.27 4.64v-9.27z" stroke="#666" fill="#666"/><path d="M288.9 856.44h160v20h-160z" stroke="#666"/><path d="M369.4 839.56h-1v-28.14h1zm0-46.8h-1v-18.22h1z" fill="#666"/><path d="M369.4 774.55h-1v-1l.5.5.5-.5zM368.9 854.33l-4.65-14.27h9.27z" fill="#666"/><path d="M368.9 855.94l-5.33-16.38h10.64zm-3.96-15.38l3.95 12.15 3.94-12.14z" fill="#666"/><use xlink:href="#J" transform="matrix(1,0,0,1,340.8672839506172,792.7573729260218) translate(0 12.444444444444446)"/><use xlink:href="#K" transform="matrix(1,0,0,1,340.8672839506172,792.7573729260218) translate(24.154320987654323 12.444444444444446)"/><path d="M287.9 866.44H170V730.22" stroke="#666" fill="none"/><path d="M288.4 866.94h-.52v-1h.5z" fill="#666"/><path d="M170 715.45l4.64 14.27h-9.28z" stroke="#666" fill="#666"/><path d="M369.4 1251.72h1635.94v1H368.4V877.44h1z" fill="#666"/><path d="M369.4 877.46h-1v-.52h1zM2020.1 1252.22l-14.26 4.64v-9.27z" fill="#666"/><path d="M2021.72 1252.22l-16.38 5.33v-10.65zm-15.38 3.95l12.15-3.95-12.16-3.94z" fill="#666"/><path d="M104.9 1133.33c-8.85 0-16 7.17-16 16v48c0 8.84 7.15 16 16 16h128c8.83 0 16-7.16 16-16v-48c0-8.83-7.17-16-16-16z" stroke="#666" fill="#fff"/><use xlink:href="#E" transform="matrix(1,0,0,1,96.88888888888889,1141.3333333333335) translate(35.31481481481481 35.111111111111114)"/><use xlink:href="#L" transform="matrix(1,0,0,1,96.88888888888889,1141.3333333333335) translate(86.21604938271605 35.111111111111114)"/><path d="M151.1 931.1c0 11.06-8.94 20-20 20-11.03 0-20-8.94-20-20 0-11.03 8.97-20 20-20 11.06 0 20 8.97 20 20z" stroke="#666" fill="#fff"/><path d="M143.1 931.1c0 6.64-5.36 12-12 12-6.62 0-12-5.36-12-12 0-6.62 5.38-12 12-12 6.64 0 12 5.38 12 12z" stroke="#666"/><path d="M132.6 714.33V894.4" stroke="#666" fill="none"/><path d="M133.1 714.35h-1v-.52h1z" fill="#666"/><path d="M132.6 909.17l-4.64-14.26h9.27z" stroke="#666" fill="#666"/><path d="M132.6 1132.33V967.94" stroke="#666" fill="none"/><path d="M133.1 1132.83h-1v-.5h1z" fill="#666"/><path d="M132.6 953.18l4.63 14.26h-9.27z" stroke="#666" fill="#666"/><path d="M1460.44 713.33c-8.83 0-16 7.17-16 16v48c0 8.84 7.17 16 16 16h128c8.84 0 16-7.16 16-16v-48c0-8.83-7.16-16-16-16z" stroke="#666" fill="#fff"/><use xlink:href="#M" transform="matrix(1,0,0,1,1452.4444444444443,721.3333333333981) translate(15.459876543209873 25.777777777777775)"/><use xlink:href="#N" transform="matrix(1,0,0,1,1452.4444444444443,721.3333333333981) translate(49.941358024691354 25.777777777777775)"/><use xlink:href="#O" transform="matrix(1,0,0,1,1452.4444444444443,721.3333333333981) translate(66.3179012345679 25.777777777777775)"/><use xlink:href="#P" transform="matrix(1,0,0,1,1452.4444444444443,721.3333333333981) translate(112.12037037037037 25.777777777777775)"/><use xlink:href="#Q" transform="matrix(1,0,0,1,1452.4444444444443,721.3333333333981) translate(46.98148148148148 44.44444444444444)"/><use xlink:href="#R" transform="matrix(1,0,0,1,1452.4444444444443,721.3333333333981) translate(81.50617283950618 44.44444444444444)"/><path d="M1524.44 794.33v70.1H966.22" stroke="#666" fill="none"/><path d="M1524.94 794.35h-1v-.52h1z" fill="#666"/><path d="M951.45 864.44l14.27-4.63v9.28z" stroke="#666" fill="#666"/><path d="M753.33 844.44l20 20-20 20-20-20z" stroke="#666" fill="#fff"/><path d="M907.92 864.44h-117.5" stroke="#666" fill="none"/><path d="M908.42 864.44l.5.5h-1v-1h1z" fill="#666"/><path d="M775.66 864.44l14.26-4.63v9.28z" stroke="#666" fill="#666"/><use xlink:href="#S" transform="matrix(1,0,0,1,813.3648191627134,841.777777777739) translate(0 12.444444444444446)"/><use xlink:href="#T" transform="matrix(1,0,0,1,813.3648191627134,841.777777777739) translate(37.117283950617285 12.444444444444446)"/><path d="M678.28 989.4H213.76v127.05h-1V988.4h464.52v-56.15h1zm53.85-124.46h-53.85v48.65h-1v-49.66h54.85z" fill="#666"/><path d="M732.63 864.44l.5.5h-1.02v-1h1.03zM213.26 1131.22l-4.64-14.27h9.27z" fill="#666"/><path d="M213.26 1132.83l-5.33-16.38h10.65zm-3.95-15.38l3.96 12.15 3.94-12.15z" fill="#666"/><use xlink:href="#U" transform="matrix(1,0,0,1,634.2222222222222,913.5860018329649) translate(0 12.444444444444446)"/><use xlink:href="#V" transform="matrix(1,0,0,1,634.2222222222222,913.5860018329649) translate(28.47530864197531 12.444444444444446)"/><path d="M1460.44 911.1c-8.83 0-16 7.17-16 16v48c0 8.85 7.17 16 16 16h128c8.84 0 16-7.15 16-16v-48c0-8.83-7.16-16-16-16z" stroke="#666" fill="#fff"/><use xlink:href="#W" transform="matrix(1,0,0,1,1452.4444444444443,919.11111111115) translate(9.82098765432098 35.111111111111114)"/><use xlink:href="#X" transform="matrix(1,0,0,1,1452.4444444444443,919.11111111115) translate(48.70987654320987 35.111111111111114)"/><use xlink:href="#Y" transform="matrix(1,0,0,1,1452.4444444444443,919.11111111115) translate(112.61728395061729 35.111111111111114)"/><path d="M929.13 885.65v65.46h498.43" stroke="#666" fill="none"/><path d="M929.63 885.66h-1v-1l.5.5.5-.5z" fill="#666"/><path d="M1442.33 951.1l-14.27 4.65v-9.27z" stroke="#666" fill="#666"/><use xlink:href="#S" transform="matrix(1,0,0,1,1138.7400926003465,928.4444444444833) translate(0 12.444444444444446)"/><use xlink:href="#Z" transform="matrix(1,0,0,1,1138.7400926003465,928.4444444444833) translate(37.117283950617285 12.444444444444446)"/><use xlink:href="#T" transform="matrix(1,0,0,1,1138.7400926003465,928.4444444444833) translate(63.043209876543216 12.444444444444446)"/><path d="M753.33 885.65v65.46h674.23" stroke="#666" fill="none"/><path d="M753.33 885.15l.5-.5v1h-1v-1z" fill="#666"/><path d="M1442.33 951.1l-14.27 4.65v-9.27z" stroke="#666" fill="#666"/><g><use xlink:href="#aa" transform="matrix(1,0,0,1,808.939928136252,928.4444444444833) translate(0 12.444444444444446)"/></g><path d="M1524.44 992.1v27.9H942.4" stroke="#666" fill="none"/><path d="M1524.94 992.12h-1v-.5h1z" fill="#666"/><path d="M927.64 1020l14.27-4.64v9.28z" stroke="#666" fill="#666"/><path d="M905.32 1000l20 20-20 20-20-20z" stroke="#666" fill="#fff"/><path d="M409.4 1019.5h474.7v1H408.4V892.83h1zM884.6 1020l.5.5h-1v-1h1zM413.52 892.33h-9.27l4.64-14.27z" fill="#666"/><path d="M414.2 892.83h-10.63l5.32-16.4zm-9.26-1h7.9l-3.95-12.15z" fill="#666"/><g><use xlink:href="#ab" transform="matrix(1,0,0,1,782.6025500174234,997.3333333333335) translate(0 12.444444444444446)"/><use xlink:href="#ac" transform="matrix(1,0,0,1,782.6025500174234,997.3333333333335) translate(38.75925925925926 12.444444444444446)"/></g><path d="M821.96 1142.63h160v20h-160z" stroke="#666"/><path d="M820.96 1152.63h-555.2" stroke="#666" fill="none"/><path d="M821.46 1153.13h-.5v-1h.5z" fill="#666"/><path d="M251 1152.63l14.27-4.64v9.26z" stroke="#666" fill="#666"/><path d="M982.96 1152.63h444.6" stroke="#666" fill="none"/><path d="M982.97 1153.13h-.5v-1h.5z" fill="#666"/><path d="M1442.33 1152.63l-14.27 4.63V1148z" stroke="#666" fill="#666"/><path d="M1460.44 1112.63c-8.83 0-16 7.16-16 16v48c0 8.83 7.17 16 16 16h128c8.84 0 16-7.17 16-16v-48c0-8.84-7.16-16-16-16z" stroke="#666" fill="#fff"/><g><use xlink:href="#ad" transform="matrix(1,0,0,1,1452.4444444444443,1120.6262265520818) translate(13.299382716049386 25.777777777777775)"/><use xlink:href="#X" transform="matrix(1,0,0,1,1452.4444444444443,1120.6262265520818) translate(54.73765432098766 25.777777777777775)"/><use xlink:href="#ae" transform="matrix(1,0,0,1,1452.4444444444443,1120.6262265520818) translate(118.64506172839506 25.777777777777775)"/><use xlink:href="#af" transform="matrix(1,0,0,1,1452.4444444444443,1120.6262265520818) translate(51.25925925925926 44.44444444444444)"/></g><path d="M905.82 1125.74h-1v-25h1zm0-43.66h-1v-40.87h1z" fill="#666"/><path d="M905.82 1041.22h-1v-1l.5.5.5-.5zM905.32 1140.5l-4.64-14.26h9.27z" fill="#666"/><path d="M905.32 1142.13l-5.33-16.4h10.64zm-3.95-15.4l3.95 12.16 3.94-12.16z" fill="#666"/><g><use xlink:href="#W" transform="matrix(1,0,0,1,874.6370105696652,1082.083333333301) translate(0 12.444444444444446)"/><use xlink:href="#L" transform="matrix(1,0,0,1,874.6370105696652,1082.083333333301) translate(38.88888888888889 12.444444444444446)"/></g><defs><path fill="#666" d="M185-189c-5-48-123-54-124 2 14 75 158 14 163 119 3 78-121 87-175 55-17-10-28-26-33-46l33-7c5 56 141 63 141-1 0-78-155-14-162-118-5-82 145-84 179-34 5 7 8 16 11 25" id="ag"/><path fill="#666" d="M59-47c-2 24 18 29 38 22v24C64 9 27 4 27-40v-127H5v-23h24l9-43h21v43h35v23H59v120" id="ah"/><path fill="#666" d="M141-36C126-15 110 5 73 4 37 3 15-17 15-53c-1-64 63-63 125-63 3-35-9-54-41-54-24 1-41 7-42 31l-33-3c5-37 33-52 76-52 45 0 72 20 72 64v82c-1 20 7 32 28 27v20c-31 9-61-2-59-35zM48-53c0 20 12 33 32 33 41-3 63-29 60-74-43 2-92-5-92 41" id="ai"/><path fill="#666" d="M114-163C36-179 61-72 57 0H25l-1-190h30c1 12-1 29 2 39 6-27 23-49 58-41v29" id="aj"/><g id="a"><use transform="matrix(0.04320987654320988,0,0,0.04320987654320988,0,0)" xlink:href="#ag"/><use transform="matrix(0.04320987654320988,0,0,0.04320987654320988,10.370370370370372,0)" xlink:href="#ah"/><use transform="matrix(0.04320987654320988,0,0,0.04320987654320988,14.691358024691363,0)" xlink:href="#ai"/><use transform="matrix(0.04320987654320988,0,0,0.04320987654320988,23.333333333333336,0)" xlink:href="#aj"/><use transform="matrix(0.04320987654320988,0,0,0.04320987654320988,28.47530864197531,0)" xlink:href="#ah"/></g><path fill="#666" d="M30 0v-248h187v28H63v79h144v27H63v87h162V0H30" id="ak"/><path fill="#666" d="M117-194c89-4 53 116 60 194h-32v-121c0-31-8-49-39-48C34-167 62-67 57 0H25l-1-190h30c1 10-1 24 2 32 11-22 29-35 61-36" id="al"/><path fill="#666" d="M85-194c31 0 48 13 60 33l-1-100h32l1 261h-30c-2-10 0-23-3-31C134-8 116 4 85 4 32 4 16-35 15-94c0-66 23-100 70-100zm9 24c-40 0-46 34-46 75 0 40 6 74 45 74 42 0 51-32 51-76 0-42-9-74-50-73" id="am"/><g id="b"><use transform="matrix(0.04320987654320988,0,0,0.04320987654320988,0,0)" xlink:href="#ak"/><use transform="matrix(0.04320987654320988,0,0,0.04320987654320988,10.370370370370372,0)" xlink:href="#al"/><use transform="matrix(0.04320987654320988,0,0,0.04320987654320988,19.01234567901235,0)" xlink:href="#am"/></g><path fill="#666" d="M160-131c35 5 61 23 61 61C221 17 115-2 30 0v-248c76 3 177-17 177 60 0 33-19 50-47 57zm-97-11c50-1 110 9 110-42 0-47-63-36-110-37v79zm0 115c55-2 124 14 124-45 0-56-70-42-124-44v89" id="an"/><path fill="#666" d="M96-169c-40 0-48 33-48 73s9 75 48 75c24 0 41-14 43-38l32 2c-6 37-31 61-74 61-59 0-76-41-82-99-10-93 101-131 147-64 4 7 5 14 7 22l-32 3c-4-21-16-35-41-35" id="ao"/><path fill="#666" d="M106-169C34-169 62-67 57 0H25v-261h32l-1 103c12-21 28-36 61-36 89 0 53 116 60 194h-32v-121c2-32-8-49-39-48" id="ap"/><path fill="#666" d="M0 4l72-265h28L28 4H0" id="aq"/><path fill="#666" d="M210-169c-67 3-38 105-44 169h-31v-121c0-29-5-50-35-48C34-165 62-65 56 0H25l-1-190h30c1 10-1 24 2 32 10-44 99-50 107 0 11-21 27-35 58-36 85-2 47 119 55 194h-31v-121c0-29-5-49-35-48" id="ar"/><path fill="#666" d="M100-194c63 0 86 42 84 106H49c0 40 14 67 53 68 26 1 43-12 49-29l28 8c-11 28-37 45-77 45C44 4 14-33 15-96c1-61 26-98 85-98zm52 81c6-60-76-77-97-28-3 7-6 17-6 28h103" id="as"/><path fill="#666" d="M177-190C167-65 218 103 67 71c-23-6-38-20-44-43l32-5c15 47 100 32 89-28v-30C133-14 115 1 83 1 29 1 15-40 15-95c0-56 16-97 71-98 29-1 48 16 59 35 1-10 0-23 2-32h30zM94-22c36 0 50-32 50-73 0-42-14-75-50-75-39 0-46 34-46 75s6 73 46 73" id="at"/><g id="c"><use transform="matrix(0.04320987654320988,0,0,0.04320987654320988,0,0)" xlink:href="#an"/><use transform="matrix(0.04320987654320988,0,0,0.04320987654320988,10.370370370370372,0)" xlink:href="#aj"/><use transform="matrix(0.04320987654320988,0,0,0.04320987654320988,15.512345679012347,0)" xlink:href="#ai"/><use transform="matrix(0.04320987654320988,0,0,0.04320987654320988,24.154320987654323,0)" xlink:href="#al"/><use transform="matrix(0.04320987654320988,0,0,0.04320987654320988,32.7962962962963,0)" xlink:href="#ao"/><use transform="matrix(0.04320987654320988,0,0,0.04320987654320988,40.574074074074076,0)" xlink:href="#ap"/><use transform="matrix(0.04320987654320988,0,0,0.04320987654320988,49.21604938271606,0)" xlink:href="#aq"/><use transform="matrix(0.04320987654320988,0,0,0.04320987654320988,53.537037037037045,0)" xlink:href="#ar"/><use transform="matrix(0.04320987654320988,0,0,0.04320987654320988,66.4567901234568,0)" xlink:href="#as"/><use transform="matrix(0.04320987654320988,0,0,0.04320987654320988,75.09876543209877,0)" xlink:href="#aj"/><use transform="matrix(0.04320987654320988,0,0,0.04320987654320988,80.24074074074075,0)" xlink:href="#at"/><use transform="matrix(0.04320987654320988,0,0,0.04320987654320988,88.88271604938272,0)" xlink:href="#as"/></g><path fill="#666" d="M197 0v-115H63V0H30v-248h33v105h134v-105h34V0h-34" id="au"/><path fill="#666" d="M100-194c62-1 85 37 85 99 1 63-27 99-86 99S16-35 15-95c0-66 28-99 85-99zM99-20c44 1 53-31 53-75 0-43-8-75-51-75s-53 32-53 75 10 74 51 75" id="av"/><path fill="#666" d="M24-231v-30h32v30H24zM24 0v-190h32V0H24" id="aw"/><path fill="#666" d="M9 0v-24l116-142H16v-24h144v24L44-24h123V0H9" id="ax"/><path fill="#666" d="M24 0v-261h32V0H24" id="ay"/><g id="d"><use transform="matrix(0.04320987654320988,0,0,0.04320987654320988,0,0)" xlink:href="#au"/><use transform="matrix(0.04320987654320988,0,0,0.04320987654320988,11.19135802469136,0)" xlink:href="#av"/><use transform="matrix(0.04320987654320988,0,0,0.04320987654320988,19.833333333333336,0)" xlink:href="#aj"/><use transform="matrix(0.04320987654320988,0,0,0.04320987654320988,24.97530864197531,0)" xlink:href="#aw"/><use transform="matrix(0.04320987654320988,0,0,0.04320987654320988,28.388888888888893,0)" xlink:href="#ax"/><use transform="matrix(0.04320987654320988,0,0,0.04320987654320988,36.16666666666667,0)" xlink:href="#av"/><use transform="matrix(0.04320987654320988,0,0,0.04320987654320988,44.808641975308646,0)" xlink:href="#al"/><use transform="matrix(0.04320987654320988,0,0,0.04320987654320988,53.45061728395062,0)" xlink:href="#ah"/><use transform="matrix(0.04320987654320988,0,0,0.04320987654320988,57.77160493827161,0)" xlink:href="#ai"/><use transform="matrix(0.04320987654320988,0,0,0.04320987654320988,66.41358024691358,0)" xlink:href="#ay"/></g><path fill="#666" d="M101-234c-31-9-42 10-38 44h38v23H63V0H32v-167H5v-23h27c-7-52 17-82 69-68v24" id="az"/><path fill="#666" d="M143 0L79-87 56-68V0H24v-261h32v163l83-92h37l-77 82L181 0h-38" id="aA"/><path fill="#666" d="M24-231v-30h32v30H24zM-9 49c24 4 33-6 33-30v-209h32V24c2 40-23 58-65 49V49" id="aB"/><g id="e"><use transform="matrix(0.04320987654320988,0,0,0.04320987654320988,0,0)" xlink:href="#az"/><use transform="matrix(0.04320987654320988,0,0,0.04320987654320988,4.320987654320988,0)" xlink:href="#av"/><use transform="matrix(0.04320987654320988,0,0,0.04320987654320988,12.962962962962964,0)" xlink:href="#aj"/><use transform="matrix(0.04320987654320988,0,0,0.04320987654320988,18.10493827160494,0)" xlink:href="#aA"/><use transform="matrix(0.04320987654320988,0,0,0.04320987654320988,25.88271604938272,0)" xlink:href="#aq"/><use transform="matrix(0.04320987654320988,0,0,0.04320987654320988,30.203703703703706,0)" xlink:href="#aB"/><use transform="matrix(0.04320987654320988,0,0,0.04320987654320988,33.617283950617285,0)" xlink:href="#av"/><use transform="matrix(0.04320987654320988,0,0,0.04320987654320988,42.25925925925926,0)" xlink:href="#aw"/><use transform="matrix(0.04320987654320988,0,0,0.04320987654320988,45.67283950617284,0)" xlink:href="#al"/></g><path fill="#666" d="M33 0v-248h34V0H33" id="aC"/><path fill="#666" d="M84 4C-5 8 30-112 23-190h32v120c0 31 7 50 39 49 72-2 45-101 50-169h31l1 190h-30c-1-10 1-25-2-33-11 22-28 36-60 37" id="aD"/><path fill="#666" d="M115-194c55 1 70 41 70 98S169 2 115 4C84 4 66-9 55-30l1 105H24l-1-265h31l2 30c10-21 28-34 59-34zm-8 174c40 0 45-34 45-75s-6-73-45-74c-42 0-51 32-51 76 0 43 10 73 51 73" id="aE"/><g id="f"><use transform="matrix(0.04320987654320988,0,0,0.04320987654320988,0,0)" xlink:href="#aC"/><use transform="matrix(0.04320987654320988,0,0,0.04320987654320988,4.320987654320988,0)" xlink:href="#al"/><use transform="matrix(0.04320987654320988,0,0,0.04320987654320988,12.962962962962964,0)" xlink:href="#ah"/><use transform="matrix(0.04320987654320988,0,0,0.04320987654320988,17.283950617283953,0)" xlink:href="#as"/><use transform="matrix(0.04320987654320988,0,0,0.04320987654320988,25.925925925925927,0)" xlink:href="#aj"/><use transform="matrix(0.04320987654320988,0,0,0.04320987654320988,31.067901234567906,0)" xlink:href="#aj"/><use transform="matrix(0.04320987654320988,0,0,0.04320987654320988,36.20987654320988,0)" xlink:href="#aD"/><use transform="matrix(0.04320987654320988,0,0,0.04320987654320988,44.851851851851855,0)" xlink:href="#aE"/><use transform="matrix(0.04320987654320988,0,0,0.04320987654320988,53.49382716049383,0)" xlink:href="#ah"/><use transform="matrix(0.04320987654320988,0,0,0.04320987654320988,57.814814814814824,0)" xlink:href="#aw"/><use transform="matrix(0.04320987654320988,0,0,0.04320987654320988,61.2283950617284,0)" xlink:href="#al"/><use transform="matrix(0.04320987654320988,0,0,0.04320987654320988,69.87037037037038,0)" xlink:href="#at"/></g><g id="g"><use transform="matrix(0.04320987654320988,0,0,0.04320987654320988,0,0)" xlink:href="#as"/><use transform="matrix(0.04320987654320988,0,0,0.04320987654320988,8.641975308641976,0)" xlink:href="#am"/><use transform="matrix(0.04320987654320988,0,0,0.04320987654320988,17.283950617283953,0)" xlink:href="#at"/><use transform="matrix(0.04320987654320988,0,0,0.04320987654320988,25.925925925925927,0)" xlink:href="#as"/></g><path fill="#666" d="M127-220V0H93v-220H8v-28h204v28h-85" id="aF"/><g id="h"><use transform="matrix(0.04320987654320988,0,0,0.04320987654320988,0,0)" xlink:href="#aF"/><use transform="matrix(0.04320987654320988,0,0,0.04320987654320988,8.901234567901236,0)" xlink:href="#aw"/><use transform="matrix(0.04320987654320988,0,0,0.04320987654320988,12.314814814814817,0)" xlink:href="#ar"/><use transform="matrix(0.04320987654320988,0,0,0.04320987654320988,25.23456790123457,0)" xlink:href="#as"/></g><path fill="#666" d="M108 0H70L1-190h34L89-25l56-165h34" id="aG"/><g id="i"><use transform="matrix(0.04320987654320988,0,0,0.04320987654320988,0,0)" xlink:href="#as"/><use transform="matrix(0.04320987654320988,0,0,0.04320987654320988,8.641975308641976,0)" xlink:href="#aG"/><use transform="matrix(0.04320987654320988,0,0,0.04320987654320988,16.419753086419753,0)" xlink:href="#as"/><use transform="matrix(0.04320987654320988,0,0,0.04320987654320988,25.061728395061728,0)" xlink:href="#al"/><use transform="matrix(0.04320987654320988,0,0,0.04320987654320988,33.7037037037037,0)" xlink:href="#ah"/></g><path fill="#666" d="M63-220v92h138v28H63V0H30v-248h175v28H63" id="aH"/><g id="j"><use transform="matrix(0.04320987654320988,0,0,0.04320987654320988,0,0)" xlink:href="#aH"/><use transform="matrix(0.04320987654320988,0,0,0.04320987654320988,9.462962962962964,0)" xlink:href="#aw"/><use transform="matrix(0.04320987654320988,0,0,0.04320987654320988,12.876543209876544,0)" xlink:href="#al"/><use transform="matrix(0.04320987654320988,0,0,0.04320987654320988,21.51851851851852,0)" xlink:href="#ai"/><use transform="matrix(0.04320987654320988,0,0,0.04320987654320988,30.160493827160494,0)" xlink:href="#ay"/></g><path fill="#666" d="M206 0h-36l-40-164L89 0H53L-1-190h32L70-26l43-164h34l41 164 42-164h31" id="aI"/><g id="k"><use transform="matrix(0.04320987654320988,0,0,0.04320987654320988,0,0)" xlink:href="#az"/><use transform="matrix(0.04320987654320988,0,0,0.04320987654320988,4.320987654320988,0)" xlink:href="#ay"/><use transform="matrix(0.04320987654320988,0,0,0.04320987654320988,7.734567901234569,0)" xlink:href="#av"/><use transform="matrix(0.04320987654320988,0,0,0.04320987654320988,16.376543209876544,0)" xlink:href="#aI"/></g><path fill="#666" d="M24 0v-248h52v208h133V0H24" id="aJ"/><path fill="#666" d="M185-48c-13 30-37 53-82 52C43 2 14-33 14-96s30-98 90-98c62 0 83 45 84 108H66c0 31 8 55 39 56 18 0 30-7 34-22zm-45-69c5-46-57-63-70-21-2 6-4 13-4 21h74" id="aK"/><path fill="#666" d="M195-6C206 82 75 100 31 46c-4-6-6-13-8-21l49-6c3 16 16 24 34 25 40 0 42-37 40-79-11 22-30 35-61 35-53 0-70-43-70-97 0-56 18-96 73-97 30 0 46 14 59 34l2-30h47zm-90-29c32 0 41-27 41-63 0-35-9-62-40-62-32 0-39 29-40 63 0 36 9 62 39 62" id="aL"/><path fill="#666" d="M135-194c87-1 58 113 63 194h-50c-7-57 23-157-34-157-59 0-34 97-39 157H25l-1-190h47c2 12-1 28 3 38 12-26 28-41 61-42" id="aM"/><path fill="#666" d="M88-194c31-1 46 15 58 34l-1-101h50l1 261h-48c-2-10 0-23-3-31C134-8 116 4 84 4 32 4 16-41 15-95c0-56 19-97 73-99zm17 164c33 0 40-30 41-66 1-37-9-64-41-64s-38 30-39 65c0 43 13 65 39 65" id="aN"/><g id="l"><use transform="matrix(0.04320987654320988,0,0,0.04320987654320988,0,0)" xlink:href="#aJ"/><use transform="matrix(0.04320987654320988,0,0,0.04320987654320988,9.462962962962964,0)" xlink:href="#aK"/><use transform="matrix(0.04320987654320988,0,0,0.04320987654320988,18.10493827160494,0)" xlink:href="#aL"/><use transform="matrix(0.04320987654320988,0,0,0.04320987654320988,27.567901234567906,0)" xlink:href="#aK"/><use transform="matrix(0.04320987654320988,0,0,0.04320987654320988,36.20987654320988,0)" xlink:href="#aM"/><use transform="matrix(0.04320987654320988,0,0,0.04320987654320988,45.67283950617284,0)" xlink:href="#aN"/></g><path fill="#b2b2b2" d="M33 0v-248h34V0H33" id="aO"/><path fill="#b2b2b2" d="M106-169C34-169 62-67 57 0H25v-261h32l-1 103c12-21 28-36 61-36 89 0 53 116 60 194h-32v-121c2-32-8-49-39-48" id="aP"/><path fill="#b2b2b2" d="M100-194c62-1 85 37 85 99 1 63-27 99-86 99S16-35 15-95c0-66 28-99 85-99zM99-20c44 1 53-31 53-75 0-43-8-75-51-75s-53 32-53 75 10 74 51 75" id="aQ"/><path fill="#b2b2b2" d="M114-163C36-179 61-72 57 0H25l-1-190h30c1 12-1 29 2 39 6-27 23-49 58-41v29" id="aR"/><g id="m"><use transform="matrix(0.04801097393689986,0,0,0.04801097393689986,0,0)" xlink:href="#aO"/><use transform="matrix(0.04801097393689986,0,0,0.04801097393689986,4.801097393689986,0)" xlink:href="#aP"/><use transform="matrix(0.04801097393689986,0,0,0.04801097393689986,14.403292181069958,0)" xlink:href="#aQ"/><use transform="matrix(0.04801097393689986,0,0,0.04801097393689986,24.00548696844993,0)" xlink:href="#aR"/></g><path fill="#b2b2b2" d="M197 0v-115H63V0H30v-248h33v105h134v-105h34V0h-34" id="aS"/><path fill="#b2b2b2" d="M179-190L93 31C79 59 56 82 12 73V49c39 6 53-20 64-50L1-190h34L92-34l54-156h33" id="aT"/><path fill="#b2b2b2" d="M135-143c-3-34-86-38-87 0 15 53 115 12 119 90S17 21 10-45l28-5c4 36 97 45 98 0-10-56-113-15-118-90-4-57 82-63 122-42 12 7 21 19 24 35" id="aU"/><path fill="#b2b2b2" d="M143 0L79-87 56-68V0H24v-261h32v163l83-92h37l-77 82L181 0h-38" id="aV"/><path fill="#b2b2b2" d="M108 0H70L1-190h34L89-25l56-165h34" id="aW"/><g id="n"><use transform="matrix(0.04801097393689986,0,0,0.04801097393689986,0,0)" xlink:href="#aS"/><use transform="matrix(0.04801097393689986,0,0,0.04801097393689986,12.434842249657065,0)" xlink:href="#aR"/><use transform="matrix(0.04801097393689986,0,0,0.04801097393689986,18.14814814814815,0)" xlink:href="#aT"/><use transform="matrix(0.04801097393689986,0,0,0.04801097393689986,26.790123456790123,0)" xlink:href="#aU"/><use transform="matrix(0.04801097393689986,0,0,0.04801097393689986,35.4320987654321,0)" xlink:href="#aP"/><use transform="matrix(0.04801097393689986,0,0,0.04801097393689986,45.03429355281207,0)" xlink:href="#aV"/><use transform="matrix(0.04801097393689986,0,0,0.04801097393689986,53.67626886145405,0)" xlink:href="#aQ"/><use transform="matrix(0.04801097393689986,0,0,0.04801097393689986,63.27846364883402,0)" xlink:href="#aW"/></g><path fill="#b2b2b2" d="M32 76v-337h29V76H32" id="aX"/><use transform="matrix(0.04801097393689986,0,0,0.04801097393689986,0,0)" xlink:href="#aX" id="o"/><path fill="#b2b2b2" d="M153-248C145-148 188 4 80 4 36 3 13-21 6-62l32-5c4 25 16 42 43 43 27 0 39-20 39-49v-147H72v-28h81" id="aY"/><path fill="#b2b2b2" d="M84 4C-5 8 30-112 23-190h32v120c0 31 7 50 39 49 72-2 45-101 50-169h31l1 190h-30c-1-10 1-25-2-33-11 22-28 36-60 37" id="aZ"/><path fill="#b2b2b2" d="M24 0v-261h32V0H24" id="ba"/><g id="p"><use transform="matrix(0.04801097393689986,0,0,0.04801097393689986,0,0)" xlink:href="#aY"/><use transform="matrix(0.04801097393689986,0,0,0.04801097393689986,8.641975308641975,0)" xlink:href="#aZ"/><use transform="matrix(0.04801097393689986,0,0,0.04801097393689986,18.244170096021946,0)" xlink:href="#ba"/><use transform="matrix(0.04801097393689986,0,0,0.04801097393689986,22.037037037037035,0)" xlink:href="#aT"/></g><path fill="#b2b2b2" d="M54-142c48-35 137-8 131 61C196 18 31 33 14-55l32-4c7 23 22 37 52 37 35-1 51-22 54-58 4-55-73-65-99-34H22l8-134h141v27H59" id="bb"/><path fill="#b2b2b2" d="M68-38c1 34 0 65-14 84H32c9-13 17-26 17-46H33v-38h35" id="bc"/><g id="q"><use transform="matrix(0.04801097393689986,0,0,0.04801097393689986,0,0)" xlink:href="#bb"/><use transform="matrix(0.04801097393689986,0,0,0.04801097393689986,9.602194787379972,0)" xlink:href="#bc"/></g><path fill="#b2b2b2" d="M101-251c82-7 93 87 43 132L82-64C71-53 59-42 53-27h129V0H18c2-99 128-94 128-182 0-28-16-43-45-43s-46 15-49 41l-32-3c6-41 34-60 81-64" id="bd"/><path fill="#b2b2b2" d="M101-251c68 0 85 55 85 127S166 4 100 4C33 4 14-52 14-124c0-73 17-127 87-127zm-1 229c47 0 54-49 54-102s-4-102-53-102c-51 0-55 48-55 102 0 53 5 102 54 102" id="be"/><g id="r"><use transform="matrix(0.04801097393689986,0,0,0.04801097393689986,0,0)" xlink:href="#bd"/><use transform="matrix(0.04801097393689986,0,0,0.04801097393689986,9.602194787379972,0)" xlink:href="#be"/><use transform="matrix(0.04801097393689986,0,0,0.04801097393689986,19.204389574759944,0)" xlink:href="#bd"/><use transform="matrix(0.04801097393689986,0,0,0.04801097393689986,28.806584362139915,0)" xlink:href="#be"/></g><path fill="#b2b2b2" d="M24 0v-248h195v40H76v63h132v40H76v65h150V0H24" id="bf"/><path fill="#b2b2b2" d="M230 0l2-204L168 0h-37L68-204 70 0H24v-248h70l56 185 57-185h69V0h-46" id="bg"/><path fill="#b2b2b2" d="M169-182c-1-43-94-46-97-3 18 66 151 10 154 114 3 95-165 93-204 36-6-8-10-19-12-30l50-8c3 46 112 56 116 5-17-69-150-10-154-114-4-87 153-88 188-35 5 8 8 18 10 28" id="bh"/><path fill="#b2b2b2" d="M-4 44V30h207v14H-4" id="bi"/><path fill="#b2b2b2" d="M67-125c0 53 21 87 73 88 37 1 54-22 65-47l45 17C233-25 199 4 140 4 58 4 20-42 15-125 8-235 124-281 211-232c18 10 29 29 36 50l-46 12c-8-25-30-41-62-41-52 0-71 34-72 86" id="bj"/><path fill="#b2b2b2" d="M110-194c64 0 96 36 96 99 0 64-35 99-97 99-61 0-95-36-95-99 0-62 34-99 96-99zm-1 164c35 0 45-28 45-65 0-40-10-65-43-65-34 0-45 26-45 65 0 36 10 65 43 65" id="bk"/><path fill="#b2b2b2" d="M85 4C-2 5 27-109 22-190h50c7 57-23 150 33 157 60-5 35-97 40-157h50l1 190h-47c-2-12 1-28-3-38-12 25-28 42-61 42" id="bl"/><path fill="#b2b2b2" d="M135-194c87-1 58 113 63 194h-50c-7-57 23-157-34-157-59 0-34 97-39 157H25l-1-190h47c2 12-1 28 3 38 12-26 28-41 61-42" id="bm"/><path fill="#b2b2b2" d="M115-3C79 11 28 4 28-45v-112H4v-33h27l15-45h31v45h36v33H77v99c-1 23 16 31 38 25v30" id="bn"/><path fill="#b2b2b2" d="M185-48c-13 30-37 53-82 52C43 2 14-33 14-96s30-98 90-98c62 0 83 45 84 108H66c0 31 8 55 39 56 18 0 30-7 34-22zm-45-69c5-46-57-63-70-21-2 6-4 13-4 21h74" id="bo"/><path fill="#b2b2b2" d="M135-150c-39-12-60 13-60 57V0H25l-1-190h47c2 13-1 29 3 40 6-28 27-53 61-41v41" id="bp"/><path fill="#b2b2b2" d="M199 0l-22-63H83L61 0H9l90-248h61L250 0h-51zm-33-102l-36-108c-10 38-24 72-36 108h72" id="bq"/><path fill="#b2b2b2" d="M190-63c-7 42-38 67-86 67-59 0-84-38-90-98-12-110 154-137 174-36l-49 2c-2-19-15-32-35-32-30 0-35 28-38 64-6 74 65 87 74 30" id="br"/><path fill="#b2b2b2" d="M25-224v-37h50v37H25zM25 0v-190h50V0H25" id="bs"/><path fill="#b2b2b2" d="M128 0H69L1-190h53L99-40l48-150h52" id="bt"/><path fill="#b2b2b2" d="M123 10C108 53 80 86 19 72V37c35 8 53-11 59-39L3-190h52l48 148c12-52 28-100 44-148h51" id="bu"/><path fill="#b2b2b2" d="M23 0v-37h61v-169l-59 37v-38l62-41h46v211h57V0H23" id="bv"/><path fill="#b2b2b2" d="M24 0v-54h51V0H24" id="bw"/><path fill="#b2b2b2" d="M101-251c68 0 84 54 84 127C185-50 166 4 99 4S15-52 14-124c-1-75 17-127 87-127zm-1 216c37-5 36-46 36-89s4-89-36-89c-39 0-36 45-36 89 0 43-3 85 36 89" id="bx"/><g id="s"><use transform="matrix(0.08230452674897118,0,0,0.08230452674897118,0,0)" xlink:href="#bf"/><use transform="matrix(0.08230452674897118,0,0,0.08230452674897118,19.75308641975308,0)" xlink:href="#bg"/><use transform="matrix(0.08230452674897118,0,0,0.08230452674897118,44.362139917695465,0)" xlink:href="#bh"/><use transform="matrix(0.08230452674897118,0,0,0.08230452674897118,64.11522633744855,0)" xlink:href="#bi"/><use transform="matrix(0.08230452674897118,0,0,0.08230452674897118,80.57613168724278,0)" xlink:href="#bj"/><use transform="matrix(0.08230452674897118,0,0,0.08230452674897118,101.89300411522632,0)" xlink:href="#bk"/><use transform="matrix(0.08230452674897118,0,0,0.08230452674897118,119.91769547325102,0)" xlink:href="#bl"/><use transform="matrix(0.08230452674897118,0,0,0.08230452674897118,137.94238683127568,0)" xlink:href="#bm"/><use transform="matrix(0.08230452674897118,0,0,0.08230452674897118,155.96707818930037,0)" xlink:href="#bn"/><use transform="matrix(0.08230452674897118,0,0,0.08230452674897118,165.76131687242793,0)" xlink:href="#bo"/><use transform="matrix(0.08230452674897118,0,0,0.08230452674897118,182.22222222222214,0)" xlink:href="#bp"/><use transform="matrix(0.08230452674897118,0,0,0.08230452674897118,193.7448559670781,0)" xlink:href="#bq"/><use transform="matrix(0.08230452674897118,0,0,0.08230452674897118,215.06172839506166,0)" xlink:href="#br"/><use transform="matrix(0.08230452674897118,0,0,0.08230452674897118,231.52263374485588,0)" xlink:href="#bn"/><use transform="matrix(0.08230452674897118,0,0,0.08230452674897118,241.31687242798347,0)" xlink:href="#bs"/><use transform="matrix(0.08230452674897118,0,0,0.08230452674897118,249.5473251028806,0)" xlink:href="#bt"/><use transform="matrix(0.08230452674897118,0,0,0.08230452674897118,266.0082304526748,0)" xlink:href="#bs"/><use transform="matrix(0.08230452674897118,0,0,0.08230452674897118,274.2386831275719,0)" xlink:href="#bn"/><use transform="matrix(0.08230452674897118,0,0,0.08230452674897118,284.03292181069946,0)" xlink:href="#bu"/><use transform="matrix(0.08230452674897118,0,0,0.08230452674897118,300.4938271604937,0)" xlink:href="#bi"/><use transform="matrix(0.08230452674897118,0,0,0.08230452674897118,316.95473251028795,0)" xlink:href="#bv"/><use transform="matrix(0.08230452674897118,0,0,0.08230452674897118,333.4156378600822,0)" xlink:href="#bw"/><use transform="matrix(0.08230452674897118,0,0,0.08230452674897118,341.6460905349793,0)" xlink:href="#bx"/><use transform="matrix(0.08230452674897118,0,0,0.08230452674897118,358.10699588477354,0)" xlink:href="#bw"/><use transform="matrix(0.08230452674897118,0,0,0.08230452674897118,366.33744855967063,0)" xlink:href="#bx"/></g><path fill="#666" d="M143 4C61 4 22-44 18-125c-5-107 100-154 193-111 17 8 29 25 37 43l-32 9c-13-25-37-40-76-40-61 0-88 39-88 99 0 61 29 100 91 101 35 0 62-11 79-27v-45h-74v-28h105v86C228-13 192 4 143 4" id="by"/><g id="t"><use transform="matrix(0.04320987654320988,0,0,0.04320987654320988,0,0)" xlink:href="#by"/><use transform="matrix(0.04320987654320988,0,0,0.04320987654320988,12.098765432098766,0)" xlink:href="#as"/><use transform="matrix(0.04320987654320988,0,0,0.04320987654320988,20.74074074074074,0)" xlink:href="#ah"/></g><path fill="#666" d="M212-179c-10-28-35-45-73-45-59 0-87 40-87 99 0 60 29 101 89 101 43 0 62-24 78-52l27 14C228-24 195 4 139 4 59 4 22-46 18-125c-6-104 99-153 187-111 19 9 31 26 39 46" id="bz"/><path fill="#666" d="M135-143c-3-34-86-38-87 0 15 53 115 12 119 90S17 21 10-45l28-5c4 36 97 45 98 0-10-56-113-15-118-90-4-57 82-63 122-42 12 7 21 19 24 35" id="bA"/><g id="u"><use transform="matrix(0.04320987654320988,0,0,0.04320987654320988,0,0)" xlink:href="#bz"/><use transform="matrix(0.04320987654320988,0,0,0.04320987654320988,11.19135802469136,0)" xlink:href="#av"/><use transform="matrix(0.04320987654320988,0,0,0.04320987654320988,19.833333333333336,0)" xlink:href="#aD"/><use transform="matrix(0.04320987654320988,0,0,0.04320987654320988,28.47530864197531,0)" xlink:href="#al"/><use transform="matrix(0.04320987654320988,0,0,0.04320987654320988,37.117283950617285,0)" xlink:href="#ah"/><use transform="matrix(0.04320987654320988,0,0,0.04320987654320988,41.43827160493827,0)" xlink:href="#as"/><use transform="matrix(0.04320987654320988,0,0,0.04320987654320988,50.08024691358024,0)" xlink:href="#aj"/><use transform="matrix(0.04320987654320988,0,0,0.04320987654320988,55.22222222222222,0)" xlink:href="#bA"/></g><g id="v"><use transform="matrix(0.04320987654320988,0,0,0.04320987654320988,0,0)" xlink:href="#bz"/><use transform="matrix(0.04320987654320988,0,0,0.04320987654320988,11.19135802469136,0)" xlink:href="#av"/><use transform="matrix(0.04320987654320988,0,0,0.04320987654320988,19.833333333333336,0)" xlink:href="#al"/><use transform="matrix(0.04320987654320988,0,0,0.04320987654320988,28.47530864197531,0)" xlink:href="#ah"/><use transform="matrix(0.04320987654320988,0,0,0.04320987654320988,32.7962962962963,0)" xlink:href="#aj"/><use transform="matrix(0.04320987654320988,0,0,0.04320987654320988,37.93827160493827,0)" xlink:href="#av"/><use transform="matrix(0.04320987654320988,0,0,0.04320987654320988,46.58024691358024,0)" xlink:href="#ay"/><use transform="matrix(0.04320987654320988,0,0,0.04320987654320988,49.99382716049383,0)" xlink:href="#ay"/><use transform="matrix(0.04320987654320988,0,0,0.04320987654320988,53.40740740740741,0)" xlink:href="#as"/><use transform="matrix(0.04320987654320988,0,0,0.04320987654320988,62.04938271604939,0)" xlink:href="#aj"/></g><g id="w"><use transform="matrix(0.04320987654320988,0,0,0.04320987654320988,0,0)" xlink:href="#ag"/><use transform="matrix(0.04320987654320988,0,0,0.04320987654320988,10.370370370370372,0)" xlink:href="#as"/><use transform="matrix(0.04320987654320988,0,0,0.04320987654320988,19.01234567901235,0)" xlink:href="#aj"/><use transform="matrix(0.04320987654320988,0,0,0.04320987654320988,24.154320987654323,0)" xlink:href="#aG"/><use transform="matrix(0.04320987654320988,0,0,0.04320987654320988,31.9320987654321,0)" xlink:href="#aw"/><use transform="matrix(0.04320987654320988,0,0,0.04320987654320988,35.345679012345684,0)" xlink:href="#ao"/><use transform="matrix(0.04320987654320988,0,0,0.04320987654320988,43.12345679012346,0)" xlink:href="#as"/></g><path fill="#666" d="M30-248c118-7 216 8 213 122C240-48 200 0 122 0H30v-248zM63-27c89 8 146-16 146-99s-60-101-146-95v194" id="bB"/><g id="x"><use transform="matrix(0.04320987654320988,0,0,0.04320987654320988,0,0)" xlink:href="#bB"/><use transform="matrix(0.04320987654320988,0,0,0.04320987654320988,11.19135802469136,0)" xlink:href="#an"/></g><path fill="#666" d="M30 0v-248h33v221h125V0H30" id="bC"/><g id="y"><use transform="matrix(0.04320987654320988,0,0,0.04320987654320988,0,0)" xlink:href="#bC"/><use transform="matrix(0.04320987654320988,0,0,0.04320987654320988,8.641975308641976,0)" xlink:href="#av"/><use transform="matrix(0.04320987654320988,0,0,0.04320987654320988,17.283950617283953,0)" xlink:href="#at"/><use transform="matrix(0.04320987654320988,0,0,0.04320987654320988,25.925925925925927,0)" xlink:href="#at"/><use transform="matrix(0.04320987654320988,0,0,0.04320987654320988,34.567901234567906,0)" xlink:href="#aw"/><use transform="matrix(0.04320987654320988,0,0,0.04320987654320988,37.98148148148149,0)" xlink:href="#al"/><use transform="matrix(0.04320987654320988,0,0,0.04320987654320988,46.62345679012346,0)" xlink:href="#at"/></g><path fill="#666" d="M137 0h-34L2-248h35l83 218 83-218h36" id="bD"/><g id="z"><use transform="matrix(0.04320987654320988,0,0,0.04320987654320988,0,0)" xlink:href="#bD"/><use transform="matrix(0.04320987654320988,0,0,0.04320987654320988,9.203703703703706,0)" xlink:href="#ai"/><use transform="matrix(0.04320987654320988,0,0,0.04320987654320988,17.845679012345684,0)" xlink:href="#ay"/><use transform="matrix(0.04320987654320988,0,0,0.04320987654320988,21.259259259259267,0)" xlink:href="#aw"/><use transform="matrix(0.04320987654320988,0,0,0.04320987654320988,24.672839506172846,0)" xlink:href="#am"/><use transform="matrix(0.04320987654320988,0,0,0.04320987654320988,33.314814814814824,0)" xlink:href="#ai"/><use transform="matrix(0.04320987654320988,0,0,0.04320987654320988,41.9567901234568,0)" xlink:href="#ah"/><use transform="matrix(0.04320987654320988,0,0,0.04320987654320988,46.277777777777786,0)" xlink:href="#as"/></g><g id="A"><use transform="matrix(0.04320987654320988,0,0,0.04320987654320988,0,0)" xlink:href="#am"/><use transform="matrix(0.04320987654320988,0,0,0.04320987654320988,8.641975308641976,0)" xlink:href="#ai"/><use transform="matrix(0.04320987654320988,0,0,0.04320987654320988,17.283950617283953,0)" xlink:href="#ah"/><use transform="matrix(0.04320987654320988,0,0,0.04320987654320988,21.60493827160494,0)" xlink:href="#ai"/></g><path fill="#666" d="M233-177c-1 41-23 64-60 70L243 0h-38l-65-103H63V0H30v-248c88 3 205-21 203 71zM63-129c60-2 137 13 137-47 0-61-80-42-137-45v92" id="bE"/><path fill="#666" d="M145-31C134-9 116 4 85 4 32 4 16-35 15-94c0-59 17-99 70-100 32-1 48 14 60 33 0-11-1-24 2-32h30l-1 268h-32zM93-21c41 0 51-33 51-76s-8-73-50-73c-40 0-46 35-46 75s5 74 45 74" id="bF"/><g id="B"><use transform="matrix(0.04320987654320988,0,0,0.04320987654320988,0,0)" xlink:href="#bE"/><use transform="matrix(0.04320987654320988,0,0,0.04320987654320988,11.19135802469136,0)" xlink:href="#as"/><use transform="matrix(0.04320987654320988,0,0,0.04320987654320988,19.833333333333336,0)" xlink:href="#bF"/><use transform="matrix(0.04320987654320988,0,0,0.04320987654320988,28.47530864197531,0)" xlink:href="#aD"/><use transform="matrix(0.04320987654320988,0,0,0.04320987654320988,37.117283950617285,0)" xlink:href="#as"/><use transform="matrix(0.04320987654320988,0,0,0.04320987654320988,45.75925925925927,0)" xlink:href="#bA"/><use transform="matrix(0.04320987654320988,0,0,0.04320987654320988,53.537037037037045,0)" xlink:href="#ah"/></g><g id="C"><use transform="matrix(0.04320987654320988,0,0,0.04320987654320988,0,0)" xlink:href="#at"/><use transform="matrix(0.04320987654320988,0,0,0.04320987654320988,8.641975308641976,0)" xlink:href="#as"/><use transform="matrix(0.04320987654320988,0,0,0.04320987654320988,17.283950617283953,0)" xlink:href="#ah"/></g><g id="D"><use transform="matrix(0.04320987654320988,0,0,0.04320987654320988,0,0)" xlink:href="#ao"/><use transform="matrix(0.04320987654320988,0,0,0.04320987654320988,7.777777777777779,0)" xlink:href="#av"/><use transform="matrix(0.04320987654320988,0,0,0.04320987654320988,16.419753086419753,0)" xlink:href="#aD"/><use transform="matrix(0.04320987654320988,0,0,0.04320987654320988,25.061728395061728,0)" xlink:href="#al"/><use transform="matrix(0.04320987654320988,0,0,0.04320987654320988,33.7037037037037,0)" xlink:href="#ah"/><use transform="matrix(0.04320987654320988,0,0,0.04320987654320988,38.02469135802469,0)" xlink:href="#as"/><use transform="matrix(0.04320987654320988,0,0,0.04320987654320988,46.666666666666664,0)" xlink:href="#aj"/><use transform="matrix(0.04320987654320988,0,0,0.04320987654320988,51.80864197530864,0)" xlink:href="#bA"/></g><g id="E"><use transform="matrix(0.04320987654320988,0,0,0.04320987654320988,0,0)" xlink:href="#bE"/><use transform="matrix(0.04320987654320988,0,0,0.04320987654320988,11.19135802469136,0)" xlink:href="#as"/><use transform="matrix(0.04320987654320988,0,0,0.04320987654320988,19.833333333333336,0)" xlink:href="#ah"/><use transform="matrix(0.04320987654320988,0,0,0.04320987654320988,24.154320987654323,0)" xlink:href="#aD"/><use transform="matrix(0.04320987654320988,0,0,0.04320987654320988,32.7962962962963,0)" xlink:href="#aj"/><use transform="matrix(0.04320987654320988,0,0,0.04320987654320988,37.93827160493827,0)" xlink:href="#al"/></g><g id="F"><use transform="matrix(0.04320987654320988,0,0,0.04320987654320988,0,0)" xlink:href="#as"/><use transform="matrix(0.04320987654320988,0,0,0.04320987654320988,8.641975308641976,0)" xlink:href="#aj"/><use transform="matrix(0.04320987654320988,0,0,0.04320987654320988,13.783950617283953,0)" xlink:href="#aj"/><use transform="matrix(0.04320987654320988,0,0,0.04320987654320988,18.925925925925927,0)" xlink:href="#av"/><use transform="matrix(0.04320987654320988,0,0,0.04320987654320988,27.567901234567906,0)" xlink:href="#aj"/></g><g id="G"><use transform="matrix(0.04320987654320988,0,0,0.04320987654320988,0,0)" xlink:href="#bD"/><use transform="matrix(0.04320987654320988,0,0,0.04320987654320988,9.203703703703706,0)" xlink:href="#ai"/><use transform="matrix(0.04320987654320988,0,0,0.04320987654320988,17.845679012345684,0)" xlink:href="#ay"/><use transform="matrix(0.04320987654320988,0,0,0.04320987654320988,21.259259259259267,0)" xlink:href="#aw"/><use transform="matrix(0.04320987654320988,0,0,0.04320987654320988,24.672839506172846,0)" xlink:href="#am"/></g><g id="H"><use transform="matrix(0.04320987654320988,0,0,0.04320987654320988,0,0)" xlink:href="#ag"/><use transform="matrix(0.04320987654320988,0,0,0.04320987654320988,10.370370370370372,0)" xlink:href="#as"/><use transform="matrix(0.04320987654320988,0,0,0.04320987654320988,19.01234567901235,0)" xlink:href="#al"/><use transform="matrix(0.04320987654320988,0,0,0.04320987654320988,27.654320987654323,0)" xlink:href="#am"/></g><g id="I"><use transform="matrix(0.04320987654320988,0,0,0.04320987654320988,0,0)" xlink:href="#ay"/><use transform="matrix(0.04320987654320988,0,0,0.04320987654320988,3.4135802469135808,0)" xlink:href="#av"/><use transform="matrix(0.04320987654320988,0,0,0.04320987654320988,12.055555555555557,0)" xlink:href="#at"/><use transform="matrix(0.04320987654320988,0,0,0.04320987654320988,20.69753086419753,0)" xlink:href="#at"/><use transform="matrix(0.04320987654320988,0,0,0.04320987654320988,29.339506172839503,0)" xlink:href="#aw"/><use transform="matrix(0.04320987654320988,0,0,0.04320987654320988,32.75308641975309,0)" xlink:href="#al"/><use transform="matrix(0.04320987654320988,0,0,0.04320987654320988,41.39506172839506,0)" xlink:href="#at"/></g><path fill="#666" d="M190 0L58-211 59 0H30v-248h39L202-35l-2-213h31V0h-41" id="bG"/><g id="J"><use transform="matrix(0.04320987654320988,0,0,0.04320987654320988,0,0)" xlink:href="#bG"/><use transform="matrix(0.04320987654320988,0,0,0.04320987654320988,11.19135802469136,0)" xlink:href="#av"/></g><g id="K"><use transform="matrix(0.04320987654320988,0,0,0.04320987654320988,0,0)" xlink:href="#aG"/><use transform="matrix(0.04320987654320988,0,0,0.04320987654320988,7.777777777777779,0)" xlink:href="#ai"/><use transform="matrix(0.04320987654320988,0,0,0.04320987654320988,16.419753086419753,0)" xlink:href="#ay"/><use transform="matrix(0.04320987654320988,0,0,0.04320987654320988,19.833333333333336,0)" xlink:href="#aw"/><use transform="matrix(0.04320987654320988,0,0,0.04320987654320988,23.246913580246915,0)" xlink:href="#am"/></g><path fill="#666" d="M140-251c81 0 123 46 123 126C263-46 219 4 140 4 59 4 17-45 17-125s42-126 123-126zm0 227c63 0 89-41 89-101s-29-99-89-99c-61 0-89 39-89 99S79-25 140-24" id="bH"/><path fill="#666" d="M194 0L95-120 63-95V0H30v-248h33v124l119-124h40L117-140 236 0h-42" id="bI"/><g id="L"><use transform="matrix(0.04320987654320988,0,0,0.04320987654320988,0,0)" xlink:href="#bH"/><use transform="matrix(0.04320987654320988,0,0,0.04320987654320988,12.098765432098766,0)" xlink:href="#bI"/></g><g id="M"><use transform="matrix(0.04320987654320988,0,0,0.04320987654320988,0,0)" xlink:href="#aH"/><use transform="matrix(0.04320987654320988,0,0,0.04320987654320988,9.462962962962964,0)" xlink:href="#aw"/><use transform="matrix(0.04320987654320988,0,0,0.04320987654320988,12.876543209876544,0)" xlink:href="#al"/><use transform="matrix(0.04320987654320988,0,0,0.04320987654320988,21.51851851851852,0)" xlink:href="#am"/></g><g id="N"><use transform="matrix(0.04320987654320988,0,0,0.04320987654320988,0,0)" xlink:href="#aw"/><use transform="matrix(0.04320987654320988,0,0,0.04320987654320988,3.4135802469135808,0)" xlink:href="#al"/></g><g id="O"><use transform="matrix(0.04320987654320988,0,0,0.04320987654320988,0,0)" xlink:href="#ao"/><use transform="matrix(0.04320987654320988,0,0,0.04320987654320988,7.777777777777779,0)" xlink:href="#ai"/><use transform="matrix(0.04320987654320988,0,0,0.04320987654320988,16.419753086419753,0)" xlink:href="#ao"/><use transform="matrix(0.04320987654320988,0,0,0.04320987654320988,24.19753086419753,0)" xlink:href="#ap"/><use transform="matrix(0.04320987654320988,0,0,0.04320987654320988,32.839506172839506,0)" xlink:href="#as"/></g><path fill="#666" d="M115-194c53 0 69 39 70 98 0 66-23 100-70 100C84 3 66-7 56-30L54 0H23l1-261h32v101c10-23 28-34 59-34zm-8 174c40 0 45-34 45-75 0-40-5-75-45-74-42 0-51 32-51 76 0 43 10 73 51 73" id="bJ"/><path fill="#666" d="M179-190L93 31C79 59 56 82 12 73V49c39 6 53-20 64-50L1-190h34L92-34l54-156h33" id="bK"/><g id="P"><use transform="matrix(0.04320987654320988,0,0,0.04320987654320988,0,0)" xlink:href="#bJ"/><use transform="matrix(0.04320987654320988,0,0,0.04320987654320988,8.641975308641976,0)" xlink:href="#bK"/></g><g id="Q"><use transform="matrix(0.04320987654320988,0,0,0.04320987654320988,0,0)" xlink:href="#aD"/><use transform="matrix(0.04320987654320988,0,0,0.04320987654320988,8.641975308641976,0)" xlink:href="#bA"/><use transform="matrix(0.04320987654320988,0,0,0.04320987654320988,16.419753086419753,0)" xlink:href="#as"/><use transform="matrix(0.04320987654320988,0,0,0.04320987654320988,25.061728395061728,0)" xlink:href="#aj"/></g><g id="R"><use transform="matrix(0.04320987654320988,0,0,0.04320987654320988,0,0)" xlink:href="#aC"/><use transform="matrix(0.04320987654320988,0,0,0.04320987654320988,4.320987654320988,0)" xlink:href="#bB"/></g><g id="S"><use transform="matrix(0.04320987654320988,0,0,0.04320987654320988,0,0)" xlink:href="#bB"/><use transform="matrix(0.04320987654320988,0,0,0.04320987654320988,11.19135802469136,0)" xlink:href="#ai"/><use transform="matrix(0.04320987654320988,0,0,0.04320987654320988,19.833333333333336,0)" xlink:href="#ah"/><use transform="matrix(0.04320987654320988,0,0,0.04320987654320988,24.154320987654323,0)" xlink:href="#ai"/></g><g id="T"><use transform="matrix(0.04320987654320988,0,0,0.04320987654320988,0,0)" xlink:href="#az"/><use transform="matrix(0.04320987654320988,0,0,0.04320987654320988,4.320987654320988,0)" xlink:href="#av"/><use transform="matrix(0.04320987654320988,0,0,0.04320987654320988,12.962962962962964,0)" xlink:href="#aD"/><use transform="matrix(0.04320987654320988,0,0,0.04320987654320988,21.604938271604944,0)" xlink:href="#al"/><use transform="matrix(0.04320987654320988,0,0,0.04320987654320988,30.24691358024692,0)" xlink:href="#am"/></g><g id="U"><use transform="matrix(0.04320987654320988,0,0,0.04320987654320988,0,0)" xlink:href="#bG"/><use transform="matrix(0.04320987654320988,0,0,0.04320987654320988,11.19135802469136,0)" xlink:href="#av"/><use transform="matrix(0.04320987654320988,0,0,0.04320987654320988,19.833333333333336,0)" xlink:href="#ah"/></g><g id="V"><use transform="matrix(0.04320987654320988,0,0,0.04320987654320988,0,0)" xlink:href="#ar"/><use transform="matrix(0.04320987654320988,0,0,0.04320987654320988,12.919753086419755,0)" xlink:href="#av"/><use transform="matrix(0.04320987654320988,0,0,0.04320987654320988,21.56172839506173,0)" xlink:href="#am"/><use transform="matrix(0.04320987654320988,0,0,0.04320987654320988,30.203703703703713,0)" xlink:href="#aw"/><use transform="matrix(0.04320987654320988,0,0,0.04320987654320988,33.61728395061729,0)" xlink:href="#az"/><use transform="matrix(0.04320987654320988,0,0,0.04320987654320988,37.93827160493828,0)" xlink:href="#aw"/><use transform="matrix(0.04320987654320988,0,0,0.04320987654320988,41.35185185185186,0)" xlink:href="#as"/><use transform="matrix(0.04320987654320988,0,0,0.04320987654320988,49.99382716049383,0)" xlink:href="#am"/></g><g id="W"><use transform="matrix(0.04320987654320988,0,0,0.04320987654320988,0,0)" xlink:href="#bC"/><use transform="matrix(0.04320987654320988,0,0,0.04320987654320988,8.641975308641976,0)" xlink:href="#av"/><use transform="matrix(0.04320987654320988,0,0,0.04320987654320988,17.283950617283953,0)" xlink:href="#ai"/><use transform="matrix(0.04320987654320988,0,0,0.04320987654320988,25.925925925925927,0)" xlink:href="#am"/></g><g id="X"><use transform="matrix(0.04320987654320988,0,0,0.04320987654320988,0,0)" xlink:href="#ao"/><use transform="matrix(0.04320987654320988,0,0,0.04320987654320988,7.777777777777779,0)" xlink:href="#av"/><use transform="matrix(0.04320987654320988,0,0,0.04320987654320988,16.419753086419753,0)" xlink:href="#aD"/><use transform="matrix(0.04320987654320988,0,0,0.04320987654320988,25.061728395061728,0)" xlink:href="#al"/><use transform="matrix(0.04320987654320988,0,0,0.04320987654320988,33.7037037037037,0)" xlink:href="#ah"/><use transform="matrix(0.04320987654320988,0,0,0.04320987654320988,38.02469135802469,0)" xlink:href="#as"/><use transform="matrix(0.04320987654320988,0,0,0.04320987654320988,46.666666666666664,0)" xlink:href="#aj"/><use transform="matrix(0.04320987654320988,0,0,0.04320987654320988,51.80864197530864,0)" xlink:href="#bA"/></g><g id="Y"><use transform="matrix(0.04320987654320988,0,0,0.04320987654320988,0,0)" xlink:href="#bB"/><use transform="matrix(0.04320987654320988,0,0,0.04320987654320988,11.19135802469136,0)" xlink:href="#an"/></g><g id="Z"><use transform="matrix(0.04320987654320988,0,0,0.04320987654320988,0,0)" xlink:href="#al"/><use transform="matrix(0.04320987654320988,0,0,0.04320987654320988,8.641975308641976,0)" xlink:href="#av"/><use transform="matrix(0.04320987654320988,0,0,0.04320987654320988,17.283950617283953,0)" xlink:href="#ah"/></g><path fill="#666" d="M240 0l2-218c-23 76-54 145-80 218h-23L58-218 59 0H30v-248h44l77 211c21-75 51-140 76-211h43V0h-30" id="bL"/><g id="aa"><use transform="matrix(0.04320987654320988,0,0,0.04320987654320988,0,0)" xlink:href="#bL"/><use transform="matrix(0.04320987654320988,0,0,0.04320987654320988,12.919753086419755,0)" xlink:href="#av"/><use transform="matrix(0.04320987654320988,0,0,0.04320987654320988,21.56172839506173,0)" xlink:href="#am"/><use transform="matrix(0.04320987654320988,0,0,0.04320987654320988,30.203703703703713,0)" xlink:href="#aw"/><use transform="matrix(0.04320987654320988,0,0,0.04320987654320988,33.61728395061729,0)" xlink:href="#az"/><use transform="matrix(0.04320987654320988,0,0,0.04320987654320988,37.93827160493828,0)" xlink:href="#aw"/><use transform="matrix(0.04320987654320988,0,0,0.04320987654320988,41.35185185185186,0)" xlink:href="#as"/><use transform="matrix(0.04320987654320988,0,0,0.04320987654320988,49.99382716049383,0)" xlink:href="#am"/></g><g id="ab"><use transform="matrix(0.04320987654320988,0,0,0.04320987654320988,0,0)" xlink:href="#ak"/><use transform="matrix(0.04320987654320988,0,0,0.04320987654320988,10.370370370370372,0)" xlink:href="#aj"/><use transform="matrix(0.04320987654320988,0,0,0.04320987654320988,15.512345679012347,0)" xlink:href="#aj"/><use transform="matrix(0.04320987654320988,0,0,0.04320987654320988,20.654320987654323,0)" xlink:href="#av"/><use transform="matrix(0.04320987654320988,0,0,0.04320987654320988,29.296296296296298,0)" xlink:href="#aj"/></g><g id="ac"><use transform="matrix(0.04320987654320988,0,0,0.04320987654320988,0,0)" xlink:href="#ay"/><use transform="matrix(0.04320987654320988,0,0,0.04320987654320988,3.4135802469135808,0)" xlink:href="#av"/><use transform="matrix(0.04320987654320988,0,0,0.04320987654320988,12.055555555555557,0)" xlink:href="#ai"/><use transform="matrix(0.04320987654320988,0,0,0.04320987654320988,20.69753086419753,0)" xlink:href="#am"/></g><g id="ad"><use transform="matrix(0.04320987654320988,0,0,0.04320987654320988,0,0)" xlink:href="#ag"/><use transform="matrix(0.04320987654320988,0,0,0.04320987654320988,10.370370370370372,0)" xlink:href="#ah"/><use transform="matrix(0.04320987654320988,0,0,0.04320987654320988,14.691358024691363,0)" xlink:href="#av"/><use transform="matrix(0.04320987654320988,0,0,0.04320987654320988,23.333333333333336,0)" xlink:href="#aj"/><use transform="matrix(0.04320987654320988,0,0,0.04320987654320988,28.47530864197531,0)" xlink:href="#as"/></g><g id="ae"><use transform="matrix(0.04320987654320988,0,0,0.04320987654320988,0,0)" xlink:href="#aw"/><use transform="matrix(0.04320987654320988,0,0,0.04320987654320988,3.4135802469135808,0)" xlink:href="#al"/></g><g id="af"><use transform="matrix(0.04320987654320988,0,0,0.04320987654320988,0,0)" xlink:href="#ao"/><use transform="matrix(0.04320987654320988,0,0,0.04320987654320988,7.777777777777779,0)" xlink:href="#ai"/><use transform="matrix(0.04320987654320988,0,0,0.04320987654320988,16.419753086419753,0)" xlink:href="#ao"/><use transform="matrix(0.04320987654320988,0,0,0.04320987654320988,24.19753086419753,0)" xlink:href="#ap"/><use transform="matrix(0.04320987654320988,0,0,0.04320987654320988,32.839506172839506,0)" xlink:href="#as"/></g></defs></g></svg>