<svg xmlns="http://www.w3.org/2000/svg" xmlns:xlink="http://www.w3.org/1999/xlink" xmlns:lucid="lucid" width="1858.26" height="3349.21"><g transform="translate(0 0)" lucid:page-tab-id="0_0"><path d="M0 0h1858.26v3349.2H0z" fill="#fff"/><path d="M885.32 3134.08h143.82v35.83H885.32z" fill="none"/><use xlink:href="#a" transform="matrix(1,0,0,1,885.3160229153442,3134.08210971944) translate(0 21.11111111111111)"/><path d="M1029.14 3146.83c0 7.04-5.7 12.75-12.75 12.75s-12.76-5.7-12.76-12.75c0-7.04 5.7-12.75 12.75-12.75 7.03 0 12.74 5.7 12.74 12.75z" stroke="#666"/><path d="M885.32 3181.5h143.82v35.83H885.32z" fill="none"/><use xlink:href="#b" transform="matrix(1,0,0,1,885.3160229153442,3181.500115167942) translate(0 21.11111111111111)"/><path d="M1029.14 3199.58c0 7.04-5.7 12.75-12.75 12.75s-12.76-5.7-12.76-12.75c0-7.04 5.7-12.75 12.75-12.75 7.03 0 12.74 5.7 12.74 12.75z" stroke="#666" fill="#fff"/><path d="M1024.04 3199.58c0 4.23-3.43 7.65-7.65 7.65-4.24 0-7.66-3.42-7.66-7.65 0-4.22 3.42-7.65 7.65-7.65 4.2 0 7.64 3.43 7.64 7.65z" stroke="#666"/><path d="M885.32 3228.92h143.82v35.83H885.32z" fill="none"/><use xlink:href="#c" transform="matrix(1,0,0,1,885.3160229153442,3228.9181206164435) translate(0 21.11111111111111)"/><path d="M1016.4 3234.08l12.74 12.75-12.75 12.75-12.76-12.75z" stroke="#666" fill="#fff"/><path d="M1068.08 3129.25h143.82v35.83h-143.82z" fill="none"/><use xlink:href="#d" transform="matrix(1,0,0,1,1068.0818930400783,3129.254131513447) translate(0 21.11111111111111)"/><use xlink:href="#e" transform="matrix(1,0,0,1,1068.0818930400783,3129.254131513447) translate(74.14814814814815 21.11111111111111)"/><path d="M1220.83 3137.17h40v20h-40z" stroke="#666"/><path d="M1220.83 3179.92h40l-40 18h40" stroke="#666" fill="none"/><path d="M1256.83 3195.92l4 2-4 2" stroke="#666" fill="none"/><path d="M1220.83 3179.92h40v20h-40zM1068.08 3176.5h143.82v35.83h-143.82z" fill="none"/><use xlink:href="#f" transform="matrix(1,0,0,1,1068.0818930400783,3176.504131513447) translate(0 21.11111111111111)"/><use xlink:href="#g" transform="matrix(1,0,0,1,1068.0818930400783,3176.504131513447) translate(82.83333333333334 21.11111111111111)"/><path d="M1231.08 3214.6h20l-9.6 17.26 9.6 17.25h-20l9.6-17.24z" stroke="#666" fill="#fff"/><path d="M1068.08 3223.75h143.82v35.83h-143.82z" fill="none"/><use xlink:href="#h" transform="matrix(1,0,0,1,1068.0818930400783,3223.754131513447) translate(0 21.11111111111111)"/><use xlink:href="#i" transform="matrix(1,0,0,1,1068.0818930400783,3223.754131513447) translate(38.19753086419753 21.11111111111111)"/><path d="M1029.14 3296.33c0 7.04-5.7 12.75-12.75 12.75s-12.76-5.7-12.76-12.75c0-7.04 5.7-12.75 12.75-12.75 7.03 0 12.74 5.7 12.74 12.75z" stroke="#666" fill="#fff"/><path d="M1007.37 3287.32l18.03 18.03m0-18.03l-18.03 18.03" stroke="#666" fill="none"/><path d="M885.32 3278.42h143.82v35.83H885.32z" fill="none"/><use xlink:href="#j" transform="matrix(1,0,0,1,885.3160229153442,3278.4181206164435) translate(0 21.11111111111111)"/><use xlink:href="#k" transform="matrix(1,0,0,1,885.3160229153442,3278.4181206164435) translate(37.89506172839506 21.11111111111111)"/><path d="M885.32 3102.56h143.82v35.83H885.32z" fill="none"/><use xlink:href="#l" transform="matrix(1,0,0,1,885.3160229153442,3102.560910682895) translate(0 21.11111111111111)"/><path d="M866.67 3096.9c0-4.43 3.58-8 8-8h407.63c4.42 0 8 3.57 8 8v229.35c0 4.4-3.58 8-8 8H874.67c-4.42 0-8-3.6-8-8z" stroke="#666" fill-opacity="0"/><path d="M659.65 106.67h540.48v40H659.65z" fill="none"/><use xlink:href="#m" transform="matrix(1,0,0,1,664.6536848018899,111.66666666666666) translate(153.89849108367628 18.45679012345679)"/><use xlink:href="#n" transform="matrix(1,0,0,1,664.6536848018899,111.66666666666666) translate(188.41838134430728 18.45679012345679)"/><use xlink:href="#o" transform="matrix(1,0,0,1,664.6536848018899,111.66666666666666) translate(269.9410150891632 18.45679012345679)"/><use xlink:href="#p" transform="matrix(1,0,0,1,664.6536848018899,111.66666666666666) translate(284.00823045267487 18.45679012345679)"/><use xlink:href="#q" transform="matrix(1,0,0,1,664.6536848018899,111.66666666666666) translate(319.4883401920439 18.45679012345679)"/><use xlink:href="#r" transform="matrix(1,0,0,1,664.6536848018899,111.66666666666666) translate(338.69272976680384 18.45679012345679)"/><path d="M659.65 66.67h540.48v40H659.65z" fill="none"/><use xlink:href="#s" transform="matrix(1,0,0,1,664.65368480189,71.66666666666666) translate(38.62757201646096 23.703703703703702)"/><path d="M657.78 103.67h542.7M657.8 103.67h-1.02M1200.45 103.67h1.03" stroke="#b2b2b2" stroke-width="2" fill="none"/><path d="M88.9 240v-40H1800v40zM88.9 280v-40h800v40M888.9 280v-40h461.67v40M1350.57 280v-40H1800v40" stroke="#666" fill="#fff"/><path d="M888.9 3066.67h-800V280h800zM888.9 280h461.67v2786.67H888.9zM1800 280v2786.67h-449.43V280z" stroke="#666" fill="none"/><use xlink:href="#t" transform="matrix(1,0,0,1,88.88888888888889,200) translate(719.6296296296296 23.11111111111111)"/><use xlink:href="#u" transform="matrix(1,0,0,1,88.88888888888889,200) translate(820.6543209876543 23.11111111111111)"/><use xlink:href="#v" transform="matrix(1,0,0,1,88.88888888888889,200) translate(888.0185185185185 23.11111111111111)"/><use xlink:href="#w" transform="matrix(1,0,0,1,88.88888888888889,200) translate(919.9074074074074 23.11111111111111)"/><use xlink:href="#x" transform="matrix(1,0,0,1,88.88888888888889,200) translate(948.3827160493827 23.11111111111111)"/><use xlink:href="#y" transform="matrix(1,0,0,1,88.88888888888889,240) translate(375.86728395061726 23.11111111111111)"/><use xlink:href="#z" transform="matrix(1,0,0,1,888.8888888888889,240) translate(173.59567901234567 23.11111111111111)"/><use xlink:href="#A" transform="matrix(1,0,0,1,1350.5674632085993,240) translate(200.8672839506173 23.11111111111111)"/><path d="M342.22 353.33c0 11.05-8.95 20-20 20-11.04 0-20-8.95-20-20 0-11.04 8.96-20 20-20 11.05 0 20 8.96 20 20z" stroke="#666"/><path d="M258.22 444.44c-8.83 0-16 7.17-16 16v48c0 8.84 7.17 16 16 16h128c8.84 0 16-7.16 16-16v-48c0-8.83-7.16-16-16-16z" stroke="#666" fill="#fff"/><use xlink:href="#B" transform="matrix(1,0,0,1,250.22222222222217,452.44444444445736) translate(19.78086419753086 25.777777777777775)"/><use xlink:href="#C" transform="matrix(1,0,0,1,250.22222222222217,452.44444444445736) translate(58.66975308641975 25.777777777777775)"/><use xlink:href="#D" transform="matrix(1,0,0,1,250.22222222222217,452.44444444445736) translate(93.19444444444444 25.777777777777775)"/><use xlink:href="#E" transform="matrix(1,0,0,1,250.22222222222217,452.44444444445736) translate(46.095679012345684 44.44444444444444)"/><path d="M322.22 374.33v53.23" stroke="#666" fill="none"/><path d="M322.2 373.83h.52v.52h-1v-.58z" fill="#666"/><path d="M322.22 442.33l-4.63-14.27h9.26z" stroke="#666" fill="#666"/><path d="M322.22 595.56l20 20-20 20-20-20z" stroke="#666" fill="#fff"/><path d="M322.22 525.44v53.02" stroke="#666" fill="none"/><path d="M322.72 525.46h-1v-.52h1z" fill="#666"/><path d="M322.22 593.23l-4.63-14.27h9.26z" stroke="#666" fill="#666"/><path d="M191.6 716.45h-1v-88.12h1zm109.42-100.4h-78.4v-1h78.4z" fill="#666"/><path d="M301.52 615.56l.5.5H301v-1h1.02zM191.1 731.22l-4.62-14.27h9.27z" fill="#666"/><path d="M191.1 732.83l-5.3-16.38h10.63zm-3.94-15.38l3.95 12.15 3.96-12.15z" fill="#666"/><use xlink:href="#F" transform="matrix(1,0,0,1,159.58950617285245,609.6591089461875) translate(0 12.444444444444446)"/><use xlink:href="#G" transform="matrix(1,0,0,1,159.58950617285245,609.6591089461875) translate(24.154320987654323 12.444444444444446)"/><path d="M127.1 733.33c-8.83 0-16 7.17-16 16v48c0 8.84 7.17 16 16 16h128c8.85 0 16-7.16 16-16v-48c0-8.83-7.15-16-16-16z" stroke="#666" fill="#fff"/><path d="M129.1 763.33v20m-10 0v-10h20v10" stroke="#666" fill="none"/><use xlink:href="#H" transform="matrix(1,0,0,1,149.11111111112405,741.3333333333721) translate(35.525 24.799999999999997)"/><use xlink:href="#I" transform="matrix(1,0,0,1,149.11111111112405,741.3333333333721) translate(17.049999999999997 46.4)"/><path d="M191.1 814.33V872" stroke="#666" fill="none"/><path d="M191.6 814.35h-1v-.52h1z" fill="#666"/><path d="M191.1 886.77l-4.62-14.26h9.27z" stroke="#666" fill="#666"/><path d="M101.1 888.9h144l36 30-36 30h-144z" stroke="#666" fill="#fff"/><use xlink:href="#J" transform="matrix(1,0,0,1,109.11111111112405,896.8888888888889) translate(4.5 15.777777777777775)"/><use xlink:href="#K" transform="matrix(1,0,0,1,109.11111111112405,896.8888888888889) translate(45.117283950617285 15.777777777777775)"/><use xlink:href="#L" transform="matrix(1,0,0,1,109.11111111112405,896.8888888888889) translate(41.59567901234568 34.44444444444444)"/><path d="M1148.16 888.9h180v60h-180l36-30z" stroke="#666" fill="#fff"/><use xlink:href="#M" transform="matrix(1,0,0,1,1184.1637728053572,896.8888888888889) translate(39.456790123456784 15.777777777777775)"/><use xlink:href="#N" transform="matrix(1,0,0,1,1184.1637728053572,896.8888888888889) translate(1.0648148148148096 34.44444444444444)"/><use xlink:href="#L" transform="matrix(1,0,0,1,1184.1637728053572,896.8888888888889) translate(82.12654320987654 34.44444444444444)"/><path d="M1245.53 949.9v40.55h.14v24.68" stroke="#666" fill="none"/><path d="M1246.03 949.9h-1v-.5h1z" fill="#666"/><path d="M1245.67 1029.9l-4.64-14.27h9.28z" stroke="#666" fill="#666"/><path d="M1245.67 1032.22l20 20-20 20-20-20zM533.33 1022.22h180v60h-180l36-30z" stroke="#666" fill="#fff"/><use xlink:href="#M" transform="matrix(1,0,0,1,569.3333333333333,1030.2222222222222) translate(39.456790123456784 12.444444444444446)"/><use xlink:href="#O" transform="matrix(1,0,0,1,569.3333333333333,1030.2222222222222) translate(29.129629629629626 31.111111111111118)"/><use xlink:href="#P" transform="matrix(1,0,0,1,569.3333333333333,1030.2222222222222) translate(35.54629629629629 49.777777777777786)"/><path d="M282.4 918.9H1167" stroke="#666" fill="none"/><path d="M282.4 919.4h-1.1l.6-.5-.6-.5h1.1z" fill="#666"/><path d="M1181.76 918.9l-14.26 4.62v-9.27z" stroke="#666" fill="#666"/><path d="M1224.46 1052.22h-116.18" stroke="#666" fill="none"/><path d="M1224.96 1052.22l.5.5h-1v-1h1z" fill="#666"/><path d="M1093.5 1052.22l14.28-4.63v9.26z" stroke="#666" fill="#666"/><use xlink:href="#Q" transform="matrix(1,0,0,1,1130.9491635745421,1029.5555555555554) translate(0 12.444444444444446)"/><use xlink:href="#G" transform="matrix(1,0,0,1,1130.9491635745421,1029.5555555555554) translate(37.074074074074076 12.444444444444446)"/><path d="M442.22 1032.22l20 20-20 20-20-20z" stroke="#666" fill="#fff"/><path d="M568.05 1052.22H479.3" stroke="#666" fill="none"/><path fill="#666"/><path d="M464.55 1052.22l14.26-4.63v9.26z" stroke="#666" fill="#666"/><path d="M442.72 1031.02h-1V826.45h1zm0-223.23h-1v-33.97H288v-1H442.7z" fill="#666"/><path d="M442.72 1032.02l-.5-.5-.5.5V1031h1zM287.5 777.97l-14.27-4.64 14.26-4.63z" fill="#666"/><path d="M288 778.66l-16.4-5.33L288 768zm-13.15-5.33l12.14 3.95v-7.9z" fill="#666"/><use xlink:href="#R" transform="matrix(1,0,0,1,411.1759259259518,807.7853354983215) translate(0 12.444444444444446)"/><use xlink:href="#S" transform="matrix(1,0,0,1,411.1759259259518,807.7853354983215) translate(29.382716049382715 12.444444444444446)"/><path d="M137.1 1012.22c-8.83 0-16 7.17-16 16v48c0 8.84 7.17 16 16 16h128c8.85 0 16-7.16 16-16v-48c0-8.83-7.15-16-16-16z" stroke="#666" fill="#fff"/><use xlink:href="#T" transform="matrix(1,0,0,1,129.11111111112405,1020.2222222222222) translate(36.17901234567901 35.111111111111114)"/><use xlink:href="#U" transform="matrix(1,0,0,1,129.11111111112405,1020.2222222222222) translate(77.61728395061729 35.111111111111114)"/><path d="M340.33 1052.72H298v-1h42.33zm80.7 0H362.8v-1h58.22z" fill="#666"/><path d="M421.52 1052.22l.5.5H421v-1h1.02zM297.5 1056.86l-14.27-4.64 14.26-4.63z" fill="#666"/><path d="M298 1057.55l-16.4-5.33 16.4-5.32zm-13.15-5.33l12.14 3.95v-7.9z" fill="#666"/><use xlink:href="#V" transform="matrix(1,0,0,1,340.3285453748582,1042.8888888889148) translate(0 12.444444444444446)"/><path d="M1081.67 1200c-8.84 0-16 7.16-16 16v48c0 8.84 7.16 16 16 16h128c8.84 0 16-7.16 16-16v-48c0-8.84-7.16-16-16-16z" stroke="#666" fill="#fff"/><use xlink:href="#T" transform="matrix(1,0,0,1,1073.6697266319366,1208) translate(36.17901234567901 35.111111111111114)"/><use xlink:href="#U" transform="matrix(1,0,0,1,1073.6697266319366,1208) translate(77.61728395061729 35.111111111111114)"/><path d="M1146.17 1183.12h-1v-37.57h1zm100-56.24h-1v-53.45h1z" fill="#666"/><path d="M1246.17 1073.44h-1v-1l.5.5.5-.5zM1145.67 1197.88l-4.64-14.26h9.28z" fill="#666"/><path d="M1145.67 1199.5l-5.32-16.38H1151zm-3.95-15.38l3.95 12.14 3.95-12.14z" fill="#666"/><use xlink:href="#Q" transform="matrix(1,0,0,1,1144.7252821874922,1126.8813311683712) translate(0 12.444444444444446)"/><use xlink:href="#W" transform="matrix(1,0,0,1,1144.7252821874922,1126.8813311683712) translate(37.074074074074076 12.444444444444446)"/><use xlink:href="#G" transform="matrix(1,0,0,1,1144.7252821874922,1126.8813311683712) translate(63 12.444444444444446)"/><path d="M911.1 1022.22h144l36 30-36 30h-144z" stroke="#666" fill="#fff"/><use xlink:href="#J" transform="matrix(1,0,0,1,919.1111111111111,1030.222222222248) translate(8.820987654320987 15.777777777777775)"/><use xlink:href="#O" transform="matrix(1,0,0,1,919.1111111111111,1030.222222222248) translate(49.43827160493827 15.777777777777775)"/><use xlink:href="#X" transform="matrix(1,0,0,1,919.1111111111111,1030.222222222248) translate(39.86728395061728 34.44444444444444)"/><path d="M910.1 1052.22H730.23" stroke="#666" fill="none"/><path d="M910.6 1052.72h-.5v-1h.5z" fill="#666"/><path d="M715.45 1052.22l14.27-4.63v9.26z" stroke="#666" fill="#666"/><path d="M976.66 1377.78c-8.83 0-16 7.16-16 16v48c0 8.83 7.17 16 16 16h128c8.84 0 16-7.17 16-16v-48c0-8.84-7.16-16-16-16z" stroke="#666" fill="#fff"/><use xlink:href="#Y" transform="matrix(1,0,0,1,968.6616717956204,1385.7777777777778) translate(20.169753086419753 25.777777777777775)"/><use xlink:href="#C" transform="matrix(1,0,0,1,968.6616717956204,1385.7777777777778) translate(47.824074074074076 25.777777777777775)"/><use xlink:href="#Z" transform="matrix(1,0,0,1,968.6616717956204,1385.7777777777778) translate(82.34876543209876 25.777777777777775)"/><use xlink:href="#aa" transform="matrix(1,0,0,1,968.6616717956204,1385.7777777777778) translate(44.08641975308642 44.44444444444444)"/><path d="M959.66 1417.78h-39.5v-295.06h80.95v-23.6" stroke="#666" fill="none"/><path d="M960.16 1418.28h-.5v-1h.5z" fill="#666"/><path d="M1001.1 1084.34l4.65 14.27h-9.27z" stroke="#666" fill="#666"/><path d="M111.1 1555.56h144l36 30-36 30h-144z" stroke="#666" fill="#fff"/><use xlink:href="#J" transform="matrix(1,0,0,1,119.11111111112405,1563.5555555555554) translate(15.237654320987652 15.777777777777775)"/><use xlink:href="#ab" transform="matrix(1,0,0,1,119.11111111112405,1563.5555555555554) translate(55.85493827160494 15.777777777777775)"/><use xlink:href="#ac" transform="matrix(1,0,0,1,119.11111111112405,1563.5555555555554) translate(81.78086419753086 15.777777777777775)"/><use xlink:href="#L" transform="matrix(1,0,0,1,119.11111111112405,1563.5555555555554) translate(41.59567901234568 34.44444444444444)"/><path d="M201.1 1093.22v445.45" stroke="#666" fill="none"/><path d="M201.6 1093.24h-1v-.52h1z" fill="#666"/><path d="M201.1 1553.44l-4.62-14.27h9.27z" stroke="#666" fill="#666"/><path d="M292.4 1585.56h882" stroke="#666" fill="none"/><path d="M292.4 1586.06h-1.1l.6-.5-.6-.5h1.1z" fill="#666"/><path d="M1189.16 1585.56l-14.27 4.63v-9.28z" stroke="#666" fill="#666"/><path d="M1155.56 1555.56h180v60h-180l36-30z" stroke="#666" fill="#fff"/><use xlink:href="#ad" transform="matrix(1,0,0,1,1191.5555555555554,1563.5555555555554) translate(5.342592592592588 15.777777777777775)"/><use xlink:href="#ab" transform="matrix(1,0,0,1,1191.5555555555554,1563.5555555555554) translate(65.75 15.777777777777775)"/><use xlink:href="#ac" transform="matrix(1,0,0,1,1191.5555555555554,1563.5555555555554) translate(91.67592592592592 15.777777777777775)"/><use xlink:href="#L" transform="matrix(1,0,0,1,1191.5555555555554,1563.5555555555554) translate(41.59567901234568 34.44444444444444)"/><path d="M1245.56 1616.56v40.3h41.55v24.44" stroke="#666" fill="none"/><path d="M1246.06 1616.57h-1v-.5h1z" fill="#666"/><path d="M1287.1 1696.06l-4.62-14.26h9.27z" stroke="#666" fill="#666"/><path d="M1287.1 1698.4l20 20-20 20-20-20z" stroke="#666" fill="#fff"/><path d="M1265.9 1718.4h-118.07" stroke="#666" fill="none"/><path d="M1266.4 1718.4l.5.5h-1v-1h1z" fill="#666"/><path d="M1133.06 1718.4l14.27-4.65v9.27z" stroke="#666" fill="#666"/><use xlink:href="#Q" transform="matrix(1,0,0,1,1158.6313077217992,1695.7222222222222) translate(0 12.444444444444446)"/><use xlink:href="#W" transform="matrix(1,0,0,1,1158.6313077217992,1695.7222222222222) translate(37.074074074074076 12.444444444444446)"/><use xlink:href="#G" transform="matrix(1,0,0,1,1158.6313077217992,1695.7222222222222) translate(63 12.444444444444446)"/><path d="M1198.4 1803.13h-12.23v46.65h-1v-47.65h13.24zm89.2 0h-13.23v-1h12.24v-62.53h1zM1287.6 1739.6h-1v-1l.5.5.5-.5zM1185.67 1864.55l-4.64-14.27h9.28z" fill="#666"/><path d="M1185.67 1866.17l-5.32-16.4H1191zm-3.95-15.4l3.95 12.16 3.95-12.15z" fill="#666"/><use xlink:href="#Q" transform="matrix(1,0,0,1,1198.408843777771,1793.2979978350377) translate(0 12.444444444444446)"/><use xlink:href="#G" transform="matrix(1,0,0,1,1198.408843777771,1793.2979978350377) translate(37.074074074074076 12.444444444444446)"/><path d="M950.66 1688.4h144l36 30-36 30h-144z" stroke="#666" fill="#fff"/><use xlink:href="#J" transform="matrix(1,0,0,1,958.6616717956204,1696.3888888888887) translate(15.237654320987652 15.777777777777775)"/><use xlink:href="#ab" transform="matrix(1,0,0,1,958.6616717956204,1696.3888888888887) translate(55.85493827160494 15.777777777777775)"/><use xlink:href="#ac" transform="matrix(1,0,0,1,958.6616717956204,1696.3888888888887) translate(81.78086419753086 15.777777777777775)"/><use xlink:href="#X" transform="matrix(1,0,0,1,958.6616717956204,1696.3888888888887) translate(39.86728395061728 34.44444444444444)"/><path d="M1121.67 1866.67c-8.84 0-16 7.16-16 16v48c0 8.83 7.16 16 16 16h128c8.84 0 16-7.17 16-16v-48c0-8.84-7.16-16-16-16z" stroke="#666" fill="#fff"/><use xlink:href="#B" transform="matrix(1,0,0,1,1113.6697266319368,1874.6666666666665) translate(33.56481481481481 35.111111111111114)"/><use xlink:href="#ae" transform="matrix(1,0,0,1,1113.6697266319368,1874.6666666666665) translate(72.4537037037037 35.111111111111114)"/><path d="M1104.67 1906.67h-64v-141.4" stroke="#666" fill="none"/><path d="M1105.17 1907.17h-.5v-1h.5z" fill="#666"/><path d="M1040.66 1750.5l4.64 14.27h-9.27z" stroke="#666" fill="#666"/><path d="M590.6 1690.28h180v60h-180l36-30z" stroke="#666" fill="#fff"/><use xlink:href="#ad" transform="matrix(1,0,0,1,626.6111111110205,1698.2777777777405) translate(9.231481481481481 15.777777777777775)"/><use xlink:href="#ab" transform="matrix(1,0,0,1,626.6111111110205,1698.2777777777405) translate(69.63888888888889 15.777777777777775)"/><use xlink:href="#af" transform="matrix(1,0,0,1,626.6111111110205,1698.2777777777405) translate(95.56481481481482 15.777777777777775)"/><use xlink:href="#P" transform="matrix(1,0,0,1,626.6111111110205,1698.2777777777405) translate(35.54629629629629 34.44444444444444)"/><path d="M499.5 1700.28l20 20-20 20-20-20z" stroke="#666" fill="#fff"/><path d="M625.33 1720.28H536.6" stroke="#666" fill="none"/><path fill="#666"/><path d="M521.83 1720.28l14.26-4.64v9.27z" stroke="#666" fill="#666"/><path d="M500 1657.3v41.77h-1v-40.76H381.35v-1zm-180.74 0v1H200.6v-25.86h1v24.87zM500 1700.07l-.5-.5-.5.5v-1h1zM205.75 1631.94h-9.27l4.63-14.27z" fill="#666"/><path d="M206.43 1632.44H195.8l5.3-16.38zm-9.27-1h7.9l-3.95-12.15z" fill="#666"/><use xlink:href="#R" transform="matrix(1,0,0,1,319.25925925923343,1648.4797799427345) translate(0 12.444444444444446)"/><use xlink:href="#S" transform="matrix(1,0,0,1,319.25925925923343,1648.4797799427345) translate(29.382716049382715 12.444444444444446)"/><path d="M393.46 1720.78H298v-1h95.46zm84.83 0h-62.37v-1h62.36z" fill="#666"/><path d="M478.8 1720.28l.5.5h-1.02v-1h1zM297.5 1724.9l-14.27-4.62 14.26-4.64z" fill="#666"/><path d="M298 1725.6l-16.4-5.32 16.4-5.33zm-13.15-5.32l12.14 3.94v-7.9z" fill="#666"/><use xlink:href="#V" transform="matrix(1,0,0,1,393.4645462731725,1710.9444444444332) translate(0 12.444444444444446)"/><path d="M949.66 1718.4H787.5" stroke="#666" fill="none"/><path d="M950.16 1718.9h-.5v-1h.5z" fill="#666"/><path d="M772.73 1718.4l14.26-4.65v9.27z" stroke="#666" fill="#666"/><path d="M137.1 1680.28c-8.83 0-16 7.16-16 16v48c0 8.83 7.17 16 16 16h128c8.85 0 16-7.17 16-16v-48c0-8.84-7.15-16-16-16z" stroke="#666" fill="#fff"/><use xlink:href="#ag" transform="matrix(1,0,0,1,129.11111111112405,1688.2777777777665) translate(31.425925925925924 35.111111111111114)"/><use xlink:href="#ae" transform="matrix(1,0,0,1,129.11111111112405,1688.2777777777665) translate(74.5925925925926 35.111111111111114)"/><path d="M137.1 1800c-8.83 0-16 7.16-16 16v48c0 8.84 7.17 16 16 16h128c8.85 0 16-7.16 16-16v-48c0-8.84-7.15-16-16-16z" stroke="#666" fill="#fff"/><path d="M139.1 1830v20m-10 0v-10h20v10" stroke="#666" fill="none"/><use xlink:href="#ah" transform="matrix(1,0,0,1,159.11111111112405,1808) translate(12.049999999999997 24.799999999999997)"/><use xlink:href="#ai" transform="matrix(1,0,0,1,159.11111111112405,1808) translate(67 24.799999999999997)"/><use xlink:href="#aj" transform="matrix(1,0,0,1,159.11111111112405,1808) translate(22.725 46.4)"/><path d="M201.1 1761.28v21.84" stroke="#666" fill="none"/><path d="M201.6 1761.3h-1v-.52h1z" fill="#666"/><path d="M201.1 1797.88l-4.62-14.26h9.27z" stroke="#666" fill="#666"/><path d="M137.1 2171.4c-8.83 0-16 7.15-16 16v48c0 8.83 7.17 16 16 16h128c8.85 0 16-7.17 16-16v-48c0-8.85-7.15-16-16-16z" stroke="#666" fill="#fff"/><path d="M139.1 2201.4v20m-10 0v-10h20v10" stroke="#666" fill="none"/><use xlink:href="#H" transform="matrix(1,0,0,1,159.11111111112405,2179.3888888889005) translate(35.525 24.799999999999997)"/><use xlink:href="#ak" transform="matrix(1,0,0,1,159.11111111112405,2179.3888888889005) translate(20.525 46.4)"/><path d="M201.1 1881v273.5" stroke="#666" fill="none"/><path d="M201.6 1881h-1v-.5h1z" fill="#666"/><path d="M201.1 2169.27L196.5 2155h9.27z" stroke="#666" fill="#666"/><path d="M479.5 2240.56h144l36 30-36 30h-144z" stroke="#666" fill="#fff"/><use xlink:href="#J" transform="matrix(1,0,0,1,487.4999999999354,2248.555555555543) translate(15.669753086419746 15.777777777777775)"/><use xlink:href="#al" transform="matrix(1,0,0,1,487.4999999999354,2248.555555555543) translate(56.28703703703703 15.777777777777775)"/><use xlink:href="#L" transform="matrix(1,0,0,1,487.4999999999354,2248.555555555543) translate(41.59567901234568 34.44444444444444)"/><path d="M1600 2244.44h180v60h-180l36-30z" stroke="#666" fill="#fff"/><use xlink:href="#ad" transform="matrix(1,0,0,1,1636,2252.4444444444443) translate(5.774691358024683 15.777777777777775)"/><use xlink:href="#al" transform="matrix(1,0,0,1,1636,2252.4444444444443) translate(66.1820987654321 15.777777777777775)"/><use xlink:href="#L" transform="matrix(1,0,0,1,1636,2252.4444444444443) translate(41.59567901234568 34.44444444444444)"/><path d="M1708.9 2360.56l20 20-20 20-20-20z" stroke="#666" fill="#fff"/><path d="M1708.5 2305.44v38.42" stroke="#666" fill="none"/><path d="M1709 2305.46h-1v-.52h1z" fill="#666"/><path d="M1708.5 2358.63l-4.64-14.27h9.27z" stroke="#666" fill="#666"/><path d="M1379 2340.56c-8.84 0-16 7.16-16 16v48c0 8.83 7.16 16 16 16h128c8.84 0 16-7.17 16-16v-48c0-8.84-7.16-16-16-16z" stroke="#666" fill="#fff"/><use xlink:href="#am" transform="matrix(1,0,0,1,1371,2348.555555555481) translate(40.910493827160494 35.111111111111114)"/><use xlink:href="#U" transform="matrix(1,0,0,1,1371,2348.555555555481) translate(72.8858024691358 35.111111111111114)"/><path d="M1569.2 2381.06h-29.32v-1h29.3zm118.48 0h-16.6v-1h16.6zM1688.18 2380.56l.5.5h-1v-1h1zM1539.38 2385.2l-14.26-4.64 14.26-4.64z" fill="#666"/><path d="M1539.88 2385.88l-16.38-5.32 16.38-5.33zm-13.14-5.32l12.14 3.94v-7.9z" fill="#666"/><use xlink:href="#Q" transform="matrix(1,0,0,1,1569.19053262515,2371.2222222221994) translate(0 12.444444444444446)"/><use xlink:href="#W" transform="matrix(1,0,0,1,1569.19053262515,2371.2222222221994) translate(37.074074074074076 12.444444444444446)"/><use xlink:href="#G" transform="matrix(1,0,0,1,1569.19053262515,2371.2222222221994) translate(63 12.444444444444446)"/><path d="M1379 2471.67c-8.84 0-16 7.16-16 16v48c0 8.83 7.16 16 16 16h128c8.84 0 16-7.17 16-16v-48c0-8.84-7.16-16-16-16z" stroke="#666" fill="#fff"/><use xlink:href="#ag" transform="matrix(1,0,0,1,1371.0000000000002,2479.666666666644) translate(35.31481481481481 35.111111111111114)"/><use xlink:href="#U" transform="matrix(1,0,0,1,1371.0000000000002,2479.666666666644) translate(78.48148148148148 35.111111111111114)"/><path d="M1443 2421.56v33.22" stroke="#666" fill="none"/><path d="M1443.5 2421.57h-1v-.5h1z" fill="#666"/><path d="M1443 2469.55l-4.64-14.27h9.28z" stroke="#666" fill="#666"/><path d="M1636 2594.44c-8.84 0-16 7.17-16 16v48c0 8.84 7.16 16 16 16h128c8.84 0 16-7.16 16-16v-48c0-8.83-7.16-16-16-16z" stroke="#666" fill="#fff"/><use xlink:href="#ag" transform="matrix(1,0,0,1,1628,2602.4444444446717) translate(18.895061728395056 35.111111111111114)"/><use xlink:href="#an" transform="matrix(1,0,0,1,1628,2602.4444444446717) translate(62.06172839506173 35.111111111111114)"/><path d="M1709.4 2577.56h-1v-94.08h1zm0-112.74h-1v-63.06h1z" fill="#666"/><path d="M1709.4 2401.78h-1v-1.02l.5.5.5-.5zM1708.9 2592.33l-4.65-14.27h9.27z" fill="#666"/><path d="M1708.9 2593.94l-5.33-16.38h10.64zm-3.96-15.38l3.95 12.15 3.94-12.14z" fill="#666"/><use xlink:href="#Q" transform="matrix(1,0,0,1,1670.9074074074074,2464.8182706915036) translate(0 12.444444444444446)"/><use xlink:href="#G" transform="matrix(1,0,0,1,1670.9074074074074,2464.8182706915036) translate(37.074074074074076 12.444444444444446)"/><path d="M1524 2511.67h176v65.9" stroke="#666" fill="none"/><path d="M1524 2512.17h-.5v-1h.5z" fill="#666"/><path d="M1700 2592.33l-4.64-14.27h9.28z" stroke="#666" fill="#666"/><path d="M377.78 2066.67h24.44v233.9h-24.44z" stroke="#666"/><path d="M282.1 2211.4h47.34v-41.07h31.45" stroke="#666" fill="none"/><path d="M282.12 2211.9h-.5v-1h.5z" fill="#666"/><path d="M375.66 2170.33l-14.27 4.63v-9.27z" stroke="#666" fill="#666"/><path d="M660.78 2270.56h953.4" stroke="#666" fill="none"/><path d="M660.8 2271.06h-1.12l.6-.5-.6-.5h1.1z" fill="#666"/><path d="M1628.93 2270.56l-14.26 4.63v-9.28z" stroke="#666" fill="#666"/><path d="M403.22 2260.56h59.4" stroke="#666" fill="none"/><path d="M403.24 2261.06h-.52v-1h.52z" fill="#666"/><path d="M477.38 2260.56l-14.26 4.63v-9.28z" stroke="#666" fill="#666"/><path d="M479.5 2140.56h144l36 30-36 30h-144z" stroke="#666" fill="#fff"/><use xlink:href="#J" transform="matrix(1,0,0,1,487.4999999999354,2148.555555555543) translate(26.45061728395062 15.777777777777775)"/><use xlink:href="#Z" transform="matrix(1,0,0,1,487.4999999999354,2148.555555555543) translate(67.0679012345679 15.777777777777775)"/><use xlink:href="#L" transform="matrix(1,0,0,1,487.4999999999354,2148.555555555543) translate(41.59567901234568 34.44444444444444)"/><path d="M403.22 2180.56h59.4" stroke="#666" fill="none"/><path d="M403.24 2181.06h-.52v-1h.52z" fill="#666"/><path d="M477.38 2180.56l-14.26 4.63v-9.28z" stroke="#666" fill="#666"/><path d="M1095.67 2143.33h180v60h-180l36-30z" stroke="#666" fill="#fff"/><use xlink:href="#ad" transform="matrix(1,0,0,1,1131.6697266319368,2151.333333333333) translate(16.555555555555557 15.777777777777775)"/><use xlink:href="#Z" transform="matrix(1,0,0,1,1131.6697266319368,2151.333333333333) translate(76.96296296296296 15.777777777777775)"/><use xlink:href="#L" transform="matrix(1,0,0,1,1131.6697266319368,2151.333333333333) translate(41.59567901234568 34.44444444444444)"/><path d="M660.78 2170.56h456.5" stroke="#666" fill="none"/><path d="M660.8 2171.06h-1.12l.6-.5-.6-.5h1.1z" fill="#666"/><path d="M1129.3 2173l-14.9 1.7 1.85-9.1z" stroke="#666" fill="#666"/><path d="M1014.5 2389.94c-8.85 0-16 7.17-16 16v48c0 8.84 7.15 16 16 16h128c8.82 0 16-7.16 16-16v-48c0-8.83-7.18-16-16-16z" stroke="#666" fill="#fff"/><use xlink:href="#Y" transform="matrix(1,0,0,1,1006.4853909644835,2397.9444444441424) translate(20.169753086419753 25.777777777777775)"/><use xlink:href="#C" transform="matrix(1,0,0,1,1006.4853909644835,2397.9444444441424) translate(47.824074074074076 25.777777777777775)"/><use xlink:href="#Z" transform="matrix(1,0,0,1,1006.4853909644835,2397.9444444441424) translate(82.34876543209876 25.777777777777775)"/><use xlink:href="#aa" transform="matrix(1,0,0,1,1006.4853909644835,2397.9444444441424) translate(44.08641975308642 44.44444444444444)"/><path d="M462.22 2334.4h180v60h-180l36-30z" stroke="#666" fill="#fff"/><use xlink:href="#ad" transform="matrix(1,0,0,1,498.2222222222481,2342.388888889139) translate(16.555555555555557 15.777777777777775)"/><use xlink:href="#Z" transform="matrix(1,0,0,1,498.2222222222481,2342.388888889139) translate(76.96296296296296 15.777777777777775)"/><use xlink:href="#P" transform="matrix(1,0,0,1,498.2222222222481,2342.388888889139) translate(35.54629629629629 34.44444444444444)"/><path d="M997.5 2429.94H820.34v-65.55H659.1" stroke="#666" fill="none"/><path d="M998 2430.44h-.53v-1h.52z" fill="#666"/><path d="M644.34 2364.4l14.27-4.65v9.27z" stroke="#666" fill="#666"/><path d="M495.5 2537.17c-8.84 0-16 7.16-16 16v48c0 8.83 7.16 16 16 16h128c8.84 0 16-7.17 16-16v-48c0-8.84-7.16-16-16-16z" stroke="#666" fill="#fff"/><use xlink:href="#ag" transform="matrix(1,0,0,1,487.4999999999354,2545.166666666667) translate(12.413580246913575 35.111111111111114)"/><use xlink:href="#C" transform="matrix(1,0,0,1,487.4999999999354,2545.166666666667) translate(55.58024691358025 35.111111111111114)"/><use xlink:href="#ao" transform="matrix(1,0,0,1,487.4999999999354,2545.166666666667) translate(90.10493827160494 35.111111111111114)"/><path d="M753.33 2577.17c0 11.04-8.95 20-20 20-11.04 0-20-8.96-20-20 0-11.05 8.96-20 20-20 11.05 0 20 8.95 20 20z" stroke="#666" fill="#fff"/><path d="M719.2 2563.02l28.28 28.3m0-28.3l-28.3 28.3M640.5 2577.17h55.95" stroke="#666" fill="none"/><path d="M640.5 2577.67h-.5v-1h.5z" fill="#666"/><path d="M711.2 2577.17l-14.25 4.63v-9.27z" stroke="#666" fill="#666"/><path d="M469.5 2763.85h180v60h-180l36-30z" stroke="#666" fill="#fff"/><g><use xlink:href="#ad" transform="matrix(1,0,0,1,505.4999999999354,2771.8484701398984) translate(5.774691358024683 15.777777777777775)"/><use xlink:href="#al" transform="matrix(1,0,0,1,505.4999999999354,2771.8484701398984) translate(66.1820987654321 15.777777777777775)"/><use xlink:href="#P" transform="matrix(1,0,0,1,505.4999999999354,2771.8484701398984) translate(35.54629629629629 34.44444444444444)"/></g><path d="M1619 2634.44h-484.25v159.4H666.38" stroke="#666" fill="none"/><path d="M1619.5 2634.94h-.5v-1h.5z" fill="#666"/><path d="M651.62 2793.85l14.26-4.64v9.28z" stroke="#666" fill="#666"/><path d="M559.5 2869.4l20 20-20 20-20-20z" stroke="#666" fill="#fff"/><path d="M559.2 2824.85v27.78" stroke="#666" fill="none"/><path d="M559.7 2824.86h-1v-.5h1z" fill="#666"/><path d="M559.2 2867.4l-4.65-14.27h9.27z" stroke="#666" fill="#666"/><path d="M422.72 2888.9H538.3v1H421.7v-261.63h1zm39.9-599.73h-39.9v320.43h-1v-321.43h40.9z" fill="#666"/><path d="M538.8 2889.4l.5.5h-1.02v-1h1zM477.38 2288.67l-14.26 4.63v-9.27z" fill="#666"/><path d="M479 2288.67l-16.38 5.32v-10.66zm-15.38 3.94l12.14-3.93-12.14-3.95z" fill="#666"/><g><use xlink:href="#R" transform="matrix(1,0,0,1,391.1759259259259,2609.599005656451) translate(0 12.444444444444446)"/><use xlink:href="#S" transform="matrix(1,0,0,1,391.1759259259259,2609.599005656451) translate(29.382716049382715 12.444444444444446)"/></g><path d="M553.33 2429.94l20 20-20 20-20-20z" stroke="#666" fill="#fff"/><path d="M551.9 2395.4v18.88" stroke="#666" fill="none"/><path d="M552.4 2395.4h-1v-.5h1z" fill="#666"/><path d="M551.9 2429.04l-4.63-14.26h9.27z" stroke="#666" fill="#666"/><path d="M462.62 2171.06H439.5v278.38h10.35v1H438.5v-280.38h24.12zm69.5 278.38v1h-20.18v-1z" fill="#666"/><path d="M532.63 2449.94l.5.5h-1.02v-1h1.03zM477.38 2170.56l-14.26 4.63v-9.28z" fill="#666"/><path d="M479 2170.56l-16.38 5.32v-10.65zm-15.38 3.94l12.14-3.94-12.14-3.95z" fill="#666"/><g><use xlink:href="#R" transform="matrix(1,0,0,1,449.8520607775573,2440.611111110809) translate(0 12.444444444444446)"/><use xlink:href="#S" transform="matrix(1,0,0,1,449.8520607775573,2440.611111110809) translate(29.382716049382715 12.444444444444446)"/></g><path d="M553.83 2520.28h-1v-16.6h1zm0-35.26h-1v-13.87h1z" fill="#666"/><path d="M553.83 2471.16h-1v-1l.5.5.5-.5zM553.33 2535.05l-4.63-14.27h9.27z" fill="#666"/><path d="M553.33 2536.67l-5.32-16.4h10.66zm-3.94-15.4l3.93 12.16 3.95-12.15z" fill="#666"/><g><use xlink:href="#V" transform="matrix(1,0,0,1,542.0987654320987,2485.0198676129407) translate(0 12.444444444444446)"/></g><path d="M579.5 3001.6c0 11.06-8.95 20-20 20s-20-8.94-20-20c0-11.03 8.95-20 20-20s20 8.97 20 20z" stroke="#666" fill="#fff"/><path d="M571.5 3001.6c0 6.64-5.37 12-12 12s-12-5.36-12-12c0-6.62 5.37-12 12-12s12 5.38 12 12z" stroke="#666"/><path d="M560 2964.73h-1v-20.7h1zm0-39.37h-1v-14.75h1z" fill="#666"/><path d="M560 2910.62h-1v-1l.5.5.5-.5zM559.5 2979.5l-4.64-14.27h9.28z" fill="#666"/><path d="M559.5 2981.1l-5.32-16.37h10.64zm-3.95-15.37l3.95 12.14 3.95-12.14z" fill="#666"/><g><use xlink:href="#V" transform="matrix(1,0,0,1,548.2654320986491,2925.36053192153) translate(0 12.444444444444446)"/></g><path d="M1071.08 1318.9h160v20h-160z" stroke="#666"/><path d="M1145.67 1281v21" stroke="#666" fill="none"/><path d="M1146.17 1281h-1v-.5h1z" fill="#666"/><path d="M1145.67 1316.77l-4.64-14.26h9.28z" stroke="#666" fill="#666"/><path d="M1087.9 1339.9v21" stroke="#666" fill="none"/><path d="M1088.4 1339.9h-1v-.5h1z" fill="#666"/><path d="M1087.9 1375.66l-4.62-14.27h9.27z" stroke="#666" fill="#666"/><path d="M1184.16 1377.78c-8.83 0-16 7.16-16 16v48c0 8.83 7.17 16 16 16h128c8.84 0 16-7.17 16-16v-48c0-8.84-7.16-16-16-16z" stroke="#666" fill="#fff"/><g><use xlink:href="#ap" transform="matrix(1,0,0,1,1176.1637728053572,1385.777777777752) translate(29.69753086419753 35.111111111111114)"/><use xlink:href="#aq" transform="matrix(1,0,0,1,1176.1637728053572,1385.777777777752) translate(54.71604938271605 35.111111111111114)"/></g><path d="M1191.08 1339.4v21.5" stroke="#666" fill="none"/><path d="M1191.58 1339.4h-1 1z" fill="#666"/><path d="M1191.08 1375.66l-4.63-14.27h9.27z" stroke="#666" fill="#666"/><path d="M1315.67 1286.67c0 11.04-8.95 20-20 20s-20-8.96-20-20c0-11.05 8.95-20 20-20s20 8.95 20 20z" stroke="#666" fill="#fff"/><path d="M1281.53 1272.52l28.28 28.3m0-28.3l-28.27 28.3M1297.4 1376.78v-53.33" stroke="#666" fill="none"/><path d="M1297.9 1377.28h-1v-.52h1z" fill="#666"/><path d="M1297.4 1308.7l4.63 14.25h-9.27z" stroke="#666" fill="#666"/><path d="M1107.1 2304.44h160v20h-160z" stroke="#666"/><path d="M1185.67 2204.33v83.23" stroke="#666" fill="none"/><path d="M1186.17 2204.35h-1v-.52h1z" fill="#666"/><path d="M1185.67 2302.33l-4.64-14.27h9.28z" stroke="#666" fill="#666"/><path d="M1124.22 2325.44v47.62" stroke="#666" fill="none"/><path d="M1124.72 2325.46h-1v-.52h1z" fill="#666"/><path d="M1124.22 2387.83l-4.63-14.27h9.26z" stroke="#666" fill="#666"/><path d="M1196.74 2389.94c-8.83 0-16 7.17-16 16v48c0 8.84 7.17 16 16 16h128c8.84 0 16-7.16 16-16v-48c0-8.83-7.16-16-16-16z" stroke="#666" fill="#fff"/><g><use xlink:href="#ar" transform="matrix(1,0,0,1,1188.7426954822417,2397.9444444441424) translate(18.895061728395063 35.111111111111114)"/><use xlink:href="#as" transform="matrix(1,0,0,1,1188.7426954822417,2397.9444444441424) translate(73.2962962962963 35.111111111111114)"/></g><path d="M1328.25 2298.83c0 11.05-8.96 20-20 20-11.05 0-20-8.95-20-20 0-11.04 8.95-20 20-20 11.04 0 20 8.96 20 20z" stroke="#666" fill="#fff"/><path d="M1294.1 2284.7l28.3 28.28m0-28.3l-28.3 28.3M1309.97 2388.94v-53.32" stroke="#666" fill="none"/><path d="M1310.47 2389.44h-1v-.5h1z" fill="#666"/><path d="M1309.97 2320.85l4.64 14.27h-9.26z" stroke="#666" fill="#666"/><path d="M1227.1 2324.94v48.12" stroke="#666" fill="none"/><path d="M1227.6 2324.96h-1v-.02h1z" fill="#666"/><path d="M1227.1 2387.83l-4.62-14.27h9.27z" stroke="#666" fill="#666"/><defs><path fill="#666" d="M185-189c-5-48-123-54-124 2 14 75 158 14 163 119 3 78-121 87-175 55-17-10-28-26-33-46l33-7c5 56 141 63 141-1 0-78-155-14-162-118-5-82 145-84 179-34 5 7 8 16 11 25" id="at"/><path fill="#666" d="M59-47c-2 24 18 29 38 22v24C64 9 27 4 27-40v-127H5v-23h24l9-43h21v43h35v23H59v120" id="au"/><path fill="#666" d="M141-36C126-15 110 5 73 4 37 3 15-17 15-53c-1-64 63-63 125-63 3-35-9-54-41-54-24 1-41 7-42 31l-33-3c5-37 33-52 76-52 45 0 72 20 72 64v82c-1 20 7 32 28 27v20c-31 9-61-2-59-35zM48-53c0 20 12 33 32 33 41-3 63-29 60-74-43 2-92-5-92 41" id="av"/><path fill="#666" d="M114-163C36-179 61-72 57 0H25l-1-190h30c1 12-1 29 2 39 6-27 23-49 58-41v29" id="aw"/><g id="a"><use transform="matrix(0.04320987654320988,0,0,0.04320987654320988,0,0)" xlink:href="#at"/><use transform="matrix(0.04320987654320988,0,0,0.04320987654320988,10.370370370370372,0)" xlink:href="#au"/><use transform="matrix(0.04320987654320988,0,0,0.04320987654320988,14.691358024691363,0)" xlink:href="#av"/><use transform="matrix(0.04320987654320988,0,0,0.04320987654320988,23.333333333333336,0)" xlink:href="#aw"/><use transform="matrix(0.04320987654320988,0,0,0.04320987654320988,28.47530864197531,0)" xlink:href="#au"/></g><path fill="#666" d="M30 0v-248h187v28H63v79h144v27H63v87h162V0H30" id="ax"/><path fill="#666" d="M117-194c89-4 53 116 60 194h-32v-121c0-31-8-49-39-48C34-167 62-67 57 0H25l-1-190h30c1 10-1 24 2 32 11-22 29-35 61-36" id="ay"/><path fill="#666" d="M85-194c31 0 48 13 60 33l-1-100h32l1 261h-30c-2-10 0-23-3-31C134-8 116 4 85 4 32 4 16-35 15-94c0-66 23-100 70-100zm9 24c-40 0-46 34-46 75 0 40 6 74 45 74 42 0 51-32 51-76 0-42-9-74-50-73" id="az"/><g id="b"><use transform="matrix(0.04320987654320988,0,0,0.04320987654320988,0,0)" xlink:href="#ax"/><use transform="matrix(0.04320987654320988,0,0,0.04320987654320988,10.370370370370372,0)" xlink:href="#ay"/><use transform="matrix(0.04320987654320988,0,0,0.04320987654320988,19.01234567901235,0)" xlink:href="#az"/></g><path fill="#666" d="M160-131c35 5 61 23 61 61C221 17 115-2 30 0v-248c76 3 177-17 177 60 0 33-19 50-47 57zm-97-11c50-1 110 9 110-42 0-47-63-36-110-37v79zm0 115c55-2 124 14 124-45 0-56-70-42-124-44v89" id="aA"/><path fill="#666" d="M96-169c-40 0-48 33-48 73s9 75 48 75c24 0 41-14 43-38l32 2c-6 37-31 61-74 61-59 0-76-41-82-99-10-93 101-131 147-64 4 7 5 14 7 22l-32 3c-4-21-16-35-41-35" id="aB"/><path fill="#666" d="M106-169C34-169 62-67 57 0H25v-261h32l-1 103c12-21 28-36 61-36 89 0 53 116 60 194h-32v-121c2-32-8-49-39-48" id="aC"/><path fill="#666" d="M0 4l72-265h28L28 4H0" id="aD"/><path fill="#666" d="M210-169c-67 3-38 105-44 169h-31v-121c0-29-5-50-35-48C34-165 62-65 56 0H25l-1-190h30c1 10-1 24 2 32 10-44 99-50 107 0 11-21 27-35 58-36 85-2 47 119 55 194h-31v-121c0-29-5-49-35-48" id="aE"/><path fill="#666" d="M100-194c63 0 86 42 84 106H49c0 40 14 67 53 68 26 1 43-12 49-29l28 8c-11 28-37 45-77 45C44 4 14-33 15-96c1-61 26-98 85-98zm52 81c6-60-76-77-97-28-3 7-6 17-6 28h103" id="aF"/><path fill="#666" d="M177-190C167-65 218 103 67 71c-23-6-38-20-44-43l32-5c15 47 100 32 89-28v-30C133-14 115 1 83 1 29 1 15-40 15-95c0-56 16-97 71-98 29-1 48 16 59 35 1-10 0-23 2-32h30zM94-22c36 0 50-32 50-73 0-42-14-75-50-75-39 0-46 34-46 75s6 73 46 73" id="aG"/><g id="c"><use transform="matrix(0.04320987654320988,0,0,0.04320987654320988,0,0)" xlink:href="#aA"/><use transform="matrix(0.04320987654320988,0,0,0.04320987654320988,10.370370370370372,0)" xlink:href="#aw"/><use transform="matrix(0.04320987654320988,0,0,0.04320987654320988,15.512345679012347,0)" xlink:href="#av"/><use transform="matrix(0.04320987654320988,0,0,0.04320987654320988,24.154320987654323,0)" xlink:href="#ay"/><use transform="matrix(0.04320987654320988,0,0,0.04320987654320988,32.7962962962963,0)" xlink:href="#aB"/><use transform="matrix(0.04320987654320988,0,0,0.04320987654320988,40.574074074074076,0)" xlink:href="#aC"/><use transform="matrix(0.04320987654320988,0,0,0.04320987654320988,49.21604938271606,0)" xlink:href="#aD"/><use transform="matrix(0.04320987654320988,0,0,0.04320987654320988,53.537037037037045,0)" xlink:href="#aE"/><use transform="matrix(0.04320987654320988,0,0,0.04320987654320988,66.4567901234568,0)" xlink:href="#aF"/><use transform="matrix(0.04320987654320988,0,0,0.04320987654320988,75.09876543209877,0)" xlink:href="#aw"/><use transform="matrix(0.04320987654320988,0,0,0.04320987654320988,80.24074074074075,0)" xlink:href="#aG"/><use transform="matrix(0.04320987654320988,0,0,0.04320987654320988,88.88271604938272,0)" xlink:href="#aF"/></g><path fill="#666" d="M197 0v-115H63V0H30v-248h33v105h134v-105h34V0h-34" id="aH"/><path fill="#666" d="M100-194c62-1 85 37 85 99 1 63-27 99-86 99S16-35 15-95c0-66 28-99 85-99zM99-20c44 1 53-31 53-75 0-43-8-75-51-75s-53 32-53 75 10 74 51 75" id="aI"/><path fill="#666" d="M24-231v-30h32v30H24zM24 0v-190h32V0H24" id="aJ"/><path fill="#666" d="M9 0v-24l116-142H16v-24h144v24L44-24h123V0H9" id="aK"/><path fill="#666" d="M24 0v-261h32V0H24" id="aL"/><g id="d"><use transform="matrix(0.04320987654320988,0,0,0.04320987654320988,0,0)" xlink:href="#aH"/><use transform="matrix(0.04320987654320988,0,0,0.04320987654320988,11.19135802469136,0)" xlink:href="#aI"/><use transform="matrix(0.04320987654320988,0,0,0.04320987654320988,19.833333333333336,0)" xlink:href="#aw"/><use transform="matrix(0.04320987654320988,0,0,0.04320987654320988,24.97530864197531,0)" xlink:href="#aJ"/><use transform="matrix(0.04320987654320988,0,0,0.04320987654320988,28.388888888888893,0)" xlink:href="#aK"/><use transform="matrix(0.04320987654320988,0,0,0.04320987654320988,36.16666666666667,0)" xlink:href="#aI"/><use transform="matrix(0.04320987654320988,0,0,0.04320987654320988,44.808641975308646,0)" xlink:href="#ay"/><use transform="matrix(0.04320987654320988,0,0,0.04320987654320988,53.45061728395062,0)" xlink:href="#au"/><use transform="matrix(0.04320987654320988,0,0,0.04320987654320988,57.77160493827161,0)" xlink:href="#av"/><use transform="matrix(0.04320987654320988,0,0,0.04320987654320988,66.41358024691358,0)" xlink:href="#aL"/></g><path fill="#666" d="M101-234c-31-9-42 10-38 44h38v23H63V0H32v-167H5v-23h27c-7-52 17-82 69-68v24" id="aM"/><path fill="#666" d="M143 0L79-87 56-68V0H24v-261h32v163l83-92h37l-77 82L181 0h-38" id="aN"/><path fill="#666" d="M24-231v-30h32v30H24zM-9 49c24 4 33-6 33-30v-209h32V24c2 40-23 58-65 49V49" id="aO"/><g id="e"><use transform="matrix(0.04320987654320988,0,0,0.04320987654320988,0,0)" xlink:href="#aM"/><use transform="matrix(0.04320987654320988,0,0,0.04320987654320988,4.320987654320988,0)" xlink:href="#aI"/><use transform="matrix(0.04320987654320988,0,0,0.04320987654320988,12.962962962962964,0)" xlink:href="#aw"/><use transform="matrix(0.04320987654320988,0,0,0.04320987654320988,18.10493827160494,0)" xlink:href="#aN"/><use transform="matrix(0.04320987654320988,0,0,0.04320987654320988,25.88271604938272,0)" xlink:href="#aD"/><use transform="matrix(0.04320987654320988,0,0,0.04320987654320988,30.203703703703706,0)" xlink:href="#aO"/><use transform="matrix(0.04320987654320988,0,0,0.04320987654320988,33.617283950617285,0)" xlink:href="#aI"/><use transform="matrix(0.04320987654320988,0,0,0.04320987654320988,42.25925925925926,0)" xlink:href="#aJ"/><use transform="matrix(0.04320987654320988,0,0,0.04320987654320988,45.67283950617284,0)" xlink:href="#ay"/></g><path fill="#666" d="M33 0v-248h34V0H33" id="aP"/><path fill="#666" d="M84 4C-5 8 30-112 23-190h32v120c0 31 7 50 39 49 72-2 45-101 50-169h31l1 190h-30c-1-10 1-25-2-33-11 22-28 36-60 37" id="aQ"/><path fill="#666" d="M115-194c55 1 70 41 70 98S169 2 115 4C84 4 66-9 55-30l1 105H24l-1-265h31l2 30c10-21 28-34 59-34zm-8 174c40 0 45-34 45-75s-6-73-45-74c-42 0-51 32-51 76 0 43 10 73 51 73" id="aR"/><g id="f"><use transform="matrix(0.04320987654320988,0,0,0.04320987654320988,0,0)" xlink:href="#aP"/><use transform="matrix(0.04320987654320988,0,0,0.04320987654320988,4.320987654320988,0)" xlink:href="#ay"/><use transform="matrix(0.04320987654320988,0,0,0.04320987654320988,12.962962962962964,0)" xlink:href="#au"/><use transform="matrix(0.04320987654320988,0,0,0.04320987654320988,17.283950617283953,0)" xlink:href="#aF"/><use transform="matrix(0.04320987654320988,0,0,0.04320987654320988,25.925925925925927,0)" xlink:href="#aw"/><use transform="matrix(0.04320987654320988,0,0,0.04320987654320988,31.067901234567906,0)" xlink:href="#aw"/><use transform="matrix(0.04320987654320988,0,0,0.04320987654320988,36.20987654320988,0)" xlink:href="#aQ"/><use transform="matrix(0.04320987654320988,0,0,0.04320987654320988,44.851851851851855,0)" xlink:href="#aR"/><use transform="matrix(0.04320987654320988,0,0,0.04320987654320988,53.49382716049383,0)" xlink:href="#au"/><use transform="matrix(0.04320987654320988,0,0,0.04320987654320988,57.814814814814824,0)" xlink:href="#aJ"/><use transform="matrix(0.04320987654320988,0,0,0.04320987654320988,61.2283950617284,0)" xlink:href="#ay"/><use transform="matrix(0.04320987654320988,0,0,0.04320987654320988,69.87037037037038,0)" xlink:href="#aG"/></g><g id="g"><use transform="matrix(0.04320987654320988,0,0,0.04320987654320988,0,0)" xlink:href="#aF"/><use transform="matrix(0.04320987654320988,0,0,0.04320987654320988,8.641975308641976,0)" xlink:href="#az"/><use transform="matrix(0.04320987654320988,0,0,0.04320987654320988,17.283950617283953,0)" xlink:href="#aG"/><use transform="matrix(0.04320987654320988,0,0,0.04320987654320988,25.925925925925927,0)" xlink:href="#aF"/></g><path fill="#666" d="M127-220V0H93v-220H8v-28h204v28h-85" id="aS"/><g id="h"><use transform="matrix(0.04320987654320988,0,0,0.04320987654320988,0,0)" xlink:href="#aS"/><use transform="matrix(0.04320987654320988,0,0,0.04320987654320988,8.901234567901236,0)" xlink:href="#aJ"/><use transform="matrix(0.04320987654320988,0,0,0.04320987654320988,12.314814814814817,0)" xlink:href="#aE"/><use transform="matrix(0.04320987654320988,0,0,0.04320987654320988,25.23456790123457,0)" xlink:href="#aF"/></g><path fill="#666" d="M108 0H70L1-190h34L89-25l56-165h34" id="aT"/><g id="i"><use transform="matrix(0.04320987654320988,0,0,0.04320987654320988,0,0)" xlink:href="#aF"/><use transform="matrix(0.04320987654320988,0,0,0.04320987654320988,8.641975308641976,0)" xlink:href="#aT"/><use transform="matrix(0.04320987654320988,0,0,0.04320987654320988,16.419753086419753,0)" xlink:href="#aF"/><use transform="matrix(0.04320987654320988,0,0,0.04320987654320988,25.061728395061728,0)" xlink:href="#ay"/><use transform="matrix(0.04320987654320988,0,0,0.04320987654320988,33.7037037037037,0)" xlink:href="#au"/></g><path fill="#666" d="M63-220v92h138v28H63V0H30v-248h175v28H63" id="aU"/><g id="j"><use transform="matrix(0.04320987654320988,0,0,0.04320987654320988,0,0)" xlink:href="#aU"/><use transform="matrix(0.04320987654320988,0,0,0.04320987654320988,9.462962962962964,0)" xlink:href="#aJ"/><use transform="matrix(0.04320987654320988,0,0,0.04320987654320988,12.876543209876544,0)" xlink:href="#ay"/><use transform="matrix(0.04320987654320988,0,0,0.04320987654320988,21.51851851851852,0)" xlink:href="#av"/><use transform="matrix(0.04320987654320988,0,0,0.04320987654320988,30.160493827160494,0)" xlink:href="#aL"/></g><path fill="#666" d="M206 0h-36l-40-164L89 0H53L-1-190h32L70-26l43-164h34l41 164 42-164h31" id="aV"/><g id="k"><use transform="matrix(0.04320987654320988,0,0,0.04320987654320988,0,0)" xlink:href="#aM"/><use transform="matrix(0.04320987654320988,0,0,0.04320987654320988,4.320987654320988,0)" xlink:href="#aL"/><use transform="matrix(0.04320987654320988,0,0,0.04320987654320988,7.734567901234569,0)" xlink:href="#aI"/><use transform="matrix(0.04320987654320988,0,0,0.04320987654320988,16.376543209876544,0)" xlink:href="#aV"/></g><path fill="#666" d="M24 0v-248h52v208h133V0H24" id="aW"/><path fill="#666" d="M185-48c-13 30-37 53-82 52C43 2 14-33 14-96s30-98 90-98c62 0 83 45 84 108H66c0 31 8 55 39 56 18 0 30-7 34-22zm-45-69c5-46-57-63-70-21-2 6-4 13-4 21h74" id="aX"/><path fill="#666" d="M195-6C206 82 75 100 31 46c-4-6-6-13-8-21l49-6c3 16 16 24 34 25 40 0 42-37 40-79-11 22-30 35-61 35-53 0-70-43-70-97 0-56 18-96 73-97 30 0 46 14 59 34l2-30h47zm-90-29c32 0 41-27 41-63 0-35-9-62-40-62-32 0-39 29-40 63 0 36 9 62 39 62" id="aY"/><path fill="#666" d="M135-194c87-1 58 113 63 194h-50c-7-57 23-157-34-157-59 0-34 97-39 157H25l-1-190h47c2 12-1 28 3 38 12-26 28-41 61-42" id="aZ"/><path fill="#666" d="M88-194c31-1 46 15 58 34l-1-101h50l1 261h-48c-2-10 0-23-3-31C134-8 116 4 84 4 32 4 16-41 15-95c0-56 19-97 73-99zm17 164c33 0 40-30 41-66 1-37-9-64-41-64s-38 30-39 65c0 43 13 65 39 65" id="ba"/><g id="l"><use transform="matrix(0.04320987654320988,0,0,0.04320987654320988,0,0)" xlink:href="#aW"/><use transform="matrix(0.04320987654320988,0,0,0.04320987654320988,9.462962962962964,0)" xlink:href="#aX"/><use transform="matrix(0.04320987654320988,0,0,0.04320987654320988,18.10493827160494,0)" xlink:href="#aY"/><use transform="matrix(0.04320987654320988,0,0,0.04320987654320988,27.567901234567906,0)" xlink:href="#aX"/><use transform="matrix(0.04320987654320988,0,0,0.04320987654320988,36.20987654320988,0)" xlink:href="#aZ"/><use transform="matrix(0.04320987654320988,0,0,0.04320987654320988,45.67283950617284,0)" xlink:href="#ba"/></g><path fill="#b2b2b2" d="M33 0v-248h34V0H33" id="bb"/><path fill="#b2b2b2" d="M106-169C34-169 62-67 57 0H25v-261h32l-1 103c12-21 28-36 61-36 89 0 53 116 60 194h-32v-121c2-32-8-49-39-48" id="bc"/><path fill="#b2b2b2" d="M100-194c62-1 85 37 85 99 1 63-27 99-86 99S16-35 15-95c0-66 28-99 85-99zM99-20c44 1 53-31 53-75 0-43-8-75-51-75s-53 32-53 75 10 74 51 75" id="bd"/><path fill="#b2b2b2" d="M114-163C36-179 61-72 57 0H25l-1-190h30c1 12-1 29 2 39 6-27 23-49 58-41v29" id="be"/><g id="m"><use transform="matrix(0.04801097393689986,0,0,0.04801097393689986,0,0)" xlink:href="#bb"/><use transform="matrix(0.04801097393689986,0,0,0.04801097393689986,4.801097393689986,0)" xlink:href="#bc"/><use transform="matrix(0.04801097393689986,0,0,0.04801097393689986,14.403292181069958,0)" xlink:href="#bd"/><use transform="matrix(0.04801097393689986,0,0,0.04801097393689986,24.00548696844993,0)" xlink:href="#be"/></g><path fill="#b2b2b2" d="M197 0v-115H63V0H30v-248h33v105h134v-105h34V0h-34" id="bf"/><path fill="#b2b2b2" d="M179-190L93 31C79 59 56 82 12 73V49c39 6 53-20 64-50L1-190h34L92-34l54-156h33" id="bg"/><path fill="#b2b2b2" d="M135-143c-3-34-86-38-87 0 15 53 115 12 119 90S17 21 10-45l28-5c4 36 97 45 98 0-10-56-113-15-118-90-4-57 82-63 122-42 12 7 21 19 24 35" id="bh"/><path fill="#b2b2b2" d="M143 0L79-87 56-68V0H24v-261h32v163l83-92h37l-77 82L181 0h-38" id="bi"/><path fill="#b2b2b2" d="M108 0H70L1-190h34L89-25l56-165h34" id="bj"/><g id="n"><use transform="matrix(0.04801097393689986,0,0,0.04801097393689986,0,0)" xlink:href="#bf"/><use transform="matrix(0.04801097393689986,0,0,0.04801097393689986,12.434842249657065,0)" xlink:href="#be"/><use transform="matrix(0.04801097393689986,0,0,0.04801097393689986,18.14814814814815,0)" xlink:href="#bg"/><use transform="matrix(0.04801097393689986,0,0,0.04801097393689986,26.790123456790123,0)" xlink:href="#bh"/><use transform="matrix(0.04801097393689986,0,0,0.04801097393689986,35.4320987654321,0)" xlink:href="#bc"/><use transform="matrix(0.04801097393689986,0,0,0.04801097393689986,45.03429355281207,0)" xlink:href="#bi"/><use transform="matrix(0.04801097393689986,0,0,0.04801097393689986,53.67626886145405,0)" xlink:href="#bd"/><use transform="matrix(0.04801097393689986,0,0,0.04801097393689986,63.27846364883402,0)" xlink:href="#bj"/></g><path fill="#b2b2b2" d="M32 76v-337h29V76H32" id="bk"/><use transform="matrix(0.04801097393689986,0,0,0.04801097393689986,0,0)" xlink:href="#bk" id="o"/><path fill="#b2b2b2" d="M153-248C145-148 188 4 80 4 36 3 13-21 6-62l32-5c4 25 16 42 43 43 27 0 39-20 39-49v-147H72v-28h81" id="bl"/><path fill="#b2b2b2" d="M84 4C-5 8 30-112 23-190h32v120c0 31 7 50 39 49 72-2 45-101 50-169h31l1 190h-30c-1-10 1-25-2-33-11 22-28 36-60 37" id="bm"/><path fill="#b2b2b2" d="M24 0v-261h32V0H24" id="bn"/><g id="p"><use transform="matrix(0.04801097393689986,0,0,0.04801097393689986,0,0)" xlink:href="#bl"/><use transform="matrix(0.04801097393689986,0,0,0.04801097393689986,8.641975308641975,0)" xlink:href="#bm"/><use transform="matrix(0.04801097393689986,0,0,0.04801097393689986,18.244170096021946,0)" xlink:href="#bn"/><use transform="matrix(0.04801097393689986,0,0,0.04801097393689986,22.037037037037035,0)" xlink:href="#bg"/></g><path fill="#b2b2b2" d="M54-142c48-35 137-8 131 61C196 18 31 33 14-55l32-4c7 23 22 37 52 37 35-1 51-22 54-58 4-55-73-65-99-34H22l8-134h141v27H59" id="bo"/><path fill="#b2b2b2" d="M68-38c1 34 0 65-14 84H32c9-13 17-26 17-46H33v-38h35" id="bp"/><g id="q"><use transform="matrix(0.04801097393689986,0,0,0.04801097393689986,0,0)" xlink:href="#bo"/><use transform="matrix(0.04801097393689986,0,0,0.04801097393689986,9.602194787379972,0)" xlink:href="#bp"/></g><path fill="#b2b2b2" d="M101-251c82-7 93 87 43 132L82-64C71-53 59-42 53-27h129V0H18c2-99 128-94 128-182 0-28-16-43-45-43s-46 15-49 41l-32-3c6-41 34-60 81-64" id="bq"/><path fill="#b2b2b2" d="M101-251c68 0 85 55 85 127S166 4 100 4C33 4 14-52 14-124c0-73 17-127 87-127zm-1 229c47 0 54-49 54-102s-4-102-53-102c-51 0-55 48-55 102 0 53 5 102 54 102" id="br"/><g id="r"><use transform="matrix(0.04801097393689986,0,0,0.04801097393689986,0,0)" xlink:href="#bq"/><use transform="matrix(0.04801097393689986,0,0,0.04801097393689986,9.602194787379972,0)" xlink:href="#br"/><use transform="matrix(0.04801097393689986,0,0,0.04801097393689986,19.204389574759944,0)" xlink:href="#bq"/><use transform="matrix(0.04801097393689986,0,0,0.04801097393689986,28.806584362139915,0)" xlink:href="#br"/></g><path fill="#b2b2b2" d="M24 0v-248h195v40H76v63h132v40H76v65h150V0H24" id="bs"/><path fill="#b2b2b2" d="M230 0l2-204L168 0h-37L68-204 70 0H24v-248h70l56 185 57-185h69V0h-46" id="bt"/><path fill="#b2b2b2" d="M169-182c-1-43-94-46-97-3 18 66 151 10 154 114 3 95-165 93-204 36-6-8-10-19-12-30l50-8c3 46 112 56 116 5-17-69-150-10-154-114-4-87 153-88 188-35 5 8 8 18 10 28" id="bu"/><path fill="#b2b2b2" d="M-4 44V30h207v14H-4" id="bv"/><path fill="#b2b2b2" d="M185-48c-13 30-37 53-82 52C43 2 14-33 14-96s30-98 90-98c62 0 83 45 84 108H66c0 31 8 55 39 56 18 0 30-7 34-22zm-45-69c5-46-57-63-70-21-2 6-4 13-4 21h74" id="bw"/><path fill="#b2b2b2" d="M135-194c87-1 58 113 63 194h-50c-7-57 23-157-34-157-59 0-34 97-39 157H25l-1-190h47c2 12-1 28 3 38 12-26 28-41 61-42" id="bx"/><path fill="#b2b2b2" d="M88-194c31-1 46 15 58 34l-1-101h50l1 261h-48c-2-10 0-23-3-31C134-8 116 4 84 4 32 4 16-41 15-95c0-56 19-97 73-99zm17 164c33 0 40-30 41-66 1-37-9-64-41-64s-38 30-39 65c0 43 13 65 39 65" id="by"/><path fill="#b2b2b2" d="M240-174c0 40-23 61-54 70L253 0h-59l-57-94H76V0H24v-248c93 4 217-23 216 74zM76-134c48-2 112 12 112-38 0-48-66-32-112-35v73" id="bz"/><path fill="#b2b2b2" d="M190-63c-7 42-38 67-86 67-59 0-84-38-90-98-12-110 154-137 174-36l-49 2c-2-19-15-32-35-32-30 0-35 28-38 64-6 74 65 87 74 30" id="bA"/><path fill="#b2b2b2" d="M25-224v-37h50v37H25zM25 0v-190h50V0H25" id="bB"/><path fill="#b2b2b2" d="M128 0H69L1-190h53L99-40l48-150h52" id="bC"/><path fill="#b2b2b2" d="M199 0l-22-63H83L61 0H9l90-248h61L250 0h-51zm-33-102l-36-108c-10 38-24 72-36 108h72" id="bD"/><path fill="#b2b2b2" d="M115-3C79 11 28 4 28-45v-112H4v-33h27l15-45h31v45h36v33H77v99c-1 23 16 31 38 25v30" id="bE"/><path fill="#b2b2b2" d="M123 10C108 53 80 86 19 72V37c35 8 53-11 59-39L3-190h52l48 148c12-52 28-100 44-148h51" id="bF"/><path fill="#b2b2b2" d="M23 0v-37h61v-169l-59 37v-38l62-41h46v211h57V0H23" id="bG"/><path fill="#b2b2b2" d="M24 0v-54h51V0H24" id="bH"/><path fill="#b2b2b2" d="M101-251c68 0 84 54 84 127C185-50 166 4 99 4S15-52 14-124c-1-75 17-127 87-127zm-1 216c37-5 36-46 36-89s4-89-36-89c-39 0-36 45-36 89 0 43-3 85 36 89" id="bI"/><g id="s"><use transform="matrix(0.08230452674897118,0,0,0.08230452674897118,0,0)" xlink:href="#bs"/><use transform="matrix(0.08230452674897118,0,0,0.08230452674897118,19.75308641975308,0)" xlink:href="#bt"/><use transform="matrix(0.08230452674897118,0,0,0.08230452674897118,44.362139917695465,0)" xlink:href="#bu"/><use transform="matrix(0.08230452674897118,0,0,0.08230452674897118,64.11522633744855,0)" xlink:href="#bv"/><use transform="matrix(0.08230452674897118,0,0,0.08230452674897118,80.57613168724278,0)" xlink:href="#bu"/><use transform="matrix(0.08230452674897118,0,0,0.08230452674897118,100.32921810699585,0)" xlink:href="#bw"/><use transform="matrix(0.08230452674897118,0,0,0.08230452674897118,116.79012345679008,0)" xlink:href="#bx"/><use transform="matrix(0.08230452674897118,0,0,0.08230452674897118,134.81481481481478,0)" xlink:href="#by"/><use transform="matrix(0.08230452674897118,0,0,0.08230452674897118,152.83950617283946,0)" xlink:href="#bz"/><use transform="matrix(0.08230452674897118,0,0,0.08230452674897118,174.156378600823,0)" xlink:href="#bw"/><use transform="matrix(0.08230452674897118,0,0,0.08230452674897118,190.61728395061726,0)" xlink:href="#bA"/><use transform="matrix(0.08230452674897118,0,0,0.08230452674897118,207.07818930041148,0)" xlink:href="#bw"/><use transform="matrix(0.08230452674897118,0,0,0.08230452674897118,223.53909465020573,0)" xlink:href="#bB"/><use transform="matrix(0.08230452674897118,0,0,0.08230452674897118,231.76954732510285,0)" xlink:href="#bC"/><use transform="matrix(0.08230452674897118,0,0,0.08230452674897118,248.23045267489707,0)" xlink:href="#bw"/><use transform="matrix(0.08230452674897118,0,0,0.08230452674897118,264.69135802469134,0)" xlink:href="#bD"/><use transform="matrix(0.08230452674897118,0,0,0.08230452674897118,286.00823045267487,0)" xlink:href="#bA"/><use transform="matrix(0.08230452674897118,0,0,0.08230452674897118,302.4691358024691,0)" xlink:href="#bE"/><use transform="matrix(0.08230452674897118,0,0,0.08230452674897118,312.26337448559667,0)" xlink:href="#bB"/><use transform="matrix(0.08230452674897118,0,0,0.08230452674897118,320.49382716049377,0)" xlink:href="#bC"/><use transform="matrix(0.08230452674897118,0,0,0.08230452674897118,336.954732510288,0)" xlink:href="#bB"/><use transform="matrix(0.08230452674897118,0,0,0.08230452674897118,345.1851851851851,0)" xlink:href="#bE"/><use transform="matrix(0.08230452674897118,0,0,0.08230452674897118,354.9794238683127,0)" xlink:href="#bF"/><use transform="matrix(0.08230452674897118,0,0,0.08230452674897118,371.4403292181069,0)" xlink:href="#bv"/><use transform="matrix(0.08230452674897118,0,0,0.08230452674897118,387.90123456790116,0)" xlink:href="#bG"/><use transform="matrix(0.08230452674897118,0,0,0.08230452674897118,404.3621399176954,0)" xlink:href="#bH"/><use transform="matrix(0.08230452674897118,0,0,0.08230452674897118,412.5925925925925,0)" xlink:href="#bI"/><use transform="matrix(0.08230452674897118,0,0,0.08230452674897118,429.05349794238674,0)" xlink:href="#bH"/><use transform="matrix(0.08230452674897118,0,0,0.08230452674897118,437.2839506172838,0)" xlink:href="#bI"/></g><path fill="#666" d="M233-177c-1 41-23 64-60 70L243 0h-38l-65-103H63V0H30v-248c88 3 205-21 203 71zM63-129c60-2 137 13 137-47 0-61-80-42-137-45v92" id="bJ"/><g id="t"><use transform="matrix(0.04320987654320988,0,0,0.04320987654320988,0,0)" xlink:href="#at"/><use transform="matrix(0.04320987654320988,0,0,0.04320987654320988,10.370370370370372,0)" xlink:href="#aF"/><use transform="matrix(0.04320987654320988,0,0,0.04320987654320988,19.01234567901235,0)" xlink:href="#ay"/><use transform="matrix(0.04320987654320988,0,0,0.04320987654320988,27.654320987654323,0)" xlink:href="#az"/><use transform="matrix(0.04320987654320988,0,0,0.04320987654320988,36.2962962962963,0)" xlink:href="#aD"/><use transform="matrix(0.04320987654320988,0,0,0.04320987654320988,40.617283950617285,0)" xlink:href="#bJ"/><use transform="matrix(0.04320987654320988,0,0,0.04320987654320988,51.808641975308646,0)" xlink:href="#aF"/><use transform="matrix(0.04320987654320988,0,0,0.04320987654320988,60.45061728395062,0)" xlink:href="#aB"/><use transform="matrix(0.04320987654320988,0,0,0.04320987654320988,68.2283950617284,0)" xlink:href="#aJ"/><use transform="matrix(0.04320987654320988,0,0,0.04320987654320988,71.64197530864199,0)" xlink:href="#aF"/><use transform="matrix(0.04320987654320988,0,0,0.04320987654320988,80.28395061728396,0)" xlink:href="#aT"/><use transform="matrix(0.04320987654320988,0,0,0.04320987654320988,88.06172839506175,0)" xlink:href="#aF"/></g><path fill="#666" d="M135-143c-3-34-86-38-87 0 15 53 115 12 119 90S17 21 10-45l28-5c4 36 97 45 98 0-10-56-113-15-118-90-4-57 82-63 122-42 12 7 21 19 24 35" id="bK"/><g id="u"><use transform="matrix(0.04320987654320988,0,0,0.04320987654320988,0,0)" xlink:href="#aE"/><use transform="matrix(0.04320987654320988,0,0,0.04320987654320988,12.919753086419755,0)" xlink:href="#aF"/><use transform="matrix(0.04320987654320988,0,0,0.04320987654320988,21.56172839506173,0)" xlink:href="#bK"/><use transform="matrix(0.04320987654320988,0,0,0.04320987654320988,29.33950617283951,0)" xlink:href="#bK"/><use transform="matrix(0.04320987654320988,0,0,0.04320987654320988,37.11728395061729,0)" xlink:href="#av"/><use transform="matrix(0.04320987654320988,0,0,0.04320987654320988,45.75925925925927,0)" xlink:href="#aG"/><use transform="matrix(0.04320987654320988,0,0,0.04320987654320988,54.40123456790124,0)" xlink:href="#aF"/></g><g id="v"><use transform="matrix(0.04320987654320988,0,0,0.04320987654320988,0,0)" xlink:href="#aV"/><use transform="matrix(0.04320987654320988,0,0,0.04320987654320988,11.19135802469136,0)" xlink:href="#aJ"/><use transform="matrix(0.04320987654320988,0,0,0.04320987654320988,14.60493827160494,0)" xlink:href="#au"/><use transform="matrix(0.04320987654320988,0,0,0.04320987654320988,18.925925925925927,0)" xlink:href="#aC"/></g><g id="w"><use transform="matrix(0.04320987654320988,0,0,0.04320987654320988,0,0)" xlink:href="#au"/><use transform="matrix(0.04320987654320988,0,0,0.04320987654320988,4.320987654320988,0)" xlink:href="#aV"/><use transform="matrix(0.04320987654320988,0,0,0.04320987654320988,15.512345679012347,0)" xlink:href="#aI"/></g><g id="x"><use transform="matrix(0.04320987654320988,0,0,0.04320987654320988,0,0)" xlink:href="#aB"/><use transform="matrix(0.04320987654320988,0,0,0.04320987654320988,7.777777777777779,0)" xlink:href="#aL"/><use transform="matrix(0.04320987654320988,0,0,0.04320987654320988,11.19135802469136,0)" xlink:href="#aJ"/><use transform="matrix(0.04320987654320988,0,0,0.04320987654320988,14.60493827160494,0)" xlink:href="#aF"/><use transform="matrix(0.04320987654320988,0,0,0.04320987654320988,23.246913580246915,0)" xlink:href="#ay"/><use transform="matrix(0.04320987654320988,0,0,0.04320987654320988,31.888888888888893,0)" xlink:href="#au"/><use transform="matrix(0.04320987654320988,0,0,0.04320987654320988,36.20987654320988,0)" xlink:href="#bK"/></g><path fill="#666" d="M212-179c-10-28-35-45-73-45-59 0-87 40-87 99 0 60 29 101 89 101 43 0 62-24 78-52l27 14C228-24 195 4 139 4 59 4 22-46 18-125c-6-104 99-153 187-111 19 9 31 26 39 46" id="bL"/><path fill="#666" d="M27 0v-27h64v-190l-56 39v-29l58-41h29v221h61V0H27" id="bM"/><g id="y"><use transform="matrix(0.04320987654320988,0,0,0.04320987654320988,0,0)" xlink:href="#bL"/><use transform="matrix(0.04320987654320988,0,0,0.04320987654320988,11.19135802469136,0)" xlink:href="#aL"/><use transform="matrix(0.04320987654320988,0,0,0.04320987654320988,14.60493827160494,0)" xlink:href="#aJ"/><use transform="matrix(0.04320987654320988,0,0,0.04320987654320988,18.01851851851852,0)" xlink:href="#aF"/><use transform="matrix(0.04320987654320988,0,0,0.04320987654320988,26.66049382716049,0)" xlink:href="#ay"/><use transform="matrix(0.04320987654320988,0,0,0.04320987654320988,35.30246913580247,0)" xlink:href="#au"/><use transform="matrix(0.04320987654320988,0,0,0.04320987654320988,39.623456790123456,0)" xlink:href="#bM"/></g><path fill="#666" d="M240 0l2-218c-23 76-54 145-80 218h-23L58-218 59 0H30v-248h44l77 211c21-75 51-140 76-211h43V0h-30" id="bN"/><g id="z"><use transform="matrix(0.04320987654320988,0,0,0.04320987654320988,0,0)" xlink:href="#bN"/><use transform="matrix(0.04320987654320988,0,0,0.04320987654320988,12.919753086419755,0)" xlink:href="#aF"/><use transform="matrix(0.04320987654320988,0,0,0.04320987654320988,21.56172839506173,0)" xlink:href="#bK"/><use transform="matrix(0.04320987654320988,0,0,0.04320987654320988,29.33950617283951,0)" xlink:href="#bK"/><use transform="matrix(0.04320987654320988,0,0,0.04320987654320988,37.11728395061729,0)" xlink:href="#av"/><use transform="matrix(0.04320987654320988,0,0,0.04320987654320988,45.75925925925927,0)" xlink:href="#aG"/><use transform="matrix(0.04320987654320988,0,0,0.04320987654320988,54.40123456790124,0)" xlink:href="#aF"/><use transform="matrix(0.04320987654320988,0,0,0.04320987654320988,63.043209876543216,0)" xlink:href="#at"/><use transform="matrix(0.04320987654320988,0,0,0.04320987654320988,73.41358024691358,0)" xlink:href="#aF"/><use transform="matrix(0.04320987654320988,0,0,0.04320987654320988,82.05555555555556,0)" xlink:href="#aw"/><use transform="matrix(0.04320987654320988,0,0,0.04320987654320988,87.19753086419753,0)" xlink:href="#aT"/><use transform="matrix(0.04320987654320988,0,0,0.04320987654320988,94.97530864197532,0)" xlink:href="#aJ"/><use transform="matrix(0.04320987654320988,0,0,0.04320987654320988,98.3888888888889,0)" xlink:href="#aB"/><use transform="matrix(0.04320987654320988,0,0,0.04320987654320988,106.16666666666667,0)" xlink:href="#aF"/></g><path fill="#666" d="M101-251c82-7 93 87 43 132L82-64C71-53 59-42 53-27h129V0H18c2-99 128-94 128-182 0-28-16-43-45-43s-46 15-49 41l-32-3c6-41 34-60 81-64" id="bO"/><g id="A"><use transform="matrix(0.04320987654320988,0,0,0.04320987654320988,0,0)" xlink:href="#bL"/><use transform="matrix(0.04320987654320988,0,0,0.04320987654320988,11.19135802469136,0)" xlink:href="#aL"/><use transform="matrix(0.04320987654320988,0,0,0.04320987654320988,14.60493827160494,0)" xlink:href="#aJ"/><use transform="matrix(0.04320987654320988,0,0,0.04320987654320988,18.01851851851852,0)" xlink:href="#aF"/><use transform="matrix(0.04320987654320988,0,0,0.04320987654320988,26.66049382716049,0)" xlink:href="#ay"/><use transform="matrix(0.04320987654320988,0,0,0.04320987654320988,35.30246913580247,0)" xlink:href="#au"/><use transform="matrix(0.04320987654320988,0,0,0.04320987654320988,39.623456790123456,0)" xlink:href="#bO"/></g><path fill="#666" d="M30 0v-248h33v221h125V0H30" id="bP"/><g id="B"><use transform="matrix(0.04320987654320988,0,0,0.04320987654320988,0,0)" xlink:href="#bP"/><use transform="matrix(0.04320987654320988,0,0,0.04320987654320988,8.641975308641976,0)" xlink:href="#aI"/><use transform="matrix(0.04320987654320988,0,0,0.04320987654320988,17.283950617283953,0)" xlink:href="#av"/><use transform="matrix(0.04320987654320988,0,0,0.04320987654320988,25.925925925925927,0)" xlink:href="#az"/></g><g id="C"><use transform="matrix(0.04320987654320988,0,0,0.04320987654320988,0,0)" xlink:href="#aQ"/><use transform="matrix(0.04320987654320988,0,0,0.04320987654320988,8.641975308641976,0)" xlink:href="#bK"/><use transform="matrix(0.04320987654320988,0,0,0.04320987654320988,16.419753086419753,0)" xlink:href="#aF"/><use transform="matrix(0.04320987654320988,0,0,0.04320987654320988,25.061728395061728,0)" xlink:href="#aw"/></g><g id="D"><use transform="matrix(0.04320987654320988,0,0,0.04320987654320988,0,0)" xlink:href="#aM"/><use transform="matrix(0.04320987654320988,0,0,0.04320987654320988,4.320987654320988,0)" xlink:href="#aw"/><use transform="matrix(0.04320987654320988,0,0,0.04320987654320988,9.462962962962964,0)" xlink:href="#aI"/><use transform="matrix(0.04320987654320988,0,0,0.04320987654320988,18.10493827160494,0)" xlink:href="#aE"/></g><g id="E"><use transform="matrix(0.04320987654320988,0,0,0.04320987654320988,0,0)" xlink:href="#bK"/><use transform="matrix(0.04320987654320988,0,0,0.04320987654320988,7.777777777777779,0)" xlink:href="#au"/><use transform="matrix(0.04320987654320988,0,0,0.04320987654320988,12.098765432098766,0)" xlink:href="#aI"/><use transform="matrix(0.04320987654320988,0,0,0.04320987654320988,20.74074074074074,0)" xlink:href="#aw"/><use transform="matrix(0.04320987654320988,0,0,0.04320987654320988,25.882716049382715,0)" xlink:href="#av"/><use transform="matrix(0.04320987654320988,0,0,0.04320987654320988,34.52469135802469,0)" xlink:href="#aG"/><use transform="matrix(0.04320987654320988,0,0,0.04320987654320988,43.166666666666664,0)" xlink:href="#aF"/></g><path fill="#666" d="M190 0L58-211 59 0H30v-248h39L202-35l-2-213h31V0h-41" id="bQ"/><g id="F"><use transform="matrix(0.04320987654320988,0,0,0.04320987654320988,0,0)" xlink:href="#bQ"/><use transform="matrix(0.04320987654320988,0,0,0.04320987654320988,11.19135802469136,0)" xlink:href="#aI"/></g><g id="G"><use transform="matrix(0.04320987654320988,0,0,0.04320987654320988,0,0)" xlink:href="#aM"/><use transform="matrix(0.04320987654320988,0,0,0.04320987654320988,4.320987654320988,0)" xlink:href="#aI"/><use transform="matrix(0.04320987654320988,0,0,0.04320987654320988,12.962962962962964,0)" xlink:href="#aQ"/><use transform="matrix(0.04320987654320988,0,0,0.04320987654320988,21.604938271604944,0)" xlink:href="#ay"/><use transform="matrix(0.04320987654320988,0,0,0.04320987654320988,30.24691358024692,0)" xlink:href="#az"/></g><path d="M30 0v-248h187v28H63v79h144v27H63v87h162V0H30" id="bR"/><path d="M117-194c89-4 53 116 60 194h-32v-121c0-31-8-49-39-48C34-167 62-67 57 0H25l-1-190h30c1 10-1 24 2 32 11-22 29-35 61-36" id="bS"/><path d="M59-47c-2 24 18 29 38 22v24C64 9 27 4 27-40v-127H5v-23h24l9-43h21v43h35v23H59v120" id="bT"/><path d="M100-194c63 0 86 42 84 106H49c0 40 14 67 53 68 26 1 43-12 49-29l28 8c-11 28-37 45-77 45C44 4 14-33 15-96c1-61 26-98 85-98zm52 81c6-60-76-77-97-28-3 7-6 17-6 28h103" id="bU"/><path d="M114-163C36-179 61-72 57 0H25l-1-190h30c1 12-1 29 2 39 6-27 23-49 58-41v29" id="bV"/><g id="H"><use transform="matrix(0.05,0,0,0.05,0,0)" xlink:href="#bR"/><use transform="matrix(0.05,0,0,0.05,12,0)" xlink:href="#bS"/><use transform="matrix(0.05,0,0,0.05,22,0)" xlink:href="#bT"/><use transform="matrix(0.05,0,0,0.05,27,0)" xlink:href="#bU"/><use transform="matrix(0.05,0,0,0.05,37,0)" xlink:href="#bV"/></g><path d="M84 4C-5 8 30-112 23-190h32v120c0 31 7 50 39 49 72-2 45-101 50-169h31l1 190h-30c-1-10 1-25-2-33-11 22-28 36-60 37" id="bW"/><path d="M135-143c-3-34-86-38-87 0 15 53 115 12 119 90S17 21 10-45l28-5c4 36 97 45 98 0-10-56-113-15-118-90-4-57 82-63 122-42 12 7 21 19 24 35" id="bX"/><path d="M141-36C126-15 110 5 73 4 37 3 15-17 15-53c-1-64 63-63 125-63 3-35-9-54-41-54-24 1-41 7-42 31l-33-3c5-37 33-52 76-52 45 0 72 20 72 64v82c-1 20 7 32 28 27v20c-31 9-61-2-59-35zM48-53c0 20 12 33 32 33 41-3 63-29 60-74-43 2-92-5-92 41" id="bY"/><path d="M210-169c-67 3-38 105-44 169h-31v-121c0-29-5-50-35-48C34-165 62-65 56 0H25l-1-190h30c1 10-1 24 2 32 10-44 99-50 107 0 11-21 27-35 58-36 85-2 47 119 55 194h-31v-121c0-29-5-49-35-48" id="bZ"/><g id="I"><use transform="matrix(0.05,0,0,0.05,0,0)" xlink:href="#bW"/><use transform="matrix(0.05,0,0,0.05,10,0)" xlink:href="#bX"/><use transform="matrix(0.05,0,0,0.05,19,0)" xlink:href="#bU"/><use transform="matrix(0.05,0,0,0.05,29,0)" xlink:href="#bV"/><use transform="matrix(0.05,0,0,0.05,34.95,0)" xlink:href="#bS"/><use transform="matrix(0.05,0,0,0.05,44.95,0)" xlink:href="#bY"/><use transform="matrix(0.05,0,0,0.05,54.95,0)" xlink:href="#bZ"/><use transform="matrix(0.05,0,0,0.05,69.9,0)" xlink:href="#bU"/></g><g id="J"><use transform="matrix(0.04320987654320988,0,0,0.04320987654320988,0,0)" xlink:href="#at"/><use transform="matrix(0.04320987654320988,0,0,0.04320987654320988,10.370370370370372,0)" xlink:href="#aF"/><use transform="matrix(0.04320987654320988,0,0,0.04320987654320988,19.01234567901235,0)" xlink:href="#ay"/><use transform="matrix(0.04320987654320988,0,0,0.04320987654320988,27.654320987654323,0)" xlink:href="#az"/></g><g id="K"><use transform="matrix(0.04320987654320988,0,0,0.04320987654320988,0,0)" xlink:href="#aw"/><use transform="matrix(0.04320987654320988,0,0,0.04320987654320988,5.1419753086419755,0)" xlink:href="#aF"/><use transform="matrix(0.04320987654320988,0,0,0.04320987654320988,13.783950617283953,0)" xlink:href="#aG"/><use transform="matrix(0.04320987654320988,0,0,0.04320987654320988,22.425925925925934,0)" xlink:href="#aJ"/><use transform="matrix(0.04320987654320988,0,0,0.04320987654320988,25.839506172839513,0)" xlink:href="#bK"/><use transform="matrix(0.04320987654320988,0,0,0.04320987654320988,33.61728395061729,0)" xlink:href="#au"/><use transform="matrix(0.04320987654320988,0,0,0.04320987654320988,37.93827160493828,0)" xlink:href="#aF"/><use transform="matrix(0.04320987654320988,0,0,0.04320987654320988,46.580246913580254,0)" xlink:href="#aw"/><use transform="matrix(0.04320987654320988,0,0,0.04320987654320988,51.72222222222223,0)" xlink:href="#av"/><use transform="matrix(0.04320987654320988,0,0,0.04320987654320988,60.3641975308642,0)" xlink:href="#au"/><use transform="matrix(0.04320987654320988,0,0,0.04320987654320988,64.68518518518519,0)" xlink:href="#aJ"/><use transform="matrix(0.04320987654320988,0,0,0.04320987654320988,68.09876543209877,0)" xlink:href="#aI"/><use transform="matrix(0.04320987654320988,0,0,0.04320987654320988,76.74074074074075,0)" xlink:href="#ay"/></g><path fill="#666" d="M145-31C134-9 116 4 85 4 32 4 16-35 15-94c0-59 17-99 70-100 32-1 48 14 60 33 0-11-1-24 2-32h30l-1 268h-32zM93-21c41 0 51-33 51-76s-8-73-50-73c-40 0-46 35-46 75s5 74 45 74" id="ca"/><g id="L"><use transform="matrix(0.04320987654320988,0,0,0.04320987654320988,0,0)" xlink:href="#aw"/><use transform="matrix(0.04320987654320988,0,0,0.04320987654320988,5.1419753086419755,0)" xlink:href="#aF"/><use transform="matrix(0.04320987654320988,0,0,0.04320987654320988,13.783950617283953,0)" xlink:href="#ca"/><use transform="matrix(0.04320987654320988,0,0,0.04320987654320988,22.425925925925934,0)" xlink:href="#aQ"/><use transform="matrix(0.04320987654320988,0,0,0.04320987654320988,31.067901234567906,0)" xlink:href="#aF"/><use transform="matrix(0.04320987654320988,0,0,0.04320987654320988,39.70987654320988,0)" xlink:href="#bK"/><use transform="matrix(0.04320987654320988,0,0,0.04320987654320988,47.48765432098766,0)" xlink:href="#au"/></g><g id="M"><use transform="matrix(0.04320987654320988,0,0,0.04320987654320988,0,0)" xlink:href="#bJ"/><use transform="matrix(0.04320987654320988,0,0,0.04320987654320988,11.19135802469136,0)" xlink:href="#aF"/><use transform="matrix(0.04320987654320988,0,0,0.04320987654320988,19.833333333333336,0)" xlink:href="#aB"/><use transform="matrix(0.04320987654320988,0,0,0.04320987654320988,27.611111111111114,0)" xlink:href="#aF"/><use transform="matrix(0.04320987654320988,0,0,0.04320987654320988,36.25308641975309,0)" xlink:href="#aJ"/><use transform="matrix(0.04320987654320988,0,0,0.04320987654320988,39.66666666666667,0)" xlink:href="#aT"/><use transform="matrix(0.04320987654320988,0,0,0.04320987654320988,47.44444444444445,0)" xlink:href="#aF"/></g><g id="N"><use transform="matrix(0.04320987654320988,0,0,0.04320987654320988,0,0)" xlink:href="#aw"/><use transform="matrix(0.04320987654320988,0,0,0.04320987654320988,5.1419753086419755,0)" xlink:href="#aF"/><use transform="matrix(0.04320987654320988,0,0,0.04320987654320988,13.783950617283953,0)" xlink:href="#aG"/><use transform="matrix(0.04320987654320988,0,0,0.04320987654320988,22.425925925925934,0)" xlink:href="#aJ"/><use transform="matrix(0.04320987654320988,0,0,0.04320987654320988,25.839506172839513,0)" xlink:href="#bK"/><use transform="matrix(0.04320987654320988,0,0,0.04320987654320988,33.61728395061729,0)" xlink:href="#au"/><use transform="matrix(0.04320987654320988,0,0,0.04320987654320988,37.93827160493828,0)" xlink:href="#aw"/><use transform="matrix(0.04320987654320988,0,0,0.04320987654320988,43.080246913580254,0)" xlink:href="#av"/><use transform="matrix(0.04320987654320988,0,0,0.04320987654320988,51.72222222222223,0)" xlink:href="#au"/><use transform="matrix(0.04320987654320988,0,0,0.04320987654320988,56.043209876543216,0)" xlink:href="#aJ"/><use transform="matrix(0.04320987654320988,0,0,0.04320987654320988,59.4567901234568,0)" xlink:href="#aI"/><use transform="matrix(0.04320987654320988,0,0,0.04320987654320988,68.09876543209877,0)" xlink:href="#ay"/></g><g id="O"><use transform="matrix(0.04320987654320988,0,0,0.04320987654320988,0,0)" xlink:href="#aw"/><use transform="matrix(0.04320987654320988,0,0,0.04320987654320988,5.1419753086419755,0)" xlink:href="#aF"/><use transform="matrix(0.04320987654320988,0,0,0.04320987654320988,13.783950617283953,0)" xlink:href="#aG"/><use transform="matrix(0.04320987654320988,0,0,0.04320987654320988,22.425925925925934,0)" xlink:href="#aJ"/><use transform="matrix(0.04320987654320988,0,0,0.04320987654320988,25.839506172839513,0)" xlink:href="#bK"/><use transform="matrix(0.04320987654320988,0,0,0.04320987654320988,33.61728395061729,0)" xlink:href="#au"/><use transform="matrix(0.04320987654320988,0,0,0.04320987654320988,37.93827160493828,0)" xlink:href="#aw"/><use transform="matrix(0.04320987654320988,0,0,0.04320987654320988,43.080246913580254,0)" xlink:href="#av"/><use transform="matrix(0.04320987654320988,0,0,0.04320987654320988,51.72222222222223,0)" xlink:href="#au"/><use transform="matrix(0.04320987654320988,0,0,0.04320987654320988,56.043209876543216,0)" xlink:href="#aJ"/><use transform="matrix(0.04320987654320988,0,0,0.04320987654320988,59.4567901234568,0)" xlink:href="#aI"/><use transform="matrix(0.04320987654320988,0,0,0.04320987654320988,68.09876543209877,0)" xlink:href="#ay"/></g><g id="P"><use transform="matrix(0.04320987654320988,0,0,0.04320987654320988,0,0)" xlink:href="#aw"/><use transform="matrix(0.04320987654320988,0,0,0.04320987654320988,5.1419753086419755,0)" xlink:href="#aF"/><use transform="matrix(0.04320987654320988,0,0,0.04320987654320988,13.783950617283953,0)" xlink:href="#bK"/><use transform="matrix(0.04320987654320988,0,0,0.04320987654320988,21.56172839506173,0)" xlink:href="#aR"/><use transform="matrix(0.04320987654320988,0,0,0.04320987654320988,30.203703703703713,0)" xlink:href="#aI"/><use transform="matrix(0.04320987654320988,0,0,0.04320987654320988,38.845679012345684,0)" xlink:href="#ay"/><use transform="matrix(0.04320987654320988,0,0,0.04320987654320988,47.48765432098766,0)" xlink:href="#bK"/><use transform="matrix(0.04320987654320988,0,0,0.04320987654320988,55.26543209876544,0)" xlink:href="#aF"/></g><path fill="#666" d="M232-93c-1 65-40 97-104 97C67 4 28-28 28-90v-158h33c8 89-33 224 67 224 102 0 64-133 71-224h33v155" id="cb"/><g id="Q"><use transform="matrix(0.04320987654320988,0,0,0.04320987654320988,0,0)" xlink:href="#cb"/><use transform="matrix(0.04320987654320988,0,0,0.04320987654320988,11.19135802469136,0)" xlink:href="#bK"/><use transform="matrix(0.04320987654320988,0,0,0.04320987654320988,18.96913580246914,0)" xlink:href="#aF"/><use transform="matrix(0.04320987654320988,0,0,0.04320987654320988,27.611111111111114,0)" xlink:href="#aw"/></g><path fill="#666" d="M143 4C61 4 22-44 18-125c-5-107 100-154 193-111 17 8 29 25 37 43l-32 9c-13-25-37-40-76-40-61 0-88 39-88 99 0 61 29 100 91 101 35 0 62-11 79-27v-45h-74v-28h105v86C228-13 192 4 143 4" id="cc"/><g id="R"><use transform="matrix(0.04320987654320988,0,0,0.04320987654320988,0,0)" xlink:href="#cc"/><use transform="matrix(0.04320987654320988,0,0,0.04320987654320988,12.098765432098766,0)" xlink:href="#aF"/><use transform="matrix(0.04320987654320988,0,0,0.04320987654320988,20.74074074074074,0)" xlink:href="#au"/></g><g id="S"><use transform="matrix(0.04320987654320988,0,0,0.04320987654320988,0,0)" xlink:href="#aF"/><use transform="matrix(0.04320987654320988,0,0,0.04320987654320988,8.641975308641976,0)" xlink:href="#aw"/><use transform="matrix(0.04320987654320988,0,0,0.04320987654320988,13.783950617283953,0)" xlink:href="#aw"/><use transform="matrix(0.04320987654320988,0,0,0.04320987654320988,18.925925925925927,0)" xlink:href="#aI"/><use transform="matrix(0.04320987654320988,0,0,0.04320987654320988,27.567901234567906,0)" xlink:href="#aw"/></g><g id="T"><use transform="matrix(0.04320987654320988,0,0,0.04320987654320988,0,0)" xlink:href="#at"/><use transform="matrix(0.04320987654320988,0,0,0.04320987654320988,10.370370370370372,0)" xlink:href="#au"/><use transform="matrix(0.04320987654320988,0,0,0.04320987654320988,14.691358024691363,0)" xlink:href="#aI"/><use transform="matrix(0.04320987654320988,0,0,0.04320987654320988,23.333333333333336,0)" xlink:href="#aw"/><use transform="matrix(0.04320987654320988,0,0,0.04320987654320988,28.47530864197531,0)" xlink:href="#aF"/></g><g id="U"><use transform="matrix(0.04320987654320988,0,0,0.04320987654320988,0,0)" xlink:href="#aQ"/><use transform="matrix(0.04320987654320988,0,0,0.04320987654320988,8.641975308641976,0)" xlink:href="#bK"/><use transform="matrix(0.04320987654320988,0,0,0.04320987654320988,16.419753086419753,0)" xlink:href="#aF"/><use transform="matrix(0.04320987654320988,0,0,0.04320987654320988,25.061728395061728,0)" xlink:href="#aw"/></g><path fill="#666" d="M140-251c81 0 123 46 123 126C263-46 219 4 140 4 59 4 17-45 17-125s42-126 123-126zm0 227c63 0 89-41 89-101s-29-99-89-99c-61 0-89 39-89 99S79-25 140-24" id="cd"/><path fill="#666" d="M194 0L95-120 63-95V0H30v-248h33v124l119-124h40L117-140 236 0h-42" id="ce"/><g id="V"><use transform="matrix(0.04320987654320988,0,0,0.04320987654320988,0,0)" xlink:href="#cd"/><use transform="matrix(0.04320987654320988,0,0,0.04320987654320988,12.098765432098766,0)" xlink:href="#ce"/></g><g id="W"><use transform="matrix(0.04320987654320988,0,0,0.04320987654320988,0,0)" xlink:href="#ay"/><use transform="matrix(0.04320987654320988,0,0,0.04320987654320988,8.641975308641976,0)" xlink:href="#aI"/><use transform="matrix(0.04320987654320988,0,0,0.04320987654320988,17.283950617283953,0)" xlink:href="#au"/></g><g id="X"><use transform="matrix(0.04320987654320988,0,0,0.04320987654320988,0,0)" xlink:href="#aw"/><use transform="matrix(0.04320987654320988,0,0,0.04320987654320988,5.1419753086419755,0)" xlink:href="#aF"/><use transform="matrix(0.04320987654320988,0,0,0.04320987654320988,13.783950617283953,0)" xlink:href="#bK"/><use transform="matrix(0.04320987654320988,0,0,0.04320987654320988,21.56172839506173,0)" xlink:href="#aR"/><use transform="matrix(0.04320987654320988,0,0,0.04320987654320988,30.203703703703713,0)" xlink:href="#aI"/><use transform="matrix(0.04320987654320988,0,0,0.04320987654320988,38.845679012345684,0)" xlink:href="#bK"/><use transform="matrix(0.04320987654320988,0,0,0.04320987654320988,46.62345679012346,0)" xlink:href="#aF"/></g><g id="Y"><use transform="matrix(0.04320987654320988,0,0,0.04320987654320988,0,0)" xlink:href="#at"/><use transform="matrix(0.04320987654320988,0,0,0.04320987654320988,10.370370370370372,0)" xlink:href="#aF"/><use transform="matrix(0.04320987654320988,0,0,0.04320987654320988,19.01234567901235,0)" xlink:href="#au"/></g><g id="Z"><use transform="matrix(0.04320987654320988,0,0,0.04320987654320988,0,0)" xlink:href="#bK"/><use transform="matrix(0.04320987654320988,0,0,0.04320987654320988,7.777777777777779,0)" xlink:href="#au"/><use transform="matrix(0.04320987654320988,0,0,0.04320987654320988,12.098765432098766,0)" xlink:href="#av"/><use transform="matrix(0.04320987654320988,0,0,0.04320987654320988,20.74074074074074,0)" xlink:href="#au"/><use transform="matrix(0.04320987654320988,0,0,0.04320987654320988,25.061728395061728,0)" xlink:href="#aQ"/><use transform="matrix(0.04320987654320988,0,0,0.04320987654320988,33.7037037037037,0)" xlink:href="#bK"/></g><path fill="#666" d="M109-170H84l-4-78h32zm-65 0H19l-4-78h33" id="cf"/><g id="aa"><use transform="matrix(0.04320987654320988,0,0,0.04320987654320988,0,0)" xlink:href="#cf"/><use transform="matrix(0.04320987654320988,0,0,0.04320987654320988,5.487654320987655,0)" xlink:href="#cd"/><use transform="matrix(0.04320987654320988,0,0,0.04320987654320988,17.58641975308642,0)" xlink:href="#ay"/><use transform="matrix(0.04320987654320988,0,0,0.04320987654320988,26.2283950617284,0)" xlink:href="#aL"/><use transform="matrix(0.04320987654320988,0,0,0.04320987654320988,29.64197530864198,0)" xlink:href="#aJ"/><use transform="matrix(0.04320987654320988,0,0,0.04320987654320988,33.055555555555564,0)" xlink:href="#ay"/><use transform="matrix(0.04320987654320988,0,0,0.04320987654320988,41.69753086419754,0)" xlink:href="#aF"/><use transform="matrix(0.04320987654320988,0,0,0.04320987654320988,50.33950617283951,0)" xlink:href="#cf"/></g><g id="ab"><use transform="matrix(0.04320987654320988,0,0,0.04320987654320988,0,0)" xlink:href="#aG"/><use transform="matrix(0.04320987654320988,0,0,0.04320987654320988,8.641975308641976,0)" xlink:href="#aF"/><use transform="matrix(0.04320987654320988,0,0,0.04320987654320988,17.283950617283953,0)" xlink:href="#au"/></g><g id="ac"><use transform="matrix(0.04320987654320988,0,0,0.04320987654320988,0,0)" xlink:href="#aQ"/><use transform="matrix(0.04320987654320988,0,0,0.04320987654320988,8.641975308641976,0)" xlink:href="#bK"/><use transform="matrix(0.04320987654320988,0,0,0.04320987654320988,16.419753086419753,0)" xlink:href="#aF"/><use transform="matrix(0.04320987654320988,0,0,0.04320987654320988,25.061728395061728,0)" xlink:href="#aw"/><use transform="matrix(0.04320987654320988,0,0,0.04320987654320988,30.203703703703702,0)" xlink:href="#bK"/></g><g id="ad"><use transform="matrix(0.04320987654320988,0,0,0.04320987654320988,0,0)" xlink:href="#bJ"/><use transform="matrix(0.04320987654320988,0,0,0.04320987654320988,11.19135802469136,0)" xlink:href="#aF"/><use transform="matrix(0.04320987654320988,0,0,0.04320987654320988,19.833333333333336,0)" xlink:href="#aB"/><use transform="matrix(0.04320987654320988,0,0,0.04320987654320988,27.611111111111114,0)" xlink:href="#aF"/><use transform="matrix(0.04320987654320988,0,0,0.04320987654320988,36.25308641975309,0)" xlink:href="#aJ"/><use transform="matrix(0.04320987654320988,0,0,0.04320987654320988,39.66666666666667,0)" xlink:href="#aT"/><use transform="matrix(0.04320987654320988,0,0,0.04320987654320988,47.44444444444445,0)" xlink:href="#aF"/></g><g id="ae"><use transform="matrix(0.04320987654320988,0,0,0.04320987654320988,0,0)" xlink:href="#aQ"/><use transform="matrix(0.04320987654320988,0,0,0.04320987654320988,8.641975308641976,0)" xlink:href="#bK"/><use transform="matrix(0.04320987654320988,0,0,0.04320987654320988,16.419753086419753,0)" xlink:href="#aF"/><use transform="matrix(0.04320987654320988,0,0,0.04320987654320988,25.061728395061728,0)" xlink:href="#aw"/><use transform="matrix(0.04320987654320988,0,0,0.04320987654320988,30.203703703703702,0)" xlink:href="#bK"/></g><g id="af"><use transform="matrix(0.04320987654320988,0,0,0.04320987654320988,0,0)" xlink:href="#aQ"/><use transform="matrix(0.04320987654320988,0,0,0.04320987654320988,8.641975308641976,0)" xlink:href="#bK"/><use transform="matrix(0.04320987654320988,0,0,0.04320987654320988,16.419753086419753,0)" xlink:href="#aF"/><use transform="matrix(0.04320987654320988,0,0,0.04320987654320988,25.061728395061728,0)" xlink:href="#aw"/></g><g id="ag"><use transform="matrix(0.04320987654320988,0,0,0.04320987654320988,0,0)" xlink:href="#at"/><use transform="matrix(0.04320987654320988,0,0,0.04320987654320988,10.370370370370372,0)" xlink:href="#aC"/><use transform="matrix(0.04320987654320988,0,0,0.04320987654320988,19.01234567901235,0)" xlink:href="#aI"/><use transform="matrix(0.04320987654320988,0,0,0.04320987654320988,27.654320987654323,0)" xlink:href="#aV"/></g><path d="M185-189c-5-48-123-54-124 2 14 75 158 14 163 119 3 78-121 87-175 55-17-10-28-26-33-46l33-7c5 56 141 63 141-1 0-78-155-14-162-118-5-82 145-84 179-34 5 7 8 16 11 25" id="cg"/><path d="M24 0v-261h32V0H24" id="ch"/><path d="M96-169c-40 0-48 33-48 73s9 75 48 75c24 0 41-14 43-38l32 2c-6 37-31 61-74 61-59 0-76-41-82-99-10-93 101-131 147-64 4 7 5 14 7 22l-32 3c-4-21-16-35-41-35" id="ci"/><g id="ah"><use transform="matrix(0.05,0,0,0.05,0,0)" xlink:href="#cg"/><use transform="matrix(0.05,0,0,0.05,12,0)" xlink:href="#bU"/><use transform="matrix(0.05,0,0,0.05,22,0)" xlink:href="#ch"/><use transform="matrix(0.05,0,0,0.05,25.950000000000003,0)" xlink:href="#bU"/><use transform="matrix(0.05,0,0,0.05,35.95,0)" xlink:href="#ci"/><use transform="matrix(0.05,0,0,0.05,44.95,0)" xlink:href="#bT"/></g><g id="ai"><use transform="matrix(0.05,0,0,0.05,0,0)" xlink:href="#bW"/><use transform="matrix(0.05,0,0,0.05,10,0)" xlink:href="#bX"/><use transform="matrix(0.05,0,0,0.05,19,0)" xlink:href="#bU"/><use transform="matrix(0.05,0,0,0.05,29,0)" xlink:href="#bV"/></g><path d="M109-170H84l-4-78h32zm-65 0H19l-4-78h33" id="cj"/><path d="M212-179c-10-28-35-45-73-45-59 0-87 40-87 99 0 60 29 101 89 101 43 0 62-24 78-52l27 14C228-24 195 4 139 4 59 4 22-46 18-125c-6-104 99-153 187-111 19 9 31 26 39 46" id="ck"/><path d="M24-231v-30h32v30H24zM24 0v-190h32V0H24" id="cl"/><path d="M101-251c82-7 93 87 43 132L82-64C71-53 59-42 53-27h129V0H18c2-99 128-94 128-182 0-28-16-43-45-43s-46 15-49 41l-32-3c6-41 34-60 81-64" id="cm"/><g id="aj"><use transform="matrix(0.05,0,0,0.05,0,0)" xlink:href="#cj"/><use transform="matrix(0.05,0,0,0.05,6.3500000000000005,0)" xlink:href="#ck"/><use transform="matrix(0.05,0,0,0.05,19.3,0)" xlink:href="#ch"/><use transform="matrix(0.05,0,0,0.05,23.25,0)" xlink:href="#cl"/><use transform="matrix(0.05,0,0,0.05,27.200000000000003,0)" xlink:href="#bU"/><use transform="matrix(0.05,0,0,0.05,37.2,0)" xlink:href="#bS"/><use transform="matrix(0.05,0,0,0.05,47.2,0)" xlink:href="#bT"/><use transform="matrix(0.05,0,0,0.05,52.2,0)" xlink:href="#cm"/><use transform="matrix(0.05,0,0,0.05,62.2,0)" xlink:href="#cj"/></g><path d="M177-190C167-65 218 103 67 71c-23-6-38-20-44-43l32-5c15 47 100 32 89-28v-30C133-14 115 1 83 1 29 1 15-40 15-95c0-56 16-97 71-98 29-1 48 16 59 35 1-10 0-23 2-32h30zM94-22c36 0 50-32 50-73 0-42-14-75-50-75-39 0-46 34-46 75s6 73 46 73" id="cn"/><g id="ak"><use transform="matrix(0.05,0,0,0.05,0,0)" xlink:href="#bZ"/><use transform="matrix(0.05,0,0,0.05,14.950000000000001,0)" xlink:href="#bU"/><use transform="matrix(0.05,0,0,0.05,24.950000000000003,0)" xlink:href="#bX"/><use transform="matrix(0.05,0,0,0.05,33.95,0)" xlink:href="#bX"/><use transform="matrix(0.05,0,0,0.05,42.95,0)" xlink:href="#bY"/><use transform="matrix(0.05,0,0,0.05,52.95,0)" xlink:href="#cn"/><use transform="matrix(0.05,0,0,0.05,62.95,0)" xlink:href="#bU"/></g><g id="al"><use transform="matrix(0.04320987654320988,0,0,0.04320987654320988,0,0)" xlink:href="#aE"/><use transform="matrix(0.04320987654320988,0,0,0.04320987654320988,12.919753086419755,0)" xlink:href="#aF"/><use transform="matrix(0.04320987654320988,0,0,0.04320987654320988,21.56172839506173,0)" xlink:href="#bK"/><use transform="matrix(0.04320987654320988,0,0,0.04320987654320988,29.33950617283951,0)" xlink:href="#bK"/><use transform="matrix(0.04320987654320988,0,0,0.04320987654320988,37.11728395061729,0)" xlink:href="#av"/><use transform="matrix(0.04320987654320988,0,0,0.04320987654320988,45.75925925925927,0)" xlink:href="#aG"/><use transform="matrix(0.04320987654320988,0,0,0.04320987654320988,54.40123456790124,0)" xlink:href="#aF"/></g><path fill="#666" d="M205 0l-28-72H64L36 0H1l101-248h38L239 0h-34zm-38-99l-47-123c-12 45-31 82-46 123h93" id="co"/><g id="am"><use transform="matrix(0.04320987654320988,0,0,0.04320987654320988,0,0)" xlink:href="#co"/><use transform="matrix(0.04320987654320988,0,0,0.04320987654320988,10.370370370370372,0)" xlink:href="#az"/><use transform="matrix(0.04320987654320988,0,0,0.04320987654320988,19.01234567901235,0)" xlink:href="#az"/></g><g id="an"><use transform="matrix(0.04320987654320988,0,0,0.04320987654320988,0,0)" xlink:href="#aE"/><use transform="matrix(0.04320987654320988,0,0,0.04320987654320988,12.919753086419755,0)" xlink:href="#aF"/><use transform="matrix(0.04320987654320988,0,0,0.04320987654320988,21.56172839506173,0)" xlink:href="#bK"/><use transform="matrix(0.04320987654320988,0,0,0.04320987654320988,29.33950617283951,0)" xlink:href="#bK"/><use transform="matrix(0.04320987654320988,0,0,0.04320987654320988,37.11728395061729,0)" xlink:href="#av"/><use transform="matrix(0.04320987654320988,0,0,0.04320987654320988,45.75925925925927,0)" xlink:href="#aG"/><use transform="matrix(0.04320987654320988,0,0,0.04320987654320988,54.40123456790124,0)" xlink:href="#aF"/></g><g id="ao"><use transform="matrix(0.04320987654320988,0,0,0.04320987654320988,0,0)" xlink:href="#bK"/><use transform="matrix(0.04320987654320988,0,0,0.04320987654320988,7.777777777777779,0)" xlink:href="#au"/><use transform="matrix(0.04320987654320988,0,0,0.04320987654320988,12.098765432098766,0)" xlink:href="#av"/><use transform="matrix(0.04320987654320988,0,0,0.04320987654320988,20.74074074074074,0)" xlink:href="#au"/><use transform="matrix(0.04320987654320988,0,0,0.04320987654320988,25.061728395061728,0)" xlink:href="#aQ"/><use transform="matrix(0.04320987654320988,0,0,0.04320987654320988,33.7037037037037,0)" xlink:href="#bK"/></g><g id="ap"><use transform="matrix(0.04320987654320988,0,0,0.04320987654320988,0,0)" xlink:href="#aP"/><use transform="matrix(0.04320987654320988,0,0,0.04320987654320988,4.320987654320988,0)" xlink:href="#ay"/><use transform="matrix(0.04320987654320988,0,0,0.04320987654320988,12.962962962962964,0)" xlink:href="#aJ"/><use transform="matrix(0.04320987654320988,0,0,0.04320987654320988,16.376543209876544,0)" xlink:href="#au"/></g><g id="aq"><use transform="matrix(0.04320987654320988,0,0,0.04320987654320988,0,0)" xlink:href="#aB"/><use transform="matrix(0.04320987654320988,0,0,0.04320987654320988,7.777777777777779,0)" xlink:href="#aI"/><use transform="matrix(0.04320987654320988,0,0,0.04320987654320988,16.419753086419753,0)" xlink:href="#aQ"/><use transform="matrix(0.04320987654320988,0,0,0.04320987654320988,25.061728395061728,0)" xlink:href="#ay"/><use transform="matrix(0.04320987654320988,0,0,0.04320987654320988,33.7037037037037,0)" xlink:href="#au"/><use transform="matrix(0.04320987654320988,0,0,0.04320987654320988,38.02469135802469,0)" xlink:href="#aF"/><use transform="matrix(0.04320987654320988,0,0,0.04320987654320988,46.666666666666664,0)" xlink:href="#aw"/><use transform="matrix(0.04320987654320988,0,0,0.04320987654320988,51.80864197530864,0)" xlink:href="#bK"/></g><g id="ar"><use transform="matrix(0.04320987654320988,0,0,0.04320987654320988,0,0)" xlink:href="#cb"/><use transform="matrix(0.04320987654320988,0,0,0.04320987654320988,11.19135802469136,0)" xlink:href="#aR"/><use transform="matrix(0.04320987654320988,0,0,0.04320987654320988,19.833333333333336,0)" xlink:href="#az"/><use transform="matrix(0.04320987654320988,0,0,0.04320987654320988,28.47530864197531,0)" xlink:href="#av"/><use transform="matrix(0.04320987654320988,0,0,0.04320987654320988,37.117283950617285,0)" xlink:href="#au"/><use transform="matrix(0.04320987654320988,0,0,0.04320987654320988,41.43827160493827,0)" xlink:href="#aF"/></g><g id="as"><use transform="matrix(0.04320987654320988,0,0,0.04320987654320988,0,0)" xlink:href="#aB"/><use transform="matrix(0.04320987654320988,0,0,0.04320987654320988,7.777777777777779,0)" xlink:href="#aI"/><use transform="matrix(0.04320987654320988,0,0,0.04320987654320988,16.419753086419753,0)" xlink:href="#aQ"/><use transform="matrix(0.04320987654320988,0,0,0.04320987654320988,25.061728395061728,0)" xlink:href="#ay"/><use transform="matrix(0.04320987654320988,0,0,0.04320987654320988,33.7037037037037,0)" xlink:href="#au"/><use transform="matrix(0.04320987654320988,0,0,0.04320987654320988,38.02469135802469,0)" xlink:href="#aF"/><use transform="matrix(0.04320987654320988,0,0,0.04320987654320988,46.666666666666664,0)" xlink:href="#aw"/></g></defs></g></svg>