<?xml version="1.0" encoding="UTF-8"?>
<svg version="1.1" viewBox="0 0 276.17 276.17" xml:space="preserve" xmlns="http://www.w3.org/2000/svg">
<g transform="matrix(.7242 0 0 .7242 38.364 38.029)">
		<path d="m33.144 2.471c-17.808 0-32.294 14.487-32.294 32.294s14.48 32.293 32.294 32.293 32.294-14.486 32.294-32.293-14.487-32.294-32.294-32.294z"/>
		<path d="m137.66 2.471c-17.807 0-32.294 14.487-32.294 32.294s14.487 32.293 32.294 32.293c17.808 0 32.297-14.486 32.297-32.293s-14.483-32.294-32.297-32.294z"/>
		<path d="m243.87 67.059c17.804 0 32.294-14.486 32.294-32.293s-14.478-32.295-32.294-32.295-32.294 14.487-32.294 32.294 14.489 32.294 32.294 32.294z"/>
		<path d="m32.3 170.54c17.807 0 32.297-14.483 32.297-32.293 0-17.811-14.49-32.297-32.297-32.297s-32.3 14.487-32.3 32.297 14.493 32.293 32.3 32.293z"/>
		<path d="m136.82 170.54c17.804 0 32.294-14.483 32.294-32.293 0-17.811-14.478-32.297-32.294-32.297-17.813 0-32.294 14.486-32.294 32.297 0 17.81 14.487 32.293 32.294 32.293z"/>
		<path d="m243.04 170.54c17.811 0 32.294-14.483 32.294-32.293 0-17.811-14.483-32.297-32.294-32.297s-32.306 14.486-32.306 32.297c0 17.81 14.49 32.293 32.306 32.293z"/>
		<path d="m33.039 209.11c-17.807 0-32.3 14.483-32.3 32.294 0 17.804 14.493 32.293 32.3 32.293s32.293-14.482 32.293-32.293-14.486-32.294-32.293-32.294z"/>
		<path d="m137.56 209.11c-17.808 0-32.3 14.483-32.3 32.294 0 17.804 14.487 32.293 32.3 32.293 17.804 0 32.293-14.482 32.293-32.293s-14.489-32.294-32.293-32.294z"/>
		<path d="m243.77 209.11c-17.804 0-32.294 14.483-32.294 32.294 0 17.804 14.49 32.293 32.294 32.293 17.811 0 32.294-14.482 32.294-32.293s-14.49-32.294-32.294-32.294z"/>
</g>















</svg>
