<svg xmlns="http://www.w3.org/2000/svg" xmlns:xlink="http://www.w3.org/1999/xlink" xmlns:lucid="lucid" width="1755.86" height="1725.02"><g transform="translate(0 0)" lucid:page-tab-id="SD~btuP.wggj"><path d="M0 0h1755.86v1725.02H0z" fill="#fff"/><path d="M560 88c0-4.42 3.58-8 8-8h624c4.42 0 8 3.58 8 8v26.15c0 4.4-3.58 8-8 8H568c-4.42 0-8-3.6-8-8z" stroke="#000" stroke-opacity="0" stroke-width="2" fill="#fff" fill-opacity="0"/><use xlink:href="#a" transform="matrix(1,0,0,1,564,83.99999999999999) translate(82.25382716049381 23.657777777777778)"/><use xlink:href="#b" transform="matrix(1,0,0,1,564,83.99999999999999) translate(383.3723456790123 23.657777777777778)"/><use xlink:href="#c" transform="matrix(1,0,0,1,564,83.99999999999999) translate(399.3241975308642 23.657777777777778)"/><use xlink:href="#d" transform="matrix(1,0,0,1,564,83.99999999999999) translate(489.4266666666667 23.657777777777778)"/><path d="M594.22 120.77H1174M594.24 120.77h-1.02M1173.96 120.77h1.03" stroke="#b2b2b2" stroke-width="2" fill="none"/><path d="M611.3 129.07c0-4.4 3.6-8 8-8h521.4c4.4 0 8 3.6 8 8v4c0 4.42-3.6 8-8 8H619.3c-4.4 0-8-3.58-8-8z" stroke="#000" stroke-opacity="0" stroke-width="2" fill="#fff" fill-opacity="0"/><use xlink:href="#e" transform="matrix(1,0,0,1,615.3075907693171,125.07333333321691) translate(169.5426646090535 14.917037037037037)"/><use xlink:href="#f" transform="matrix(1,0,0,1,615.3075907693171,125.07333333321691) translate(200.09276748971195 14.917037037037037)"/><use xlink:href="#g" transform="matrix(1,0,0,1,615.3075907693171,125.07333333321691) translate(272.24029835390945 14.917037037037037)"/><use xlink:href="#h" transform="matrix(1,0,0,1,615.3075907693171,125.07333333321691) translate(284.6897839506173 14.917037037037037)"/><use xlink:href="#i" transform="matrix(1,0,0,1,615.3075907693171,125.07333333321691) translate(316.08968106995883 14.917037037037037)"/><use xlink:href="#j" transform="matrix(1,0,0,1,615.3075907693171,125.07333333321691) translate(333.0855658436214 14.917037037037037)"/><path d="M699.6 211.44L737.3 180h276.7v302.27L982.56 520H699.6z" stroke="#666" stroke-width="2" fill="#fff"/><path d="M699.6 211.44L737.3 180h276.7l-31.45 31.44z" stroke="#666" stroke-width="2" fill="#e6e6e6"/><path d="M982.57 211.44L1014 180v302.27L982.58 520z" stroke="#666" stroke-width="2" fill="#ccc"/><use xlink:href="#k" transform="matrix(1,0,0,1,707.5896207171313,219.4420838067811) translate(78.59651089891975 14.431423611111112)"/><use xlink:href="#l" transform="matrix(1,0,0,1,707.5896207171313,219.4420838067811) translate(82.91749855324073 14.431423611111112)"/><use xlink:href="#m" transform="matrix(1,0,0,1,707.5896207171313,219.4420838067811) translate(47.635959201388886 35.08506944444445)"/><use xlink:href="#n" transform="matrix(1,0,0,1,707.5896207171313,219.4420838067811) translate(129.55327690972223 35.08506944444445)"/><path d="M699.6 286l31.2-26H980v228.8L954 520H699.6z" stroke="#666" stroke-width="2" fill="#fff"/><path d="M699.6 286l31.2-26H980l-26 26z" stroke="#666" stroke-width="2" fill="#e6e6e6"/><path d="M954 286l26-26v228.8L954 520z" stroke="#666" stroke-width="2" fill="#ccc"/><use xlink:href="#k" transform="matrix(1,0,0,1,707.5896207171313,294) translate(12.23848620756172 14.431423611111112)"/><use xlink:href="#o" transform="matrix(1,0,0,1,707.5896207171313,294) translate(16.559473861882708 14.431423611111112)"/><use xlink:href="#p" transform="matrix(1,0,0,1,707.5896207171313,294) translate(92.04392119984567 14.431423611111112)"/><use xlink:href="#q" transform="matrix(1,0,0,1,707.5896207171313,294) translate(74.27419704861111 35.08506944444445)"/><path d="M1260 211.44l37.73-31.44h276.7v302.27L1542.97 520H1260z" stroke="#666" stroke-width="2" fill="#fff"/><path d="M1260 211.44l37.73-31.44h276.7l-31.45 31.44z" stroke="#666" stroke-width="2" fill="#e6e6e6"/><path d="M1542.98 211.44l31.44-31.44v302.27L1542.98 520z" stroke="#666" stroke-width="2" fill="#ccc"/><use xlink:href="#k" transform="matrix(1,0,0,1,1268,219.4420838067811) translate(78.59651089891975 14.431423611111112)"/><use xlink:href="#l" transform="matrix(1,0,0,1,1268,219.4420838067811) translate(82.91749855324073 14.431423611111112)"/><use xlink:href="#m" transform="matrix(1,0,0,1,1268,219.4420838067811) translate(47.635959201388886 35.08506944444445)"/><use xlink:href="#n" transform="matrix(1,0,0,1,1268,219.4420838067811) translate(129.55327690972223 35.08506944444445)"/><path d="M1260 286l31.2-26H1530v228.8l-26 31.2h-244z" stroke="#666" stroke-width="2" fill="#fff"/><path d="M1260 286l31.2-26H1530l-26 26z" stroke="#666" stroke-width="2" fill="#e6e6e6"/><path d="M1504 286l26-26v228.8l-26 31.2z" stroke="#666" stroke-width="2" fill="#ccc"/><use xlink:href="#k" transform="matrix(1,0,0,1,1268,294) translate(8.23848620756172 14.431423611111112)"/><use xlink:href="#o" transform="matrix(1,0,0,1,1268,294) translate(12.559473861882708 14.431423611111112)"/><use xlink:href="#p" transform="matrix(1,0,0,1,1268,294) translate(88.04392119984567 14.431423611111112)"/><use xlink:href="#r" transform="matrix(1,0,0,1,1268,294) translate(70.27419704861111 35.08506944444445)"/><path d="M140 201.6l29-24.17h285.85V390.2l-24.18 29H140z" stroke="#666" stroke-width="2" fill="#fff"/><path d="M140 201.6l29-24.17h285.85l-24.18 24.18z" stroke="#666" stroke-width="2" fill="#e6e6e6"/><path d="M430.67 201.6l24.18-24.17V390.2l-24.18 29z" stroke="#666" stroke-width="2" fill="#ccc"/><use xlink:href="#k" transform="matrix(1,0,0,1,148,209.6111797455532) translate(78.59651089891975 14.431423611111112)"/><use xlink:href="#l" transform="matrix(1,0,0,1,148,209.6111797455532) translate(82.91749855324073 14.431423611111112)"/><use xlink:href="#s" transform="matrix(1,0,0,1,148,209.6111797455532) translate(46.591579861111086 35.08506944444445)"/><path d="M140 269.78l19.92-16.6H415v146.1l-16.6 19.92H140z" stroke="#666" stroke-width="2" fill="#fff"/><path d="M140 269.78l19.92-16.6H415l-16.6 16.6z" stroke="#666" stroke-width="2" fill="#e6e6e6"/><path d="M398.4 269.78l16.6-16.6v146.1l-16.6 19.92z" stroke="#666" stroke-width="2" fill="#ccc"/><use xlink:href="#k" transform="matrix(1,0,0,1,148,277.77657371449493) translate(8.920584972993822 14.431423611111112)"/><use xlink:href="#t" transform="matrix(1,0,0,1,148,277.77657371449493) translate(13.24157262731481 14.431423611111112)"/><use xlink:href="#p" transform="matrix(1,0,0,1,148,277.77657371449493) translate(91.36182243441358 14.431423611111112)"/><use xlink:href="#u" transform="matrix(1,0,0,1,148,277.77657371449493) translate(68.05870225694444 35.08506944444445)"/><path d="M179.85 328.9H380v63.55H179.85z" stroke="#666" stroke-width="2" fill="#fff"/><path d="M159.85 334.8h40v20h-40zM159.85 366.56h40v20h-40z" stroke="#666" stroke-width="2" fill="#fff"/><use xlink:href="#v" transform="matrix(1,0,0,1,203.88058647604848,335.2665587371001) translate(31.769350405092588 20.490017361111107)"/><use xlink:href="#w" transform="matrix(1,0,0,1,203.88058647604848,335.2665587371001) translate(26.363389756944443 41.14366319444444)"/><path d="M1258.75 370.57l19.92-16.6H1480v146.1L1463.4 520h-204.65z" stroke="#666" stroke-width="2" fill="#fff"/><path d="M1258.75 370.57l19.92-16.6H1480l-16.6 16.6z" stroke="#666" stroke-width="2" fill="#e6e6e6"/><path d="M1463.4 370.57l16.6-16.6v146.1L1463.4 520z" stroke="#666" stroke-width="2" fill="#ccc"/><use xlink:href="#k" transform="matrix(1,0,0,1,1266.749346407013,378.5748624238523) translate(38.43987509645061 14.431423611111112)"/><use xlink:href="#x" transform="matrix(1,0,0,1,1266.749346407013,378.5748624238523) translate(42.7608627507716 14.431423611111112)"/><use xlink:href="#p" transform="matrix(1,0,0,1,1266.749346407013,378.5748624238523) translate(31.141203703703702 35.08506944444445)"/><use xlink:href="#y" transform="matrix(1,0,0,1,1266.749346407013,378.5748624238523) translate(36.65907118055555 55.738715277777786)"/><path d="M699.6 370.57l19.9-16.6H940v146.1L923.4 520H699.6z" stroke="#666" stroke-width="2" fill="#fff"/><path d="M699.6 370.57l19.9-16.6H940l-16.6 16.6z" stroke="#666" stroke-width="2" fill="#e6e6e6"/><path d="M923.4 370.57l16.6-16.6v146.1L923.4 520z" stroke="#666" stroke-width="2" fill="#ccc"/><use xlink:href="#k" transform="matrix(1,0,0,1,707.5896207171313,378.5748624238523) translate(45.43987509645061 14.431423611111112)"/><use xlink:href="#x" transform="matrix(1,0,0,1,707.5896207171313,378.5748624238523) translate(49.7608627507716 14.431423611111112)"/><use xlink:href="#p" transform="matrix(1,0,0,1,707.5896207171313,378.5748624238523) translate(38.1412037037037 35.08506944444445)"/><use xlink:href="#z" transform="matrix(1,0,0,1,707.5896207171313,378.5748624238523) translate(-3.7557508680555713 55.738715277777786)"/><path d="M729 450h185v64.6H729z" stroke="#000" stroke-width="2" fill="#fff"/><path d="M709 456.15h40v20h-40zM709 488.46h40v20h-40z" stroke="#000" stroke-width="2" fill="#fff"/><use xlink:href="#v" transform="matrix(1,0,0,1,750,456.4607847877865) translate(26.269350405092588 14.431423611111112)"/><use xlink:href="#A" transform="matrix(1,0,0,1,750,456.4607847877865) translate(4.722981770833314 35.08506944444445)"/><use xlink:href="#B" transform="matrix(1,0,0,1,750,456.4607847877865) translate(67.96299913194444 35.08506944444445)"/><use xlink:href="#C" transform="matrix(1,0,0,1,750,456.4607847877865) translate(47.322265625 53.314236111111114)"/><path d="M1278.75 450H1440v64.6h-161.25z" stroke="#000" stroke-width="2" fill="#fff"/><path d="M1258.75 456.15h40v20h-40zM1258.75 488.46h40v20h-40z" stroke="#000" stroke-width="2" fill="#fff"/><use xlink:href="#v" transform="matrix(1,0,0,1,1294.9994771256104,456.4607847877865) translate(17.769350405092588 14.431423611111112)"/><use xlink:href="#D" transform="matrix(1,0,0,1,1294.9994771256104,456.4607847877865) translate(33.8054470486111 35.08506944444445)"/><use xlink:href="#E" transform="matrix(1,0,0,1,1294.9994771256104,456.4607847877865) translate(15.975043402777771 53.314236111111114)"/><use xlink:href="#F" transform="matrix(1,0,0,1,1294.9994771256104,456.4607847877865) translate(91.13997395833333 53.314236111111114)"/><path d="M1260 791.44l37.73-31.44h276.7v302.27l-31.45 37.73H1260z" stroke="#666" stroke-width="2" fill="#fff"/><path d="M1260 791.44l37.73-31.44h276.7l-31.45 31.44z" stroke="#666" stroke-width="2" fill="#e6e6e6"/><path d="M1542.98 791.44l31.44-31.44v302.27l-31.44 37.73z" stroke="#666" stroke-width="2" fill="#ccc"/><use xlink:href="#k" transform="matrix(1,0,0,1,1268,799.442083806781) translate(78.59651089891975 14.431423611111112)"/><use xlink:href="#l" transform="matrix(1,0,0,1,1268,799.442083806781) translate(82.91749855324073 14.431423611111112)"/><use xlink:href="#m" transform="matrix(1,0,0,1,1268,799.442083806781) translate(47.635959201388886 35.08506944444445)"/><use xlink:href="#n" transform="matrix(1,0,0,1,1268,799.442083806781) translate(129.55327690972223 35.08506944444445)"/><path d="M1260 866l31.2-26H1530v228.8l-26 31.2h-244z" stroke="#666" stroke-width="2" fill="#fff"/><path d="M1260 866l31.2-26H1530l-26 26z" stroke="#666" stroke-width="2" fill="#e6e6e6"/><path d="M1504 866l26-26v228.8l-26 31.2z" stroke="#666" stroke-width="2" fill="#ccc"/><use xlink:href="#k" transform="matrix(1,0,0,1,1268,874) translate(8.23848620756172 14.431423611111112)"/><use xlink:href="#o" transform="matrix(1,0,0,1,1268,874) translate(12.559473861882708 14.431423611111112)"/><use xlink:href="#p" transform="matrix(1,0,0,1,1268,874) translate(88.04392119984567 14.431423611111112)"/><use xlink:href="#r" transform="matrix(1,0,0,1,1268,874) translate(70.27419704861111 35.08506944444445)"/><path d="M1258.75 950.57l19.92-16.6H1480v146.1l-16.6 19.93h-204.65z" stroke="#666" stroke-width="2" fill="#fff"/><path d="M1258.75 950.57l19.92-16.6H1480l-16.6 16.6z" stroke="#666" stroke-width="2" fill="#e6e6e6"/><path d="M1463.4 950.57l16.6-16.6v146.1l-16.6 19.93z" stroke="#666" stroke-width="2" fill="#ccc"/><use xlink:href="#k" transform="matrix(1,0,0,1,1266.749346407013,958.5748624238524) translate(38.43987509645061 14.431423611111112)"/><use xlink:href="#x" transform="matrix(1,0,0,1,1266.749346407013,958.5748624238524) translate(42.7608627507716 14.431423611111112)"/><use xlink:href="#p" transform="matrix(1,0,0,1,1266.749346407013,958.5748624238524) translate(31.141203703703702 35.08506944444445)"/><use xlink:href="#G" transform="matrix(1,0,0,1,1266.749346407013,958.5748624238524) translate(48.36371527777777 55.738715277777786)"/><path d="M1278.75 1030H1440v64.6h-161.25z" stroke="#000" stroke-width="2" fill="#fff"/><path d="M1258.75 1036.15h40v20h-40zM1258.75 1068.46h40v20h-40z" stroke="#000" stroke-width="2" fill="#fff"/><use xlink:href="#v" transform="matrix(1,0,0,1,1294.9994771256104,1036.4607847877865) translate(17.769350405092588 14.431423611111112)"/><use xlink:href="#D" transform="matrix(1,0,0,1,1294.9994771256104,1036.4607847877865) translate(33.8054470486111 35.08506944444445)"/><use xlink:href="#E" transform="matrix(1,0,0,1,1294.9994771256104,1036.4607847877865) translate(15.975043402777771 53.314236111111114)"/><use xlink:href="#F" transform="matrix(1,0,0,1,1294.9994771256104,1036.4607847877865) translate(91.13997395833333 53.314236111111114)"/><path d="M1261.25 1371.44l37.73-31.44h276.7v302.27l-31.45 37.73h-282.98z" stroke="#666" stroke-width="2" fill="#fff"/><path d="M1261.25 1371.44l37.73-31.44h276.7l-31.45 31.44z" stroke="#666" stroke-width="2" fill="#e6e6e6"/><path d="M1544.23 1371.44l31.44-31.44v302.27l-31.44 37.73z" stroke="#666" stroke-width="2" fill="#ccc"/><use xlink:href="#k" transform="matrix(1,0,0,1,1269.250653592987,1379.442083806781) translate(78.59651089891975 14.431423611111112)"/><use xlink:href="#l" transform="matrix(1,0,0,1,1269.250653592987,1379.442083806781) translate(82.91749855324073 14.431423611111112)"/><use xlink:href="#m" transform="matrix(1,0,0,1,1269.250653592987,1379.442083806781) translate(47.635959201388886 35.08506944444445)"/><use xlink:href="#n" transform="matrix(1,0,0,1,1269.250653592987,1379.442083806781) translate(129.55327690972223 35.08506944444445)"/><path d="M1261.25 1446l31.2-26h238.8v228.8l-26 31.2h-244z" stroke="#666" stroke-width="2" fill="#fff"/><path d="M1261.25 1446l31.2-26h238.8l-26 26z" stroke="#666" stroke-width="2" fill="#e6e6e6"/><path d="M1505.25 1446l26-26v228.8l-26 31.2z" stroke="#666" stroke-width="2" fill="#ccc"/><use xlink:href="#k" transform="matrix(1,0,0,1,1269.250653592987,1454) translate(8.23848620756172 14.431423611111112)"/><use xlink:href="#o" transform="matrix(1,0,0,1,1269.250653592987,1454) translate(12.559473861882708 14.431423611111112)"/><use xlink:href="#p" transform="matrix(1,0,0,1,1269.250653592987,1454) translate(88.04392119984567 14.431423611111112)"/><use xlink:href="#r" transform="matrix(1,0,0,1,1269.250653592987,1454) translate(70.27419704861111 35.08506944444445)"/><path d="M1260 1530.57l19.92-16.6h201.33v146.1l-16.6 19.93H1260z" stroke="#666" stroke-width="2" fill="#fff"/><path d="M1260 1530.57l19.92-16.6h201.33l-16.6 16.6z" stroke="#666" stroke-width="2" fill="#e6e6e6"/><path d="M1464.65 1530.57l16.6-16.6v146.1l-16.6 19.93z" stroke="#666" stroke-width="2" fill="#ccc"/><use xlink:href="#k" transform="matrix(1,0,0,1,1268,1538.5748624238524) translate(38.43987509645061 14.431423611111112)"/><use xlink:href="#x" transform="matrix(1,0,0,1,1268,1538.5748624238524) translate(42.7608627507716 14.431423611111112)"/><use xlink:href="#p" transform="matrix(1,0,0,1,1268,1538.5748624238524) translate(31.141203703703702 35.08506944444445)"/><use xlink:href="#H" transform="matrix(1,0,0,1,1268,1538.5748624238524) translate(43.18739149305555 55.738715277777786)"/><path d="M1280 1610h161.25v64.6H1280z" stroke="#000" stroke-width="2" fill="#fff"/><path d="M1260 1616.15h40v20h-40zM1260 1648.46h40v20h-40z" stroke="#000" stroke-width="2" fill="#fff"/><use xlink:href="#v" transform="matrix(1,0,0,1,1296.2501307185973,1616.4607847877865) translate(17.769350405092588 14.431423611111112)"/><use xlink:href="#D" transform="matrix(1,0,0,1,1296.2501307185973,1616.4607847877865) translate(33.8054470486111 35.08506944444445)"/><use xlink:href="#E" transform="matrix(1,0,0,1,1296.2501307185973,1616.4607847877865) translate(3.75390625 53.314236111111114)"/><use xlink:href="#I" transform="matrix(1,0,0,1,1296.2501307185973,1616.4607847877865) translate(78.91883680555556 53.314236111111114)"/><path d="M140 584.18L169 560h285.85v212.76l-24.18 29H140z" stroke="#666" stroke-width="2" fill="#fff"/><path d="M140 584.18L169 560h285.85l-24.18 24.18z" stroke="#666" stroke-width="2" fill="#e6e6e6"/><path d="M430.67 584.18L454.85 560v212.76l-24.18 29z" stroke="#666" stroke-width="2" fill="#ccc"/><use xlink:href="#k" transform="matrix(1,0,0,1,148,592.1767257272321) translate(78.59651089891975 14.431423611111112)"/><use xlink:href="#l" transform="matrix(1,0,0,1,148,592.1767257272321) translate(82.91749855324073 14.431423611111112)"/><use xlink:href="#J" transform="matrix(1,0,0,1,148,592.1767257272321) translate(87.01475694444444 35.08506944444445)"/><path d="M140 652.34l19.92-16.6H415v146.1l-16.6 19.93H140z" stroke="#666" stroke-width="2" fill="#fff"/><path d="M140 652.34l19.92-16.6H415l-16.6 16.6z" stroke="#666" stroke-width="2" fill="#e6e6e6"/><path d="M398.4 652.34l16.6-16.6v146.1l-16.6 19.93z" stroke="#666" stroke-width="2" fill="#ccc"/><use xlink:href="#k" transform="matrix(1,0,0,1,148,660.342119696174) translate(8.920584972993822 14.431423611111112)"/><use xlink:href="#t" transform="matrix(1,0,0,1,148,660.342119696174) translate(13.24157262731481 14.431423611111112)"/><use xlink:href="#p" transform="matrix(1,0,0,1,148,660.342119696174) translate(91.36182243441358 14.431423611111112)"/><use xlink:href="#K" transform="matrix(1,0,0,1,148,660.342119696174) translate(57.288302951388886 35.08506944444445)"/><use xlink:href="#L" transform="matrix(1,0,0,1,148,660.342119696174) translate(108.10970052083334 35.08506944444445)"/><path d="M179.85 711.48H380V775H179.85z" stroke="#666" stroke-width="2" fill="#fff"/><path d="M159.85 717.36h40v20h-40zM159.85 749.13h40v20h-40z" stroke="#666" stroke-width="2" fill="#fff"/><use xlink:href="#v" transform="matrix(1,0,0,1,203.88058647604848,717.8321047187791) translate(31.769350405092588 14.431423611111112)"/><use xlink:href="#A" transform="matrix(1,0,0,1,203.88058647604848,717.8321047187791) translate(10.222981770833314 35.08506944444445)"/><use xlink:href="#B" transform="matrix(1,0,0,1,203.88058647604848,717.8321047187791) translate(73.46299913194444 35.08506944444445)"/><use xlink:href="#M" transform="matrix(1,0,0,1,203.88058647604848,717.8321047187791) translate(38.46679687499999 53.314236111111114)"/><path d="M699.6 791.44L737.3 760h276.7v302.27L982.56 1100H699.6z" stroke="#666" stroke-width="2" fill="#fff"/><path d="M699.6 791.44L737.3 760h276.7l-31.45 31.44z" stroke="#666" stroke-width="2" fill="#e6e6e6"/><path d="M982.57 791.44L1014 760v302.27L982.58 1100z" stroke="#666" stroke-width="2" fill="#ccc"/><g><use xlink:href="#k" transform="matrix(1,0,0,1,707.5896207171313,799.442083806781) translate(78.59651089891975 14.431423611111112)"/><use xlink:href="#l" transform="matrix(1,0,0,1,707.5896207171313,799.442083806781) translate(82.91749855324073 14.431423611111112)"/><use xlink:href="#m" transform="matrix(1,0,0,1,707.5896207171313,799.442083806781) translate(47.635959201388886 35.08506944444445)"/><use xlink:href="#n" transform="matrix(1,0,0,1,707.5896207171313,799.442083806781) translate(129.55327690972223 35.08506944444445)"/></g><path d="M699.6 866l31.2-26H980v228.8l-26 31.2H699.6z" stroke="#666" stroke-width="2" fill="#fff"/><path d="M699.6 866l31.2-26H980l-26 26z" stroke="#666" stroke-width="2" fill="#e6e6e6"/><path d="M954 866l26-26v228.8l-26 31.2z" stroke="#666" stroke-width="2" fill="#ccc"/><g><use xlink:href="#k" transform="matrix(1,0,0,1,707.5896207171313,874) translate(12.23848620756172 14.431423611111112)"/><use xlink:href="#o" transform="matrix(1,0,0,1,707.5896207171313,874) translate(16.559473861882708 14.431423611111112)"/><use xlink:href="#p" transform="matrix(1,0,0,1,707.5896207171313,874) translate(92.04392119984567 14.431423611111112)"/><use xlink:href="#q" transform="matrix(1,0,0,1,707.5896207171313,874) translate(74.27419704861111 35.08506944444445)"/></g><path d="M699.6 950.57l19.9-16.6H940v146.1L923.4 1100H699.6z" stroke="#666" stroke-width="2" fill="#fff"/><path d="M699.6 950.57l19.9-16.6H940l-16.6 16.6z" stroke="#666" stroke-width="2" fill="#e6e6e6"/><path d="M923.4 950.57l16.6-16.6v146.1L923.4 1100z" stroke="#666" stroke-width="2" fill="#ccc"/><g><use xlink:href="#k" transform="matrix(1,0,0,1,707.5896207171313,958.5748624238524) translate(45.43987509645061 14.431423611111112)"/><use xlink:href="#x" transform="matrix(1,0,0,1,707.5896207171313,958.5748624238524) translate(49.7608627507716 14.431423611111112)"/><use xlink:href="#p" transform="matrix(1,0,0,1,707.5896207171313,958.5748624238524) translate(38.1412037037037 35.08506944444445)"/><use xlink:href="#z" transform="matrix(1,0,0,1,707.5896207171313,958.5748624238524) translate(-3.7557508680555713 55.738715277777786)"/></g><path d="M729 1030h185v64.6H729z" stroke="#000" stroke-width="2" fill="#fff"/><path d="M709 1036.15h40v20h-40zM709 1068.46h40v20h-40z" stroke="#000" stroke-width="2" fill="#fff"/><g><use xlink:href="#v" transform="matrix(1,0,0,1,750,1036.4607847877865) translate(26.269350405092588 14.431423611111112)"/><use xlink:href="#A" transform="matrix(1,0,0,1,750,1036.4607847877865) translate(4.722981770833314 35.08506944444445)"/><use xlink:href="#B" transform="matrix(1,0,0,1,750,1036.4607847877865) translate(67.96299913194444 35.08506944444445)"/><use xlink:href="#N" transform="matrix(1,0,0,1,750,1036.4607847877865) translate(52.031467013888886 53.314236111111114)"/></g><path d="M699.6 1371.44L737.3 1340h276.7v302.27L982.56 1680H699.6z" stroke="#666" stroke-width="2" fill="#fff"/><path d="M699.6 1371.44L737.3 1340h276.7l-31.45 31.44z" stroke="#666" stroke-width="2" fill="#e6e6e6"/><path d="M982.57 1371.44L1014 1340v302.27L982.58 1680z" stroke="#666" stroke-width="2" fill="#ccc"/><g><use xlink:href="#k" transform="matrix(1,0,0,1,707.5896207171313,1379.442083806781) translate(78.59651089891975 14.431423611111112)"/><use xlink:href="#l" transform="matrix(1,0,0,1,707.5896207171313,1379.442083806781) translate(82.91749855324073 14.431423611111112)"/><use xlink:href="#m" transform="matrix(1,0,0,1,707.5896207171313,1379.442083806781) translate(47.635959201388886 35.08506944444445)"/><use xlink:href="#n" transform="matrix(1,0,0,1,707.5896207171313,1379.442083806781) translate(129.55327690972223 35.08506944444445)"/></g><path d="M699.6 1446l31.2-26h238.8v228.8l-26 31.2h-244z" stroke="#666" stroke-width="2" fill="#fff"/><path d="M699.6 1446l31.2-26h238.8l-26 26z" stroke="#666" stroke-width="2" fill="#e6e6e6"/><path d="M943.6 1446l26-26v228.8l-26 31.2z" stroke="#666" stroke-width="2" fill="#ccc"/><g><use xlink:href="#k" transform="matrix(1,0,0,1,707.5896207171313,1454) translate(8.23848620756172 14.431423611111112)"/><use xlink:href="#o" transform="matrix(1,0,0,1,707.5896207171313,1454) translate(12.559473861882708 14.431423611111112)"/><use xlink:href="#p" transform="matrix(1,0,0,1,707.5896207171313,1454) translate(88.04392119984567 14.431423611111112)"/><use xlink:href="#r" transform="matrix(1,0,0,1,707.5896207171313,1454) translate(70.27419704861111 35.08506944444445)"/></g><path d="M698.34 1530.57l19.92-16.6H919.6v146.1L903 1680H698.33z" stroke="#666" stroke-width="2" fill="#fff"/><path d="M698.34 1530.57l19.92-16.6H919.6l-16.6 16.6z" stroke="#666" stroke-width="2" fill="#e6e6e6"/><path d="M903 1530.57l16.6-16.6v146.1L903 1680z" stroke="#666" stroke-width="2" fill="#ccc"/><g><use xlink:href="#k" transform="matrix(1,0,0,1,706.3389671241443,1538.5748624238524) translate(38.43987509645061 14.431423611111112)"/><use xlink:href="#x" transform="matrix(1,0,0,1,706.3389671241443,1538.5748624238524) translate(42.7608627507716 14.431423611111112)"/><use xlink:href="#p" transform="matrix(1,0,0,1,706.3389671241443,1538.5748624238524) translate(31.141203703703702 35.08506944444445)"/><use xlink:href="#O" transform="matrix(1,0,0,1,706.3389671241443,1538.5748624238524) translate(30.571289062499993 55.738715277777786)"/></g><path d="M718.34 1610h182.9v64.6h-182.9z" stroke="#000" stroke-width="2" fill="#fff"/><path d="M698.34 1616.15h40v20h-40zM698.34 1648.46h40v20h-40z" stroke="#000" stroke-width="2" fill="#fff"/><g><use xlink:href="#v" transform="matrix(1,0,0,1,738.9213044179129,1616.4607847877865) translate(25.769350405092588 14.431423611111112)"/><use xlink:href="#A" transform="matrix(1,0,0,1,738.9213044179129,1616.4607847877865) translate(4.222981770833314 35.08506944444445)"/><use xlink:href="#B" transform="matrix(1,0,0,1,738.9213044179129,1616.4607847877865) translate(67.46299913194444 35.08506944444445)"/><use xlink:href="#P" transform="matrix(1,0,0,1,738.9213044179129,1616.4607847877865) translate(43.609375 53.314236111111114)"/></g><path d="M138.5 336.25H111c-6.63 0-12 5.37-12 12v359.17c0 6.62 5.37 12 12 12h27.5" stroke="#666" fill="none"/><path d="M139 336.75h-.5v-1h.5zM139 719.92h-.5v-1h.5z" fill="#666"/><g><use xlink:href="#Q" transform="matrix(1,0,0,1,13.169053819444429,508.39033298094375) translate(4.013897569444445 14.431423611111112)"/><use xlink:href="#R" transform="matrix(1,0,0,1,13.169053819444429,508.39033298094375) translate(0.005000000000002558 35.08506944444445)"/></g><path d="M456.35 680.94h108.87c6.63 0 12-5.37 12-12v-269.2c0-6.63 5.37-12 12-12H698.1" stroke="#666" fill="none"/><path d="M456.36 681.44h-.5v-1h.5zM698.6 388.24h-.52v-1h.5z" fill="#666"/><g><use xlink:href="#Q" transform="matrix(1,0,0,1,445.6112358863434,474.183252885499) translate(26.90289496527779 14.431423611111112)"/><use xlink:href="#S" transform="matrix(1,0,0,1,445.6112358863434,474.183252885499) translate(0.005000000000002558 35.08506944444445)"/></g><path d="M456.35 298.37h108.87c6.63 0 12 5.38 12 12V338c0 6.63 5.37 12 12 12H698.1" stroke="#666" fill="none"/><path d="M456.36 298.87h-.5v-1h.5zM698.6 350.5h-.52v-1h.5z" fill="#666"/><g><use xlink:href="#Q" transform="matrix(1,0,0,1,500.33591420762735,255.49060108641396) translate(26.90289496527779 14.431423611111112)"/><use xlink:href="#S" transform="matrix(1,0,0,1,500.33591420762735,255.49060108641396) translate(0.005000000000002558 35.08506944444445)"/></g><path d="M831.53 516.1v242.4" stroke="#666" fill="none"/><path d="M832.03 516.12h-1v-.5h1zM832.03 759h-1v-.5h1z" fill="#666"/><g><use xlink:href="#Q" transform="matrix(1,0,0,1,753.7186091424231,617.86251775) translate(0.005000000000002558 14.431423611111112)"/><use xlink:href="#T" transform="matrix(1,0,0,1,753.7186091424231,617.86251775) translate(15.227873263888892 35.08506944444445)"/></g><path d="M1015.5 350.06h243" stroke="#666" fill="none"/><path d="M1015.52 350.56h-.5v-1h.5zM1259 350.56h-.5v-1h.5z" fill="#666"/><g><use xlink:href="#Q" transform="matrix(1,0,0,1,1073.3398647752324,307.17256965859815) translate(28.76378906250001 14.431423611111112)"/><use xlink:href="#U" transform="matrix(1,0,0,1,1073.3398647752324,307.17256965859815) translate(0.005000000000002558 35.08506944444445)"/><use xlink:href="#V" transform="matrix(1,0,0,1,1073.3398647752324,307.17256965859815) translate(53.91016493055556 35.08506944444445)"/></g><path d="M1128.25 435.46l3 1.24 2.6 2 2 2.6 1.23 3 .43 3.2v384.93l.4 3 1.14 2.77 1.84 2.4 2.4 1.82 2.74 1.14 3.02.4h109.46v1h-109.53l-3.2-.42-3-1.24-2.6-2-2-2.6-1.24-3-.42-3.2V447.56l-.4-3-1.13-2.77-1.84-2.4-2.4-1.82-2.74-1.14-3.03-.4H1015.5v-1h109.54z" fill="#666"/><path d="M1015.52 436.04h-.5v-1h.5zM1259 844.96h-.5v-1h.5z" fill="#666"/><g><use xlink:href="#W" transform="matrix(1,0,0,1,1137.0052293585657,627.199999981668) translate(0 17.06666666666667)"/></g><g><use xlink:href="#Q" transform="matrix(1,0,0,1,1145.0052293585657,656.0723267990124) translate(10.781475694444453 14.431423611111112)"/><use xlink:href="#U" transform="matrix(1,0,0,1,1145.0052293585657,656.0723267990124) translate(0.005000000000002558 35.08506944444445)"/><use xlink:href="#X" transform="matrix(1,0,0,1,1145.0052293585657,656.0723267990124) translate(53.91016493055556 35.08506944444445)"/></g><path d="M982.07 531.73l.4 3.02 1.14 2.75 1.84 2.4 2.4 1.83 2.75 1.14 3 .4h74.43l3.2.4 3 1.26 2.6 2 2 2.6 1.25 3 .42 3.2v622.24l.4 3 1.14 2.77 1.83 2.4 2.4 1.82 2.75 1.14 3 .4h235.4l3.22.42 3 1.24 2.6 2 2 2.6 1.23 3 .42 3.2v136.54h-1v-136.47l-.4-3-1.14-2.77-1.84-2.4-2.4-1.82-2.74-1.14-3.02-.4h-235.4l-3.2-.42-3-1.24-2.6-2-2-2.6-1.24-3-.42-3.2V555.78l-.4-3.02-1.14-2.76-1.83-2.4-2.4-1.82-2.75-1.14-3-.4h-74.44l-3.22-.42-3-1.24-2.6-2-2-2.6-1.23-3-.43-3.2v-8.54h1z" fill="#666"/><path d="M981.57 522.76l.5-.6v1.1h-1V521h.5zM1339.9 1339h-1v-.5h1z" fill="#666"/><g><use xlink:href="#Q" transform="matrix(1,0,0,1,1088,991.1655457340341) translate(14.169062500000003 14.431423611111112)"/><use xlink:href="#U" transform="matrix(1,0,0,1,1088,991.1655457340341) translate(0.005000000000002558 35.08506944444445)"/><use xlink:href="#Y" transform="matrix(1,0,0,1,1088,991.1655457340341) translate(53.91016493055556 35.08506944444445)"/></g><path d="M711.63 521.5v8.5c0 6.63-5.37 12-12 12H642c-6.63 0-12 5.37-12 12v752c0 6.63 5.37 12 12 12h123.73c6.63 0 12 5.37 12 12v8.5" stroke="#666" fill="none"/><path d="M712.13 521v.5h-1v-.5zM778.23 1339h-1v-.5h1z" fill="#666"/><g><use xlink:href="#Q" transform="matrix(1,0,0,1,552.1868489583333,943.6101970256777) translate(0.005000000000002558 14.431423611111112)"/><use xlink:href="#T" transform="matrix(1,0,0,1,552.1868489583333,943.6101970256777) translate(15.227873263888892 35.08506944444445)"/></g><path d="M954.16 1101.87V1268c0 6.63 5.37 12 12 12H1048c6.63 0 12 5.37 12 12v103.47c0 6.63 5.37 12 12 12h187.75" stroke="#666" fill="none"/><path d="M954.66 1101.9h-.93l.93-1.13zM1260.25 1407.97h-.5v-1h.5z" fill="#666"/><g><use xlink:href="#Q" transform="matrix(1,0,0,1,1068,1327.4230397044903) translate(14.169062500000003 14.431423611111112)"/><use xlink:href="#U" transform="matrix(1,0,0,1,1068,1327.4230397044903) translate(0.005000000000002558 35.08506944444445)"/><use xlink:href="#Y" transform="matrix(1,0,0,1,1068,1327.4230397044903) translate(53.91016493055556 35.08506944444445)"/></g><defs><path fill="#b2b2b2" d="M24 0v-248h195v40H76v63h132v40H76v65h150V0H24" id="Z"/><path fill="#b2b2b2" d="M230 0l2-204L168 0h-37L68-204 70 0H24v-248h70l56 185 57-185h69V0h-46" id="aa"/><path fill="#b2b2b2" d="M169-182c-1-43-94-46-97-3 18 66 151 10 154 114 3 95-165 93-204 36-6-8-10-19-12-30l50-8c3 46 112 56 116 5-17-69-150-10-154-114-4-87 153-88 188-35 5 8 8 18 10 28" id="ab"/><path fill="#b2b2b2" d="M-4 44V30h207v14H-4" id="ac"/><path fill="#b2b2b2" d="M24-248c120-7 223 5 221 122C244-46 201 0 124 0H24v-248zM76-40c74 7 117-18 117-86 0-67-45-88-117-82v168" id="ad"/><path fill="#b2b2b2" d="M185-48c-13 30-37 53-82 52C43 2 14-33 14-96s30-98 90-98c62 0 83 45 84 108H66c0 31 8 55 39 56 18 0 30-7 34-22zm-45-69c5-46-57-63-70-21-2 6-4 13-4 21h74" id="ae"/><path fill="#b2b2b2" d="M135-194c53 0 70 44 70 98 0 56-19 98-73 100-31 1-45-17-59-34 3 33 2 69 2 105H25l-1-265h48c2 10 0 23 3 31 11-24 29-35 60-35zM114-30c33 0 39-31 40-66 0-38-9-64-40-64-56 0-55 130 0 130" id="af"/><path fill="#b2b2b2" d="M25 0v-261h50V0H25" id="ag"/><path fill="#b2b2b2" d="M110-194c64 0 96 36 96 99 0 64-35 99-97 99-61 0-95-36-95-99 0-62 34-99 96-99zm-1 164c35 0 45-28 45-65 0-40-10-65-43-65-34 0-45 26-45 65 0 36 10 65 43 65" id="ah"/><path fill="#b2b2b2" d="M123 10C108 53 80 86 19 72V37c35 8 53-11 59-39L3-190h52l48 148c12-52 28-100 44-148h51" id="ai"/><path fill="#b2b2b2" d="M220-157c-53 9-28 100-34 157h-49v-107c1-27-5-49-29-50C55-147 81-57 75 0H25l-1-190h47c2 12-1 28 3 38 10-53 101-56 108 0 13-22 24-43 59-42 82 1 51 116 57 194h-49v-107c-1-25-5-48-29-50" id="aj"/><path fill="#b2b2b2" d="M135-194c87-1 58 113 63 194h-50c-7-57 23-157-34-157-59 0-34 97-39 157H25l-1-190h47c2 12-1 28 3 38 12-26 28-41 61-42" id="ak"/><path fill="#b2b2b2" d="M115-3C79 11 28 4 28-45v-112H4v-33h27l15-45h31v45h36v33H77v99c-1 23 16 31 38 25v30" id="al"/><path fill="#b2b2b2" d="M23 0v-37h61v-169l-59 37v-38l62-41h46v211h57V0H23" id="am"/><path fill="#b2b2b2" d="M24 0v-54h51V0H24" id="an"/><path fill="#b2b2b2" d="M101-251c68 0 84 54 84 127C185-50 166 4 99 4S15-52 14-124c-1-75 17-127 87-127zm-1 216c37-5 36-46 36-89s4-89-36-89c-39 0-36 45-36 89 0 43-3 85 36 89" id="ao"/><g id="a"><use transform="matrix(0.0728395061728395,0,0,0.0728395061728395,0,0)" xlink:href="#Z"/><use transform="matrix(0.0728395061728395,0,0,0.0728395061728395,17.48148148148148,0)" xlink:href="#aa"/><use transform="matrix(0.0728395061728395,0,0,0.0728395061728395,39.26049382716049,0)" xlink:href="#ab"/><use transform="matrix(0.0728395061728395,0,0,0.0728395061728395,56.74197530864197,0)" xlink:href="#ac"/><use transform="matrix(0.0728395061728395,0,0,0.0728395061728395,71.30987654320987,0)" xlink:href="#ad"/><use transform="matrix(0.0728395061728395,0,0,0.0728395061728395,90.1753086419753,0)" xlink:href="#ae"/><use transform="matrix(0.0728395061728395,0,0,0.0728395061728395,104.7432098765432,0)" xlink:href="#af"/><use transform="matrix(0.0728395061728395,0,0,0.0728395061728395,120.69506172839506,0)" xlink:href="#ag"/><use transform="matrix(0.0728395061728395,0,0,0.0728395061728395,127.97901234567901,0)" xlink:href="#ah"/><use transform="matrix(0.0728395061728395,0,0,0.0728395061728395,143.93086419753087,0)" xlink:href="#ai"/><use transform="matrix(0.0728395061728395,0,0,0.0728395061728395,158.49876543209876,0)" xlink:href="#aj"/><use transform="matrix(0.0728395061728395,0,0,0.0728395061728395,181.8074074074074,0)" xlink:href="#ae"/><use transform="matrix(0.0728395061728395,0,0,0.0728395061728395,196.3753086419753,0)" xlink:href="#ak"/><use transform="matrix(0.0728395061728395,0,0,0.0728395061728395,212.32716049382714,0)" xlink:href="#al"/><use transform="matrix(0.0728395061728395,0,0,0.0728395061728395,220.99506172839503,0)" xlink:href="#ac"/><use transform="matrix(0.0728395061728395,0,0,0.0728395061728395,235.56296296296293,0)" xlink:href="#am"/><use transform="matrix(0.0728395061728395,0,0,0.0728395061728395,250.13086419753083,0)" xlink:href="#an"/><use transform="matrix(0.0728395061728395,0,0,0.0728395061728395,257.4148148148148,0)" xlink:href="#ao"/><use transform="matrix(0.0728395061728395,0,0,0.0728395061728395,271.9827160493827,0)" xlink:href="#an"/><use transform="matrix(0.0728395061728395,0,0,0.0728395061728395,279.26666666666665,0)" xlink:href="#ao"/></g><path fill="#b2b2b2" d="M14-72v-43h91v43H14" id="ap"/><use transform="matrix(0.0728395061728395,0,0,0.0728395061728395,0,0)" xlink:href="#ap" id="b"/><path fill="#b2b2b2" d="M186 0v-106H76V0H24v-248h52v99h110v-99h50V0h-50" id="aq"/><path fill="#b2b2b2" d="M25-224v-37h50v37H25zM25 0v-190h50V0H25" id="ar"/><path fill="#b2b2b2" d="M195-6C206 82 75 100 31 46c-4-6-6-13-8-21l49-6c3 16 16 24 34 25 40 0 42-37 40-79-11 22-30 35-61 35-53 0-70-43-70-97 0-56 18-96 73-97 30 0 46 14 59 34l2-30h47zm-90-29c32 0 41-27 41-63 0-35-9-62-40-62-32 0-39 29-40 63 0 36 9 62 39 62" id="as"/><path fill="#b2b2b2" d="M114-157C55-157 80-60 75 0H25v-261h50l-1 109c12-26 28-41 61-42 86-1 58 113 63 194h-50c-7-57 23-157-34-157" id="at"/><path fill="#b2b2b2" d="M135-150c-39-12-60 13-60 57V0H25l-1-190h47c2 13-1 29 3 40 6-28 27-53 61-41v41" id="au"/><g id="c"><use transform="matrix(0.0728395061728395,0,0,0.0728395061728395,0,0)" xlink:href="#aq"/><use transform="matrix(0.0728395061728395,0,0,0.0728395061728395,18.86543209876543,0)" xlink:href="#ar"/><use transform="matrix(0.0728395061728395,0,0,0.0728395061728395,26.14938271604938,0)" xlink:href="#as"/><use transform="matrix(0.0728395061728395,0,0,0.0728395061728395,42.10123456790124,0)" xlink:href="#at"/><use transform="matrix(0.0728395061728395,0,0,0.0728395061728395,58.05308641975308,0)" xlink:href="#ae"/><use transform="matrix(0.0728395061728395,0,0,0.0728395061728395,72.62098765432098,0)" xlink:href="#au"/></g><path fill="#b2b2b2" d="M24 0v-248h52v208h133V0H24" id="av"/><path fill="#b2b2b2" d="M128 0H69L1-190h53L99-40l48-150h52" id="aw"/><g id="d"><use transform="matrix(0.0728395061728395,0,0,0.0728395061728395,0,0)" xlink:href="#av"/><use transform="matrix(0.0728395061728395,0,0,0.0728395061728395,15.95185185185185,0)" xlink:href="#ae"/><use transform="matrix(0.0728395061728395,0,0,0.0728395061728395,30.51975308641975,0)" xlink:href="#aw"/><use transform="matrix(0.0728395061728395,0,0,0.0728395061728395,45.08765432098765,0)" xlink:href="#ae"/><use transform="matrix(0.0728395061728395,0,0,0.0728395061728395,59.65555555555555,0)" xlink:href="#ag"/></g><path fill="#b2b2b2" d="M33 0v-248h34V0H33" id="ax"/><path fill="#b2b2b2" d="M106-169C34-169 62-67 57 0H25v-261h32l-1 103c12-21 28-36 61-36 89 0 53 116 60 194h-32v-121c2-32-8-49-39-48" id="ay"/><path fill="#b2b2b2" d="M100-194c62-1 85 37 85 99 1 63-27 99-86 99S16-35 15-95c0-66 28-99 85-99zM99-20c44 1 53-31 53-75 0-43-8-75-51-75s-53 32-53 75 10 74 51 75" id="az"/><path fill="#b2b2b2" d="M114-163C36-179 61-72 57 0H25l-1-190h30c1 12-1 29 2 39 6-27 23-49 58-41v29" id="aA"/><g id="e"><use transform="matrix(0.04248971193415638,0,0,0.04248971193415638,0,0)" xlink:href="#ax"/><use transform="matrix(0.04248971193415638,0,0,0.04248971193415638,4.248971193415637,0)" xlink:href="#ay"/><use transform="matrix(0.04248971193415638,0,0,0.04248971193415638,12.746913580246911,0)" xlink:href="#az"/><use transform="matrix(0.04248971193415638,0,0,0.04248971193415638,21.244855967078188,0)" xlink:href="#aA"/></g><path fill="#b2b2b2" d="M197 0v-115H63V0H30v-248h33v105h134v-105h34V0h-34" id="aB"/><path fill="#b2b2b2" d="M179-190L93 31C79 59 56 82 12 73V49c39 6 53-20 64-50L1-190h34L92-34l54-156h33" id="aC"/><path fill="#b2b2b2" d="M135-143c-3-34-86-38-87 0 15 53 115 12 119 90S17 21 10-45l28-5c4 36 97 45 98 0-10-56-113-15-118-90-4-57 82-63 122-42 12 7 21 19 24 35" id="aD"/><path fill="#b2b2b2" d="M143 0L79-87 56-68V0H24v-261h32v163l83-92h37l-77 82L181 0h-38" id="aE"/><path fill="#b2b2b2" d="M108 0H70L1-190h34L89-25l56-165h34" id="aF"/><g id="f"><use transform="matrix(0.04248971193415638,0,0,0.04248971193415638,0,0)" xlink:href="#aB"/><use transform="matrix(0.04248971193415638,0,0,0.04248971193415638,11.004835390946502,0)" xlink:href="#aA"/><use transform="matrix(0.04248971193415638,0,0,0.04248971193415638,16.06111111111111,0)" xlink:href="#aC"/><use transform="matrix(0.04248971193415638,0,0,0.04248971193415638,23.70925925925926,0)" xlink:href="#aD"/><use transform="matrix(0.04248971193415638,0,0,0.04248971193415638,31.357407407407408,0)" xlink:href="#ay"/><use transform="matrix(0.04248971193415638,0,0,0.04248971193415638,39.855349794238684,0)" xlink:href="#aE"/><use transform="matrix(0.04248971193415638,0,0,0.04248971193415638,47.50349794238683,0)" xlink:href="#az"/><use transform="matrix(0.04248971193415638,0,0,0.04248971193415638,56.001440329218106,0)" xlink:href="#aF"/></g><path fill="#b2b2b2" d="M32 76v-337h29V76H32" id="aG"/><use transform="matrix(0.04248971193415638,0,0,0.04248971193415638,0,0)" xlink:href="#aG" id="g"/><path fill="#b2b2b2" d="M153-248C145-148 188 4 80 4 36 3 13-21 6-62l32-5c4 25 16 42 43 43 27 0 39-20 39-49v-147H72v-28h81" id="aH"/><path fill="#b2b2b2" d="M84 4C-5 8 30-112 23-190h32v120c0 31 7 50 39 49 72-2 45-101 50-169h31l1 190h-30c-1-10 1-25-2-33-11 22-28 36-60 37" id="aI"/><path fill="#b2b2b2" d="M24 0v-261h32V0H24" id="aJ"/><g id="h"><use transform="matrix(0.04248971193415638,0,0,0.04248971193415638,0,0)" xlink:href="#aH"/><use transform="matrix(0.04248971193415638,0,0,0.04248971193415638,7.648148148148148,0)" xlink:href="#aI"/><use transform="matrix(0.04248971193415638,0,0,0.04248971193415638,16.14609053497942,0)" xlink:href="#aJ"/><use transform="matrix(0.04248971193415638,0,0,0.04248971193415638,19.502777777777776,0)" xlink:href="#aC"/></g><path fill="#b2b2b2" d="M54-142c48-35 137-8 131 61C196 18 31 33 14-55l32-4c7 23 22 37 52 37 35-1 51-22 54-58 4-55-73-65-99-34H22l8-134h141v27H59" id="aK"/><path fill="#b2b2b2" d="M68-38c1 34 0 65-14 84H32c9-13 17-26 17-46H33v-38h35" id="aL"/><g id="i"><use transform="matrix(0.04248971193415638,0,0,0.04248971193415638,0,0)" xlink:href="#aK"/><use transform="matrix(0.04248971193415638,0,0,0.04248971193415638,8.497942386831275,0)" xlink:href="#aL"/></g><path fill="#b2b2b2" d="M101-251c82-7 93 87 43 132L82-64C71-53 59-42 53-27h129V0H18c2-99 128-94 128-182 0-28-16-43-45-43s-46 15-49 41l-32-3c6-41 34-60 81-64" id="aM"/><path fill="#b2b2b2" d="M101-251c68 0 85 55 85 127S166 4 100 4C33 4 14-52 14-124c0-73 17-127 87-127zm-1 229c47 0 54-49 54-102s-4-102-53-102c-51 0-55 48-55 102 0 53 5 102 54 102" id="aN"/><g id="j"><use transform="matrix(0.04248971193415638,0,0,0.04248971193415638,0,0)" xlink:href="#aM"/><use transform="matrix(0.04248971193415638,0,0,0.04248971193415638,8.497942386831275,0)" xlink:href="#aN"/><use transform="matrix(0.04248971193415638,0,0,0.04248971193415638,16.99588477366255,0)" xlink:href="#aM"/><use transform="matrix(0.04248971193415638,0,0,0.04248971193415638,25.493827160493822,0)" xlink:href="#aN"/></g><path fill="#666" d="M280-548l258 397H397L102-539v-19l295-389h141zm330 0l258 397H727L432-539v-19l295-389h141" id="aO"/><path fill="#666" d="M85-194c31 0 48 13 60 33l-1-100h32l1 261h-30c-2-10 0-23-3-31C134-8 116 4 85 4 32 4 16-35 15-94c0-66 23-100 70-100zm9 24c-40 0-46 34-46 75 0 40 6 74 45 74 42 0 51-32 51-76 0-42-9-74-50-73" id="aP"/><path fill="#666" d="M100-194c63 0 86 42 84 106H49c0 40 14 67 53 68 26 1 43-12 49-29l28 8c-11 28-37 45-77 45C44 4 14-33 15-96c1-61 26-98 85-98zm52 81c6-60-76-77-97-28-3 7-6 17-6 28h103" id="aQ"/><path fill="#666" d="M108 0H70L1-190h34L89-25l56-165h34" id="aR"/><path fill="#666" d="M24-231v-30h32v30H24zM24 0v-190h32V0H24" id="aS"/><path fill="#666" d="M96-169c-40 0-48 33-48 73s9 75 48 75c24 0 41-14 43-38l32 2c-6 37-31 61-74 61-59 0-76-41-82-99-10-93 101-131 147-64 4 7 5 14 7 22l-32 3c-4-21-16-35-41-35" id="aT"/><path fill="#666" d="M244-949l295 389v19L244-152H102l258-398-258-399h142zm349 0l295 389v19L593-152H451l258-398-258-399h142" id="aU"/><g id="l"><use transform="matrix(0.007595486111111112,0,0,0.007595486111111112,0,0)" xlink:href="#aO"/><use transform="matrix(0.04320987654320988,0,0,0.04320987654320988,7.299262152777779,0)" xlink:href="#aP"/><use transform="matrix(0.04320987654320988,0,0,0.04320987654320988,15.941237461419755,0)" xlink:href="#aQ"/><use transform="matrix(0.04320987654320988,0,0,0.04320987654320988,24.58321277006173,0)" xlink:href="#aR"/><use transform="matrix(0.04320987654320988,0,0,0.04320987654320988,32.360990547839506,0)" xlink:href="#aS"/><use transform="matrix(0.04320987654320988,0,0,0.04320987654320988,35.77457079475309,0)" xlink:href="#aT"/><use transform="matrix(0.04320987654320988,0,0,0.04320987654320988,43.55234857253087,0)" xlink:href="#aQ"/><use transform="matrix(0.007595486111111112,0,0,0.007595486111111112,52.19432388117284,0)" xlink:href="#aU"/></g><path fill="#666" d="M973-380H363L226 0H28l556-1456h168L1309 0h-197zM421-538h495l-248-681" id="aV"/><path fill="#666" d="M632-1102c291 0 422 251 422 573 0 297-141 548-419 549-131 0-235-42-310-125v521H140v-1498h169l9 120c75-93 180-140 314-140zm-53 971c207 0 290-180 290-419 0-218-92-395-292-395-112 0-196 50-252 149v517c55 99 140 148 254 148" id="aW"/><path fill="#666" d="M341 0H156v-1536h185V0" id="aX"/><path fill="#666" d="M341 0H156v-1082h185V0zm-91-1264c-68 0-108-42-109-105 0-62 41-107 109-107s110 44 110 107-42 105-110 105" id="aY"/><path fill="#666" d="M277-555c0 244 77 420 297 424 127 2 249-93 255-210h175C980-127 805 20 574 20 258 20 81-222 92-562c11-319 164-533 481-540 237-5 426 165 431 392H829c-7-133-115-242-256-240-209 4-296 166-296 395" id="aZ"/><path fill="#666" d="M561-1102c238-4 403 126 403 351v498c0 99 13 178 38 237V0H808c-11-21-19-59-26-114C696-25 593 20 474 20c-199 0-368-130-365-320 4-251 214-359 490-356h180v-85c-1-135-86-212-229-212-115 0-232 67-233 171H131c20-205 206-316 430-320zM294-326c0 117 90 185 207 185 122 0 239-75 278-162v-222H634c-227 0-340 66-340 199" id="ba"/><path fill="#666" d="M456 20C285 20 205-92 206-268v-671H9v-143h197v-262h185v262h202v143H391v671c-9 125 92 149 207 118V0c-49 13-96 20-142 20" id="bb"/><path fill="#666" d="M584 20C278 26 81-227 91-551c10-320 175-545 491-551 308-5 503 247 494 573-9 322-175 543-492 549zm-2-970c-208 0-305 185-305 421 0 216 106 398 307 398 211 0 307-186 307-420 0-214-109-399-309-399" id="bc"/><path fill="#666" d="M589-945c-131 0-219 81-264 174V0H140v-1082h175l6 136c83-104 191-156 324-156 229 0 346 129 346 387V0H806v-716c-2-153-65-229-217-229" id="bd"/><g id="m"><use transform="matrix(0.007595486111111112,0,0,0.007595486111111112,0,0)" xlink:href="#aV"/><use transform="matrix(0.007595486111111112,0,0,0.007595486111111112,10.147569444444445,0)" xlink:href="#aW"/><use transform="matrix(0.007595486111111112,0,0,0.007595486111111112,18.874782986111114,0)" xlink:href="#aW"/><use transform="matrix(0.007595486111111112,0,0,0.007595486111111112,27.601996527777782,0)" xlink:href="#aX"/><use transform="matrix(0.007595486111111112,0,0,0.007595486111111112,31.376953125000004,0)" xlink:href="#aY"/><use transform="matrix(0.007595486111111112,0,0,0.007595486111111112,35.15190972222223,0)" xlink:href="#aZ"/><use transform="matrix(0.007595486111111112,0,0,0.007595486111111112,43.29427083333334,0)" xlink:href="#ba"/><use transform="matrix(0.007595486111111112,0,0,0.007595486111111112,51.75564236111112,0)" xlink:href="#bb"/><use transform="matrix(0.007595486111111112,0,0,0.007595486111111112,56.83702256944446,0)" xlink:href="#aY"/><use transform="matrix(0.007595486111111112,0,0,0.007595486111111112,60.61197916666668,0)" xlink:href="#bc"/><use transform="matrix(0.007595486111111112,0,0,0.007595486111111112,69.48350694444446,0)" xlink:href="#bd"/></g><path fill="#666" d="M631-137c179 0 314-70 314-231 0-71-25-127-75-166s-141-77-272-115c-165-47-285-106-360-175s-112-154-112-255c0-245 231-397 495-397 206 0 369 89 449 218 43 68 65 142 65 223H942c0-184-129-283-321-283-172 0-299 76-301 236 0 59 26 109 76 150s135 78 256 113c205 59 345 116 436 256 35 53 50 119 50 193-2 256-231 398-507 390C333 12 90-129 80-422h193c0 187 160 285 358 285" id="be"/><path fill="#666" d="M599-131c141 0 220-65 285-146l113 88C906-50 770 20 589 20 281 21 93-214 93-545c0-223 93-397 233-485 74-48 154-72 240-72 300 2 449 218 445 537v77H278c0 197 129 357 321 357zm227-509c-3-180-88-310-260-310-170 0-264 140-282 310h542" id="bf"/><path fill="#666" d="M663-916c-163-27-288 18-338 148V0H140v-1082h180l3 125c61-97 147-145 258-145 36 0 63 5 82 14v172" id="bg"/><path fill="#666" d="M497-251l268-831h189L566 0H425L33-1082h189" id="bh"/><g id="n"><use transform="matrix(0.007595486111111112,0,0,0.007595486111111112,0,0)" xlink:href="#be"/><use transform="matrix(0.007595486111111112,0,0,0.007595486111111112,9.228515625000002,0)" xlink:href="#bf"/><use transform="matrix(0.007595486111111112,0,0,0.007595486111111112,17.469618055555557,0)" xlink:href="#bg"/><use transform="matrix(0.007595486111111112,0,0,0.007595486111111112,22.870008680555557,0)" xlink:href="#bh"/><use transform="matrix(0.007595486111111112,0,0,0.007595486111111112,30.305989583333336,0)" xlink:href="#bf"/><use transform="matrix(0.007595486111111112,0,0,0.007595486111111112,38.54709201388889,0)" xlink:href="#bg"/></g><path fill="#666" d="M100-194c62-1 85 37 85 99 1 63-27 99-86 99S16-35 15-95c0-66 28-99 85-99zM99-20c44 1 53-31 53-75 0-43-8-75-51-75s-53 32-53 75 10 74 51 75" id="bi"/><path fill="#666" d="M117-194c89-4 53 116 60 194h-32v-121c0-31-8-49-39-48C34-167 62-67 57 0H25l-1-190h30c1 10-1 24 2 32 11-22 29-35 61-36" id="bj"/><path fill="#666" d="M59-47c-2 24 18 29 38 22v24C64 9 27 4 27-40v-127H5v-23h24l9-43h21v43h35v23H59v120" id="bk"/><path fill="#666" d="M141-36C126-15 110 5 73 4 37 3 15-17 15-53c-1-64 63-63 125-63 3-35-9-54-41-54-24 1-41 7-42 31l-33-3c5-37 33-52 76-52 45 0 72 20 72 64v82c-1 20 7 32 28 27v20c-31 9-61-2-59-35zM48-53c0 20 12 33 32 33 41-3 63-29 60-74-43 2-92-5-92 41" id="bl"/><path fill="#666" d="M114-163C36-179 61-72 57 0H25l-1-190h30c1 12-1 29 2 39 6-27 23-49 58-41v29" id="bm"/><g id="o"><use transform="matrix(0.007595486111111112,0,0,0.007595486111111112,0,0)" xlink:href="#aO"/><use transform="matrix(0.04320987654320988,0,0,0.04320987654320988,7.299262152777779,0)" xlink:href="#aT"/><use transform="matrix(0.04320987654320988,0,0,0.04320987654320988,15.077039930555557,0)" xlink:href="#bi"/><use transform="matrix(0.04320987654320988,0,0,0.04320987654320988,23.71901523919753,0)" xlink:href="#bj"/><use transform="matrix(0.04320987654320988,0,0,0.04320987654320988,32.360990547839506,0)" xlink:href="#bk"/><use transform="matrix(0.04320987654320988,0,0,0.04320987654320988,36.681978202160494,0)" xlink:href="#bl"/><use transform="matrix(0.04320987654320988,0,0,0.04320987654320988,45.32395351080246,0)" xlink:href="#aS"/><use transform="matrix(0.04320987654320988,0,0,0.04320987654320988,48.73753375771606,0)" xlink:href="#bj"/><use transform="matrix(0.04320987654320988,0,0,0.04320987654320988,57.37950906635802,0)" xlink:href="#aQ"/><use transform="matrix(0.04320987654320988,0,0,0.04320987654320988,66.021484375,0)" xlink:href="#bm"/></g><path fill="#666" d="M210-169c-67 3-38 105-44 169h-31v-121c0-29-5-50-35-48C34-165 62-65 56 0H25l-1-190h30c1 10-1 24 2 32 10-44 99-50 107 0 11-21 27-35 58-36 85-2 47 119 55 194h-31v-121c0-29-5-49-35-48" id="bn"/><g id="p"><use transform="matrix(0.04320987654320988,0,0,0.04320987654320988,0,0)" xlink:href="#aQ"/><use transform="matrix(0.04320987654320988,0,0,0.04320987654320988,8.641975308641976,0)" xlink:href="#bj"/><use transform="matrix(0.04320987654320988,0,0,0.04320987654320988,17.283950617283953,0)" xlink:href="#aR"/><use transform="matrix(0.04320987654320988,0,0,0.04320987654320988,25.06172839506173,0)" xlink:href="#aS"/><use transform="matrix(0.04320987654320988,0,0,0.04320987654320988,28.47530864197531,0)" xlink:href="#bm"/><use transform="matrix(0.04320987654320988,0,0,0.04320987654320988,33.617283950617285,0)" xlink:href="#bi"/><use transform="matrix(0.04320987654320988,0,0,0.04320987654320988,42.25925925925926,0)" xlink:href="#bj"/><use transform="matrix(0.04320987654320988,0,0,0.04320987654320988,50.90123456790123,0)" xlink:href="#bn"/><use transform="matrix(0.04320987654320988,0,0,0.04320987654320988,63.82098765432099,0)" xlink:href="#aQ"/><use transform="matrix(0.04320987654320988,0,0,0.04320987654320988,72.46296296296296,0)" xlink:href="#bj"/><use transform="matrix(0.04320987654320988,0,0,0.04320987654320988,81.10493827160494,0)" xlink:href="#bk"/><use transform="matrix(0.007595486111111112,0,0,0.007595486111111112,85.42592592592592,0)" xlink:href="#aU"/></g><path fill="#666" d="M1222-777c17 480-206 763-650 777H169v-1456h411c408 9 627 269 642 679zm-190 4c3-312-149-522-447-525H361v1141h202c308 0 473-209 469-531v-85" id="bo"/><path fill="#666" d="M442-501L326-380V0H141v-1536h185v929c135-169 291-317 436-475h225L566-630 1036 0H819" id="bp"/><g id="q"><use transform="matrix(0.007595486111111112,0,0,0.007595486111111112,0,0)" xlink:href="#bo"/><use transform="matrix(0.007595486111111112,0,0,0.007595486111111112,10.200737847222223,0)" xlink:href="#aZ"/><use transform="matrix(0.007595486111111112,0,0,0.007595486111111112,18.343098958333336,0)" xlink:href="#bc"/><use transform="matrix(0.007595486111111112,0,0,0.007595486111111112,27.214626736111114,0)" xlink:href="#bp"/><use transform="matrix(0.007595486111111112,0,0,0.007595486111111112,34.94683159722223,0)" xlink:href="#bf"/><use transform="matrix(0.007595486111111112,0,0,0.007595486111111112,43.187934027777786,0)" xlink:href="#bg"/></g><g id="r"><use transform="matrix(0.007595486111111112,0,0,0.007595486111111112,0,0)" xlink:href="#bo"/><use transform="matrix(0.007595486111111112,0,0,0.007595486111111112,10.200737847222223,0)" xlink:href="#bc"/><use transform="matrix(0.007595486111111112,0,0,0.007595486111111112,19.072265625,0)" xlink:href="#aZ"/><use transform="matrix(0.007595486111111112,0,0,0.007595486111111112,27.214626736111114,0)" xlink:href="#bp"/><use transform="matrix(0.007595486111111112,0,0,0.007595486111111112,34.94683159722223,0)" xlink:href="#bf"/><use transform="matrix(0.007595486111111112,0,0,0.007595486111111112,43.187934027777786,0)" xlink:href="#bg"/></g><path fill="#666" d="M1216-1011c-1 297-202 441-512 441H361V0H169v-1456h537c297-6 510 164 510 445zm-192 2c1-178-126-288-307-289H361v571h345c196 1 318-92 318-282" id="bq"/><path fill="#666" d="M688-137c238 0 323-102 359-325h193c-32 297-228 482-552 482-361 0-569-299-569-680 0-197 8-360 73-497 88-186 257-317 513-319 316-2 509 195 535 488h-193c-31-212-118-330-342-330-272 0-397 224-393 523v141c-3 282 115 517 376 517" id="br"/><path fill="#666" d="M177 125H18l608-1581h158" id="bs"/><path fill="#666" d="M362-157h690V0H169v-1456h193v1299" id="bt"/><path fill="#666" d="M417-1456L893-268l476-1188h249V0h-192c-4-403 4-794 18-1179L966 0H819L342-1176c15 384 23 773 19 1176H169v-1456h248" id="bu"/><path fill="#666" d="M634-1102c292 0 422 254 422 573 0 298-143 547-420 549-137 0-242-48-317-145L310 0H140v-1536h185v573c75-93 178-139 309-139zm-44 965c207 0 281-175 281-413 0-224-79-395-283-395-122 0-210 57-263 170v468c57 113 145 170 265 170" id="bv"/><g id="s"><use transform="matrix(0.007595486111111112,0,0,0.007595486111111112,0,0)" xlink:href="#bq"/><use transform="matrix(0.007595486111111112,0,0,0.007595486111111112,9.813368055555557,0)" xlink:href="#br"/><use transform="matrix(0.007595486111111112,0,0,0.007595486111111112,19.93815104166667,0)" xlink:href="#bs"/><use transform="matrix(0.007595486111111112,0,0,0.007595486111111112,26.34874131944445,0)" xlink:href="#bt"/><use transform="matrix(0.007595486111111112,0,0,0.007595486111111112,34.71896701388889,0)" xlink:href="#ba"/><use transform="matrix(0.007595486111111112,0,0,0.007595486111111112,43.18033854166667,0)" xlink:href="#aW"/><use transform="matrix(0.007595486111111112,0,0,0.007595486111111112,51.90755208333334,0)" xlink:href="#bb"/><use transform="matrix(0.007595486111111112,0,0,0.007595486111111112,56.83702256944446,0)" xlink:href="#bc"/><use transform="matrix(0.007595486111111112,0,0,0.007595486111111112,65.70855034722223,0)" xlink:href="#aW"/><use transform="matrix(0.007595486111111112,0,0,0.007595486111111112,74.4357638888889,0)" xlink:href="#bs"/><use transform="matrix(0.007595486111111112,0,0,0.007595486111111112,80.84635416666669,0)" xlink:href="#bu"/><use transform="matrix(0.007595486111111112,0,0,0.007595486111111112,94.42708333333336,0)" xlink:href="#bc"/><use transform="matrix(0.007595486111111112,0,0,0.007595486111111112,103.29861111111114,0)" xlink:href="#bv"/><use transform="matrix(0.007595486111111112,0,0,0.007595486111111112,112.02582465277781,0)" xlink:href="#aY"/><use transform="matrix(0.007595486111111112,0,0,0.007595486111111112,115.80078125000004,0)" xlink:href="#aX"/><use transform="matrix(0.007595486111111112,0,0,0.007595486111111112,119.57573784722227,0)" xlink:href="#bf"/></g><path fill="#666" d="M141 0L90-78 38 0H4l68-98-65-92h35l48 74 47-74h35l-64 92 68 98h-35" id="bw"/><path fill="#666" d="M84 4C-5 8 30-112 23-190h32v120c0 31 7 50 39 49 72-2 45-101 50-169h31l1 190h-30c-1-10 1-25-2-33-11 22-28 36-60 37" id="bx"/><g id="t"><use transform="matrix(0.007595486111111112,0,0,0.007595486111111112,0,0)" xlink:href="#aO"/><use transform="matrix(0.04320987654320988,0,0,0.04320987654320988,7.299262152777779,0)" xlink:href="#aQ"/><use transform="matrix(0.04320987654320988,0,0,0.04320987654320988,15.941237461419755,0)" xlink:href="#bw"/><use transform="matrix(0.04320987654320988,0,0,0.04320987654320988,23.71901523919753,0)" xlink:href="#aQ"/><use transform="matrix(0.04320987654320988,0,0,0.04320987654320988,32.360990547839506,0)" xlink:href="#aT"/><use transform="matrix(0.04320987654320988,0,0,0.04320987654320988,40.138768325617285,0)" xlink:href="#bx"/><use transform="matrix(0.04320987654320988,0,0,0.04320987654320988,48.78074363425927,0)" xlink:href="#bk"/><use transform="matrix(0.04320987654320988,0,0,0.04320987654320988,53.10173128858024,0)" xlink:href="#aS"/><use transform="matrix(0.04320987654320988,0,0,0.04320987654320988,56.51531153549384,0)" xlink:href="#bi"/><use transform="matrix(0.04320987654320988,0,0,0.04320987654320988,65.15728684413581,0)" xlink:href="#bj"/></g><path fill="#666" d="M1160-420C1159-145 963 0 674 0H169v-1456h476c294-1 476 112 476 388 0 153-99 253-216 302 146 38 255 167 255 346zM678-157c171 2 289-95 289-261 0-175-95-263-286-263H361v524h317zm250-912c-2-172-104-229-283-229H361v463h290c157 3 278-84 277-234" id="by"/><path fill="#666" d="M1098-255l208-827h185L1176 0h-150L763-820 507 0H357L43-1082h184l213 810 252-810h149" id="bz"/><path fill="#666" d="M538-131c121 0 232-49 232-156 0-50-20-88-56-117-73-60-334-92-420-143-92-55-162-110-162-238 0-190 192-317 400-317 223 0 414 129 413 338H759c0-108-110-186-227-186-119 0-215 53-215 159 0 45 18 78 53 101 76 52 331 90 416 139 98 57 169 115 169 251C955-92 760 20 538 20c-176 0-314-68-386-174-38-55-57-115-57-179h185c6 129 116 202 258 202" id="bA"/><g id="u"><use transform="matrix(0.007595486111111112,0,0,0.007595486111111112,0,0)" xlink:href="#by"/><use transform="matrix(0.007595486111111112,0,0,0.007595486111111112,9.684244791666668,0)" xlink:href="#bg"/><use transform="matrix(0.007595486111111112,0,0,0.007595486111111112,14.796006944444446,0)" xlink:href="#bc"/><use transform="matrix(0.007595486111111112,0,0,0.007595486111111112,23.667534722222225,0)" xlink:href="#bz"/><use transform="matrix(0.007595486111111112,0,0,0.007595486111111112,35.35698784722223,0)" xlink:href="#bA"/><use transform="matrix(0.007595486111111112,0,0,0.007595486111111112,43.377821180555564,0)" xlink:href="#bf"/><use transform="matrix(0.007595486111111112,0,0,0.007595486111111112,51.61892361111112,0)" xlink:href="#bg"/></g><path fill="#666" d="M115-194c55 1 70 41 70 98S169 2 115 4C84 4 66-9 55-30l1 105H24l-1-265h31l2 30c10-21 28-34 59-34zm-8 174c40 0 45-34 45-75s-6-73-45-74c-42 0-51 32-51 76 0 43 10 73 51 73" id="bB"/><g id="v"><use transform="matrix(0.007595486111111112,0,0,0.007595486111111112,0,0)" xlink:href="#aO"/><use transform="matrix(0.04320987654320988,0,0,0.04320987654320988,7.299262152777779,0)" xlink:href="#aT"/><use transform="matrix(0.04320987654320988,0,0,0.04320987654320988,15.077039930555557,0)" xlink:href="#bi"/><use transform="matrix(0.04320987654320988,0,0,0.04320987654320988,23.71901523919753,0)" xlink:href="#bn"/><use transform="matrix(0.04320987654320988,0,0,0.04320987654320988,36.638768325617285,0)" xlink:href="#bB"/><use transform="matrix(0.04320987654320988,0,0,0.04320987654320988,45.28074363425927,0)" xlink:href="#bi"/><use transform="matrix(0.04320987654320988,0,0,0.04320987654320988,53.92271894290123,0)" xlink:href="#bj"/><use transform="matrix(0.04320987654320988,0,0,0.04320987654320988,62.56469425154321,0)" xlink:href="#aQ"/><use transform="matrix(0.04320987654320988,0,0,0.04320987654320988,71.20666956018519,0)" xlink:href="#bj"/><use transform="matrix(0.04320987654320988,0,0,0.04320987654320988,79.84864486882717,0)" xlink:href="#bk"/><use transform="matrix(0.007595486111111112,0,0,0.007595486111111112,84.16963252314815,0)" xlink:href="#aU"/></g><path fill="#666" d="M589-945c-131 0-219 81-264 174V0H140v-1536h185v585c82-101 189-151 320-151 229 0 346 129 346 387V0H806v-716c-2-153-65-229-217-229" id="bC"/><path fill="#666" d="M248 11c-71 0-114-43-114-108 0-67 42-112 114-112s116 45 116 112c-1 65-45 108-116 108zm1-883c-71 0-114-43-114-108 0-67 42-112 114-112s116 45 116 112c-1 65-45 108-116 108" id="bD"/><path fill="#666" d="M832-402c-1-179-119-264-303-265H390v-151h139c164 0 281-91 281-250 0-171-85-256-255-256-154 0-265 99-263 250H107c-4-235 205-402 448-402 266 0 444 150 440 412-2 148-109 272-229 317 147 45 249 158 251 341 3 262-197 426-461 426C299 20 91-135 94-384h186c-2 156 116 253 276 253 176 0 277-96 276-271" id="bE"/><path fill="#666" d="M574-1476c351 0 454 237 460 615v240c0 217-37 378-111 483S733 20 576 20c-346 0-454-246-461-616v-247c0-214 37-373 111-477s190-156 348-156zm275 905c0-337 59-752-275-753-95 0-160 38-207 107-80 118-66 409-67 625 0 157 22 273 68 348s115 113 208 113c91 0 160-35 204-106s69-182 69-334" id="bF"/><g id="w"><use transform="matrix(0.007595486111111112,0,0,0.007595486111111112,0,0)" xlink:href="#aX"/><use transform="matrix(0.007595486111111112,0,0,0.007595486111111112,3.7749565972222228,0)" xlink:href="#bc"/><use transform="matrix(0.007595486111111112,0,0,0.007595486111111112,12.646484375000002,0)" xlink:href="#aZ"/><use transform="matrix(0.007595486111111112,0,0,0.007595486111111112,20.788845486111114,0)" xlink:href="#ba"/><use transform="matrix(0.007595486111111112,0,0,0.007595486111111112,29.250217013888893,0)" xlink:href="#aX"/><use transform="matrix(0.007595486111111112,0,0,0.007595486111111112,33.025173611111114,0)" xlink:href="#bC"/><use transform="matrix(0.007595486111111112,0,0,0.007595486111111112,41.59288194444445,0)" xlink:href="#bc"/><use transform="matrix(0.007595486111111112,0,0,0.007595486111111112,50.46440972222223,0)" xlink:href="#bA"/><use transform="matrix(0.007595486111111112,0,0,0.007595486111111112,58.485243055555564,0)" xlink:href="#bb"/><use transform="matrix(0.007595486111111112,0,0,0.007595486111111112,63.56662326388889,0)" xlink:href="#bD"/><use transform="matrix(0.007595486111111112,0,0,0.007595486111111112,67.33398437500001,0)" xlink:href="#bE"/><use transform="matrix(0.007595486111111112,0,0,0.007595486111111112,76.0687934027778,0)" xlink:href="#bF"/><use transform="matrix(0.007595486111111112,0,0,0.007595486111111112,84.80360243055557,0)" xlink:href="#bF"/><use transform="matrix(0.007595486111111112,0,0,0.007595486111111112,93.53841145833334,0)" xlink:href="#bF"/></g><g id="x"><use transform="matrix(0.007595486111111112,0,0,0.007595486111111112,0,0)" xlink:href="#aO"/><use transform="matrix(0.04320987654320988,0,0,0.04320987654320988,7.299262152777779,0)" xlink:href="#aQ"/><use transform="matrix(0.04320987654320988,0,0,0.04320987654320988,15.941237461419755,0)" xlink:href="#bw"/><use transform="matrix(0.04320987654320988,0,0,0.04320987654320988,23.71901523919753,0)" xlink:href="#aQ"/><use transform="matrix(0.04320987654320988,0,0,0.04320987654320988,32.360990547839506,0)" xlink:href="#aT"/><use transform="matrix(0.04320987654320988,0,0,0.04320987654320988,40.138768325617285,0)" xlink:href="#bx"/><use transform="matrix(0.04320987654320988,0,0,0.04320987654320988,48.78074363425927,0)" xlink:href="#bk"/><use transform="matrix(0.04320987654320988,0,0,0.04320987654320988,53.10173128858024,0)" xlink:href="#aS"/><use transform="matrix(0.04320987654320988,0,0,0.04320987654320988,56.51531153549384,0)" xlink:href="#bi"/><use transform="matrix(0.04320987654320988,0,0,0.04320987654320988,65.15728684413581,0)" xlink:href="#bj"/></g><path fill="#666" d="M521 20C240 20 96-239 96-550c0-303 147-552 427-552 132 0 235 47 309 140l9-120h169V-26c4 277-183 454-459 452-165-1-334-81-400-187l96-111c79 98 176 147 291 147 180 1 288-109 286-290v-93C750-23 649 20 521 20zm48-965c-209 0-287 178-287 416 0 217 86 392 285 392 117 0 202-53 257-159v-494c-57-103-142-155-255-155" id="bG"/><g id="y"><use transform="matrix(0.007595486111111112,0,0,0.007595486111111112,0,0)" xlink:href="#bq"/><use transform="matrix(0.007595486111111112,0,0,0.007595486111111112,9.714626736111112,0)" xlink:href="#bc"/><use transform="matrix(0.007595486111111112,0,0,0.007595486111111112,18.586154513888893,0)" xlink:href="#bA"/><use transform="matrix(0.007595486111111112,0,0,0.007595486111111112,26.60698784722223,0)" xlink:href="#bb"/><use transform="matrix(0.007595486111111112,0,0,0.007595486111111112,31.688368055555564,0)" xlink:href="#bG"/><use transform="matrix(0.007595486111111112,0,0,0.007595486111111112,40.41558159722223,0)" xlink:href="#bg"/><use transform="matrix(0.007595486111111112,0,0,0.007595486111111112,45.534939236111114,0)" xlink:href="#bf"/><use transform="matrix(0.007595486111111112,0,0,0.007595486111111112,53.77604166666667,0)" xlink:href="#bA"/><use transform="matrix(0.007595486111111112,0,0,0.007595486111111112,61.79687500000001,0)" xlink:href="#bo"/><use transform="matrix(0.007595486111111112,0,0,0.007595486111111112,71.99761284722223,0)" xlink:href="#by"/></g><path fill="#666" d="M512-137c164 0 267-115 267-285v-1034h193v1031c4 276-186 445-460 445C234 20 52-130 53-402h192c0 167 97 265 267 265" id="bH"/><path fill="#666" d="M1288 0h-193L362-1122V0H169v-1456h193l735 1127v-1127h191V0" id="bI"/><path fill="#666" d="M520 20C244 20 95-247 95-550c0-298 151-550 427-552 127 0 227 43 301 130v-564h185V0H838l-9-116C755-25 652 20 520 20zm48-965c-210 0-288 177-288 416 0 218 87 392 286 392 117 0 203-53 257-158v-497c-55-102-140-153-255-153" id="bJ"/><path fill="#666" d="M494-271l252-811h198L509 167C425 381 299 474 84 421V271c167 16 242-37 283-173l41-110L22-1082h202" id="bK"/><path fill="#666" d="M730-137c145 0 253-29 323-105v-327H716v-156h528v534C1148-51 964 20 729 20c-394 0-598-279-607-678v-127c-5-410 194-690 585-691 310-1 499 171 537 447h-192c-36-193-151-289-344-289-285 0-393 220-393 528v119c-5 296 140 534 415 534" id="bL"/><path fill="#666" d="M703-1476c426 0 599 333 586 795-11 408-187 701-584 701-422 0-587-333-587-793 0-282 106-507 280-617 89-56 190-86 305-86zm2 1333c312 0 393-279 393-632 0-308-116-536-395-536-269 0-394 232-394 523v107c-4 298 123 538 396 538" id="bM"/><g id="z"><use transform="matrix(0.007595486111111112,0,0,0.007595486111111112,0,0)" xlink:href="#bH"/><use transform="matrix(0.007595486111111112,0,0,0.007595486111111112,8.582899305555557,0)" xlink:href="#ba"/><use transform="matrix(0.007595486111111112,0,0,0.007595486111111112,16.93033854166667,0)" xlink:href="#bh"/><use transform="matrix(0.007595486111111112,0,0,0.007595486111111112,24.35112847222223,0)" xlink:href="#ba"/><use transform="matrix(0.007595486111111112,0,0,0.007595486111111112,32.81250000000001,0)" xlink:href="#bs"/><use transform="matrix(0.007595486111111112,0,0,0.007595486111111112,39.223090277777786,0)" xlink:href="#bI"/><use transform="matrix(0.007595486111111112,0,0,0.007595486111111112,50.31250000000001,0)" xlink:href="#bc"/><use transform="matrix(0.007595486111111112,0,0,0.007595486111111112,59.184027777777786,0)" xlink:href="#bJ"/><use transform="matrix(0.007595486111111112,0,0,0.007595486111111112,67.95681423611111,0)" xlink:href="#bf"/><use transform="matrix(0.007595486111111112,0,0,0.007595486111111112,76.19791666666667,0)" xlink:href="#bH"/><use transform="matrix(0.007595486111111112,0,0,0.007595486111111112,84.78081597222223,0)" xlink:href="#be"/><use transform="matrix(0.007595486111111112,0,0,0.007595486111111112,94.00933159722223,0)" xlink:href="#bs"/><use transform="matrix(0.007595486111111112,0,0,0.007595486111111112,100.419921875,0)" xlink:href="#bq"/><use transform="matrix(0.007595486111111112,0,0,0.007595486111111112,110.34722222222223,0)" xlink:href="#bK"/><use transform="matrix(0.007595486111111112,0,0,0.007595486111111112,117.7072482638889,0)" xlink:href="#bb"/><use transform="matrix(0.007595486111111112,0,0,0.007595486111111112,122.78862847222223,0)" xlink:href="#bC"/><use transform="matrix(0.007595486111111112,0,0,0.007595486111111112,131.35633680555557,0)" xlink:href="#bc"/><use transform="matrix(0.007595486111111112,0,0,0.007595486111111112,140.22786458333334,0)" xlink:href="#bd"/><use transform="matrix(0.007595486111111112,0,0,0.007595486111111112,148.8107638888889,0)" xlink:href="#bs"/><use transform="matrix(0.007595486111111112,0,0,0.007595486111111112,155.22135416666669,0)" xlink:href="#bL"/><use transform="matrix(0.007595486111111112,0,0,0.007595486111111112,165.81705729166669,0)" xlink:href="#bM"/></g><path fill="#666" d="M992-673H361v516h733V0H169v-1456h915v158H361v468h631v157" id="bN"/><path fill="#666" d="M503-687l240-395h216L605-547 970 0H756L506-405 256 0H41l365-547-354-535h214" id="bO"/><path fill="#666" d="M1240-945c-141 0-250 95-250 227V0H804v-709c0-157-77-236-231-236-121 0-204 52-249 155V0H139v-1082h175l5 120c79-93 186-140 321-140 151 0 254 58 309 174 69-98 181-174 345-174 237 0 362 126 362 377V0h-185v-714c-2-159-67-231-231-231" id="bP"/><g id="A"><use transform="matrix(0.007595486111111112,0,0,0.007595486111111112,0,0)" xlink:href="#bN"/><use transform="matrix(0.007595486111111112,0,0,0.007595486111111112,8.841145833333334,0)" xlink:href="#bO"/><use transform="matrix(0.007595486111111112,0,0,0.007595486111111112,16.550564236111114,0)" xlink:href="#ba"/><use transform="matrix(0.007595486111111112,0,0,0.007595486111111112,25.011935763888893,0)" xlink:href="#bP"/><use transform="matrix(0.007595486111111112,0,0,0.007595486111111112,38.64583333333334,0)" xlink:href="#aW"/><use transform="matrix(0.007595486111111112,0,0,0.007595486111111112,47.373046875000014,0)" xlink:href="#aX"/><use transform="matrix(0.007595486111111112,0,0,0.007595486111111112,51.148003472222236,0)" xlink:href="#bf"/></g><g id="B"><use transform="matrix(0.007595486111111112,0,0,0.007595486111111112,0,0)" xlink:href="#bu"/><use transform="matrix(0.007595486111111112,0,0,0.007595486111111112,13.580729166666668,0)" xlink:href="#bf"/><use transform="matrix(0.007595486111111112,0,0,0.007595486111111112,21.821831597222225,0)" xlink:href="#bA"/><use transform="matrix(0.007595486111111112,0,0,0.007595486111111112,29.842664930555557,0)" xlink:href="#bA"/><use transform="matrix(0.007595486111111112,0,0,0.007595486111111112,37.86349826388889,0)" xlink:href="#ba"/><use transform="matrix(0.007595486111111112,0,0,0.007595486111111112,46.32486979166667,0)" xlink:href="#bG"/><use transform="matrix(0.007595486111111112,0,0,0.007595486111111112,55.05208333333334,0)" xlink:href="#bf"/><use transform="matrix(0.007595486111111112,0,0,0.007595486111111112,63.29318576388889,0)" xlink:href="#bA"/></g><g id="C"><use transform="matrix(0.007595486111111112,0,0,0.007595486111111112,0,0)" xlink:href="#bA"/><use transform="matrix(0.007595486111111112,0,0,0.007595486111111112,8.020833333333334,0)" xlink:href="#bf"/><use transform="matrix(0.007595486111111112,0,0,0.007595486111111112,16.261935763888893,0)" xlink:href="#bg"/><use transform="matrix(0.007595486111111112,0,0,0.007595486111111112,21.662326388888893,0)" xlink:href="#bh"/><use transform="matrix(0.007595486111111112,0,0,0.007595486111111112,29.197048611111114,0)" xlink:href="#aY"/><use transform="matrix(0.007595486111111112,0,0,0.007595486111111112,32.972005208333336,0)" xlink:href="#aZ"/><use transform="matrix(0.007595486111111112,0,0,0.007595486111111112,41.11436631944445,0)" xlink:href="#bf"/></g><g id="D"><use transform="matrix(0.007595486111111112,0,0,0.007595486111111112,0,0)" xlink:href="#bN"/><use transform="matrix(0.007595486111111112,0,0,0.007595486111111112,8.841145833333334,0)" xlink:href="#bO"/><use transform="matrix(0.007595486111111112,0,0,0.007595486111111112,16.550564236111114,0)" xlink:href="#ba"/><use transform="matrix(0.007595486111111112,0,0,0.007595486111111112,25.011935763888893,0)" xlink:href="#bP"/><use transform="matrix(0.007595486111111112,0,0,0.007595486111111112,38.64583333333334,0)" xlink:href="#aW"/><use transform="matrix(0.007595486111111112,0,0,0.007595486111111112,47.373046875000014,0)" xlink:href="#aX"/><use transform="matrix(0.007595486111111112,0,0,0.007595486111111112,51.148003472222236,0)" xlink:href="#bf"/></g><g id="E"><use transform="matrix(0.007595486111111112,0,0,0.007595486111111112,0,0)" xlink:href="#bu"/><use transform="matrix(0.007595486111111112,0,0,0.007595486111111112,13.580729166666668,0)" xlink:href="#bf"/><use transform="matrix(0.007595486111111112,0,0,0.007595486111111112,21.821831597222225,0)" xlink:href="#bA"/><use transform="matrix(0.007595486111111112,0,0,0.007595486111111112,29.842664930555557,0)" xlink:href="#bA"/><use transform="matrix(0.007595486111111112,0,0,0.007595486111111112,37.86349826388889,0)" xlink:href="#ba"/><use transform="matrix(0.007595486111111112,0,0,0.007595486111111112,46.32486979166667,0)" xlink:href="#bG"/><use transform="matrix(0.007595486111111112,0,0,0.007595486111111112,55.05208333333334,0)" xlink:href="#bf"/><use transform="matrix(0.007595486111111112,0,0,0.007595486111111112,63.29318576388889,0)" xlink:href="#bA"/></g><g id="F"><use transform="matrix(0.007595486111111112,0,0,0.007595486111111112,0,0)" xlink:href="#bo"/><use transform="matrix(0.007595486111111112,0,0,0.007595486111111112,10.200737847222223,0)" xlink:href="#by"/></g><path fill="#666" d="M1161-1018c0 201-122 330-278 388l342 618V0h-206L703-589H361V0H168v-1456h482c310-2 511 139 511 438zm-193 0c0-187-120-280-313-280H361v552h295c179 3 313-101 312-272" id="bQ"/><g id="G"><use transform="matrix(0.007595486111111112,0,0,0.007595486111111112,0,0)" xlink:href="#bQ"/><use transform="matrix(0.007595486111111112,0,0,0.007595486111111112,9.577907986111112,0)" xlink:href="#bf"/><use transform="matrix(0.007595486111111112,0,0,0.007595486111111112,17.81901041666667,0)" xlink:href="#bJ"/><use transform="matrix(0.007595486111111112,0,0,0.007595486111111112,26.591796875000007,0)" xlink:href="#aY"/><use transform="matrix(0.007595486111111112,0,0,0.007595486111111112,30.36675347222223,0)" xlink:href="#bA"/><use transform="matrix(0.007595486111111112,0,0,0.007595486111111112,38.387586805555564,0)" xlink:href="#bo"/><use transform="matrix(0.007595486111111112,0,0,0.007595486111111112,48.588324652777786,0)" xlink:href="#by"/></g><path fill="#666" d="M1281-774c0 326-74 568-255 695l260 204-131 121L848 2C681 41 515 15 391-64 196-188 109-439 109-773c0-282 107-505 279-617 171-112 445-111 616-1 174 112 277 332 277 617zM696-143c312 0 393-279 393-632 0-307-114-536-395-536-268 0-393 232-393 523v107c-3 297 122 538 395 538" id="bR"/><g id="H"><use transform="matrix(0.007595486111111112,0,0,0.007595486111111112,0,0)" xlink:href="#bQ"/><use transform="matrix(0.007595486111111112,0,0,0.007595486111111112,9.577907986111112,0)" xlink:href="#ba"/><use transform="matrix(0.007595486111111112,0,0,0.007595486111111112,18.039279513888893,0)" xlink:href="#bv"/><use transform="matrix(0.007595486111111112,0,0,0.007595486111111112,26.76649305555556,0)" xlink:href="#bv"/><use transform="matrix(0.007595486111111112,0,0,0.007595486111111112,35.49370659722223,0)" xlink:href="#aY"/><use transform="matrix(0.007595486111111112,0,0,0.007595486111111112,39.26866319444445,0)" xlink:href="#bb"/><use transform="matrix(0.007595486111111112,0,0,0.007595486111111112,44.350043402777786,0)" xlink:href="#bu"/><use transform="matrix(0.007595486111111112,0,0,0.007595486111111112,57.93077256944446,0)" xlink:href="#bR"/></g><path fill="#666" d="M491 20c-241-1-355-148-355-398v-704h185v699c0 164 67 246 200 246 141 0 235-53 282-158v-787h185V0H812l-4-107C736-22 630 20 491 20" id="bS"/><g id="I"><use transform="matrix(0.007595486111111112,0,0,0.007595486111111112,0,0)" xlink:href="#bR"/><use transform="matrix(0.007595486111111112,0,0,0.007595486111111112,10.694444444444446,0)" xlink:href="#bS"/><use transform="matrix(0.007595486111111112,0,0,0.007595486111111112,19.269748263888893,0)" xlink:href="#bf"/><use transform="matrix(0.007595486111111112,0,0,0.007595486111111112,27.51085069444445,0)" xlink:href="#bS"/><use transform="matrix(0.007595486111111112,0,0,0.007595486111111112,36.08615451388889,0)" xlink:href="#bf"/></g><g id="J"><use transform="matrix(0.007595486111111112,0,0,0.007595486111111112,0,0)" xlink:href="#bu"/><use transform="matrix(0.007595486111111112,0,0,0.007595486111111112,13.580729166666668,0)" xlink:href="#bc"/><use transform="matrix(0.007595486111111112,0,0,0.007595486111111112,22.452256944444446,0)" xlink:href="#bv"/><use transform="matrix(0.007595486111111112,0,0,0.007595486111111112,31.179470486111114,0)" xlink:href="#aY"/><use transform="matrix(0.007595486111111112,0,0,0.007595486111111112,34.954427083333336,0)" xlink:href="#aX"/><use transform="matrix(0.007595486111111112,0,0,0.007595486111111112,38.72938368055556,0)" xlink:href="#bf"/></g><g id="K"><use transform="matrix(0.007595486111111112,0,0,0.007595486111111112,0,0)" xlink:href="#bu"/><use transform="matrix(0.007595486111111112,0,0,0.007595486111111112,13.580729166666668,0)" xlink:href="#bc"/><use transform="matrix(0.007595486111111112,0,0,0.007595486111111112,22.452256944444446,0)" xlink:href="#bv"/><use transform="matrix(0.007595486111111112,0,0,0.007595486111111112,31.179470486111114,0)" xlink:href="#aY"/><use transform="matrix(0.007595486111111112,0,0,0.007595486111111112,34.954427083333336,0)" xlink:href="#aX"/><use transform="matrix(0.007595486111111112,0,0,0.007595486111111112,38.72938368055556,0)" xlink:href="#bf"/></g><g id="L"><use transform="matrix(0.007595486111111112,0,0,0.007595486111111112,0,0)" xlink:href="#aV"/><use transform="matrix(0.007595486111111112,0,0,0.007595486111111112,10.147569444444445,0)" xlink:href="#aW"/><use transform="matrix(0.007595486111111112,0,0,0.007595486111111112,18.874782986111114,0)" xlink:href="#aW"/></g><g id="M"><use transform="matrix(0.007595486111111112,0,0,0.007595486111111112,0,0)" xlink:href="#aV"/><use transform="matrix(0.007595486111111112,0,0,0.007595486111111112,10.147569444444445,0)" xlink:href="#aW"/><use transform="matrix(0.007595486111111112,0,0,0.007595486111111112,18.874782986111114,0)" xlink:href="#aW"/><use transform="matrix(0.007595486111111112,0,0,0.007595486111111112,27.601996527777782,0)" xlink:href="#aX"/><use transform="matrix(0.007595486111111112,0,0,0.007595486111111112,31.376953125000004,0)" xlink:href="#aY"/><use transform="matrix(0.007595486111111112,0,0,0.007595486111111112,35.15190972222223,0)" xlink:href="#aZ"/><use transform="matrix(0.007595486111111112,0,0,0.007595486111111112,43.29427083333334,0)" xlink:href="#ba"/><use transform="matrix(0.007595486111111112,0,0,0.007595486111111112,51.75564236111112,0)" xlink:href="#bb"/><use transform="matrix(0.007595486111111112,0,0,0.007595486111111112,56.83702256944446,0)" xlink:href="#aY"/><use transform="matrix(0.007595486111111112,0,0,0.007595486111111112,60.61197916666668,0)" xlink:href="#bc"/><use transform="matrix(0.007595486111111112,0,0,0.007595486111111112,69.48350694444446,0)" xlink:href="#bd"/></g><g id="N"><use transform="matrix(0.007595486111111112,0,0,0.007595486111111112,0,0)" xlink:href="#by"/><use transform="matrix(0.007595486111111112,0,0,0.007595486111111112,9.684244791666668,0)" xlink:href="#ba"/><use transform="matrix(0.007595486111111112,0,0,0.007595486111111112,18.145616319444446,0)" xlink:href="#bb"/><use transform="matrix(0.007595486111111112,0,0,0.007595486111111112,23.22699652777778,0)" xlink:href="#aZ"/><use transform="matrix(0.007595486111111112,0,0,0.007595486111111112,31.369357638888893,0)" xlink:href="#bC"/></g><g id="O"><use transform="matrix(0.007595486111111112,0,0,0.007595486111111112,0,0)" xlink:href="#bN"/><use transform="matrix(0.007595486111111112,0,0,0.007595486111111112,8.841145833333334,0)" xlink:href="#aX"/><use transform="matrix(0.007595486111111112,0,0,0.007595486111111112,12.616102430555557,0)" xlink:href="#ba"/><use transform="matrix(0.007595486111111112,0,0,0.007595486111111112,21.077473958333336,0)" xlink:href="#bA"/><use transform="matrix(0.007595486111111112,0,0,0.007595486111111112,29.09830729166667,0)" xlink:href="#bb"/><use transform="matrix(0.007595486111111112,0,0,0.007595486111111112,34.17968750000001,0)" xlink:href="#aY"/><use transform="matrix(0.007595486111111112,0,0,0.007595486111111112,37.95464409722223,0)" xlink:href="#aZ"/><use transform="matrix(0.007595486111111112,0,0,0.007595486111111112,46.09700520833334,0)" xlink:href="#be"/><use transform="matrix(0.007595486111111112,0,0,0.007595486111111112,55.32552083333334,0)" xlink:href="#bf"/><use transform="matrix(0.007595486111111112,0,0,0.007595486111111112,63.56662326388889,0)" xlink:href="#ba"/><use transform="matrix(0.007595486111111112,0,0,0.007595486111111112,72.02799479166669,0)" xlink:href="#bg"/><use transform="matrix(0.007595486111111112,0,0,0.007595486111111112,77.14735243055557,0)" xlink:href="#aZ"/><use transform="matrix(0.007595486111111112,0,0,0.007595486111111112,85.28971354166669,0)" xlink:href="#bC"/></g><g id="P"><use transform="matrix(0.007595486111111112,0,0,0.007595486111111112,0,0)" xlink:href="#bt"/><use transform="matrix(0.007595486111111112,0,0,0.007595486111111112,8.370225694444445,0)" xlink:href="#bc"/><use transform="matrix(0.007595486111111112,0,0,0.007595486111111112,17.24175347222222,0)" xlink:href="#bG"/><use transform="matrix(0.007595486111111112,0,0,0.007595486111111112,25.96896701388889,0)" xlink:href="#bG"/><use transform="matrix(0.007595486111111112,0,0,0.007595486111111112,34.69618055555556,0)" xlink:href="#aY"/><use transform="matrix(0.007595486111111112,0,0,0.007595486111111112,38.47113715277778,0)" xlink:href="#bd"/><use transform="matrix(0.007595486111111112,0,0,0.007595486111111112,47.054036458333336,0)" xlink:href="#bG"/></g><path fill="#666" d="M24 0v-261h32V0H24" id="bT"/><g id="Q"><use transform="matrix(0.007595486111111112,0,0,0.007595486111111112,0,0)" xlink:href="#aO"/><use transform="matrix(0.04320987654320988,0,0,0.04320987654320988,7.299262152777779,0)" xlink:href="#bB"/><use transform="matrix(0.04320987654320988,0,0,0.04320987654320988,15.941237461419755,0)" xlink:href="#bm"/><use transform="matrix(0.04320987654320988,0,0,0.04320987654320988,21.08321277006173,0)" xlink:href="#bi"/><use transform="matrix(0.04320987654320988,0,0,0.04320987654320988,29.725188078703713,0)" xlink:href="#bk"/><use transform="matrix(0.04320987654320988,0,0,0.04320987654320988,34.0461757330247,0)" xlink:href="#bi"/><use transform="matrix(0.04320987654320988,0,0,0.04320987654320988,42.68815104166667,0)" xlink:href="#aT"/><use transform="matrix(0.04320987654320988,0,0,0.04320987654320988,50.46592881944445,0)" xlink:href="#bi"/><use transform="matrix(0.04320987654320988,0,0,0.04320987654320988,59.107904128086425,0)" xlink:href="#bT"/><use transform="matrix(0.007595486111111112,0,0,0.007595486111111112,62.52148437500001,0)" xlink:href="#aU"/></g><path fill="#666" d="M483-459l28 192 41-173 288-1016h162l281 1016 40 176 31-196 226-996h193L1420 0h-175L945-1061l-23-111-23 111L588 0H413L61-1456h192" id="bU"/><g id="R"><use transform="matrix(0.007595486111111112,0,0,0.007595486111111112,0,0)" xlink:href="#bU"/><use transform="matrix(0.007595486111111112,0,0,0.007595486111111112,13.565538194444446,0)" xlink:href="#bf"/><use transform="matrix(0.007595486111111112,0,0,0.007595486111111112,21.806640625000004,0)" xlink:href="#bv"/><use transform="matrix(0.007595486111111112,0,0,0.007595486111111112,30.53385416666667,0)" xlink:href="#be"/><use transform="matrix(0.007595486111111112,0,0,0.007595486111111112,39.76236979166667,0)" xlink:href="#bc"/><use transform="matrix(0.007595486111111112,0,0,0.007595486111111112,48.63389756944445,0)" xlink:href="#aZ"/><use transform="matrix(0.007595486111111112,0,0,0.007595486111111112,56.776258680555564,0)" xlink:href="#bp"/><use transform="matrix(0.007595486111111112,0,0,0.007595486111111112,64.50846354166667,0)" xlink:href="#bf"/><use transform="matrix(0.007595486111111112,0,0,0.007595486111111112,72.74956597222223,0)" xlink:href="#bb"/></g><path fill="#666" d="M1288 0h-193v-673H361V0H169v-1456h192v626h734v-626h193V0" id="bV"/><path fill="#666" d="M1175-1298H707V0H516v-1298H49v-158h1126v158" id="bW"/><g id="S"><use transform="matrix(0.007595486111111112,0,0,0.007595486111111112,0,0)" xlink:href="#bV"/><use transform="matrix(0.007595486111111112,0,0,0.007595486111111112,10.869140625000002,0)" xlink:href="#bW"/><use transform="matrix(0.007595486111111112,0,0,0.007595486111111112,20.272352430555557,0)" xlink:href="#bW"/><use transform="matrix(0.007595486111111112,0,0,0.007595486111111112,29.554036458333336,0)" xlink:href="#bq"/><use transform="matrix(0.007595486111111112,0,0,0.007595486111111112,39.36740451388889,0)" xlink:href="#bs"/><use transform="matrix(0.007595486111111112,0,0,0.007595486111111112,45.77799479166667,0)" xlink:href="#bU"/><use transform="matrix(0.007595486111111112,0,0,0.007595486111111112,59.34353298611112,0)" xlink:href="#bf"/><use transform="matrix(0.007595486111111112,0,0,0.007595486111111112,67.58463541666669,0)" xlink:href="#bv"/><use transform="matrix(0.007595486111111112,0,0,0.007595486111111112,76.31184895833336,0)" xlink:href="#be"/><use transform="matrix(0.007595486111111112,0,0,0.007595486111111112,85.54036458333336,0)" xlink:href="#bc"/><use transform="matrix(0.007595486111111112,0,0,0.007595486111111112,94.41189236111114,0)" xlink:href="#aZ"/><use transform="matrix(0.007595486111111112,0,0,0.007595486111111112,102.55425347222226,0)" xlink:href="#bp"/><use transform="matrix(0.007595486111111112,0,0,0.007595486111111112,110.28645833333336,0)" xlink:href="#bf"/><use transform="matrix(0.007595486111111112,0,0,0.007595486111111112,118.52756076388891,0)" xlink:href="#bb"/></g><g id="T"><use transform="matrix(0.007595486111111112,0,0,0.007595486111111112,0,0)" xlink:href="#bV"/><use transform="matrix(0.007595486111111112,0,0,0.007595486111111112,10.869140625000002,0)" xlink:href="#bW"/><use transform="matrix(0.007595486111111112,0,0,0.007595486111111112,20.272352430555557,0)" xlink:href="#bW"/><use transform="matrix(0.007595486111111112,0,0,0.007595486111111112,29.554036458333336,0)" xlink:href="#bq"/></g><path fill="#666" d="M375 0H183v-1456h192V0" id="bX"/><path fill="#666" d="M134 290L29 218c97-132 105-239 98-437h181c1 144 5 239-50 347-34 67-74 121-124 162" id="bY"/><g id="U"><use transform="matrix(0.007595486111111112,0,0,0.007595486111111112,0,0)" xlink:href="#bW"/><use transform="matrix(0.007595486111111112,0,0,0.007595486111111112,9.069010416666668,0)" xlink:href="#br"/><use transform="matrix(0.007595486111111112,0,0,0.007595486111111112,19.19379340277778,0)" xlink:href="#bq"/><use transform="matrix(0.007595486111111112,0,0,0.007595486111111112,29.007161458333336,0)" xlink:href="#bs"/><use transform="matrix(0.007595486111111112,0,0,0.007595486111111112,35.417751736111114,0)" xlink:href="#bX"/><use transform="matrix(0.007595486111111112,0,0,0.007595486111111112,39.6484375,0)" xlink:href="#bq"/><use transform="matrix(0.007595486111111112,0,0,0.007595486111111112,47.00086805555556,0)" xlink:href="#bY"/></g><path fill="#666" d="M524 20C238 18 95-240 95-550c0-307 146-552 431-552 128 0 229 43 303 129l8-109h170V416H822v-516C747-20 648 20 524 20zm48-970c-208 0-292 182-292 421 0 219 92 398 290 398 110 0 194-49 252-146v-530c-59-95-142-143-250-143" id="bZ"/><g id="V"><use transform="matrix(0.007595486111111112,0,0,0.007595486111111112,0,0)" xlink:href="#aW"/><use transform="matrix(0.007595486111111112,0,0,0.007595486111111112,8.727213541666668,0)" xlink:href="#bc"/><use transform="matrix(0.007595486111111112,0,0,0.007595486111111112,17.598741319444446,0)" xlink:href="#bA"/><use transform="matrix(0.007595486111111112,0,0,0.007595486111111112,25.61957465277778,0)" xlink:href="#bb"/><use transform="matrix(0.007595486111111112,0,0,0.007595486111111112,30.700954861111114,0)" xlink:href="#bG"/><use transform="matrix(0.007595486111111112,0,0,0.007595486111111112,39.428168402777786,0)" xlink:href="#bg"/><use transform="matrix(0.007595486111111112,0,0,0.007595486111111112,44.54752604166667,0)" xlink:href="#bf"/><use transform="matrix(0.007595486111111112,0,0,0.007595486111111112,52.78862847222223,0)" xlink:href="#bA"/><use transform="matrix(0.007595486111111112,0,0,0.007595486111111112,60.809461805555564,0)" xlink:href="#bZ"/><use transform="matrix(0.007595486111111112,0,0,0.007595486111111112,69.6506076388889,0)" xlink:href="#aX"/></g><g id="X"><use transform="matrix(0.007595486111111112,0,0,0.007595486111111112,0,0)" xlink:href="#bQ"/><use transform="matrix(0.007595486111111112,0,0,0.007595486111111112,9.577907986111112,0)" xlink:href="#bN"/><use transform="matrix(0.007595486111111112,0,0,0.007595486111111112,18.419053819444446,0)" xlink:href="#be"/><use transform="matrix(0.007595486111111112,0,0,0.007595486111111112,27.64756944444445,0)" xlink:href="#bq"/></g><g id="Y"><use transform="matrix(0.007595486111111112,0,0,0.007595486111111112,0,0)" xlink:href="#aV"/><use transform="matrix(0.007595486111111112,0,0,0.007595486111111112,10.147569444444445,0)" xlink:href="#bu"/><use transform="matrix(0.007595486111111112,0,0,0.007595486111111112,23.728298611111114,0)" xlink:href="#bR"/><use transform="matrix(0.007595486111111112,0,0,0.007595486111111112,34.42274305555556,0)" xlink:href="#bq"/></g></defs></g></svg>