<svg xmlns="http://www.w3.org/2000/svg" xmlns:xlink="http://www.w3.org/1999/xlink" xmlns:lucid="lucid" width="1760" height="1360"><g transform="translate(0 0)" lucid:page-tab-id="0_0"><path d="M0 0h1760v1360H0z" fill="#fff"/><path d="M320 205c0-2.76 2.24-5 5-5h422.5c2.76 0 5 2.24 5 5v264c0 2.76-2.24 5-5 5H325c-2.76 0-5-2.24-5-5z" fill="#fff"/><path d="M320 272h432.5v32H320zM320 336h432.5v32H320zM320 421h432.5v53H320z" fill="#e6e6e6"/><path d="M320 200h432.5v40H320z" fill="#ccc"/><path d="M320 205c0-2.76 2.24-5 5-5h422.5c2.76 0 5 2.24 5 5v264c0 2.76-2.24 5-5 5H325c-2.76 0-5-2.24-5-5zM320 240h432.5M364 240v234M551.25 240v234" stroke="#333" stroke-width="2" fill="none"/><use xlink:href="#a" transform="matrix(1,0,0,1,330,200) translate(176.90123456790124 24.444444444444443)"/><use xlink:href="#b" transform="matrix(1,0,0,1,325,242.5) translate(4.524999999999999 17.1)"/><use xlink:href="#c" transform="matrix(1,0,0,1,369,242.5) translate(0 17.1)"/><use xlink:href="#d" transform="matrix(1,0,0,1,556.2492582605372,242.5) translate(0 17.1)"/><use xlink:href="#e" transform="matrix(1,0,0,1,325,274.5) translate(5.049999999999999 17.1)"/><use xlink:href="#f" transform="matrix(1,0,0,1,369,274.5) translate(0 17.1)"/><use xlink:href="#g" transform="matrix(1,0,0,1,556.2492582605372,274.5) translate(0 17.1)"/><use xlink:href="#h" transform="matrix(1,0,0,1,369,306.5) translate(0 17.1)"/><use xlink:href="#i" transform="matrix(1,0,0,1,556.2492582605372,306.5) translate(0 17.1)"/><use xlink:href="#j" transform="matrix(1,0,0,1,369,338.5) translate(0 17.1)"/><use xlink:href="#k" transform="matrix(1,0,0,1,556.2492582605372,338.5) translate(0 17.1)"/><use xlink:href="#l" transform="matrix(1,0,0,1,369,370.5) translate(0 27.6)"/><use xlink:href="#m" transform="matrix(1,0,0,1,556.2492582605372,370.5) translate(0 16.799999999999997)"/><use xlink:href="#n" transform="matrix(1,0,0,1,556.2492582605372,370.5) translate(94.85000000000001 16.799999999999997)"/><use xlink:href="#o" transform="matrix(1,0,0,1,556.2492582605372,370.5) translate(0 38.4)"/><use xlink:href="#p" transform="matrix(1,0,0,1,556.2492582605372,370.5) translate(41.95 38.4)"/><use xlink:href="#q" transform="matrix(1,0,0,1,369,423.5) translate(0 27.6)"/><use xlink:href="#m" transform="matrix(1,0,0,1,556.2492582605372,423.5) translate(0 16.799999999999997)"/><use xlink:href="#n" transform="matrix(1,0,0,1,556.2492582605372,423.5) translate(94.85000000000001 16.799999999999997)"/><use xlink:href="#o" transform="matrix(1,0,0,1,556.2492582605372,423.5) translate(0 38.4)"/><use xlink:href="#p" transform="matrix(1,0,0,1,556.2492582605372,423.5) translate(41.95 38.4)"/><path d="M453.15 88c0-4.42 3.58-8 8-8h836.75c4.4 0 8 3.58 8 8v25.16c0 4.4-3.6 8-8 8H461.15c-4.42 0-8-3.6-8-8z" stroke="#000" stroke-opacity="0" stroke-width="2" fill="#fff" fill-opacity="0"/><use xlink:href="#r" transform="matrix(1,0,0,1,457.14655278534315,84) translate(299.97975308641975 23.657777777777778)"/><path d="M713.5 119.8h337.38M713.54 119.8h-1.03M1050.85 119.8h1.03" stroke="#b2b2b2" stroke-width="2" fill="none"/><path d="M453.15 129.16c0-4.42 3.58-8 8-8h837.7c4.42 0 8 3.58 8 8V132c0 4.42-3.58 8-8 8h-837.7c-4.42 0-8-3.58-8-8z" stroke="#000" stroke-opacity="0" stroke-width="2" fill="#fff" fill-opacity="0"/><use xlink:href="#s" transform="matrix(1,0,0,1,457.1465527853436,125.1552239567824) translate(327.54266460905353 14.917037037037037)"/><use xlink:href="#t" transform="matrix(1,0,0,1,457.1465527853436,125.1552239567824) translate(358.09276748971195 14.917037037037037)"/><use xlink:href="#u" transform="matrix(1,0,0,1,457.1465527853436,125.1552239567824) translate(430.2402983539095 14.917037037037037)"/><use xlink:href="#v" transform="matrix(1,0,0,1,457.1465527853436,125.1552239567824) translate(442.6897839506173 14.917037037037037)"/><use xlink:href="#w" transform="matrix(1,0,0,1,457.1465527853436,125.1552239567824) translate(474.0896810699589 14.917037037037037)"/><use xlink:href="#x" transform="matrix(1,0,0,1,457.1465527853436,125.1552239567824) translate(491.08556584362145 14.917037037037037)"/><path d="M320 586.27c0-2.76 2.24-5 5-5h422.5c2.76 0 5 2.24 5 5v200c0 2.76-2.24 5-5 5H325c-2.76 0-5-2.24-5-5z" fill="#fff"/><path d="M320 653.27h432.5v32H320zM320 738.27h432.5v53H320z" fill="#e6e6e6"/><path d="M320 581.27h432.5v40H320z" fill="#ccc"/><path d="M320 586.27c0-2.76 2.24-5 5-5h422.5c2.76 0 5 2.24 5 5v200c0 2.76-2.24 5-5 5H325c-2.76 0-5-2.24-5-5zM320 621.27h432.5M364 621.27v170M551.25 621.27v170" stroke="#333" stroke-width="2" fill="none"/><use xlink:href="#y" transform="matrix(1,0,0,1,330,581.2693565103307) translate(173.87654320987656 24.444444444444443)"/><use xlink:href="#b" transform="matrix(1,0,0,1,325,623.7693565103307) translate(4.524999999999999 17.1)"/><use xlink:href="#c" transform="matrix(1,0,0,1,369,623.7693565103307) translate(0 17.1)"/><use xlink:href="#g" transform="matrix(1,0,0,1,556.2492582605372,623.7693565103307) translate(0 17.1)"/><use xlink:href="#z" transform="matrix(1,0,0,1,369,655.7693565103307) translate(0 17.1)"/><use xlink:href="#i" transform="matrix(1,0,0,1,556.2492582605372,655.7693565103307) translate(0 17.1)"/><use xlink:href="#l" transform="matrix(1,0,0,1,369,687.7693565103307) translate(0 27.6)"/><use xlink:href="#m" transform="matrix(1,0,0,1,556.2492582605372,687.7693565103307) translate(0 16.799999999999997)"/><use xlink:href="#n" transform="matrix(1,0,0,1,556.2492582605372,687.7693565103307) translate(94.85000000000001 16.799999999999997)"/><use xlink:href="#o" transform="matrix(1,0,0,1,556.2492582605372,687.7693565103307) translate(0 38.4)"/><use xlink:href="#p" transform="matrix(1,0,0,1,556.2492582605372,687.7693565103307) translate(41.95 38.4)"/><use xlink:href="#q" transform="matrix(1,0,0,1,369,740.7693565103307) translate(0 27.6)"/><use xlink:href="#m" transform="matrix(1,0,0,1,556.2492582605372,740.7693565103307) translate(0 16.799999999999997)"/><use xlink:href="#n" transform="matrix(1,0,0,1,556.2492582605372,740.7693565103307) translate(94.85000000000001 16.799999999999997)"/><use xlink:href="#o" transform="matrix(1,0,0,1,556.2492582605372,740.7693565103307) translate(0 38.4)"/><use xlink:href="#p" transform="matrix(1,0,0,1,556.2492582605372,740.7693565103307) translate(41.95 38.4)"/><path d="M1014.36 586.27c0-2.76 2.24-5 5-5h422.5c2.75 0 5 2.24 5 5v200c0 2.76-2.25 5-5 5h-422.5c-2.76 0-5-2.24-5-5z" fill="#fff"/><path d="M1014.36 653.27h432.5v32h-432.5zM1014.36 738.27h432.5v53h-432.5z" fill="#e6e6e6"/><path d="M1014.36 581.27h432.5v40h-432.5z" fill="#ccc"/><path d="M1014.36 586.27c0-2.76 2.24-5 5-5h422.5c2.75 0 5 2.24 5 5v200c0 2.76-2.25 5-5 5h-422.5c-2.76 0-5-2.24-5-5zM1014.36 621.27h432.5M1058.36 621.27v170M1245.6 621.27v170" stroke="#333" stroke-width="2" fill="none"/><use xlink:href="#A" transform="matrix(1,0,0,1,1024.359145852445,581.2693565103307) translate(177.5493827160494 24.444444444444443)"/><use xlink:href="#b" transform="matrix(1,0,0,1,1019.359145852445,623.7693565103307) translate(4.524999999999999 17.1)"/><use xlink:href="#c" transform="matrix(1,0,0,1,1063.359145852445,623.7693565103307) translate(0 17.1)"/><use xlink:href="#g" transform="matrix(1,0,0,1,1250.608404112982,623.7693565103307) translate(0 17.1)"/><use xlink:href="#z" transform="matrix(1,0,0,1,1063.359145852445,655.7693565103307) translate(0 17.1)"/><use xlink:href="#i" transform="matrix(1,0,0,1,1250.608404112982,655.7693565103307) translate(0 17.1)"/><use xlink:href="#l" transform="matrix(1,0,0,1,1063.359145852445,687.7693565103307) translate(0 27.6)"/><use xlink:href="#m" transform="matrix(1,0,0,1,1250.608404112982,687.7693565103307) translate(0 16.799999999999997)"/><use xlink:href="#n" transform="matrix(1,0,0,1,1250.608404112982,687.7693565103307) translate(94.85000000000001 16.799999999999997)"/><use xlink:href="#o" transform="matrix(1,0,0,1,1250.608404112982,687.7693565103307) translate(0 38.4)"/><use xlink:href="#p" transform="matrix(1,0,0,1,1250.608404112982,687.7693565103307) translate(41.95 38.4)"/><use xlink:href="#q" transform="matrix(1,0,0,1,1063.359145852445,740.7693565103307) translate(0 27.6)"/><use xlink:href="#m" transform="matrix(1,0,0,1,1250.608404112982,740.7693565103307) translate(0 16.799999999999997)"/><use xlink:href="#n" transform="matrix(1,0,0,1,1250.608404112982,740.7693565103307) translate(94.85000000000001 16.799999999999997)"/><use xlink:href="#o" transform="matrix(1,0,0,1,1250.608404112982,740.7693565103307) translate(0 38.4)"/><use xlink:href="#p" transform="matrix(1,0,0,1,1250.608404112982,740.7693565103307) translate(41.95 38.4)"/><path d="M1014.36 205c0-2.76 2.24-5 5-5h422.5c2.75 0 5 2.24 5 5v232c0 2.76-2.25 5-5 5h-422.5c-2.76 0-5-2.24-5-5z" fill="#fff"/><path d="M1014.36 272h432.5v32h-432.5zM1014.36 336h432.5v53h-432.5z" fill="#e6e6e6"/><path d="M1014.36 200h432.5v40h-432.5z" fill="#ccc"/><path d="M1014.36 205c0-2.76 2.24-5 5-5h422.5c2.75 0 5 2.24 5 5v232c0 2.76-2.25 5-5 5h-422.5c-2.76 0-5-2.24-5-5zM1014.36 240h432.5M1109.5 240v202M1245.6 240v202" stroke="#333" stroke-width="2" fill="none"/><use xlink:href="#B" transform="matrix(1,0,0,1,1024.359145852445,200) translate(159.70987654320987 24.444444444444443)"/><use xlink:href="#C" transform="matrix(1,0,0,1,1019.359145852445,242.5) translate(16.074999999999996 17.1)"/><use xlink:href="#c" transform="matrix(1,0,0,1,1114.5111773072288,242.5) translate(0 17.1)"/><use xlink:href="#d" transform="matrix(1,0,0,1,1250.6084041129823,242.5) translate(0 17.1)"/><use xlink:href="#C" transform="matrix(1,0,0,1,1019.359145852445,274.5) translate(16.074999999999996 17.1)"/><use xlink:href="#D" transform="matrix(1,0,0,1,1114.5111773072288,274.5) translate(0 17.1)"/><use xlink:href="#g" transform="matrix(1,0,0,1,1250.6084041129823,274.5) translate(0 17.1)"/><use xlink:href="#E" transform="matrix(1,0,0,1,1114.5111773072288,306.5) translate(0 17.1)"/><use xlink:href="#F" transform="matrix(1,0,0,1,1250.6084041129823,306.5) translate(0 17.1)"/><g><use xlink:href="#l" transform="matrix(1,0,0,1,1114.5111773072288,338.5) translate(0 27.6)"/></g><g><use xlink:href="#m" transform="matrix(1,0,0,1,1250.6084041129823,338.5) translate(0 16.799999999999997)"/><use xlink:href="#n" transform="matrix(1,0,0,1,1250.6084041129823,338.5) translate(94.85000000000001 16.799999999999997)"/><use xlink:href="#o" transform="matrix(1,0,0,1,1250.6084041129823,338.5) translate(0 38.4)"/><use xlink:href="#p" transform="matrix(1,0,0,1,1250.6084041129823,338.5) translate(41.95 38.4)"/></g><g><use xlink:href="#q" transform="matrix(1,0,0,1,1114.5111773072288,391.5) translate(0 27.6)"/></g><g><use xlink:href="#m" transform="matrix(1,0,0,1,1250.6084041129823,391.5) translate(0 16.799999999999997)"/><use xlink:href="#n" transform="matrix(1,0,0,1,1250.6084041129823,391.5) translate(94.85000000000001 16.799999999999997)"/><use xlink:href="#o" transform="matrix(1,0,0,1,1250.6084041129823,391.5) translate(0 38.4)"/><use xlink:href="#p" transform="matrix(1,0,0,1,1250.6084041129823,391.5) translate(41.95 38.4)"/></g><path d="M773.5 255.63h109.74c.1 0 .2.08.2.18 0 .12.07.2.17.2h90.26" stroke="#333" fill="none"/><path d="M773.5 265.63v-20M753.5 255.63h20M1013.14 266l-20-10 20-10M1013.14 256h-20M993.14 256c0 5.52-4.48 10-10 10-5.53 0-10-4.48-10-10s4.47-10 10-10c5.52 0 10 4.48 10 10" stroke="#333" fill="#fff"/><path d="M993.36 637.04h-13c-3.87 0-7-3.13-7-7V288.5c0-.28.22-.5.5-.5" stroke="#333" fill="none"/><path d="M993.36 627.04v20M1013.36 637.04h-20M1013.14 298l-20-10 20-10M1013.14 288h-20M993.14 288c0 5.52-4.48 10-10 10-5.53 0-10-4.48-10-10s4.47-10 10-10c5.52 0 10 4.48 10 10" stroke="#333" fill="#fff"/><path d="M299 637.27h-13c-3.87 0-7-3.13-7-7V292.23c0-.28.22-.5.5-.5" stroke="#333" fill="none"/><path d="M299 627.27v20M319 637.27h-20M318.78 301.73l-20-10 20-10M318.78 291.73h-20M298.78 291.73c0 5.52-4.48 10-10 10-5.53 0-10-4.48-10-10s4.47-10 10-10c5.52 0 10 4.48 10 10" stroke="#333" fill="#fff"/><defs><path fill="#333" d="M85 4C-2 5 27-109 22-190h50c7 57-23 150 33 157 60-5 35-97 40-157h50l1 190h-47c-2-12 1-28-3-38-12 25-28 42-61 42" id="G"/><path fill="#333" d="M137-138c1-29-70-34-71-4 15 46 118 7 119 86 1 83-164 76-172 9l43-7c4 19 20 25 44 25 33 8 57-30 24-41C81-84 22-81 20-136c-2-80 154-74 161-7" id="H"/><path fill="#333" d="M185-48c-13 30-37 53-82 52C43 2 14-33 14-96s30-98 90-98c62 0 83 45 84 108H66c0 31 8 55 39 56 18 0 30-7 34-22zm-45-69c5-46-57-63-70-21-2 6-4 13-4 21h74" id="I"/><path fill="#333" d="M135-150c-39-12-60 13-60 57V0H25l-1-190h47c2 13-1 29 3 40 6-28 27-53 61-41v41" id="J"/><g id="a"><use transform="matrix(0.06172839506172839,0,0,0.06172839506172839,0,0)" xlink:href="#G"/><use transform="matrix(0.06172839506172839,0,0,0.06172839506172839,13.518518518518517,0)" xlink:href="#H"/><use transform="matrix(0.06172839506172839,0,0,0.06172839506172839,25.864197530864196,0)" xlink:href="#I"/><use transform="matrix(0.06172839506172839,0,0,0.06172839506172839,38.20987654320987,0)" xlink:href="#J"/><use transform="matrix(0.06172839506172839,0,0,0.06172839506172839,46.85185185185185,0)" xlink:href="#H"/></g><path fill="#333" d="M24-248c93 1 206-16 204 79-1 75-69 88-152 82V0H24v-248zm52 121c47 0 100 7 100-41 0-47-54-39-100-39v80" id="K"/><path fill="#333" d="M195 0l-88-114-31 24V0H24v-248h52v113l112-113h60L142-143 257 0h-62" id="L"/><g id="b"><use transform="matrix(0.05,0,0,0.05,0,0)" xlink:href="#K"/><use transform="matrix(0.05,0,0,0.05,12,0)" xlink:href="#L"/></g><path fill="#333" d="M25-224v-37h50v37H25zM25 0v-190h50V0H25" id="M"/><path fill="#333" d="M88-194c31-1 46 15 58 34l-1-101h50l1 261h-48c-2-10 0-23-3-31C134-8 116 4 84 4 32 4 16-41 15-95c0-56 19-97 73-99zm17 164c33 0 40-30 41-66 1-37-9-64-41-64s-38 30-39 65c0 43 13 65 39 65" id="N"/><g id="c"><use transform="matrix(0.05,0,0,0.05,0,0)" xlink:href="#M"/><use transform="matrix(0.05,0,0,0.05,5,0)" xlink:href="#N"/></g><g id="d"><use transform="matrix(0.05,0,0,0.05,0,0)" xlink:href="#G"/><use transform="matrix(0.05,0,0,0.05,10.950000000000001,0)" xlink:href="#G"/><use transform="matrix(0.05,0,0,0.05,21.900000000000002,0)" xlink:href="#M"/><use transform="matrix(0.05,0,0,0.05,26.900000000000002,0)" xlink:href="#N"/></g><path fill="#333" d="M76-208v77h127v40H76V0H24v-248h183v40H76" id="O"/><g id="e"><use transform="matrix(0.05,0,0,0.05,0,0)" xlink:href="#O"/><use transform="matrix(0.05,0,0,0.05,10.950000000000001,0)" xlink:href="#L"/></g><path fill="#333" d="M115-3C79 11 28 4 28-45v-112H4v-33h27l15-45h31v45h36v33H77v99c-1 23 16 31 38 25v30" id="P"/><path fill="#333" d="M133-34C117-15 103 5 69 4 32 3 11-16 11-54c-1-60 55-63 116-61 1-26-3-47-28-47-18 1-26 9-28 27l-52-2c7-38 36-58 82-57s74 22 75 68l1 82c-1 14 12 18 25 15v27c-30 8-71 5-69-32zm-48 3c29 0 43-24 42-57-32 0-66-3-65 30 0 17 8 27 23 27" id="Q"/><path fill="#333" d="M-4 44V30h207v14H-4" id="R"/><g id="f"><use transform="matrix(0.05,0,0,0.05,0,0)" xlink:href="#H"/><use transform="matrix(0.05,0,0,0.05,10,0)" xlink:href="#P"/><use transform="matrix(0.05,0,0,0.05,15.949999999999998,0)" xlink:href="#Q"/><use transform="matrix(0.05,0,0,0.05,25.950000000000003,0)" xlink:href="#P"/><use transform="matrix(0.05,0,0,0.05,31.899999999999995,0)" xlink:href="#I"/><use transform="matrix(0.05,0,0,0.05,41.9,0)" xlink:href="#R"/><use transform="matrix(0.05,0,0,0.05,51.900000000000006,0)" xlink:href="#M"/><use transform="matrix(0.05,0,0,0.05,56.900000000000006,0)" xlink:href="#N"/></g><path fill="#333" d="M220-157c-53 9-28 100-34 157h-49v-107c1-27-5-49-29-50C55-147 81-57 75 0H25l-1-190h47c2 12-1 28 3 38 10-53 101-56 108 0 13-22 24-43 59-42 82 1 51 116 57 194h-49v-107c-1-25-5-48-29-50" id="S"/><path fill="#333" d="M25 0v-261h50V0H25" id="T"/><path fill="#333" d="M135-194c87-1 58 113 63 194h-50c-7-57 23-157-34-157-59 0-34 97-39 157H25l-1-190h47c2 12-1 28 3 38 12-26 28-41 61-42" id="U"/><g id="g"><use transform="matrix(0.05,0,0,0.05,0,0)" xlink:href="#H"/><use transform="matrix(0.05,0,0,0.05,10,0)" xlink:href="#S"/><use transform="matrix(0.05,0,0,0.05,26,0)" xlink:href="#Q"/><use transform="matrix(0.05,0,0,0.05,36,0)" xlink:href="#T"/><use transform="matrix(0.05,0,0,0.05,41,0)" xlink:href="#T"/><use transform="matrix(0.05,0,0,0.05,46,0)" xlink:href="#M"/><use transform="matrix(0.05,0,0,0.05,51,0)" xlink:href="#U"/><use transform="matrix(0.05,0,0,0.05,61.95,0)" xlink:href="#P"/></g><g id="h"><use transform="matrix(0.05,0,0,0.05,0,0)" xlink:href="#G"/><use transform="matrix(0.05,0,0,0.05,10.950000000000001,0)" xlink:href="#H"/><use transform="matrix(0.05,0,0,0.05,20.950000000000003,0)" xlink:href="#I"/><use transform="matrix(0.05,0,0,0.05,30.950000000000003,0)" xlink:href="#J"/><use transform="matrix(0.05,0,0,0.05,37.95,0)" xlink:href="#U"/><use transform="matrix(0.05,0,0,0.05,48.900000000000006,0)" xlink:href="#Q"/><use transform="matrix(0.05,0,0,0.05,58.900000000000006,0)" xlink:href="#S"/><use transform="matrix(0.05,0,0,0.05,74.9,0)" xlink:href="#I"/></g><path fill="#333" d="M128 0H69L1-190h53L99-40l48-150h52" id="V"/><path fill="#333" d="M190-63c-7 42-38 67-86 67-59 0-84-38-90-98-12-110 154-137 174-36l-49 2c-2-19-15-32-35-32-30 0-35 28-38 64-6 74 65 87 74 30" id="W"/><path fill="#333" d="M114-157C55-157 80-60 75 0H25v-261h50l-1 109c12-26 28-41 61-42 86-1 58 113 63 194h-50c-7-57 23-157-34-157" id="X"/><path fill="#333" d="M67-93c0 74 22 123 53 168H70C40 30 18-18 18-93s22-123 52-168h50c-32 44-53 94-53 168" id="Y"/><path fill="#333" d="M115-159c48 0 72 30 72 78 0 54-30 85-83 85-64 0-91-50-91-122 0-98 58-163 141-120 15 8 21 24 27 44l-47 6c-5-31-48-31-61-4-7 14-11 33-11 60 9-17 28-27 53-27zM102-35c24 0 36-20 36-45s-11-43-37-43c-23 0-36 14-36 38 0 27 11 50 37 50" id="Z"/><path fill="#333" d="M165-50V0h-47v-50H5v-38l105-160h55v161h33v37h-33zm-47-37l2-116L46-87h72" id="aa"/><path fill="#333" d="M102-93c0 74-22 123-52 168H0C30 29 54-18 53-93c0-74-22-123-53-168h50c30 45 52 94 52 168" id="ab"/><g id="i"><use transform="matrix(0.05,0,0,0.05,0,0)" xlink:href="#V"/><use transform="matrix(0.05,0,0,0.05,10,0)" xlink:href="#Q"/><use transform="matrix(0.05,0,0,0.05,20,0)" xlink:href="#J"/><use transform="matrix(0.05,0,0,0.05,27,0)" xlink:href="#W"/><use transform="matrix(0.05,0,0,0.05,37,0)" xlink:href="#X"/><use transform="matrix(0.05,0,0,0.05,47.95,0)" xlink:href="#Q"/><use transform="matrix(0.05,0,0,0.05,57.95,0)" xlink:href="#J"/><use transform="matrix(0.05,0,0,0.05,64.95,0)" xlink:href="#Y"/><use transform="matrix(0.05,0,0,0.05,70.9,0)" xlink:href="#Z"/><use transform="matrix(0.05,0,0,0.05,80.9,0)" xlink:href="#aa"/><use transform="matrix(0.05,0,0,0.05,90.9,0)" xlink:href="#ab"/></g><g id="j"><use transform="matrix(0.05,0,0,0.05,0,0)" xlink:href="#S"/><use transform="matrix(0.05,0,0,0.05,16,0)" xlink:href="#I"/><use transform="matrix(0.05,0,0,0.05,26,0)" xlink:href="#P"/><use transform="matrix(0.05,0,0,0.05,31.950000000000003,0)" xlink:href="#Q"/></g><path fill="#333" d="M25-224v-37h50v37H25zM75 22c2 45-34 59-81 51V38c22 5 31-5 31-27v-201h50V22" id="ac"/><path fill="#333" d="M110-194c64 0 96 36 96 99 0 64-35 99-97 99-61 0-95-36-95-99 0-62 34-99 96-99zm-1 164c35 0 45-28 45-65 0-40-10-65-43-65-34 0-45 26-45 65 0 36 10 65 43 65" id="ad"/><g id="k"><use transform="matrix(0.05,0,0,0.05,0,0)" xlink:href="#ac"/><use transform="matrix(0.05,0,0,0.05,5,0)" xlink:href="#H"/><use transform="matrix(0.05,0,0,0.05,15,0)" xlink:href="#ad"/><use transform="matrix(0.05,0,0,0.05,25.950000000000003,0)" xlink:href="#U"/></g><g id="l"><use transform="matrix(0.05,0,0,0.05,0,0)" xlink:href="#W"/><use transform="matrix(0.05,0,0,0.05,10,0)" xlink:href="#J"/><use transform="matrix(0.05,0,0,0.05,17,0)" xlink:href="#I"/><use transform="matrix(0.05,0,0,0.05,27,0)" xlink:href="#Q"/><use transform="matrix(0.05,0,0,0.05,37,0)" xlink:href="#P"/><use transform="matrix(0.05,0,0,0.05,42.95,0)" xlink:href="#I"/><use transform="matrix(0.05,0,0,0.05,52.95,0)" xlink:href="#N"/><use transform="matrix(0.05,0,0,0.05,63.900000000000006,0)" xlink:href="#R"/><use transform="matrix(0.05,0,0,0.05,73.9,0)" xlink:href="#Q"/><use transform="matrix(0.05,0,0,0.05,83.9,0)" xlink:href="#P"/></g><path fill="#333" d="M135-194c53 0 70 44 70 98 0 56-19 98-73 100-31 1-45-17-59-34 3 33 2 69 2 105H25l-1-265h48c2 10 0 23 3 31 11-24 29-35 60-35zM114-30c33 0 39-31 40-66 0-38-9-64-40-64-56 0-55 130 0 130" id="ae"/><g id="m"><use transform="matrix(0.05,0,0,0.05,0,0)" xlink:href="#P"/><use transform="matrix(0.05,0,0,0.05,5.95,0)" xlink:href="#M"/><use transform="matrix(0.05,0,0,0.05,10.95,0)" xlink:href="#S"/><use transform="matrix(0.05,0,0,0.05,26.950000000000003,0)" xlink:href="#I"/><use transform="matrix(0.05,0,0,0.05,36.95,0)" xlink:href="#H"/><use transform="matrix(0.05,0,0,0.05,46.95,0)" xlink:href="#P"/><use transform="matrix(0.05,0,0,0.05,52.900000000000006,0)" xlink:href="#Q"/><use transform="matrix(0.05,0,0,0.05,62.900000000000006,0)" xlink:href="#S"/><use transform="matrix(0.05,0,0,0.05,78.9,0)" xlink:href="#ae"/></g><path fill="#333" d="M231 0h-52l-39-155L100 0H48L-1-190h46L77-45c9-52 24-97 36-145h53l37 145 32-145h46" id="af"/><g id="n"><use transform="matrix(0.05,0,0,0.05,0,0)" xlink:href="#af"/><use transform="matrix(0.05,0,0,0.05,14,0)" xlink:href="#M"/><use transform="matrix(0.05,0,0,0.05,19,0)" xlink:href="#P"/><use transform="matrix(0.05,0,0,0.05,24.95,0)" xlink:href="#X"/><use transform="matrix(0.05,0,0,0.05,35.9,0)" xlink:href="#ad"/><use transform="matrix(0.05,0,0,0.05,46.85,0)" xlink:href="#G"/><use transform="matrix(0.05,0,0,0.05,57.800000000000004,0)" xlink:href="#P"/></g><g id="o"><use transform="matrix(0.05,0,0,0.05,0,0)" xlink:href="#P"/><use transform="matrix(0.05,0,0,0.05,5.95,0)" xlink:href="#M"/><use transform="matrix(0.05,0,0,0.05,10.95,0)" xlink:href="#S"/><use transform="matrix(0.05,0,0,0.05,26.950000000000003,0)" xlink:href="#I"/></g><path fill="#333" d="M12 0v-35l95-120H19v-35h142v35L67-36h103V0H12" id="ag"/><g id="p"><use transform="matrix(0.05,0,0,0.05,0,0)" xlink:href="#ag"/><use transform="matrix(0.05,0,0,0.05,9,0)" xlink:href="#ad"/><use transform="matrix(0.05,0,0,0.05,19.950000000000003,0)" xlink:href="#U"/><use transform="matrix(0.05,0,0,0.05,30.900000000000006,0)" xlink:href="#I"/></g><g id="q"><use transform="matrix(0.05,0,0,0.05,0,0)" xlink:href="#G"/><use transform="matrix(0.05,0,0,0.05,10.950000000000001,0)" xlink:href="#ae"/><use transform="matrix(0.05,0,0,0.05,21.900000000000002,0)" xlink:href="#N"/><use transform="matrix(0.05,0,0,0.05,32.85,0)" xlink:href="#Q"/><use transform="matrix(0.05,0,0,0.05,42.85,0)" xlink:href="#P"/><use transform="matrix(0.05,0,0,0.05,48.800000000000004,0)" xlink:href="#I"/><use transform="matrix(0.05,0,0,0.05,58.800000000000004,0)" xlink:href="#N"/><use transform="matrix(0.05,0,0,0.05,69.75,0)" xlink:href="#R"/><use transform="matrix(0.05,0,0,0.05,79.75,0)" xlink:href="#Q"/><use transform="matrix(0.05,0,0,0.05,89.75,0)" xlink:href="#P"/></g><path fill="#b2b2b2" d="M24 0v-248h195v40H76v63h132v40H76v65h150V0H24" id="ah"/><path fill="#b2b2b2" d="M230 0l2-204L168 0h-37L68-204 70 0H24v-248h70l56 185 57-185h69V0h-46" id="ai"/><path fill="#b2b2b2" d="M169-182c-1-43-94-46-97-3 18 66 151 10 154 114 3 95-165 93-204 36-6-8-10-19-12-30l50-8c3 46 112 56 116 5-17-69-150-10-154-114-4-87 153-88 188-35 5 8 8 18 10 28" id="aj"/><path fill="#b2b2b2" d="M-4 44V30h207v14H-4" id="ak"/><path fill="#b2b2b2" d="M24-248c120-7 223 5 221 122C244-46 201 0 124 0H24v-248zM76-40c74 7 117-18 117-86 0-67-45-88-117-82v168" id="al"/><path fill="#b2b2b2" d="M182-130c37 4 62 22 62 59C244 23 116-4 24 0v-248c84 5 203-23 205 63 0 31-19 50-47 55zM76-148c40-3 101 13 101-30 0-44-60-28-101-31v61zm0 110c48-3 116 14 116-37 0-48-69-32-116-35v72" id="am"/><path fill="#b2b2b2" d="M240-174c0 40-23 61-54 70L253 0h-59l-57-94H76V0H24v-248c93 4 217-23 216 74zM76-134c48-2 112 12 112-38 0-48-66-32-112-35v73" id="an"/><path fill="#b2b2b2" d="M23 0v-37h61v-169l-59 37v-38l62-41h46v211h57V0H23" id="ao"/><path fill="#b2b2b2" d="M24 0v-54h51V0H24" id="ap"/><path fill="#b2b2b2" d="M101-251c68 0 84 54 84 127C185-50 166 4 99 4S15-52 14-124c-1-75 17-127 87-127zm-1 216c37-5 36-46 36-89s4-89-36-89c-39 0-36 45-36 89 0 43-3 85 36 89" id="aq"/><g id="r"><use transform="matrix(0.0728395061728395,0,0,0.0728395061728395,0,0)" xlink:href="#ah"/><use transform="matrix(0.0728395061728395,0,0,0.0728395061728395,17.48148148148148,0)" xlink:href="#ai"/><use transform="matrix(0.0728395061728395,0,0,0.0728395061728395,39.26049382716049,0)" xlink:href="#aj"/><use transform="matrix(0.0728395061728395,0,0,0.0728395061728395,56.74197530864197,0)" xlink:href="#ak"/><use transform="matrix(0.0728395061728395,0,0,0.0728395061728395,71.30987654320987,0)" xlink:href="#al"/><use transform="matrix(0.0728395061728395,0,0,0.0728395061728395,90.1753086419753,0)" xlink:href="#am"/><use transform="matrix(0.0728395061728395,0,0,0.0728395061728395,109.04074074074074,0)" xlink:href="#ak"/><use transform="matrix(0.0728395061728395,0,0,0.0728395061728395,123.60864197530864,0)" xlink:href="#ah"/><use transform="matrix(0.0728395061728395,0,0,0.0728395061728395,141.09012345679014,0)" xlink:href="#an"/><use transform="matrix(0.0728395061728395,0,0,0.0728395061728395,159.95555555555558,0)" xlink:href="#al"/><use transform="matrix(0.0728395061728395,0,0,0.0728395061728395,178.82098765432102,0)" xlink:href="#ak"/><use transform="matrix(0.0728395061728395,0,0,0.0728395061728395,193.3888888888889,0)" xlink:href="#ao"/><use transform="matrix(0.0728395061728395,0,0,0.0728395061728395,207.9567901234568,0)" xlink:href="#ap"/><use transform="matrix(0.0728395061728395,0,0,0.0728395061728395,215.24074074074076,0)" xlink:href="#aq"/><use transform="matrix(0.0728395061728395,0,0,0.0728395061728395,229.80864197530866,0)" xlink:href="#ap"/><use transform="matrix(0.0728395061728395,0,0,0.0728395061728395,237.0925925925926,0)" xlink:href="#ao"/></g><path fill="#b2b2b2" d="M33 0v-248h34V0H33" id="ar"/><path fill="#b2b2b2" d="M106-169C34-169 62-67 57 0H25v-261h32l-1 103c12-21 28-36 61-36 89 0 53 116 60 194h-32v-121c2-32-8-49-39-48" id="as"/><path fill="#b2b2b2" d="M100-194c62-1 85 37 85 99 1 63-27 99-86 99S16-35 15-95c0-66 28-99 85-99zM99-20c44 1 53-31 53-75 0-43-8-75-51-75s-53 32-53 75 10 74 51 75" id="at"/><path fill="#b2b2b2" d="M114-163C36-179 61-72 57 0H25l-1-190h30c1 12-1 29 2 39 6-27 23-49 58-41v29" id="au"/><g id="s"><use transform="matrix(0.04248971193415638,0,0,0.04248971193415638,0,0)" xlink:href="#ar"/><use transform="matrix(0.04248971193415638,0,0,0.04248971193415638,4.248971193415637,0)" xlink:href="#as"/><use transform="matrix(0.04248971193415638,0,0,0.04248971193415638,12.746913580246911,0)" xlink:href="#at"/><use transform="matrix(0.04248971193415638,0,0,0.04248971193415638,21.244855967078188,0)" xlink:href="#au"/></g><path fill="#b2b2b2" d="M197 0v-115H63V0H30v-248h33v105h134v-105h34V0h-34" id="av"/><path fill="#b2b2b2" d="M179-190L93 31C79 59 56 82 12 73V49c39 6 53-20 64-50L1-190h34L92-34l54-156h33" id="aw"/><path fill="#b2b2b2" d="M135-143c-3-34-86-38-87 0 15 53 115 12 119 90S17 21 10-45l28-5c4 36 97 45 98 0-10-56-113-15-118-90-4-57 82-63 122-42 12 7 21 19 24 35" id="ax"/><path fill="#b2b2b2" d="M143 0L79-87 56-68V0H24v-261h32v163l83-92h37l-77 82L181 0h-38" id="ay"/><path fill="#b2b2b2" d="M108 0H70L1-190h34L89-25l56-165h34" id="az"/><g id="t"><use transform="matrix(0.04248971193415638,0,0,0.04248971193415638,0,0)" xlink:href="#av"/><use transform="matrix(0.04248971193415638,0,0,0.04248971193415638,11.004835390946502,0)" xlink:href="#au"/><use transform="matrix(0.04248971193415638,0,0,0.04248971193415638,16.06111111111111,0)" xlink:href="#aw"/><use transform="matrix(0.04248971193415638,0,0,0.04248971193415638,23.70925925925926,0)" xlink:href="#ax"/><use transform="matrix(0.04248971193415638,0,0,0.04248971193415638,31.357407407407408,0)" xlink:href="#as"/><use transform="matrix(0.04248971193415638,0,0,0.04248971193415638,39.855349794238684,0)" xlink:href="#ay"/><use transform="matrix(0.04248971193415638,0,0,0.04248971193415638,47.50349794238683,0)" xlink:href="#at"/><use transform="matrix(0.04248971193415638,0,0,0.04248971193415638,56.001440329218106,0)" xlink:href="#az"/></g><path fill="#b2b2b2" d="M32 76v-337h29V76H32" id="aA"/><use transform="matrix(0.04248971193415638,0,0,0.04248971193415638,0,0)" xlink:href="#aA" id="u"/><path fill="#b2b2b2" d="M153-248C145-148 188 4 80 4 36 3 13-21 6-62l32-5c4 25 16 42 43 43 27 0 39-20 39-49v-147H72v-28h81" id="aB"/><path fill="#b2b2b2" d="M84 4C-5 8 30-112 23-190h32v120c0 31 7 50 39 49 72-2 45-101 50-169h31l1 190h-30c-1-10 1-25-2-33-11 22-28 36-60 37" id="aC"/><path fill="#b2b2b2" d="M24 0v-261h32V0H24" id="aD"/><g id="v"><use transform="matrix(0.04248971193415638,0,0,0.04248971193415638,0,0)" xlink:href="#aB"/><use transform="matrix(0.04248971193415638,0,0,0.04248971193415638,7.648148148148148,0)" xlink:href="#aC"/><use transform="matrix(0.04248971193415638,0,0,0.04248971193415638,16.14609053497942,0)" xlink:href="#aD"/><use transform="matrix(0.04248971193415638,0,0,0.04248971193415638,19.502777777777776,0)" xlink:href="#aw"/></g><path fill="#b2b2b2" d="M54-142c48-35 137-8 131 61C196 18 31 33 14-55l32-4c7 23 22 37 52 37 35-1 51-22 54-58 4-55-73-65-99-34H22l8-134h141v27H59" id="aE"/><path fill="#b2b2b2" d="M68-38c1 34 0 65-14 84H32c9-13 17-26 17-46H33v-38h35" id="aF"/><g id="w"><use transform="matrix(0.04248971193415638,0,0,0.04248971193415638,0,0)" xlink:href="#aE"/><use transform="matrix(0.04248971193415638,0,0,0.04248971193415638,8.497942386831275,0)" xlink:href="#aF"/></g><path fill="#b2b2b2" d="M101-251c82-7 93 87 43 132L82-64C71-53 59-42 53-27h129V0H18c2-99 128-94 128-182 0-28-16-43-45-43s-46 15-49 41l-32-3c6-41 34-60 81-64" id="aG"/><path fill="#b2b2b2" d="M101-251c68 0 85 55 85 127S166 4 100 4C33 4 14-52 14-124c0-73 17-127 87-127zm-1 229c47 0 54-49 54-102s-4-102-53-102c-51 0-55 48-55 102 0 53 5 102 54 102" id="aH"/><g id="x"><use transform="matrix(0.04248971193415638,0,0,0.04248971193415638,0,0)" xlink:href="#aG"/><use transform="matrix(0.04248971193415638,0,0,0.04248971193415638,8.497942386831275,0)" xlink:href="#aH"/><use transform="matrix(0.04248971193415638,0,0,0.04248971193415638,16.99588477366255,0)" xlink:href="#aG"/><use transform="matrix(0.04248971193415638,0,0,0.04248971193415638,25.493827160493822,0)" xlink:href="#aH"/></g><g id="y"><use transform="matrix(0.06172839506172839,0,0,0.06172839506172839,0,0)" xlink:href="#H"/><use transform="matrix(0.06172839506172839,0,0,0.06172839506172839,12.345679012345679,0)" xlink:href="#P"/><use transform="matrix(0.06172839506172839,0,0,0.06172839506172839,19.691358024691358,0)" xlink:href="#Q"/><use transform="matrix(0.06172839506172839,0,0,0.06172839506172839,32.03703703703704,0)" xlink:href="#P"/><use transform="matrix(0.06172839506172839,0,0,0.06172839506172839,39.382716049382715,0)" xlink:href="#G"/><use transform="matrix(0.06172839506172839,0,0,0.06172839506172839,52.901234567901234,0)" xlink:href="#H"/></g><g id="z"><use transform="matrix(0.05,0,0,0.05,0,0)" xlink:href="#U"/><use transform="matrix(0.05,0,0,0.05,10.950000000000001,0)" xlink:href="#Q"/><use transform="matrix(0.05,0,0,0.05,20.950000000000003,0)" xlink:href="#S"/><use transform="matrix(0.05,0,0,0.05,36.95,0)" xlink:href="#I"/></g><path fill="#333" d="M123 10C108 53 80 86 19 72V37c35 8 53-11 59-39L3-190h52l48 148c12-52 28-100 44-148h51" id="aI"/><g id="A"><use transform="matrix(0.06172839506172839,0,0,0.06172839506172839,0,0)" xlink:href="#P"/><use transform="matrix(0.06172839506172839,0,0,0.06172839506172839,7.345679012345679,0)" xlink:href="#aI"/><use transform="matrix(0.06172839506172839,0,0,0.06172839506172839,19.691358024691358,0)" xlink:href="#ae"/><use transform="matrix(0.06172839506172839,0,0,0.06172839506172839,33.20987654320987,0)" xlink:href="#I"/><use transform="matrix(0.06172839506172839,0,0,0.06172839506172839,45.55555555555555,0)" xlink:href="#H"/></g><g id="B"><use transform="matrix(0.06172839506172839,0,0,0.06172839506172839,0,0)" xlink:href="#W"/><use transform="matrix(0.06172839506172839,0,0,0.06172839506172839,12.345679012345679,0)" xlink:href="#ad"/><use transform="matrix(0.06172839506172839,0,0,0.06172839506172839,25.864197530864196,0)" xlink:href="#G"/><use transform="matrix(0.06172839506172839,0,0,0.06172839506172839,39.382716049382715,0)" xlink:href="#U"/><use transform="matrix(0.06172839506172839,0,0,0.06172839506172839,52.901234567901234,0)" xlink:href="#P"/><use transform="matrix(0.06172839506172839,0,0,0.06172839506172839,60.24691358024691,0)" xlink:href="#I"/><use transform="matrix(0.06172839506172839,0,0,0.06172839506172839,72.5925925925926,0)" xlink:href="#J"/><use transform="matrix(0.06172839506172839,0,0,0.06172839506172839,81.23456790123457,0)" xlink:href="#H"/></g><path fill="#333" d="M76-54c-1 42 2 86-19 110H24C36 42 46 24 48 0H25v-54h51" id="aJ"/><g id="C"><use transform="matrix(0.05,0,0,0.05,0,0)" xlink:href="#K"/><use transform="matrix(0.05,0,0,0.05,12,0)" xlink:href="#L"/><use transform="matrix(0.05,0,0,0.05,24.950000000000003,0)" xlink:href="#aJ"/><use transform="matrix(0.05,0,0,0.05,29.950000000000003,0)" xlink:href="#O"/><use transform="matrix(0.05,0,0,0.05,40.900000000000006,0)" xlink:href="#L"/></g><g id="D"><use transform="matrix(0.05,0,0,0.05,0,0)" xlink:href="#P"/><use transform="matrix(0.05,0,0,0.05,5.95,0)" xlink:href="#aI"/><use transform="matrix(0.05,0,0,0.05,15.949999999999998,0)" xlink:href="#ae"/><use transform="matrix(0.05,0,0,0.05,26.899999999999995,0)" xlink:href="#I"/><use transform="matrix(0.05,0,0,0.05,36.9,0)" xlink:href="#R"/><use transform="matrix(0.05,0,0,0.05,46.9,0)" xlink:href="#M"/><use transform="matrix(0.05,0,0,0.05,51.900000000000006,0)" xlink:href="#N"/></g><g id="E"><use transform="matrix(0.05,0,0,0.05,0,0)" xlink:href="#W"/><use transform="matrix(0.05,0,0,0.05,10,0)" xlink:href="#ad"/><use transform="matrix(0.05,0,0,0.05,20.950000000000003,0)" xlink:href="#G"/><use transform="matrix(0.05,0,0,0.05,31.900000000000006,0)" xlink:href="#U"/><use transform="matrix(0.05,0,0,0.05,42.85000000000001,0)" xlink:href="#P"/><use transform="matrix(0.05,0,0,0.05,48.80000000000001,0)" xlink:href="#H"/></g><path fill="#333" d="M23 0v-37h61v-169l-59 37v-38l62-41h46v211h57V0H23" id="aK"/><path fill="#333" d="M101-251c68 0 84 54 84 127C185-50 166 4 99 4S15-52 14-124c-1-75 17-127 87-127zm-1 216c37-5 36-46 36-89s4-89-36-89c-39 0-36 45-36 89 0 43-3 85 36 89" id="aL"/><path fill="#333" d="M182-182c0 78-84 86-111 141h115V0H12c-6-101 99-100 120-180 1-22-12-31-33-32-23 0-32 14-35 34l-49-3c5-45 32-70 84-70 51 0 83 22 83 69" id="aM"/><g id="F"><use transform="matrix(0.05,0,0,0.05,0,0)" xlink:href="#U"/><use transform="matrix(0.05,0,0,0.05,10.950000000000001,0)" xlink:href="#G"/><use transform="matrix(0.05,0,0,0.05,21.900000000000002,0)" xlink:href="#S"/><use transform="matrix(0.05,0,0,0.05,37.900000000000006,0)" xlink:href="#I"/><use transform="matrix(0.05,0,0,0.05,47.900000000000006,0)" xlink:href="#J"/><use transform="matrix(0.05,0,0,0.05,54.900000000000006,0)" xlink:href="#M"/><use transform="matrix(0.05,0,0,0.05,59.900000000000006,0)" xlink:href="#W"/><use transform="matrix(0.05,0,0,0.05,69.9,0)" xlink:href="#Y"/><use transform="matrix(0.05,0,0,0.05,75.85000000000001,0)" xlink:href="#aK"/><use transform="matrix(0.05,0,0,0.05,85.85000000000001,0)" xlink:href="#aL"/><use transform="matrix(0.05,0,0,0.05,95.85000000000001,0)" xlink:href="#aM"/><use transform="matrix(0.05,0,0,0.05,105.85000000000001,0)" xlink:href="#aa"/><use transform="matrix(0.05,0,0,0.05,115.85000000000001,0)" xlink:href="#aJ"/><use transform="matrix(0.05,0,0,0.05,120.85000000000001,0)" xlink:href="#aL"/><use transform="matrix(0.05,0,0,0.05,130.85000000000002,0)" xlink:href="#ab"/></g></defs></g></svg>