<svg xmlns="http://www.w3.org/2000/svg" xmlns:xlink="http://www.w3.org/1999/xlink" xmlns:lucid="lucid" width="2437.5" height="2663.3"><g transform="translate(0 0)" lucid:page-tab-id="m-5o7ONTd-nK"><path d="M0 0h2437.5v2663.3H0z" fill="#fff"/><path d="M92.7 523.03v-320h42.8v320zM92.7 523.03h42.8v320H92.7zM92.7 843.03h42.8v320H92.7zM92.7 1163.03h42.8v459.03H92.7zM92.7 1622.06h42.8v320H92.7zM92.7 1942.06h42.8v320H92.7zM135.5 2582.06H92.7v-320h42.8z" stroke="#666" stroke-width="2" fill="#999"/><path d="M135.5 203.03h2251.25v320H135.5zM135.5 523.03h2251.25v320H135.5zM135.5 843.03h2251.25v320H135.5zM135.5 1163.03h2251.25v459.03H135.5zM135.5 1622.06h2251.25v320H135.5zM135.5 1942.06h2251.25v320H135.5zM2386.75 2262.06v320H135.5v-320z" stroke="#666" stroke-width="2" fill="none"/><use xlink:href="#a" transform="matrix(-1.8369701987210297e-16,-1,1,-1.8369701987210297e-16,92.68934360882281,523.0294977411638) translate(127.91275153541795 26.13446718044114)"/><use xlink:href="#b" transform="matrix(-1.8369701987210297e-16,-1,1,-1.8369701987210297e-16,92.68934360882281,843.0294977411638) translate(87.4898989060147 26.13446718044114)"/><use xlink:href="#c" transform="matrix(-1.8369701987210297e-16,-1,1,-1.8369701987210297e-16,92.68934360882281,843.0294977411638) translate(132.48285111613075 26.13446718044114)"/><use xlink:href="#d" transform="matrix(-1.8369701987210297e-16,-1,1,-1.8369701987210297e-16,92.68934360882281,1163.0294977411638) translate(95.14964327368824 26.13446718044114)"/><use xlink:href="#e" transform="matrix(-1.8369701987210297e-16,-1,1,-1.8369701987210297e-16,92.68934360882304,1622.0635131543982) translate(167.65997966309388 26.13446718044114)"/><use xlink:href="#f" transform="matrix(-1.8369701987210297e-16,-1,1,-1.8369701987210297e-16,92.68934360882281,1942.063513154398) translate(114.49210699205716 26.13446718044114)"/><use xlink:href="#g" transform="matrix(-1.8369701987210297e-16,-1,1,-1.8369701987210297e-16,92.68934360882258,2262.063513154398) translate(104.06455583606461 26.13446718044114)"/><use xlink:href="#h" transform="matrix(-1.8369701987210297e-16,-1,1,-1.8369701987210297e-16,92.68934360882258,2262.063513154398) translate(182.59302750465054 26.13446718044114)"/><use xlink:href="#g" transform="matrix(-1.8369701987210297e-16,-1,1,-1.8369701987210297e-16,92.68934360882258,2582.0635131543986) translate(102.10134404434996 26.13446718044114)"/><use xlink:href="#i" transform="matrix(-1.8369701987210297e-16,-1,1,-1.8369701987210297e-16,92.68934360882258,2582.0635131543986) translate(180.6298157129359 26.13446718044114)"/><path d="M630.28 90.7c0-4.43 3.58-8 8-8h763.06c4.42 0 8 3.57 8 8v24c0 4.4-3.58 8-8 8H638.28c-4.42 0-8-3.6-8-8z" stroke="#000" stroke-opacity="0" stroke-width="2" fill="#fff" fill-opacity="0"/><use xlink:href="#j" transform="matrix(1,0,0,1,635.2772164593104,87.68934360882275) translate(228.07407407407405 23.270833333333336)"/><path d="M764.66 121.38h508.12M764.7 121.38h-1.04M1272.76 121.38h1.02" stroke="#b2b2b2" stroke-width="2" fill="none"/><path d="M629.83 130.7c0-4.43 3.58-8 8-8h763.5c4.43 0 8 3.57 8 8v4c0 4.4-3.57 8-8 8h-763.5c-4.42 0-8-3.6-8-8z" stroke="#000" stroke-opacity="0" stroke-width="2" fill="#fff" fill-opacity="0"/><use xlink:href="#k" transform="matrix(1,0,0,1,634.8252305221758,127.68934360882275) translate(284.55864197530866 12.444444444444446)"/><use xlink:href="#l" transform="matrix(1,0,0,1,634.8252305221758,127.68934360882275) translate(315.62654320987656 12.444444444444446)"/><use xlink:href="#m" transform="matrix(1,0,0,1,634.8252305221758,127.68934360882275) translate(388.99691358024694 12.444444444444446)"/><use xlink:href="#n" transform="matrix(1,0,0,1,634.8252305221758,127.68934360882275) translate(401.65740740740745 12.444444444444446)"/><use xlink:href="#o" transform="matrix(1,0,0,1,634.8252305221758,127.68934360882275) translate(433.58950617283955 12.444444444444446)"/><use xlink:href="#p" transform="matrix(1,0,0,1,634.8252305221758,127.68934360882275) translate(450.8734567901235 12.444444444444446)"/><path d="M375.4 301.24c23.03 0 41.7 22.8 41.7 50.9 0 28.1-18.67 50.9-41.7 50.9H250.25c-23.03 0-41.7-22.8-41.7-50.9 0-28.1 18.67-50.9 41.7-50.9z" stroke="#000" stroke-opacity="0" stroke-width="2" fill="#019280"/><use xlink:href="#q" transform="matrix(1,0,0,1,213.5510231198512,306.24036672867396) translate(51.61765775763361 50.18063191307172)"/><path d="M306.76 606.97c3.65-2.48 9.58-2.48 13.24 0l90.48 61.3c3.66 2.48 3.66 6.5 0 8.97L320 738.54c-3.66 2.48-9.6 2.48-13.24 0l-90.48-61.3c-3.66-2.48-3.66-6.5 0-8.97z" stroke="#000" stroke-opacity="0" stroke-width="2" fill="#999"/><use xlink:href="#r" transform="matrix(1,0,0,1,214.6541987776991,607.4807334573479) translate(51.12265775763361 57.05563191307172)"/><use xlink:href="#s" transform="matrix(1,0,0,1,214.6541987776991,607.4807334573479) translate(73.25796010866034 87.9520797826793)"/><path d="M312.83 403.53V588.8" stroke="#666" fill="none"/><path d="M313.33 403.54h-1v-.5h1z" fill="#666"/><path d="M312.83 603.55l-4.64-14.26h9.26z" stroke="#666" fill="#666"/><path d="M469.83 300.13c0-4.4 3.58-8 8-8H664c4.42 0 8 3.6 8 8v104c0 4.42-3.58 8-8 8H477.83c-4.42 0-8-3.58-8-8z" stroke="#000" stroke-opacity="0" stroke-width="2" fill="#c92d39"/><use xlink:href="#t" transform="matrix(1,0,0,1,474.82523052219767,297.1349322348833) translate(36.53085291975472 44.93063191307172)"/><use xlink:href="#u" transform="matrix(1,0,0,1,474.82523052219767,297.1349322348833) translate(100.6838939823427 44.93063191307172)"/><use xlink:href="#v" transform="matrix(1,0,0,1,474.82523052219767,297.1349322348833) translate(52.87307129523002 75.8270797826793)"/><path d="M571.4 660.8l-.4 3.2-1.25 3-2 2.6-2.6 2-3 1.23-3.2.43H413.6v-1h145.26l3.02-.4 2.75-1.14 2.4-1.84 1.82-2.4 1.15-2.74.4-3.02v-26.7h1zm0-52.13h-1V428.52h1z" fill="#666"/><path d="M413.63 673.26h-.57l.13-1h.43zM575.55 428.02h-9.27l4.63-14.27z" fill="#666"/><path d="M576.23 428.52H565.6l5.3-16.4zm-9.27-1h7.9l-3.95-12.15z" fill="#666"/><use xlink:href="#w" transform="matrix(1,0,0,1,557.4193217444669,608.6722556406694) translate(0.005000000000000782 18.126342339150206)"/><path d="M214.93 941.83c0-4.4 3.58-8 8-8H409.1c4.42 0 8 3.6 8 8v121.3c0 4.42-3.58 8-8 8H222.93c-4.42 0-8-3.58-8-8z" stroke="#000" stroke-opacity="0" stroke-width="2" fill="#7ab648"/><use xlink:href="#x" transform="matrix(1,0,0,1,219.92953559798184,938.8338377181327) translate(52.873071295230034 28.30563191307172)"/><use xlink:href="#y" transform="matrix(1,0,0,1,219.92953559798184,938.8338377181327) translate(56.520568613169814 59.202079782679306)"/><use xlink:href="#z" transform="matrix(1,0,0,1,219.92953559798184,938.8338377181327) translate(19.33039988123475 90.09852765228689)"/><use xlink:href="#A" transform="matrix(1,0,0,1,219.92953559798184,938.8338377181327) translate(146.49216912235119 90.09852765228689)"/><use xlink:href="#B" transform="matrix(1,0,0,1,219.92953559798184,938.8338377181327) translate(47.90246220509641 120.99497552189447)"/><use xlink:href="#C" transform="matrix(1,0,0,1,219.92953559798184,938.8338377181327) translate(103.61619574774527 120.99497552189447)"/><path d="M486.62 942.38c0-4.42 3.58-8 8-8H680.8c4.4 0 8 3.58 8 8v121.3c0 4.4-3.6 8-8 8H494.6c-4.42 0-8-3.6-8-8z" stroke="#000" stroke-opacity="0" stroke-width="2" fill="#7ab648"/><use xlink:href="#D" transform="matrix(1,0,0,1,491.61905394631947,939.3826020019486) translate(70.10928411137685 28.30563191307172)"/><use xlink:href="#E" transform="matrix(1,0,0,1,491.61905394631947,939.3826020019486) translate(38.67643957736637 59.202079782679306)"/><use xlink:href="#F" transform="matrix(1,0,0,1,491.61905394631947,939.3826020019486) translate(35.744137811963796 90.09852765228689)"/><use xlink:href="#G" transform="matrix(1,0,0,1,491.61905394631947,939.3826020019486) translate(22.19118209138359 120.99497552189447)"/><use xlink:href="#H" transform="matrix(1,0,0,1,491.61905394631947,939.3826020019486) translate(120.7451292310115 120.99497552189447)"/><path d="M758.3 950.48c0-4.42 3.6-8 8-8H952.5c4.42 0 8 3.58 8 8v104c0 4.42-3.58 8-8 8H766.3c-4.4 0-8-3.58-8-8z" stroke="#000" stroke-opacity="0" stroke-width="2" fill="#7ab648"/><use xlink:href="#I" transform="matrix(1,0,0,1,763.3085722946571,947.4807334573479) translate(16.040500339563575 27.74313191307172)"/><use xlink:href="#J" transform="matrix(1,0,0,1,763.3085722946571,947.4807334573479) translate(134.04776650820367 27.74313191307172)"/><use xlink:href="#K" transform="matrix(1,0,0,1,763.3085722946571,947.4807334573479) translate(32.20391982690458 58.639579782679306)"/><use xlink:href="#L" transform="matrix(1,0,0,1,763.3085722946571,947.4807334573479) translate(125.03630254623478 58.639579782679306)"/><use xlink:href="#M" transform="matrix(1,0,0,1,763.3085722946571,947.4807334573479) translate(47.15150687493232 89.53602765228689)"/><use xlink:href="#H" transform="matrix(1,0,0,1,763.3085722946571,947.4807334573479) translate(95.78480444746279 89.53602765228689)"/><path d="M313.88 917.45h-1v-91.43h1zm0-116.77h-1V740.8h1z" fill="#666"/><path d="M313.88 740.34v.48h-1v-.54zM313.38 932.22l-4.64-14.27H318z" fill="#666"/><path d="M313.38 933.83l-5.33-16.38h10.65zm-3.95-15.38l3.95 12.15 3.95-12.15z" fill="#666"/><use xlink:href="#N" transform="matrix(1,0,0,1,295.355194461188,800.6812334130569) translate(0.004999999999997229 18.126342339150206)"/><path d="M417.6 1002.48h52.64" stroke="#666" fill="none"/><path d="M417.6 1002.98h-.5v-1h.5z" fill="#666"/><path d="M485 1002.48l-14.26 4.64v-9.27z" stroke="#666" fill="#666"/><path d="M689.3 1003.03h52.62" stroke="#666" fill="none"/><path d="M689.3 1003.53h-.5v-1h.5z" fill="#666"/><path d="M756.7 1003.03l-14.28 4.63v-9.27z" stroke="#666" fill="#666"/><path d="M852.8 1209.45c3.65-2.48 9.58-2.48 13.23 0l90.48 61.3c3.67 2.48 3.67 6.5 0 8.97l-90.47 61.3c-3.65 2.48-9.58 2.48-13.24 0l-90.5-61.3c-3.65-2.48-3.65-6.5 0-8.97z" stroke="#000" stroke-opacity="0" stroke-width="2" fill="#999"/><use xlink:href="#O" transform="matrix(1,0,0,1,760.6870847727868,1209.9614669146958) translate(47.04667999494755 69.33688191307172)"/><path d="M859.4 1062.98v128.32" stroke="#666" fill="none"/><path d="M859.9 1063h-1v-.52h1z" fill="#666"/><path d="M859.4 1206.07l-4.62-14.27h9.27z" stroke="#666" fill="#666"/><path d="M908.36 301.24c23.03 0 41.7 22.8 41.7 50.9 0 28.1-18.67 50.9-41.7 50.9H783.22c-23.03 0-41.7-22.8-41.7-50.9 0-28.1 18.67-50.9 41.7-50.9z" stroke="#000" stroke-opacity="0" stroke-width="2" fill="#c92d39"/><use xlink:href="#P" transform="matrix(1,0,0,1,746.514748870582,306.24036672867396) translate(22.366159658861616 50.18063191307172)"/><use xlink:href="#Q" transform="matrix(1,0,0,1,746.514748870582,306.24036672867396) translate(90.88189359192658 50.18063191307172)"/><path d="M672.5 352.13h52.63" stroke="#666" fill="none"/><path d="M672.5 352.63h-.5v-1h.5z" fill="#666"/><path d="M739.9 352.13l-14.27 4.64v-9.27z" stroke="#666" fill="#666"/><path d="M1191.36 1209.45c3.65-2.48 9.6-2.48 13.24 0l90.48 61.3c3.66 2.48 3.66 6.5 0 8.97l-90.48 61.3c-3.65 2.48-9.6 2.48-13.24 0l-90.48-61.3c-3.66-2.48-3.66-6.5 0-8.97z" stroke="#000" stroke-opacity="0" stroke-width="2" fill="#999"/><use xlink:href="#R" transform="matrix(1,0,0,1,1099.2559424175531,1209.9614669146958) translate(42.82702623497801 69.33688191307172)"/><path d="M1010.67 1275.74h-51.02v-1h51.02zm71.18 0h-35.13v-1h35.13z" fill="#666"/><path d="M959.67 1275.74h-.58l.12-1h.45zM1096.62 1275.24l-14.27 4.63v-9.27z" fill="#666"/><path d="M1098.24 1275.24l-16.4 5.32v-10.65zm-15.4 3.94l12.16-3.94-12.15-3.95z" fill="#666"/><use xlink:href="#N" transform="matrix(1,0,0,1,1010.672509152842,1262.568092302229) translate(0.004999999999997229 18.126342339150206)"/><path d="M1737.93 2046.34c0-4.42 3.58-8 8-8h186.17c4.42 0 8 3.58 8 8v104c0 4.42-3.58 8-8 8h-186.17c-4.42 0-8-3.58-8-8z" stroke="#000" stroke-opacity="0" stroke-width="2" fill="#3aa6dd"/><use xlink:href="#S" transform="matrix(1,0,0,1,1742.9251926654267,2043.3367658783) translate(14.324031013474265 58.68063191307172)"/><use xlink:href="#T" transform="matrix(1,0,0,1,1742.9251926654267,2043.3367658783) translate(82.91128450179296 58.68063191307172)"/><use xlink:href="#U" transform="matrix(1,0,0,1,1742.9251926654267,2043.3367658783) translate(110.01719594295332 58.68063191307172)"/><path d="M419.74 1722.75c0-4.42 3.58-8 8-8H613.9c4.43 0 8 3.58 8 8v104c0 4.42-3.57 8-8 8H427.75c-4.42 0-8-3.58-8-8z" stroke="#000" stroke-opacity="0" stroke-width="2" fill="#0c7cba"/><use xlink:href="#V" transform="matrix(1,0,0,1,424.7397146498905,1719.752856763221) translate(50.76324441524525 27.74313191307172)"/><use xlink:href="#W" transform="matrix(1,0,0,1,424.7397146498905,1719.752856763221) translate(46.50783087764884 58.639579782679306)"/><use xlink:href="#X" transform="matrix(1,0,0,1,424.7397146498905,1719.752856763221) translate(32.99063493469552 89.53602765228689)"/><path d="M1901.58 301.24c23.03 0 41.7 22.8 41.7 50.9 0 28.1-18.67 50.9-41.7 50.9h-125.13c-23.04 0-41.7-22.8-41.7-50.9 0-28.1 18.66-50.9 41.7-50.9z" stroke="#000" stroke-opacity="0" stroke-width="2" fill="#7ab648"/><use xlink:href="#Y" transform="matrix(1,0,0,1,1739.7359365258708,306.24036672867396) translate(19.39809811583218 35.80563191307172)"/><use xlink:href="#u" transform="matrix(1,0,0,1,1739.7359365258708,306.24036672867396) translate(123.81664878626523 35.80563191307172)"/><use xlink:href="#Z" transform="matrix(1,0,0,1,1739.7359365258708,306.24036672867396) translate(79.47452452895806 66.7020797826793)"/><path d="M1198.48 1207.18h-1v-394.6h1zm-.6-419.94h-1V408.52h1z" fill="#666"/><path d="M1198.48 1207.7l-1-.05v-.48h1zM1202 408.02h-9.26l4.64-14.27z" fill="#666"/><path d="M1202.7 408.52h-10.65l5.33-16.4zm-9.27-1h7.9l-3.95-12.15z" fill="#666"/><use xlink:href="#w" transform="matrix(1,0,0,1,1184.1854184574827,787.24133665019) translate(0.005000000000000782 18.126342339150206)"/><path d="M1259.94 312.13c23.04 0 41.7 17.9 41.7 40s-18.66 40-41.7 40H1134.8c-23.03 0-41.7-17.9-41.7-40s18.67-40 41.7-40z" stroke="#000" stroke-opacity="0" stroke-width="2" fill="#fcc438"/><use xlink:href="#aa" transform="matrix(1,0,0,1,1098.0997874036673,317.1349322348833) translate(21.543684773443825 39.61813191307172)"/><use xlink:href="#ab" transform="matrix(1,0,0,1,1098.0997874036673,317.1349322348833) translate(71.6073734510487 39.61813191307172)"/><use xlink:href="#ac" transform="matrix(1,0,0,1,1098.0997874036673,317.1349322348833) translate(134.54458207432342 39.61813191307172)"/><path d="M760.96 1453.33c0-4.42 3.58-8 8-8h186.17c4.42 0 8 3.58 8 8v104c0 4.42-3.58 8-8 8H768.96c-4.42 0-8-3.58-8-8z" stroke="#000" stroke-opacity="0" stroke-width="2" fill="#a3d977"/><use xlink:href="#ad" transform="matrix(1,0,0,1,765.9624215930695,1450.3317216759679) translate(32.99063493469552 44.93063191307172)"/><use xlink:href="#H" transform="matrix(1,0,0,1,765.9624215930695,1450.3317216759679) translate(71.46815566119756 75.8270797826793)"/><path d="M859.9 1428.95h-1v-22.22h1zm0-47.56h-1v-38.1h1z"/><path d="M859.9 1342.82v.48h-1v-.54zM859.4 1443.7l-4.62-14.25h9.27z"/><path d="M859.4 1445.33l-5.3-16.38h10.63zm-3.94-15.38l3.95 12.15 3.96-12.15z"/><use xlink:href="#w" transform="matrix(1,0,0,1,845.918844281599,1381.3923260604083) translate(0.005000000000000782 18.126342339150206)"/><path d="M1350.37 2046.34c0-4.42 3.6-8 8-8h186.18c4.4 0 8 3.58 8 8v104c0 4.42-3.6 8-8 8h-186.18c-4.4 0-8-3.58-8-8z" stroke="#000" stroke-opacity="0" stroke-width="2" fill="#3aa6dd"/><use xlink:href="#ae" transform="matrix(1,0,0,1,1355.3739948060136,2043.3367658783) translate(32.525757825546336 44.93063191307172)"/><use xlink:href="#af" transform="matrix(1,0,0,1,1355.3739948060136,2043.3367658783) translate(78.65587096419654 75.8270797826793)"/><path d="M760.46 1505.33h-5.06m-5.05 0h-10.12m-5.06 0h-10.12m-5.06 0h-10.12m-5.06 0H694.7m-5.06 0h-10.1m-5.07 0h-10.12m-5.06 0h-10.13m-5.06 0H634m-5.06 0h-10.12m-5.06 0h-10.1m-5.07 0h-10.13m-5.06 0h-10.1m-5.06 0h-10.12m-5.06 0h-10.12m-5.06 0h-5.05l-3.12.4-2.87 1.2m-4.4 4.4l-1.2 2.9-.4 3.1v5.03m0 5.03v10.05m0 5.03v10.05m0 5.03v10.06m0 5.03v10.06m0 5.04v10.05m0 5.02v10.06m0 5.03v10.07m0 5.02v10.05m0 5.03v10.06m0 5.03v10.05m0 5.03v10.06m0 5.04v5.03" stroke="#666" fill="none"/><path d="M760.96 1505.83h-.5v-1h.5z" fill="#666"/><path d="M520.83 1713.13l-4.64-14.26h9.26z" stroke="#666" fill="#666"/><path d="M1349.87 2098.34h-5.04m-5.04 0h-10.1m-5.04 0h-10.1m-5.03 0h-10.1m-5.03 0h-10.1m-5.04 0h-10.08m-5.05 0h-10.08m-5.05 0h-10.08m-5.05 0h-10.08m-5.06 0h-10.08m-5.05 0h-10.07m-5.05 0h-10.1m-5.03 0h-10.1m-5.03 0h-10.1m-5.03 0H1133m-5.04 0h-10.1m-5.03 0h-10.1m-5.03 0h-10.1m-5.03 0h-10.1m-5.03 0h-10.1m-5.03 0h-10.08m-5.04 0h-10.1m-5.03 0h-10.1m-5.03 0h-10.1m-5.03 0h-10.1m-5.05 0h-10.08m-5.05 0h-10.08m-5.05 0h-10.1m-5.04 0h-10.08m-5.05 0h-10.08m-5.05 0h-10.1m-5.03 0h-10.1m-5.03 0h-10.1m-5.03 0h-10.08m-5.04 0h-10.1m-5.03 0h-10.1m-5.03 0h-10.1m-5.03 0H785m-5.04 0h-10.1m-5.03 0h-10.1m-5.03 0h-10.1m-5.03 0h-10.1m-5.03 0h-10.1m-5.03 0h-10.08m-5.05 0H679.1m-5.06 0h-10.08m-5.05 0h-10.07m-5.05 0H633.7m-5.05 0h-10.08m-5.05 0h-10.08m-5.05 0h-10.1m-5.04 0h-10.1m-5.03 0h-10.1m-5.03 0h-10.1m-5.03 0h-5.04l-3.12-.4-2.87-1.2m-4.4-4.4l-1.2-2.9-.4-3.1v-4.9m0-4.9v-9.8m0-4.9v-9.8m0-4.9v-9.8m0-4.9v-9.8m0-4.9v-9.8m0-4.9v-9.8m0-4.9v-9.8m0-4.9v-9.8m0-4.9v-9.8m0-4.9v-9.8m0-4.9v-9.8m0-4.9v-9.8m0-4.9v-9.8m0-4.9v-9.8m0-4.9v-9.8m0-4.9v-4.9" stroke="#666" fill="none"/><path d="M1350.37 2098.84h-.5v-1h.5z" fill="#666"/><path d="M520.83 1836.37l4.63 14.27h-9.27z" stroke="#666" fill="#666"/><path d="M755.7 2370.06c0-4.4 3.57-8 8-8h186.16c4.42 0 8 3.6 8 8v104c0 4.42-3.58 8-8 8H763.7c-4.43 0-8-3.58-8-8z" stroke="#000" stroke-opacity="0" stroke-width="2" fill="#5abaa7"/><use xlink:href="#ag" transform="matrix(1,0,0,1,760.6870847727868,2367.0635131543986) translate(66.46178679343707 44.93063191307172)"/><use xlink:href="#ah" transform="matrix(1,0,0,1,760.6870847727868,2367.0635131543986) translate(44.32648444241035 75.8270797826793)"/><path d="M862.05 1565.83v779.85" stroke="#666" fill="none"/><path d="M862.55 1565.84h-1v-.5h1z" fill="#666"/><path d="M862.05 2360.44l-4.64-14.26h9.28z" stroke="#666" fill="#666"/><path d="M958.36 2422.06h481.1c6.63 0 12-5.37 12-12v-235.34" stroke="#666" fill="none"/><path d="M958.37 2422.56h-.5v-1h.5z" fill="#666"/><path d="M1451.46 2159.95l4.64 14.27h-9.28z" stroke="#666" fill="#666"/><path d="M862.05 1565.83v485.67c0 6.62 5.37 12 12 12H1334" stroke="#666" fill="none"/><path d="M862.55 1565.84h-1v-.5h1z" fill="#666"/><path d="M1348.76 2063.5l-14.27 4.63v-9.27z" stroke="#666" fill="#666"/><path d="M1350.37 1453.33c0-4.42 3.6-8 8-8h186.18c4.4 0 8 3.58 8 8v104c0 4.42-3.6 8-8 8h-186.18c-4.4 0-8-3.58-8-8z" stroke="#000" stroke-opacity="0" stroke-width="2" fill="#a3d977"/><g><use xlink:href="#ai" transform="matrix(1,0,0,1,1355.3739948060136,1450.3317216759679) translate(35.136221592307166 44.93063191307172)"/><use xlink:href="#H" transform="matrix(1,0,0,1,1355.3739948060136,1450.3317216759679) translate(71.46815566119756 75.8270797826793)"/></g><path d="M1451.46 2037.84v-456.12" stroke="#666" fill="none"/><path d="M1451.96 2038.34h-1v-.52h1z" fill="#666"/><path d="M1451.46 1566.95l4.64 14.27h-9.28z" stroke="#666" fill="#666"/><path d="M1553.05 1505.33h80.2c6.6 0 12 5.37 12 12v569c0 6.63 5.36 12 12 12h64.3" stroke="#666" fill="none"/><path d="M1553.06 1505.83h-.5v-1h.5z" fill="#666"/><path d="M1736.3 2098.34l-14.26 4.63v-9.27z" stroke="#666" fill="#666"/><path d="M1349.87 1505.33h-5.22m-5.23 0h-10.45m-5.22 0h-10.46m-5.23 0h-10.45m-5.23 0h-10.46m-5.23 0h-10.44m-5.22 0h-10.45m-5.24 0h-5.23l-3.1.4-2.9 1.2m-4.4 4.4l-1.2 2.9-.4 3.1v5.1m0 5.13v10.22m0 5.12v10.22m0 5.12v10.22m0 5.1v10.24m0 5.1v10.24m0 5.1v10.24m0 5.1v10.24m0 5.1v10.24m0 5.1v10.23m0 5.1v10.23m0 5.12v10.22m0 5.1v10.24m0 5.12v10.23m0 5.1v10.24m0 5.1v10.23m0 5.1v5.12l-.4 3.12-1.2 2.87m-4.4 4.4l-2.88 1.2-3.12.4h-4.93m-4.94 0h-9.88m-4.94 0h-9.88m-4.94 0h-9.87m-4.94 0h-9.87m-4.94 0h-9.9m-4.93 0h-9.87m-4.94 0h-9.88m-4.94 0h-9.88m-4.93 0h-9.88m-4.94 0h-9.87m-4.94 0h-9.88m-4.94 0h-9.88m-4.94 0h-9.88m-4.94 0h-9.87m-4.94 0h-9.88m-4.94 0h-9.87m-4.94 0h-9.88m-4.94 0h-9.88m-4.94 0h-9.88m-4.93 0h-9.88m-4.94 0h-9.88m-4.94 0h-9.86m-4.94 0h-9.88m-4.94 0h-9.88m-4.94 0h-9.87m-4.95 0h-9.88m-4.94 0h-9.88m-4.94 0h-9.86m-4.94 0h-9.88m-4.94 0h-9.88m-4.93 0h-9.88m-4.95 0h-9.88m-4.94 0h-9.87m-4.94 0h-9.88m-4.94 0h-9.88m-4.94 0h-9.87m-4.93 0H663m-4.95 0h-9.88m-4.94 0h-4.93" stroke="#666" fill="none"/><path d="M1350.37 1505.83h-.5v-1h.5z" fill="#666"/><path d="M623.53 1774.75l14.27-4.63v9.27z" stroke="#666" fill="#666"/><path d="M1839 2037.84V419.4" stroke="#666" fill="none"/><path d="M1839.5 2038.34h-1v-.52h1z" fill="#666"/><path d="M1839 404.65l4.65 14.26h-9.27z" stroke="#666" fill="#666"/><path d="M755.2 2422.06h-4.95m-4.95 0h-9.88m-4.94 0h-9.88m-4.94 0h-9.9m-4.93 0h-9.88m-4.94 0h-9.87m-4.95 0h-9.88m-4.94 0h-9.88m-4.94 0h-9.9m-4.93 0h-9.87m-4.94 0H602m-4.94 0h-9.88m-4.94 0h-9.88m-4.94 0h-9.9m-4.93 0h-9.9m-4.93 0h-4.94l-3.12-.4-2.87-1.2m-4.4-4.4l-1.2-2.88-.4-3.12v-5.03m0-5.04v-10.08m0-5.03v-10.08m0-5.04v-10.07m0-5.03v-10.07m0-5.03v-10.07m0-5.04v-10.07m0-5.04v-10.07m0-5.05v-10.07m0-5.04v-10.07m0-5.03v-10.07m0-5.04v-10.07m0-5.03v-10.08m0-5.03v-10.07m0-5.04v-10.06m0-5.03v-10.06m0-5.04v-10.07m0-5.04v-10.08m0-5.03v-10.08m0-5.04V2118m0-5.02v-10.07m0-5.03v-10.07m0-5.04v-10.07m0-5.04v-10.07m0-5.05v-10.07m0-5.03v-10.08m0-5.03v-10.07m0-5.04v-10.07m0-5.03v-10.07m0-5.04v-10.07m0-5.03v-10.08m0-5.03v-10.06m0-5.04v-10.07m0-5.03v-10.07m0-5.04v-10.08m0-5.04v-10.07m0-5.02v-10.07m0-5.03v-5.03" stroke="#666" fill="none"/><path d="M755.7 2422.56h-.53v-1h.52z" fill="#666"/><path d="M520.83 1836.37l4.63 14.27h-9.27z" stroke="#666" fill="#666"/><path d="M2039.17 2046.34c0-4.42 3.58-8 8-8h186.17c4.42 0 8 3.58 8 8v104c0 4.42-3.58 8-8 8h-186.17c-4.42 0-8-3.58-8-8z" stroke="#000" stroke-opacity="0" stroke-width="2" fill="#3aa6dd"/><g><use xlink:href="#aj" transform="matrix(1,0,0,1,2044.1655593941005,2043.3367658783) translate(38.6406797997395 44.93063191307172)"/><use xlink:href="#ak" transform="matrix(1,0,0,1,2044.1655593941005,2043.3367658783) translate(103.00827952808864 44.93063191307172)"/><use xlink:href="#U" transform="matrix(1,0,0,1,2044.1655593941005,2043.3367658783) translate(62.170613478213795 75.8270797826793)"/></g><path d="M1970.15 2086.3l.4 3.02 1.14 2.76 1.82 2.4 2.4 1.82 2.75 1.14 3 .4h41.1v1h-41.15l-3.22-.42-3-1.25-2.6-2-2-2.6-1.23-3-.42-3.2v-688.12h1zm-9.26-811.14l3 1.24 2.6 2 2 2.6 1.23 3 .42 3.2v85.7h-1v-85.63l-.4-3.02-1.14-2.75-1.82-2.4-2.4-1.83-2.75-1.14-3-.4h-659.4v-1h659.45z" fill="#666"/><path d="M1298.24 1275.74h-.58l.13-1h.44zM2037.55 2098.34l-14.27 4.63v-9.27z" fill="#666"/><path d="M2039.17 2098.34l-16.4 5.32V2093zm-15.4 3.94l12.16-3.94-12.15-3.95z" fill="#666"/><g><use xlink:href="#N" transform="matrix(1,0,0,1,1951.6256237635457,1372.9144051444002) translate(0.004999999999997229 18.126342339150206)"/></g><path d="M2131.5 352.06l3 1.24 2.6 2 2 2.6 1.23 3 .42 3.2v1673.74h-1V364.17l-.4-3.02-1.14-2.75-1.82-2.4-2.4-1.83-2.74-1.14-3.02-.4h-168.55v-1h168.6z" fill="#666"/><path d="M2140.75 2038.34h-1v-.52h1zM1959.17 356.77l-14.27-4.64 14.27-4.63z" fill="#666"/><path d="M1959.67 357.46l-16.38-5.33 16.37-5.32zm-13.15-5.33l12.15 3.95v-7.9z" fill="#666"/><defs><path fill="#fff" d="M67-125c0 53 21 87 73 88 37 1 54-22 65-47l45 17C233-25 199 4 140 4 58 4 20-42 15-125 8-235 124-281 211-232c18 10 29 29 36 50l-46 12c-8-25-30-41-62-41-52 0-71 34-72 86" id="al"/><path fill="#fff" d="M25 0v-261h50V0H25" id="am"/><path fill="#fff" d="M25-224v-37h50v37H25zM25 0v-190h50V0H25" id="an"/><path fill="#fff" d="M185-48c-13 30-37 53-82 52C43 2 14-33 14-96s30-98 90-98c62 0 83 45 84 108H66c0 31 8 55 39 56 18 0 30-7 34-22zm-45-69c5-46-57-63-70-21-2 6-4 13-4 21h74" id="ao"/><path fill="#fff" d="M135-194c87-1 58 113 63 194h-50c-7-57 23-157-34-157-59 0-34 97-39 157H25l-1-190h47c2 12-1 28 3 38 12-26 28-41 61-42" id="ap"/><path fill="#fff" d="M115-3C79 11 28 4 28-45v-112H4v-33h27l15-45h31v45h36v33H77v99c-1 23 16 31 38 25v30" id="aq"/><g id="a"><use transform="matrix(0.06436759972834913,0,0,0.06436759972834913,0,0)" xlink:href="#al"/><use transform="matrix(0.06436759972834913,0,0,0.06436759972834913,16.671208329642425,0)" xlink:href="#am"/><use transform="matrix(0.06436759972834913,0,0,0.06436759972834913,23.10796830247734,0)" xlink:href="#an"/><use transform="matrix(0.06436759972834913,0,0,0.06436759972834913,29.544728275312252,0)" xlink:href="#ao"/><use transform="matrix(0.06436759972834913,0,0,0.06436759972834913,42.41824822098208,0)" xlink:href="#ap"/><use transform="matrix(0.06436759972834913,0,0,0.06436759972834913,56.51475256149054,0)" xlink:href="#aq"/></g><path fill="#fff" d="M199 0l-22-63H83L61 0H9l90-248h61L250 0h-51zm-33-102l-36-108c-10 38-24 72-36 108h72" id="ar"/><path fill="#fff" d="M24-248c93 1 206-16 204 79-1 75-69 88-152 82V0H24v-248zm52 121c47 0 100 7 100-41 0-47-54-39-100-39v80" id="as"/><path fill="#fff" d="M24 0v-248h52V0H24" id="at"/><g id="b"><use transform="matrix(0.06436759972834913,0,0,0.06436759972834913,0,0)" xlink:href="#ar"/><use transform="matrix(0.06436759972834913,0,0,0.06436759972834913,16.671208329642425,0)" xlink:href="#as"/><use transform="matrix(0.06436759972834913,0,0,0.06436759972834913,32.11943226444622,0)" xlink:href="#at"/></g><path fill="#fff" d="M24 0v-248h195v40H76v63h132v40H76v65h150V0H24" id="au"/><path fill="#fff" d="M88-194c31-1 46 15 58 34l-1-101h50l1 261h-48c-2-10 0-23-3-31C134-8 116 4 84 4 32 4 16-41 15-95c0-56 19-97 73-99zm17 164c33 0 40-30 41-66 1-37-9-64-41-64s-38 30-39 65c0 43 13 65 39 65" id="av"/><path fill="#fff" d="M135-194c53 0 70 44 70 98 0 56-19 98-73 100-31 1-45-17-59-34 3 33 2 69 2 105H25l-1-265h48c2 10 0 23 3 31 11-24 29-35 60-35zM114-30c33 0 39-31 40-66 0-38-9-64-40-64-56 0-55 130 0 130" id="aw"/><path fill="#fff" d="M110-194c64 0 96 36 96 99 0 64-35 99-97 99-61 0-95-36-95-99 0-62 34-99 96-99zm-1 164c35 0 45-28 45-65 0-40-10-65-43-65-34 0-45 26-45 65 0 36 10 65 43 65" id="ax"/><g id="c"><use transform="matrix(0.06436759972834913,0,0,0.06436759972834913,0,0)" xlink:href="#au"/><use transform="matrix(0.06436759972834913,0,0,0.06436759972834913,15.44822393480379,0)" xlink:href="#ap"/><use transform="matrix(0.06436759972834913,0,0,0.06436759972834913,29.544728275312252,0)" xlink:href="#av"/><use transform="matrix(0.06436759972834913,0,0,0.06436759972834913,43.64123261582071,0)" xlink:href="#aw"/><use transform="matrix(0.06436759972834913,0,0,0.06436759972834913,57.73773695632917,0)" xlink:href="#ax"/><use transform="matrix(0.06436759972834913,0,0,0.06436759972834913,71.83424129683763,0)" xlink:href="#an"/><use transform="matrix(0.06436759972834913,0,0,0.06436759972834913,78.27100126967254,0)" xlink:href="#ap"/><use transform="matrix(0.06436759972834913,0,0,0.06436759972834913,92.367505610181,0)" xlink:href="#aq"/></g><path fill="#fff" d="M169-182c-1-43-94-46-97-3 18 66 151 10 154 114 3 95-165 93-204 36-6-8-10-19-12-30l50-8c3 46 112 56 116 5-17-69-150-10-154-114-4-87 153-88 188-35 5 8 8 18 10 28" id="ay"/><path fill="#fff" d="M133-34C117-15 103 5 69 4 32 3 11-16 11-54c-1-60 55-63 116-61 1-26-3-47-28-47-18 1-26 9-28 27l-52-2c7-38 36-58 82-57s74 22 75 68l1 82c-1 14 12 18 25 15v27c-30 8-71 5-69-32zm-48 3c29 0 43-24 42-57-32 0-66-3-65 30 0 17 8 27 23 27" id="az"/><path fill="#fff" d="M12 0v-35l95-120H19v-35h142v35L67-36h103V0H12" id="aA"/><g id="d"><use transform="matrix(0.06436759972834913,0,0,0.06436759972834913,0,0)" xlink:href="#ay"/><use transform="matrix(0.06436759972834913,0,0,0.06436759972834913,15.44822393480379,0)" xlink:href="#az"/><use transform="matrix(0.06436759972834913,0,0,0.06436759972834913,28.321743880473615,0)" xlink:href="#ap"/><use transform="matrix(0.06436759972834913,0,0,0.06436759972834913,42.41824822098208,0)" xlink:href="#an"/><use transform="matrix(0.06436759972834913,0,0,0.06436759972834913,48.85500819381699,0)" xlink:href="#aq"/><use transform="matrix(0.06436759972834913,0,0,0.06436759972834913,56.51475256149054,0)" xlink:href="#an"/><use transform="matrix(0.06436759972834913,0,0,0.06436759972834913,62.95151253432545,0)" xlink:href="#aA"/><use transform="matrix(0.06436759972834913,0,0,0.06436759972834913,74.5376804854283,0)" xlink:href="#az"/><use transform="matrix(0.06436759972834913,0,0,0.06436759972834913,87.41120043109812,0)" xlink:href="#aq"/><use transform="matrix(0.06436759972834913,0,0,0.06436759972834913,95.07094479877168,0)" xlink:href="#an"/><use transform="matrix(0.06436759972834913,0,0,0.06436759972834913,101.50770477160658,0)" xlink:href="#ax"/><use transform="matrix(0.06436759972834913,0,0,0.06436759972834913,115.60420911211504,0)" xlink:href="#ap"/></g><path fill="#fff" d="M135-150c-39-12-60 13-60 57V0H25l-1-190h47c2 13-1 29 3 40 6-28 27-53 61-41v41" id="aB"/><path fill="#fff" d="M190-63c-7 42-38 67-86 67-59 0-84-38-90-98-12-110 154-137 174-36l-49 2c-2-19-15-32-35-32-30 0-35 28-38 64-6 74 65 87 74 30" id="aC"/><path fill="#fff" d="M137-138c1-29-70-34-71-4 15 46 118 7 119 86 1 83-164 76-172 9l43-7c4 19 20 25 44 25 33 8 57-30 24-41C81-84 22-81 20-136c-2-80 154-74 161-7" id="aD"/><path fill="#fff" d="M195-6C206 82 75 100 31 46c-4-6-6-13-8-21l49-6c3 16 16 24 34 25 40 0 42-37 40-79-11 22-30 35-61 35-53 0-70-43-70-97 0-56 18-96 73-97 30 0 46 14 59 34l2-30h47zm-90-29c32 0 41-27 41-63 0-35-9-62-40-62-32 0-39 29-40 63 0 36 9 62 39 62" id="aE"/><g id="e"><use transform="matrix(0.06436759972834913,0,0,0.06436759972834913,0,0)" xlink:href="#as"/><use transform="matrix(0.06436759972834913,0,0,0.06436759972834913,15.44822393480379,0)" xlink:href="#aB"/><use transform="matrix(0.06436759972834913,0,0,0.06436759972834913,24.45968789677267,0)" xlink:href="#ax"/><use transform="matrix(0.06436759972834913,0,0,0.06436759972834913,38.55619223728113,0)" xlink:href="#aC"/><use transform="matrix(0.06436759972834913,0,0,0.06436759972834913,51.42971218295096,0)" xlink:href="#ao"/><use transform="matrix(0.06436759972834913,0,0,0.06436759972834913,64.30323212862078,0)" xlink:href="#aD"/><use transform="matrix(0.06436759972834913,0,0,0.06436759972834913,77.1767520742906,0)" xlink:href="#aD"/><use transform="matrix(0.06436759972834913,0,0,0.06436759972834913,90.05027201996043,0)" xlink:href="#an"/><use transform="matrix(0.06436759972834913,0,0,0.06436759972834913,96.48703199279534,0)" xlink:href="#ap"/><use transform="matrix(0.06436759972834913,0,0,0.06436759972834913,110.5835363333038,0)" xlink:href="#aE"/></g><path fill="#fff" d="M24 0v-248h52v208h133V0H24" id="aF"/><g id="f"><use transform="matrix(0.06436759972834913,0,0,0.06436759972834913,0,0)" xlink:href="#aF"/><use transform="matrix(0.06436759972834913,0,0,0.06436759972834913,14.09650434050846,0)" xlink:href="#ax"/><use transform="matrix(0.06436759972834913,0,0,0.06436759972834913,28.19300868101692,0)" xlink:href="#aE"/><use transform="matrix(0.06436759972834913,0,0,0.06436759972834913,42.28951302152538,0)" xlink:href="#aE"/><use transform="matrix(0.06436759972834913,0,0,0.06436759972834913,56.38601736203384,0)" xlink:href="#an"/><use transform="matrix(0.06436759972834913,0,0,0.06436759972834913,62.82277733486875,0)" xlink:href="#ap"/><use transform="matrix(0.06436759972834913,0,0,0.06436759972834913,76.91928167537722,0)" xlink:href="#aE"/></g><path fill="#fff" d="M128 0H69L1-190h53L99-40l48-150h52" id="aG"/><g id="g"><use transform="matrix(0.06436759972834913,0,0,0.06436759972834913,0,0)" xlink:href="#ay"/><use transform="matrix(0.06436759972834913,0,0,0.06436759972834913,15.44822393480379,0)" xlink:href="#ao"/><use transform="matrix(0.06436759972834913,0,0,0.06436759972834913,28.321743880473615,0)" xlink:href="#aB"/><use transform="matrix(0.06436759972834913,0,0,0.06436759972834913,37.33320784244249,0)" xlink:href="#aG"/><use transform="matrix(0.06436759972834913,0,0,0.06436759972834913,50.20672778811232,0)" xlink:href="#ao"/><use transform="matrix(0.06436759972834913,0,0,0.06436759972834913,63.080247733782144,0)" xlink:href="#aB"/></g><path fill="#fff" d="M24-248c120-7 223 5 221 122C244-46 201 0 124 0H24v-248zM76-40c74 7 117-18 117-86 0-67-45-88-117-82v168" id="aH"/><path fill="#fff" d="M182-130c37 4 62 22 62 59C244 23 116-4 24 0v-248c84 5 203-23 205 63 0 31-19 50-47 55zM76-148c40-3 101 13 101-30 0-44-60-28-101-31v61zm0 110c48-3 116 14 116-37 0-48-69-32-116-35v72" id="aI"/><g id="h"><use transform="matrix(0.06436759972834913,0,0,0.06436759972834913,0,0)" xlink:href="#aH"/><use transform="matrix(0.06436759972834913,0,0,0.06436759972834913,16.671208329642425,0)" xlink:href="#aI"/></g><path fill="#fff" d="M230 0l2-204L168 0h-37L68-204 70 0H24v-248h70l56 185 57-185h69V0h-46" id="aJ"/><path fill="#fff" d="M140-251c80 0 125 45 125 126 0 70-33 111-92 124 6 28 34 38 68 31l-1 36C177 83 129 55 120 2 51-6 15-50 15-125c0-81 44-126 125-126zm-1 214c52 0 73-35 73-88 0-50-21-86-72-86-52 0-73 35-73 86s22 88 72 88" id="aK"/><g id="i"><use transform="matrix(0.06436759972834913,0,0,0.06436759972834913,0,0)" xlink:href="#aJ"/><use transform="matrix(0.06436759972834913,0,0,0.06436759972834913,19.24591231877639,0)" xlink:href="#aK"/></g><path fill="#b2b2b2" d="M24 0v-248h195v40H76v63h132v40H76v65h150V0H24" id="aL"/><path fill="#b2b2b2" d="M230 0l2-204L168 0h-37L68-204 70 0H24v-248h70l56 185 57-185h69V0h-46" id="aM"/><path fill="#b2b2b2" d="M169-182c-1-43-94-46-97-3 18 66 151 10 154 114 3 95-165 93-204 36-6-8-10-19-12-30l50-8c3 46 112 56 116 5-17-69-150-10-154-114-4-87 153-88 188-35 5 8 8 18 10 28" id="aN"/><path fill="#b2b2b2" d="M-4 44V30h207v14H-4" id="aO"/><path fill="#b2b2b2" d="M199 0l-22-63H83L61 0H9l90-248h61L250 0h-51zm-33-102l-36-108c-10 38-24 72-36 108h72" id="aP"/><path fill="#b2b2b2" d="M24-248c93 1 206-16 204 79-1 75-69 88-152 82V0H24v-248zm52 121c47 0 100 7 100-41 0-47-54-39-100-39v80" id="aQ"/><path fill="#b2b2b2" d="M24 0v-248h52V0H24" id="aR"/><path fill="#b2b2b2" d="M231 0h-52l-39-155L100 0H48L-1-190h46L77-45c9-52 24-97 36-145h53l37 145 32-145h46" id="aS"/><path fill="#b2b2b2" d="M25-224v-37h50v37H25zM25 0v-190h50V0H25" id="aT"/><path fill="#b2b2b2" d="M220-157c-53 9-28 100-34 157h-49v-107c1-27-5-49-29-50C55-147 81-57 75 0H25l-1-190h47c2 12-1 28 3 38 10-53 101-56 108 0 13-22 24-43 59-42 82 1 51 116 57 194h-49v-107c-1-25-5-48-29-50" id="aU"/><path fill="#b2b2b2" d="M25 0v-261h50V0H25" id="aV"/><path fill="#b2b2b2" d="M133-34C117-15 103 5 69 4 32 3 11-16 11-54c-1-60 55-63 116-61 1-26-3-47-28-47-18 1-26 9-28 27l-52-2c7-38 36-58 82-57s74 22 75 68l1 82c-1 14 12 18 25 15v27c-30 8-71 5-69-32zm-48 3c29 0 43-24 42-57-32 0-66-3-65 30 0 17 8 27 23 27" id="aW"/><path fill="#b2b2b2" d="M135-194c87-1 58 113 63 194h-50c-7-57 23-157-34-157-59 0-34 97-39 157H25l-1-190h47c2 12-1 28 3 38 12-26 28-41 61-42" id="aX"/><path fill="#b2b2b2" d="M185-48c-13 30-37 53-82 52C43 2 14-33 14-96s30-98 90-98c62 0 83 45 84 108H66c0 31 8 55 39 56 18 0 30-7 34-22zm-45-69c5-46-57-63-70-21-2 6-4 13-4 21h74" id="aY"/><path fill="#b2b2b2" d="M23 0v-37h61v-169l-59 37v-38l62-41h46v211h57V0H23" id="aZ"/><path fill="#b2b2b2" d="M24 0v-54h51V0H24" id="ba"/><path fill="#b2b2b2" d="M101-251c68 0 84 54 84 127C185-50 166 4 99 4S15-52 14-124c-1-75 17-127 87-127zm-1 216c37-5 36-46 36-89s4-89-36-89c-39 0-36 45-36 89 0 43-3 85 36 89" id="bb"/><g id="j"><use transform="matrix(0.07407407407407408,0,0,0.07407407407407408,0,0)" xlink:href="#aL"/><use transform="matrix(0.07407407407407408,0,0,0.07407407407407408,17.77777777777778,0)" xlink:href="#aM"/><use transform="matrix(0.07407407407407408,0,0,0.07407407407407408,39.92592592592593,0)" xlink:href="#aN"/><use transform="matrix(0.07407407407407408,0,0,0.07407407407407408,57.70370370370371,0)" xlink:href="#aO"/><use transform="matrix(0.07407407407407408,0,0,0.07407407407407408,72.51851851851853,0)" xlink:href="#aP"/><use transform="matrix(0.07407407407407408,0,0,0.07407407407407408,91.70370370370371,0)" xlink:href="#aQ"/><use transform="matrix(0.07407407407407408,0,0,0.07407407407407408,109.4814814814815,0)" xlink:href="#aR"/><use transform="matrix(0.07407407407407408,0,0,0.07407407407407408,116.8888888888889,0)" xlink:href="#aN"/><use transform="matrix(0.07407407407407408,0,0,0.07407407407407408,134.66666666666669,0)" xlink:href="#aS"/><use transform="matrix(0.07407407407407408,0,0,0.07407407407407408,155.40740740740742,0)" xlink:href="#aT"/><use transform="matrix(0.07407407407407408,0,0,0.07407407407407408,162.81481481481484,0)" xlink:href="#aU"/><use transform="matrix(0.07407407407407408,0,0,0.07407407407407408,186.51851851851853,0)" xlink:href="#aV"/><use transform="matrix(0.07407407407407408,0,0,0.07407407407407408,193.92592592592595,0)" xlink:href="#aW"/><use transform="matrix(0.07407407407407408,0,0,0.07407407407407408,208.74074074074076,0)" xlink:href="#aX"/><use transform="matrix(0.07407407407407408,0,0,0.07407407407407408,224.962962962963,0)" xlink:href="#aY"/><use transform="matrix(0.07407407407407408,0,0,0.07407407407407408,239.7777777777778,0)" xlink:href="#aO"/><use transform="matrix(0.07407407407407408,0,0,0.07407407407407408,254.59259259259264,0)" xlink:href="#aZ"/><use transform="matrix(0.07407407407407408,0,0,0.07407407407407408,269.40740740740745,0)" xlink:href="#ba"/><use transform="matrix(0.07407407407407408,0,0,0.07407407407407408,276.81481481481484,0)" xlink:href="#bb"/><use transform="matrix(0.07407407407407408,0,0,0.07407407407407408,291.6296296296297,0)" xlink:href="#ba"/><use transform="matrix(0.07407407407407408,0,0,0.07407407407407408,299.03703703703707,0)" xlink:href="#bb"/></g><path fill="#b2b2b2" d="M33 0v-248h34V0H33" id="bc"/><path fill="#b2b2b2" d="M106-169C34-169 62-67 57 0H25v-261h32l-1 103c12-21 28-36 61-36 89 0 53 116 60 194h-32v-121c2-32-8-49-39-48" id="bd"/><path fill="#b2b2b2" d="M100-194c62-1 85 37 85 99 1 63-27 99-86 99S16-35 15-95c0-66 28-99 85-99zM99-20c44 1 53-31 53-75 0-43-8-75-51-75s-53 32-53 75 10 74 51 75" id="be"/><path fill="#b2b2b2" d="M114-163C36-179 61-72 57 0H25l-1-190h30c1 12-1 29 2 39 6-27 23-49 58-41v29" id="bf"/><g id="k"><use transform="matrix(0.04320987654320988,0,0,0.04320987654320988,0,0)" xlink:href="#bc"/><use transform="matrix(0.04320987654320988,0,0,0.04320987654320988,4.320987654320988,0)" xlink:href="#bd"/><use transform="matrix(0.04320987654320988,0,0,0.04320987654320988,12.962962962962964,0)" xlink:href="#be"/><use transform="matrix(0.04320987654320988,0,0,0.04320987654320988,21.604938271604944,0)" xlink:href="#bf"/></g><path fill="#b2b2b2" d="M197 0v-115H63V0H30v-248h33v105h134v-105h34V0h-34" id="bg"/><path fill="#b2b2b2" d="M179-190L93 31C79 59 56 82 12 73V49c39 6 53-20 64-50L1-190h34L92-34l54-156h33" id="bh"/><path fill="#b2b2b2" d="M135-143c-3-34-86-38-87 0 15 53 115 12 119 90S17 21 10-45l28-5c4 36 97 45 98 0-10-56-113-15-118-90-4-57 82-63 122-42 12 7 21 19 24 35" id="bi"/><path fill="#b2b2b2" d="M143 0L79-87 56-68V0H24v-261h32v163l83-92h37l-77 82L181 0h-38" id="bj"/><path fill="#b2b2b2" d="M108 0H70L1-190h34L89-25l56-165h34" id="bk"/><g id="l"><use transform="matrix(0.04320987654320988,0,0,0.04320987654320988,0,0)" xlink:href="#bg"/><use transform="matrix(0.04320987654320988,0,0,0.04320987654320988,11.19135802469136,0)" xlink:href="#bf"/><use transform="matrix(0.04320987654320988,0,0,0.04320987654320988,16.333333333333336,0)" xlink:href="#bh"/><use transform="matrix(0.04320987654320988,0,0,0.04320987654320988,24.111111111111114,0)" xlink:href="#bi"/><use transform="matrix(0.04320987654320988,0,0,0.04320987654320988,31.888888888888893,0)" xlink:href="#bd"/><use transform="matrix(0.04320987654320988,0,0,0.04320987654320988,40.53086419753087,0)" xlink:href="#bj"/><use transform="matrix(0.04320987654320988,0,0,0.04320987654320988,48.308641975308646,0)" xlink:href="#be"/><use transform="matrix(0.04320987654320988,0,0,0.04320987654320988,56.95061728395062,0)" xlink:href="#bk"/></g><path fill="#b2b2b2" d="M32 76v-337h29V76H32" id="bl"/><use transform="matrix(0.04320987654320988,0,0,0.04320987654320988,0,0)" xlink:href="#bl" id="m"/><path fill="#b2b2b2" d="M153-248C145-148 188 4 80 4 36 3 13-21 6-62l32-5c4 25 16 42 43 43 27 0 39-20 39-49v-147H72v-28h81" id="bm"/><path fill="#b2b2b2" d="M84 4C-5 8 30-112 23-190h32v120c0 31 7 50 39 49 72-2 45-101 50-169h31l1 190h-30c-1-10 1-25-2-33-11 22-28 36-60 37" id="bn"/><path fill="#b2b2b2" d="M24 0v-261h32V0H24" id="bo"/><g id="n"><use transform="matrix(0.04320987654320988,0,0,0.04320987654320988,0,0)" xlink:href="#bm"/><use transform="matrix(0.04320987654320988,0,0,0.04320987654320988,7.777777777777779,0)" xlink:href="#bn"/><use transform="matrix(0.04320987654320988,0,0,0.04320987654320988,16.419753086419753,0)" xlink:href="#bo"/><use transform="matrix(0.04320987654320988,0,0,0.04320987654320988,19.833333333333336,0)" xlink:href="#bh"/></g><path fill="#b2b2b2" d="M54-142c48-35 137-8 131 61C196 18 31 33 14-55l32-4c7 23 22 37 52 37 35-1 51-22 54-58 4-55-73-65-99-34H22l8-134h141v27H59" id="bp"/><path fill="#b2b2b2" d="M68-38c1 34 0 65-14 84H32c9-13 17-26 17-46H33v-38h35" id="bq"/><g id="o"><use transform="matrix(0.04320987654320988,0,0,0.04320987654320988,0,0)" xlink:href="#bp"/><use transform="matrix(0.04320987654320988,0,0,0.04320987654320988,8.641975308641976,0)" xlink:href="#bq"/></g><path fill="#b2b2b2" d="M101-251c82-7 93 87 43 132L82-64C71-53 59-42 53-27h129V0H18c2-99 128-94 128-182 0-28-16-43-45-43s-46 15-49 41l-32-3c6-41 34-60 81-64" id="br"/><path fill="#b2b2b2" d="M101-251c68 0 85 55 85 127S166 4 100 4C33 4 14-52 14-124c0-73 17-127 87-127zm-1 229c47 0 54-49 54-102s-4-102-53-102c-51 0-55 48-55 102 0 53 5 102 54 102" id="bs"/><g id="p"><use transform="matrix(0.04320987654320988,0,0,0.04320987654320988,0,0)" xlink:href="#br"/><use transform="matrix(0.04320987654320988,0,0,0.04320987654320988,8.641975308641976,0)" xlink:href="#bs"/><use transform="matrix(0.04320987654320988,0,0,0.04320987654320988,17.283950617283953,0)" xlink:href="#br"/><use transform="matrix(0.04320987654320988,0,0,0.04320987654320988,25.925925925925927,0)" xlink:href="#bs"/></g><path fill="#fff" d="M233-177c-1 41-23 64-60 70L243 0h-38l-65-103H63V0H30v-248c88 3 205-21 203 71zM63-129c60-2 137 13 137-47 0-61-80-42-137-45v92" id="bt"/><path fill="#fff" d="M100-194c63 0 86 42 84 106H49c0 40 14 67 53 68 26 1 43-12 49-29l28 8c-11 28-37 45-77 45C44 4 14-33 15-96c1-61 26-98 85-98zm52 81c6-60-76-77-97-28-3 7-6 17-6 28h103" id="bu"/><path fill="#fff" d="M145-31C134-9 116 4 85 4 32 4 16-35 15-94c0-59 17-99 70-100 32-1 48 14 60 33 0-11-1-24 2-32h30l-1 268h-32zM93-21c41 0 51-33 51-76s-8-73-50-73c-40 0-46 35-46 75s5 74 45 74" id="bv"/><path fill="#fff" d="M84 4C-5 8 30-112 23-190h32v120c0 31 7 50 39 49 72-2 45-101 50-169h31l1 190h-30c-1-10 1-25-2-33-11 22-28 36-60 37" id="bw"/><path fill="#fff" d="M135-143c-3-34-86-38-87 0 15 53 115 12 119 90S17 21 10-45l28-5c4 36 97 45 98 0-10-56-113-15-118-90-4-57 82-63 122-42 12 7 21 19 24 35" id="bx"/><path fill="#fff" d="M59-47c-2 24 18 29 38 22v24C64 9 27 4 27-40v-127H5v-23h24l9-43h21v43h35v23H59v120" id="by"/><g id="q"><use transform="matrix(0.07151955525372126,0,0,0.07151955525372126,0,0)" xlink:href="#bt"/><use transform="matrix(0.07151955525372126,0,0,0.07151955525372126,18.523564810713808,0)" xlink:href="#bu"/><use transform="matrix(0.07151955525372126,0,0,0.07151955525372126,32.82747586145806,0)" xlink:href="#bv"/><use transform="matrix(0.07151955525372126,0,0,0.07151955525372126,47.131386912202316,0)" xlink:href="#bw"/><use transform="matrix(0.07151955525372126,0,0,0.07151955525372126,61.43529796294658,0)" xlink:href="#bu"/><use transform="matrix(0.07151955525372126,0,0,0.07151955525372126,75.73920901369083,0)" xlink:href="#bx"/><use transform="matrix(0.07151955525372126,0,0,0.07151955525372126,88.61272895936065,0)" xlink:href="#by"/></g><g id="r"><use transform="matrix(0.07151955525372126,0,0,0.07151955525372126,0,0)" xlink:href="#bt"/><use transform="matrix(0.07151955525372126,0,0,0.07151955525372126,18.523564810713808,0)" xlink:href="#bu"/><use transform="matrix(0.07151955525372126,0,0,0.07151955525372126,32.82747586145806,0)" xlink:href="#bv"/><use transform="matrix(0.07151955525372126,0,0,0.07151955525372126,47.131386912202316,0)" xlink:href="#bw"/><use transform="matrix(0.07151955525372126,0,0,0.07151955525372126,61.43529796294658,0)" xlink:href="#bu"/><use transform="matrix(0.07151955525372126,0,0,0.07151955525372126,75.73920901369083,0)" xlink:href="#bx"/><use transform="matrix(0.07151955525372126,0,0,0.07151955525372126,88.61272895936065,0)" xlink:href="#by"/></g><path fill="#fff" d="M140-251c81 0 123 46 123 126C263-46 219 4 140 4 59 4 17-45 17-125s42-126 123-126zm0 227c63 0 89-41 89-101s-29-99-89-99c-61 0-89 39-89 99S79-25 140-24" id="bz"/><path fill="#fff" d="M194 0L95-120 63-95V0H30v-248h33v124l119-124h40L117-140 236 0h-42" id="bA"/><path fill="#fff" d="M103-251c84 0 111 97 45 133-19 10-37 24-39 52H78c0-63 77-55 77-114 0-30-21-42-52-43-32 0-53 17-56 46l-32-2c7-45 34-72 88-72zM77 0v-35h34V0H77" id="bB"/><g id="s"><use transform="matrix(0.07151955525372126,0,0,0.07151955525372126,0,0)" xlink:href="#bz"/><use transform="matrix(0.07151955525372126,0,0,0.07151955525372126,20.025475471041954,0)" xlink:href="#bA"/><use transform="matrix(0.07151955525372126,0,0,0.07151955525372126,37.19016873193506,0)" xlink:href="#bB"/></g><path fill="#fff" d="M30 0v-248h187v28H63v79h144v27H63v87h162V0H30" id="bC"/><path fill="#fff" d="M114-163C36-179 61-72 57 0H25l-1-190h30c1 12-1 29 2 39 6-27 23-49 58-41v29" id="bD"/><path fill="#fff" d="M100-194c62-1 85 37 85 99 1 63-27 99-86 99S16-35 15-95c0-66 28-99 85-99zM99-20c44 1 53-31 53-75 0-43-8-75-51-75s-53 32-53 75 10 74 51 75" id="bE"/><g id="t"><use transform="matrix(0.07151955525372126,0,0,0.07151955525372126,0,0)" xlink:href="#bC"/><use transform="matrix(0.07151955525372126,0,0,0.07151955525372126,17.164693260893102,0)" xlink:href="#bD"/><use transform="matrix(0.07151955525372126,0,0,0.07151955525372126,25.67552033608593,0)" xlink:href="#bD"/><use transform="matrix(0.07151955525372126,0,0,0.07151955525372126,34.18634741127876,0)" xlink:href="#bE"/><use transform="matrix(0.07151955525372126,0,0,0.07151955525372126,48.490258462023014,0)" xlink:href="#bD"/></g><path fill="#fff" d="M96-169c-40 0-48 33-48 73s9 75 48 75c24 0 41-14 43-38l32 2c-6 37-31 61-74 61-59 0-76-41-82-99-10-93 101-131 147-64 4 7 5 14 7 22l-32 3c-4-21-16-35-41-35" id="bF"/><path fill="#fff" d="M85-194c31 0 48 13 60 33l-1-100h32l1 261h-30c-2-10 0-23-3-31C134-8 116 4 85 4 32 4 16-35 15-94c0-66 23-100 70-100zm9 24c-40 0-46 34-46 75 0 40 6 74 45 74 42 0 51-32 51-76 0-42-9-74-50-73" id="bG"/><g id="u"><use transform="matrix(0.07151955525372126,0,0,0.07151955525372126,0,0)" xlink:href="#bF"/><use transform="matrix(0.07151955525372126,0,0,0.07151955525372126,12.873519945669827,0)" xlink:href="#bE"/><use transform="matrix(0.07151955525372126,0,0,0.07151955525372126,27.17743099641408,0)" xlink:href="#bG"/><use transform="matrix(0.07151955525372126,0,0,0.07151955525372126,41.481342047158336,0)" xlink:href="#bu"/></g><path fill="#fff" d="M155-56V0h-30v-56H8v-25l114-167h33v167h35v25h-35zm-30-156c-27 46-58 90-88 131h88v-131" id="bH"/><path fill="#fff" d="M141 0L90-78 38 0H4l68-98-65-92h35l48 74 47-74h35l-64 92 68 98h-35" id="bI"/><path fill="#fff" d="M0 4l72-265h28L28 4H0" id="bJ"/><path fill="#fff" d="M54-142c48-35 137-8 131 61C196 18 31 33 14-55l32-4c7 23 22 37 52 37 35-1 51-22 54-58 4-55-73-65-99-34H22l8-134h141v27H59" id="bK"/><g id="v"><use transform="matrix(0.07151955525372126,0,0,0.07151955525372126,0,0)" xlink:href="#bH"/><use transform="matrix(0.07151955525372126,0,0,0.07151955525372126,14.303911050744253,0)" xlink:href="#bI"/><use transform="matrix(0.07151955525372126,0,0,0.07151955525372126,27.17743099641408,0)" xlink:href="#bI"/><use transform="matrix(0.07151955525372126,0,0,0.07151955525372126,40.05095094208391,0)" xlink:href="#bJ"/><use transform="matrix(0.07151955525372126,0,0,0.07151955525372126,47.20290646745603,0)" xlink:href="#bK"/><use transform="matrix(0.07151955525372126,0,0,0.07151955525372126,61.506817518200286,0)" xlink:href="#bI"/><use transform="matrix(0.07151955525372126,0,0,0.07151955525372126,74.38033746387012,0)" xlink:href="#bI"/></g><path d="M190 0L58-211 59 0H30v-248h39L202-35l-2-213h31V0h-41" id="bL"/><path d="M140-251c81 0 123 46 123 126C263-46 219 4 140 4 59 4 17-45 17-125s42-126 123-126zm0 227c63 0 89-41 89-101s-29-99-89-99c-61 0-89 39-89 99S79-25 140-24" id="bM"/><g id="w"><use transform="matrix(0.050063688677604884,0,0,0.050063688677604884,0,0)" xlink:href="#bL"/><use transform="matrix(0.050063688677604884,0,0,0.050063688677604884,12.966495367499665,0)" xlink:href="#bM"/></g><path fill="#fff" d="M117-194c89-4 53 116 60 194h-32v-121c0-31-8-49-39-48C34-167 62-67 57 0H25l-1-190h30c1 10-1 24 2 32 11-22 29-35 61-36" id="bN"/><g id="x"><use transform="matrix(0.07151955525372126,0,0,0.07151955525372126,0,0)" xlink:href="#bC"/><use transform="matrix(0.07151955525372126,0,0,0.07151955525372126,17.164693260893102,0)" xlink:href="#bN"/><use transform="matrix(0.07151955525372126,0,0,0.07151955525372126,31.468604311637357,0)" xlink:href="#bF"/><use transform="matrix(0.07151955525372126,0,0,0.07151955525372126,44.342124257307184,0)" xlink:href="#bE"/><use transform="matrix(0.07151955525372126,0,0,0.07151955525372126,58.64603530805144,0)" xlink:href="#bG"/><use transform="matrix(0.07151955525372126,0,0,0.07151955525372126,72.94994635879569,0)" xlink:href="#bu"/></g><path fill="#fff" d="M115-194c55 1 70 41 70 98S169 2 115 4C84 4 66-9 55-30l1 105H24l-1-265h31l2 30c10-21 28-34 59-34zm-8 174c40 0 45-34 45-75s-6-73-45-74c-42 0-51 32-51 76 0 43 10 73 51 73" id="bO"/><path fill="#fff" d="M24-231v-30h32v30H24zM24 0v-190h32V0H24" id="bP"/><path fill="#fff" d="M141-36C126-15 110 5 73 4 37 3 15-17 15-53c-1-64 63-63 125-63 3-35-9-54-41-54-24 1-41 7-42 31l-33-3c5-37 33-52 76-52 45 0 72 20 72 64v82c-1 20 7 32 28 27v20c-31 9-61-2-59-35zM48-53c0 20 12 33 32 33 41-3 63-29 60-74-43 2-92-5-92 41" id="bQ"/><path fill="#fff" d="M24 0v-261h32V0H24" id="bR"/><g id="y"><use transform="matrix(0.07151955525372126,0,0,0.07151955525372126,0,0)" xlink:href="#bx"/><use transform="matrix(0.07151955525372126,0,0,0.07151955525372126,12.873519945669827,0)" xlink:href="#bO"/><use transform="matrix(0.07151955525372126,0,0,0.07151955525372126,27.17743099641408,0)" xlink:href="#bu"/><use transform="matrix(0.07151955525372126,0,0,0.07151955525372126,41.481342047158336,0)" xlink:href="#bF"/><use transform="matrix(0.07151955525372126,0,0,0.07151955525372126,54.35486199282816,0)" xlink:href="#bP"/><use transform="matrix(0.07151955525372126,0,0,0.07151955525372126,60.00490685787214,0)" xlink:href="#bQ"/><use transform="matrix(0.07151955525372126,0,0,0.07151955525372126,74.30881790861639,0)" xlink:href="#bR"/></g><path fill="#fff" d="M106-169C34-169 62-67 57 0H25v-261h32l-1 103c12-21 28-36 61-36 89 0 53 116 60 194h-32v-121c2-32-8-49-39-48" id="bS"/><g id="z"><use transform="matrix(0.07151955525372126,0,0,0.07151955525372126,0,0)" xlink:href="#bF"/><use transform="matrix(0.07151955525372126,0,0,0.07151955525372126,12.873519945669827,0)" xlink:href="#bS"/><use transform="matrix(0.07151955525372126,0,0,0.07151955525372126,27.17743099641408,0)" xlink:href="#bQ"/><use transform="matrix(0.07151955525372126,0,0,0.07151955525372126,41.481342047158336,0)" xlink:href="#bD"/><use transform="matrix(0.07151955525372126,0,0,0.07151955525372126,49.992169122351164,0)" xlink:href="#bQ"/><use transform="matrix(0.07151955525372126,0,0,0.07151955525372126,64.29608017309542,0)" xlink:href="#bF"/><use transform="matrix(0.07151955525372126,0,0,0.07151955525372126,77.16960011876525,0)" xlink:href="#by"/><use transform="matrix(0.07151955525372126,0,0,0.07151955525372126,84.32155564413738,0)" xlink:href="#bu"/><use transform="matrix(0.07151955525372126,0,0,0.07151955525372126,98.62546669488162,0)" xlink:href="#bD"/><use transform="matrix(0.07151955525372126,0,0,0.07151955525372126,107.13629377007446,0)" xlink:href="#bx"/></g><g id="A"><use transform="matrix(0.07151955525372126,0,0,0.07151955525372126,0,0)" xlink:href="#bQ"/><use transform="matrix(0.07151955525372126,0,0,0.07151955525372126,14.303911050744253,0)" xlink:href="#bx"/></g><g id="B"><use transform="matrix(0.07151955525372126,0,0,0.07151955525372126,0,0)" xlink:href="#bO"/><use transform="matrix(0.07151955525372126,0,0,0.07151955525372126,14.303911050744253,0)" xlink:href="#bR"/><use transform="matrix(0.07151955525372126,0,0,0.07151955525372126,19.95395591578823,0)" xlink:href="#bQ"/><use transform="matrix(0.07151955525372126,0,0,0.07151955525372126,34.25786696653248,0)" xlink:href="#bN"/></g><g id="C"><use transform="matrix(0.07151955525372126,0,0,0.07151955525372126,0,0)" xlink:href="#by"/><use transform="matrix(0.07151955525372126,0,0,0.07151955525372126,7.151955525372126,0)" xlink:href="#bu"/><use transform="matrix(0.07151955525372126,0,0,0.07151955525372126,21.455866576116378,0)" xlink:href="#bI"/><use transform="matrix(0.07151955525372126,0,0,0.07151955525372126,34.329386521786205,0)" xlink:href="#by"/></g><path fill="#fff" d="M185-189c-5-48-123-54-124 2 14 75 158 14 163 119 3 78-121 87-175 55-17-10-28-26-33-46l33-7c5 56 141 63 141-1 0-78-155-14-162-118-5-82 145-84 179-34 5 7 8 16 11 25" id="bT"/><g id="D"><use transform="matrix(0.07151955525372126,0,0,0.07151955525372126,0,0)" xlink:href="#bT"/><use transform="matrix(0.07151955525372126,0,0,0.07151955525372126,17.164693260893102,0)" xlink:href="#by"/><use transform="matrix(0.07151955525372126,0,0,0.07151955525372126,24.31664878626523,0)" xlink:href="#bD"/><use transform="matrix(0.07151955525372126,0,0,0.07151955525372126,32.82747586145806,0)" xlink:href="#bP"/><use transform="matrix(0.07151955525372126,0,0,0.07151955525372126,38.47752072650204,0)" xlink:href="#bO"/></g><path fill="#fff" d="M179-190L93 31C79 59 56 82 12 73V49c39 6 53-20 64-50L1-190h34L92-34l54-156h33" id="bU"/><g id="E"><use transform="matrix(0.07151955525372126,0,0,0.07151955525372126,0,0)" xlink:href="#bO"/><use transform="matrix(0.07151955525372126,0,0,0.07151955525372126,14.303911050744253,0)" xlink:href="#bE"/><use transform="matrix(0.07151955525372126,0,0,0.07151955525372126,28.607822101488505,0)" xlink:href="#by"/><use transform="matrix(0.07151955525372126,0,0,0.07151955525372126,35.75977762686063,0)" xlink:href="#bu"/><use transform="matrix(0.07151955525372126,0,0,0.07151955525372126,50.06368867760489,0)" xlink:href="#bN"/><use transform="matrix(0.07151955525372126,0,0,0.07151955525372126,64.36759972834913,0)" xlink:href="#by"/><use transform="matrix(0.07151955525372126,0,0,0.07151955525372126,71.51955525372126,0)" xlink:href="#bP"/><use transform="matrix(0.07151955525372126,0,0,0.07151955525372126,77.16960011876525,0)" xlink:href="#bQ"/><use transform="matrix(0.07151955525372126,0,0,0.07151955525372126,91.4735111695095,0)" xlink:href="#bR"/><use transform="matrix(0.07151955525372126,0,0,0.07151955525372126,97.12355603455347,0)" xlink:href="#bR"/><use transform="matrix(0.07151955525372126,0,0,0.07151955525372126,102.77360089959745,0)" xlink:href="#bU"/></g><path fill="#fff" d="M177-190C167-65 218 103 67 71c-23-6-38-20-44-43l32-5c15 47 100 32 89-28v-30C133-14 115 1 83 1 29 1 15-40 15-95c0-56 16-97 71-98 29-1 48 16 59 35 1-10 0-23 2-32h30zM94-22c36 0 50-32 50-73 0-42-14-75-50-75-39 0-46 34-46 75s6 73 46 73" id="bV"/><g id="F"><use transform="matrix(0.07151955525372126,0,0,0.07151955525372126,0,0)" xlink:href="#bG"/><use transform="matrix(0.07151955525372126,0,0,0.07151955525372126,14.303911050744253,0)" xlink:href="#bQ"/><use transform="matrix(0.07151955525372126,0,0,0.07151955525372126,28.607822101488505,0)" xlink:href="#bN"/><use transform="matrix(0.07151955525372126,0,0,0.07151955525372126,42.911733152232756,0)" xlink:href="#bV"/><use transform="matrix(0.07151955525372126,0,0,0.07151955525372126,57.21564420297701,0)" xlink:href="#bu"/><use transform="matrix(0.07151955525372126,0,0,0.07151955525372126,71.51955525372126,0)" xlink:href="#bD"/><use transform="matrix(0.07151955525372126,0,0,0.07151955525372126,80.0303823289141,0)" xlink:href="#bE"/><use transform="matrix(0.07151955525372126,0,0,0.07151955525372126,94.33429337965835,0)" xlink:href="#bw"/><use transform="matrix(0.07151955525372126,0,0,0.07151955525372126,108.6382044304026,0)" xlink:href="#bx"/></g><g id="G"><use transform="matrix(0.07151955525372126,0,0,0.07151955525372126,0,0)" xlink:href="#bO"/><use transform="matrix(0.07151955525372126,0,0,0.07151955525372126,14.303911050744253,0)" xlink:href="#bD"/><use transform="matrix(0.07151955525372126,0,0,0.07151955525372126,22.814738125937083,0)" xlink:href="#bE"/><use transform="matrix(0.07151955525372126,0,0,0.07151955525372126,37.11864917668134,0)" xlink:href="#by"/><use transform="matrix(0.07151955525372126,0,0,0.07151955525372126,44.27060470205346,0)" xlink:href="#bE"/><use transform="matrix(0.07151955525372126,0,0,0.07151955525372126,58.574515752797716,0)" xlink:href="#bF"/><use transform="matrix(0.07151955525372126,0,0,0.07151955525372126,71.44803569846755,0)" xlink:href="#bE"/><use transform="matrix(0.07151955525372126,0,0,0.07151955525372126,85.7519467492118,0)" xlink:href="#bR"/></g><g id="H"><use transform="matrix(0.07151955525372126,0,0,0.07151955525372126,0,0)" xlink:href="#bG"/><use transform="matrix(0.07151955525372126,0,0,0.07151955525372126,14.303911050744253,0)" xlink:href="#bQ"/><use transform="matrix(0.07151955525372126,0,0,0.07151955525372126,28.607822101488505,0)" xlink:href="#by"/><use transform="matrix(0.07151955525372126,0,0,0.07151955525372126,35.75977762686063,0)" xlink:href="#bQ"/></g><path fill="#fff" d="M137 0h-34L2-248h35l83 218 83-218h36" id="bW"/><g id="I"><use transform="matrix(0.07151955525372126,0,0,0.07151955525372126,0,0)" xlink:href="#bW"/><use transform="matrix(0.07151955525372126,0,0,0.07151955525372126,15.23366526904263,0)" xlink:href="#bQ"/><use transform="matrix(0.07151955525372126,0,0,0.07151955525372126,29.53757631978688,0)" xlink:href="#bR"/><use transform="matrix(0.07151955525372126,0,0,0.07151955525372126,35.18762118483086,0)" xlink:href="#bP"/><use transform="matrix(0.07151955525372126,0,0,0.07151955525372126,40.83766604987484,0)" xlink:href="#bG"/><use transform="matrix(0.07151955525372126,0,0,0.07151955525372126,55.141577100619095,0)" xlink:href="#bQ"/><use transform="matrix(0.07151955525372126,0,0,0.07151955525372126,69.44548815136335,0)" xlink:href="#by"/><use transform="matrix(0.07151955525372126,0,0,0.07151955525372126,76.59744367673548,0)" xlink:href="#bP"/><use transform="matrix(0.07151955525372126,0,0,0.07151955525372126,82.24748854177946,0)" xlink:href="#bE"/><use transform="matrix(0.07151955525372126,0,0,0.07151955525372126,96.55139959252371,0)" xlink:href="#bN"/></g><g id="J"><use transform="matrix(0.07151955525372126,0,0,0.07151955525372126,0,0)" xlink:href="#bQ"/><use transform="matrix(0.07151955525372126,0,0,0.07151955525372126,14.303911050744253,0)" xlink:href="#bN"/><use transform="matrix(0.07151955525372126,0,0,0.07151955525372126,28.607822101488505,0)" xlink:href="#bG"/></g><path fill="#fff" d="M210-169c-67 3-38 105-44 169h-31v-121c0-29-5-50-35-48C34-165 62-65 56 0H25l-1-190h30c1 10-1 24 2 32 10-44 99-50 107 0 11-21 27-35 58-36 85-2 47 119 55 194h-31v-121c0-29-5-49-35-48" id="bX"/><path fill="#fff" d="M108 0H70L1-190h34L89-25l56-165h34" id="bY"/><g id="K"><use transform="matrix(0.07151955525372126,0,0,0.07151955525372126,0,0)" xlink:href="#bD"/><use transform="matrix(0.07151955525372126,0,0,0.07151955525372126,8.51082707519283,0)" xlink:href="#bu"/><use transform="matrix(0.07151955525372126,0,0,0.07151955525372126,22.814738125937083,0)" xlink:href="#bX"/><use transform="matrix(0.07151955525372126,0,0,0.07151955525372126,44.19908514679975,0)" xlink:href="#bE"/><use transform="matrix(0.07151955525372126,0,0,0.07151955525372126,58.502996197544,0)" xlink:href="#bY"/><use transform="matrix(0.07151955525372126,0,0,0.07151955525372126,71.37651614321382,0)" xlink:href="#bu"/></g><g id="L"><use transform="matrix(0.07151955525372126,0,0,0.07151955525372126,0,0)" xlink:href="#bN"/><use transform="matrix(0.07151955525372126,0,0,0.07151955525372126,14.303911050744253,0)" xlink:href="#bE"/><use transform="matrix(0.07151955525372126,0,0,0.07151955525372126,28.607822101488505,0)" xlink:href="#by"/></g><g id="M"><use transform="matrix(0.07151955525372126,0,0,0.07151955525372126,0,0)" xlink:href="#bw"/><use transform="matrix(0.07151955525372126,0,0,0.07151955525372126,14.303911050744253,0)" xlink:href="#bx"/><use transform="matrix(0.07151955525372126,0,0,0.07151955525372126,27.17743099641408,0)" xlink:href="#bu"/></g><path d="M137-103V0h-34v-103L8-248h37l75 118 75-118h37" id="bZ"/><path d="M30 0v-248h187v28H63v79h144v27H63v87h162V0H30" id="ca"/><path d="M185-189c-5-48-123-54-124 2 14 75 158 14 163 119 3 78-121 87-175 55-17-10-28-26-33-46l33-7c5 56 141 63 141-1 0-78-155-14-162-118-5-82 145-84 179-34 5 7 8 16 11 25" id="cb"/><g id="N"><use transform="matrix(0.050063688677604884,0,0,0.050063688677604884,0,0)" xlink:href="#bZ"/><use transform="matrix(0.050063688677604884,0,0,0.050063688677604884,12.015285282625172,0)" xlink:href="#ca"/><use transform="matrix(0.050063688677604884,0,0,0.050063688677604884,24.030570565250343,0)" xlink:href="#cb"/></g><path fill="#fff" d="M212-179c-10-28-35-45-73-45-59 0-87 40-87 99 0 60 29 101 89 101 43 0 62-24 78-52l27 14C228-24 195 4 139 4 59 4 22-46 18-125c-6-104 99-153 187-111 19 9 31 26 39 46" id="cc"/><g id="O"><use transform="matrix(0.07151955525372126,0,0,0.07151955525372126,0,0)" xlink:href="#cc"/><use transform="matrix(0.07151955525372126,0,0,0.07151955525372126,18.523564810713808,0)" xlink:href="#bQ"/><use transform="matrix(0.07151955525372126,0,0,0.07151955525372126,32.82747586145806,0)" xlink:href="#bF"/><use transform="matrix(0.07151955525372126,0,0,0.07151955525372126,45.70099580712789,0)" xlink:href="#bS"/><use transform="matrix(0.07151955525372126,0,0,0.07151955525372126,60.00490685787214,0)" xlink:href="#bu"/><use transform="matrix(0.07151955525372126,0,0,0.07151955525372126,74.30881790861639,0)" xlink:href="#bG"/><use transform="matrix(0.07151955525372126,0,0,0.07151955525372126,88.61272895936064,0)" xlink:href="#bB"/></g><g id="P"><use transform="matrix(0.07151955525372126,0,0,0.07151955525372126,0,0)" xlink:href="#bt"/><use transform="matrix(0.07151955525372126,0,0,0.07151955525372126,18.523564810713808,0)" xlink:href="#bu"/><use transform="matrix(0.07151955525372126,0,0,0.07151955525372126,32.82747586145806,0)" xlink:href="#by"/><use transform="matrix(0.07151955525372126,0,0,0.07151955525372126,39.979431386830186,0)" xlink:href="#bD"/><use transform="matrix(0.07151955525372126,0,0,0.07151955525372126,48.490258462023014,0)" xlink:href="#bU"/></g><g id="Q"><use transform="matrix(0.07151955525372126,0,0,0.07151955525372126,0,0)" xlink:href="#bD"/><use transform="matrix(0.07151955525372126,0,0,0.07151955525372126,8.51082707519283,0)" xlink:href="#bu"/><use transform="matrix(0.07151955525372126,0,0,0.07151955525372126,22.814738125937083,0)" xlink:href="#bv"/><use transform="matrix(0.07151955525372126,0,0,0.07151955525372126,37.11864917668134,0)" xlink:href="#bw"/><use transform="matrix(0.07151955525372126,0,0,0.07151955525372126,51.42256022742559,0)" xlink:href="#bu"/><use transform="matrix(0.07151955525372126,0,0,0.07151955525372126,65.72647127816984,0)" xlink:href="#bx"/><use transform="matrix(0.07151955525372126,0,0,0.07151955525372126,78.59999122383967,0)" xlink:href="#by"/></g><path fill="#fff" d="M240 0l2-218c-23 76-54 145-80 218h-23L58-218 59 0H30v-248h44l77 211c21-75 51-140 76-211h43V0h-30" id="cd"/><path fill="#fff" d="M101-234c-31-9-42 10-38 44h38v23H63V0H32v-167H5v-23h27c-7-52 17-82 69-68v24" id="ce"/><g id="R"><use transform="matrix(0.07151955525372126,0,0,0.07151955525372126,0,0)" xlink:href="#cd"/><use transform="matrix(0.07151955525372126,0,0,0.07151955525372126,21.38434702086266,0)" xlink:href="#bE"/><use transform="matrix(0.07151955525372126,0,0,0.07151955525372126,35.68825807160691,0)" xlink:href="#bG"/><use transform="matrix(0.07151955525372126,0,0,0.07151955525372126,49.992169122351164,0)" xlink:href="#bP"/><use transform="matrix(0.07151955525372126,0,0,0.07151955525372126,55.642213987395145,0)" xlink:href="#ce"/><use transform="matrix(0.07151955525372126,0,0,0.07151955525372126,62.79416951276727,0)" xlink:href="#bP"/><use transform="matrix(0.07151955525372126,0,0,0.07151955525372126,68.44421437781125,0)" xlink:href="#bu"/><use transform="matrix(0.07151955525372126,0,0,0.07151955525372126,82.7481254285555,0)" xlink:href="#bG"/><use transform="matrix(0.07151955525372126,0,0,0.07151955525372126,97.05203647929974,0)" xlink:href="#bB"/></g><g id="S"><use transform="matrix(0.07151955525372126,0,0,0.07151955525372126,0,0)" xlink:href="#bT"/><use transform="matrix(0.07151955525372126,0,0,0.07151955525372126,17.164693260893102,0)" xlink:href="#by"/><use transform="matrix(0.07151955525372126,0,0,0.07151955525372126,24.31664878626523,0)" xlink:href="#bE"/><use transform="matrix(0.07151955525372126,0,0,0.07151955525372126,38.62055983700948,0)" xlink:href="#bD"/><use transform="matrix(0.07151955525372126,0,0,0.07151955525372126,47.1313869122023,0)" xlink:href="#bu"/></g><g id="T"><use transform="matrix(0.07151955525372126,0,0,0.07151955525372126,0,0)" xlink:href="#bP"/><use transform="matrix(0.07151955525372126,0,0,0.07151955525372126,5.65004486504398,0)" xlink:href="#bN"/></g><g id="U"><use transform="matrix(0.07151955525372126,0,0,0.07151955525372126,0,0)" xlink:href="#bF"/><use transform="matrix(0.07151955525372126,0,0,0.07151955525372126,12.873519945669827,0)" xlink:href="#bQ"/><use transform="matrix(0.07151955525372126,0,0,0.07151955525372126,27.17743099641408,0)" xlink:href="#bF"/><use transform="matrix(0.07151955525372126,0,0,0.07151955525372126,40.05095094208391,0)" xlink:href="#bS"/><use transform="matrix(0.07151955525372126,0,0,0.07151955525372126,54.35486199282816,0)" xlink:href="#bu"/></g><path fill="#fff" d="M30 0v-248h33v221h125V0H30" id="cf"/><g id="V"><use transform="matrix(0.07151955525372126,0,0,0.07151955525372126,0,0)" xlink:href="#cf"/><use transform="matrix(0.07151955525372126,0,0,0.07151955525372126,14.303911050744253,0)" xlink:href="#bE"/><use transform="matrix(0.07151955525372126,0,0,0.07151955525372126,28.607822101488505,0)" xlink:href="#bV"/><use transform="matrix(0.07151955525372126,0,0,0.07151955525372126,42.911733152232756,0)" xlink:href="#bV"/><use transform="matrix(0.07151955525372126,0,0,0.07151955525372126,57.21564420297701,0)" xlink:href="#bP"/><use transform="matrix(0.07151955525372126,0,0,0.07151955525372126,62.86568906802099,0)" xlink:href="#bN"/><use transform="matrix(0.07151955525372126,0,0,0.07151955525372126,77.16960011876525,0)" xlink:href="#bV"/></g><g id="W"><use transform="matrix(0.07151955525372126,0,0,0.07151955525372126,0,0)" xlink:href="#bO"/><use transform="matrix(0.07151955525372126,0,0,0.07151955525372126,14.303911050744253,0)" xlink:href="#bu"/><use transform="matrix(0.07151955525372126,0,0,0.07151955525372126,28.607822101488505,0)" xlink:href="#bD"/><use transform="matrix(0.07151955525372126,0,0,0.07151955525372126,37.11864917668134,0)" xlink:href="#by"/><use transform="matrix(0.07151955525372126,0,0,0.07151955525372126,44.27060470205346,0)" xlink:href="#bP"/><use transform="matrix(0.07151955525372126,0,0,0.07151955525372126,49.92064956709744,0)" xlink:href="#bN"/><use transform="matrix(0.07151955525372126,0,0,0.07151955525372126,64.22456061784169,0)" xlink:href="#bu"/><use transform="matrix(0.07151955525372126,0,0,0.07151955525372126,78.52847166858594,0)" xlink:href="#bN"/><use transform="matrix(0.07151955525372126,0,0,0.07151955525372126,92.83238271933018,0)" xlink:href="#by"/></g><g id="X"><use transform="matrix(0.07151955525372126,0,0,0.07151955525372126,0,0)" xlink:href="#bP"/><use transform="matrix(0.07151955525372126,0,0,0.07151955525372126,5.65004486504398,0)" xlink:href="#bN"/><use transform="matrix(0.07151955525372126,0,0,0.07151955525372126,19.95395591578823,0)" xlink:href="#ce"/><use transform="matrix(0.07151955525372126,0,0,0.07151955525372126,27.10591144116036,0)" xlink:href="#bE"/><use transform="matrix(0.07151955525372126,0,0,0.07151955525372126,41.40982249190461,0)" xlink:href="#bD"/><use transform="matrix(0.07151955525372126,0,0,0.07151955525372126,49.92064956709744,0)" xlink:href="#bX"/><use transform="matrix(0.07151955525372126,0,0,0.07151955525372126,71.3049965879601,0)" xlink:href="#bQ"/><use transform="matrix(0.07151955525372126,0,0,0.07151955525372126,85.60890763870435,0)" xlink:href="#by"/><use transform="matrix(0.07151955525372126,0,0,0.07151955525372126,92.76086316407648,0)" xlink:href="#bP"/><use transform="matrix(0.07151955525372126,0,0,0.07151955525372126,98.41090802912046,0)" xlink:href="#bE"/><use transform="matrix(0.07151955525372126,0,0,0.07151955525372126,112.71481907986471,0)" xlink:href="#bN"/></g><g id="Y"><use transform="matrix(0.07151955525372126,0,0,0.07151955525372126,0,0)" xlink:href="#bT"/><use transform="matrix(0.07151955525372126,0,0,0.07151955525372126,17.164693260893102,0)" xlink:href="#bw"/><use transform="matrix(0.07151955525372126,0,0,0.07151955525372126,31.468604311637357,0)" xlink:href="#bF"/><use transform="matrix(0.07151955525372126,0,0,0.07151955525372126,44.342124257307184,0)" xlink:href="#bF"/><use transform="matrix(0.07151955525372126,0,0,0.07151955525372126,57.21564420297701,0)" xlink:href="#bu"/><use transform="matrix(0.07151955525372126,0,0,0.07151955525372126,71.51955525372126,0)" xlink:href="#bx"/><use transform="matrix(0.07151955525372126,0,0,0.07151955525372126,84.39307519939109,0)" xlink:href="#bx"/></g><path fill="#fff" d="M101-251c82-7 93 87 43 132L82-64C71-53 59-42 53-27h129V0H18c2-99 128-94 128-182 0-28-16-43-45-43s-46 15-49 41l-32-3c6-41 34-60 81-64" id="cg"/><g id="Z"><use transform="matrix(0.07151955525372126,0,0,0.07151955525372126,0,0)" xlink:href="#cg"/><use transform="matrix(0.07151955525372126,0,0,0.07151955525372126,14.303911050744253,0)" xlink:href="#bI"/><use transform="matrix(0.07151955525372126,0,0,0.07151955525372126,27.17743099641408,0)" xlink:href="#bI"/></g><path fill="#fff" d="M33 0v-248h34V0H33" id="ch"/><g id="aa"><use transform="matrix(0.07151955525372126,0,0,0.07151955525372126,0,0)" xlink:href="#ch"/><use transform="matrix(0.07151955525372126,0,0,0.07151955525372126,7.151955525372126,0)" xlink:href="#bN"/><use transform="matrix(0.07151955525372126,0,0,0.07151955525372126,21.455866576116378,0)" xlink:href="#ce"/><use transform="matrix(0.07151955525372126,0,0,0.07151955525372126,28.607822101488505,0)" xlink:href="#bE"/></g><g id="ab"><use transform="matrix(0.07151955525372126,0,0,0.07151955525372126,0,0)" xlink:href="#bF"/><use transform="matrix(0.07151955525372126,0,0,0.07151955525372126,12.873519945669827,0)" xlink:href="#bE"/><use transform="matrix(0.07151955525372126,0,0,0.07151955525372126,27.17743099641408,0)" xlink:href="#bG"/><use transform="matrix(0.07151955525372126,0,0,0.07151955525372126,41.481342047158336,0)" xlink:href="#bu"/></g><path fill="#fff" d="M126-127c33 6 58 20 58 59 0 88-139 92-164 29-3-8-5-16-6-25l32-3c6 27 21 44 54 44 32 0 52-15 52-46 0-38-36-46-79-43v-28c39 1 72-4 72-42 0-27-17-43-46-43-28 0-47 15-49 41l-32-3c6-42 35-63 81-64 48-1 79 21 79 65 0 36-21 52-52 59" id="ci"/><path fill="#fff" d="M101-251c68 0 85 55 85 127S166 4 100 4C33 4 14-52 14-124c0-73 17-127 87-127zm-1 229c47 0 54-49 54-102s-4-102-53-102c-51 0-55 48-55 102 0 53 5 102 54 102" id="cj"/><g id="ac"><use transform="matrix(0.07151955525372126,0,0,0.07151955525372126,0,0)" xlink:href="#ci"/><use transform="matrix(0.07151955525372126,0,0,0.07151955525372126,14.303911050744253,0)" xlink:href="#cj"/><use transform="matrix(0.07151955525372126,0,0,0.07151955525372126,28.607822101488505,0)" xlink:href="#bH"/></g><g id="ad"><use transform="matrix(0.07151955525372126,0,0,0.07151955525372126,0,0)" xlink:href="#cc"/><use transform="matrix(0.07151955525372126,0,0,0.07151955525372126,18.523564810713808,0)" xlink:href="#bQ"/><use transform="matrix(0.07151955525372126,0,0,0.07151955525372126,32.82747586145806,0)" xlink:href="#bR"/><use transform="matrix(0.07151955525372126,0,0,0.07151955525372126,38.47752072650204,0)" xlink:href="#bF"/><use transform="matrix(0.07151955525372126,0,0,0.07151955525372126,51.35104067217187,0)" xlink:href="#bw"/><use transform="matrix(0.07151955525372126,0,0,0.07151955525372126,65.65495172291612,0)" xlink:href="#bR"/><use transform="matrix(0.07151955525372126,0,0,0.07151955525372126,71.3049965879601,0)" xlink:href="#bQ"/><use transform="matrix(0.07151955525372126,0,0,0.07151955525372126,85.60890763870435,0)" xlink:href="#by"/><use transform="matrix(0.07151955525372126,0,0,0.07151955525372126,92.76086316407648,0)" xlink:href="#bP"/><use transform="matrix(0.07151955525372126,0,0,0.07151955525372126,98.41090802912046,0)" xlink:href="#bE"/><use transform="matrix(0.07151955525372126,0,0,0.07151955525372126,112.71481907986471,0)" xlink:href="#bN"/></g><path fill="#fff" d="M266 0h-40l-56-210L115 0H75L2-248h35L96-30l15-64 43-154h32l59 218 59-218h35" id="ck"/><g id="ae"><use transform="matrix(0.07151955525372126,0,0,0.07151955525372126,0,0)" xlink:href="#bt"/><use transform="matrix(0.07151955525372126,0,0,0.07151955525372126,18.523564810713808,0)" xlink:href="#bu"/><use transform="matrix(0.07151955525372126,0,0,0.07151955525372126,32.82747586145806,0)" xlink:href="#bQ"/><use transform="matrix(0.07151955525372126,0,0,0.07151955525372126,47.131386912202316,0)" xlink:href="#bG"/><use transform="matrix(0.07151955525372126,0,0,0.07151955525372126,61.43529796294658,0)" xlink:href="#bJ"/><use transform="matrix(0.07151955525372126,0,0,0.07151955525372126,68.5872534883187,0)" xlink:href="#ck"/><use transform="matrix(0.07151955525372126,0,0,0.07151955525372126,92.33174583255415,0)" xlink:href="#bD"/><use transform="matrix(0.07151955525372126,0,0,0.07151955525372126,100.84257290774698,0)" xlink:href="#bP"/><use transform="matrix(0.07151955525372126,0,0,0.07151955525372126,106.49261777279096,0)" xlink:href="#by"/><use transform="matrix(0.07151955525372126,0,0,0.07151955525372126,113.6445732981631,0)" xlink:href="#bu"/></g><path fill="#fff" d="M30-248c118-7 216 8 213 122C240-48 200 0 122 0H30v-248zM63-27c89 8 146-16 146-99s-60-101-146-95v194" id="cl"/><path fill="#fff" d="M160-131c35 5 61 23 61 61C221 17 115-2 30 0v-248c76 3 177-17 177 60 0 33-19 50-47 57zm-97-11c50-1 110 9 110-42 0-47-63-36-110-37v79zm0 115c55-2 124 14 124-45 0-56-70-42-124-44v89" id="cm"/><g id="af"><use transform="matrix(0.07151955525372126,0,0,0.07151955525372126,0,0)" xlink:href="#cl"/><use transform="matrix(0.07151955525372126,0,0,0.07151955525372126,18.523564810713808,0)" xlink:href="#cm"/></g><g id="ag"><use transform="matrix(0.07151955525372126,0,0,0.07151955525372126,0,0)" xlink:href="#bT"/><use transform="matrix(0.07151955525372126,0,0,0.07151955525372126,17.164693260893102,0)" xlink:href="#bu"/><use transform="matrix(0.07151955525372126,0,0,0.07151955525372126,31.468604311637357,0)" xlink:href="#bN"/><use transform="matrix(0.07151955525372126,0,0,0.07151955525372126,45.77251536238161,0)" xlink:href="#bG"/></g><g id="ah"><use transform="matrix(0.07151955525372126,0,0,0.07151955525372126,0,0)" xlink:href="#bX"/><use transform="matrix(0.07151955525372126,0,0,0.07151955525372126,21.38434702086266,0)" xlink:href="#bu"/><use transform="matrix(0.07151955525372126,0,0,0.07151955525372126,35.68825807160691,0)" xlink:href="#bx"/><use transform="matrix(0.07151955525372126,0,0,0.07151955525372126,48.56177801727674,0)" xlink:href="#bx"/><use transform="matrix(0.07151955525372126,0,0,0.07151955525372126,61.435297962946564,0)" xlink:href="#bQ"/><use transform="matrix(0.07151955525372126,0,0,0.07151955525372126,75.7392090136908,0)" xlink:href="#bV"/><use transform="matrix(0.07151955525372126,0,0,0.07151955525372126,90.04312006443506,0)" xlink:href="#bu"/></g><path fill="#fff" d="M63-220v92h138v28H63V0H30v-248h175v28H63" id="cn"/><g id="ai"><use transform="matrix(0.07151955525372126,0,0,0.07151955525372126,0,0)" xlink:href="#cn"/><use transform="matrix(0.07151955525372126,0,0,0.07151955525372126,15.662782600564958,0)" xlink:href="#bE"/><use transform="matrix(0.07151955525372126,0,0,0.07151955525372126,29.96669365130921,0)" xlink:href="#bD"/><use transform="matrix(0.07151955525372126,0,0,0.07151955525372126,38.47752072650204,0)" xlink:href="#bX"/><use transform="matrix(0.07151955525372126,0,0,0.07151955525372126,59.8618677473647,0)" xlink:href="#bQ"/><use transform="matrix(0.07151955525372126,0,0,0.07151955525372126,74.16577879810895,0)" xlink:href="#by"/><use transform="matrix(0.07151955525372126,0,0,0.07151955525372126,81.31773432348108,0)" xlink:href="#by"/><use transform="matrix(0.07151955525372126,0,0,0.07151955525372126,88.4696898488532,0)" xlink:href="#bP"/><use transform="matrix(0.07151955525372126,0,0,0.07151955525372126,94.11973471389719,0)" xlink:href="#bN"/><use transform="matrix(0.07151955525372126,0,0,0.07151955525372126,108.42364576464144,0)" xlink:href="#bV"/></g><g id="aj"><use transform="matrix(0.07151955525372126,0,0,0.07151955525372126,0,0)" xlink:href="#cf"/><use transform="matrix(0.07151955525372126,0,0,0.07151955525372126,14.303911050744253,0)" xlink:href="#bE"/><use transform="matrix(0.07151955525372126,0,0,0.07151955525372126,28.607822101488505,0)" xlink:href="#bQ"/><use transform="matrix(0.07151955525372126,0,0,0.07151955525372126,42.911733152232756,0)" xlink:href="#bG"/></g><g id="ak"><use transform="matrix(0.07151955525372126,0,0,0.07151955525372126,0,0)" xlink:href="#ce"/><use transform="matrix(0.07151955525372126,0,0,0.07151955525372126,7.151955525372126,0)" xlink:href="#bD"/><use transform="matrix(0.07151955525372126,0,0,0.07151955525372126,15.662782600564958,0)" xlink:href="#bE"/><use transform="matrix(0.07151955525372126,0,0,0.07151955525372126,29.966693651309207,0)" xlink:href="#bX"/></g></defs></g></svg>